<svg preserveAspectRatio="none" width="100%" height="100%" overflow="visible" style="display: block;" viewBox="0 0 64 63.8939" fill="none" xmlns="http://www.w3.org/2000/svg">
<g id="LOGOMARK_ESPRESSO 2" opacity="0.16" clip-path="url(#clip0_0_23)">
<path id="Vector" d="M33.4024 39.6555C33.4024 40.1796 33.3608 40.4699 33.3306 40.7038C33.308 40.881 33.2931 40.998 33.2931 41.2921C33.2968 41.7256 33.2892 41.9407 33.2854 42.1556C33.2817 42.3516 33.2779 42.5439 33.2779 42.9324C33.2779 43.1888 33.2968 43.2794 33.3269 43.4453C33.3721 43.6828 33.4325 44.0033 33.4325 44.569C33.4325 44.8594 33.4476 44.9763 33.474 45.1498C33.5079 45.3835 33.5495 45.6777 33.5495 46.2056C33.5495 46.7675 33.489 47.0918 33.4476 47.3294C33.4173 47.4953 33.4024 47.5858 33.4024 47.8423L33.4098 47.8572C33.4136 48.3927 33.3684 48.6869 33.3344 48.9244C33.3081 49.0941 33.2931 49.2073 33.2931 49.4938C33.2968 49.6447 33.3005 49.6597 33.3458 49.803C33.4513 50.1349 33.5569 50.512 33.5569 51.1305C33.5606 51.7338 33.4665 52.1033 33.3722 52.4276C33.3269 52.5785 33.3194 52.6049 33.3194 52.7708C33.3231 53.1894 33.3194 53.3968 33.3194 53.608V54.4074C33.3194 54.9014 33.2929 55.1767 33.2703 55.3954C33.2553 55.5764 33.2402 55.7197 33.2402 56.0477H30.1632C30.1557 56.3155 30.1292 56.5343 30.0954 56.7229C30.1406 56.9566 30.1707 57.2244 30.1632 57.575C30.1557 57.8616 30.1292 58.0954 30.0916 58.2953C30.1443 58.5291 30.1783 58.8081 30.1707 59.1474C30.1632 59.551 30.1218 59.83 30.0728 60.0713C30.0954 60.2561 30.1067 60.4636 30.1029 60.72L30.0916 61.3874C30.1028 61.5985 30.1142 61.84 30.1066 62.2925C30.0991 62.6922 30.0916 62.892 30.0877 63.0919C30.0802 63.288 30.0765 63.4803 30.069 63.865H30.0501L26.6564 63.7933H26.3887C26.3924 63.4614 26.4302 63.205 26.4791 62.9826C26.4453 62.7713 26.4226 62.5263 26.4301 62.2208C26.4377 61.708 26.4829 61.4251 26.5206 61.1988C26.547 61.0329 26.5658 60.9236 26.5697 60.6521C26.5734 60.4636 26.5847 60.309 26.5998 60.1657C26.532 59.8867 26.4791 59.5623 26.4867 59.0758C26.4904 58.8986 26.5017 58.744 26.5206 58.6044C26.5168 58.5216 26.5131 58.4498 26.5131 58.3782C26.5093 58.299 26.5054 58.2161 26.5054 58.1294C26.4791 57.9446 26.4641 57.7372 26.4679 57.4959C26.4754 57.0282 26.5206 56.7341 26.5621 56.5154C26.5432 56.3419 26.5319 56.1495 26.5357 55.9195L29.839 55.9837C29.8427 55.5275 29.8653 55.2597 29.888 55.0485C29.9031 54.8675 29.9181 54.7279 29.9181 54.4037C29.9143 53.9851 29.9181 53.7777 29.9181 53.5665V52.7671C29.9143 52.1637 30.0087 51.7941 30.1029 51.4698C30.1481 51.3191 30.1557 51.2926 30.1557 51.1267C30.152 50.9759 30.1481 50.9607 30.1029 50.8175C29.9973 50.4856 29.8917 50.1086 29.8917 49.4901C29.8879 48.9547 29.9332 48.6606 29.9672 48.4229C29.9935 48.2533 30.0086 48.1401 30.0086 47.8535C30.0086 47.2916 30.0689 46.9674 30.1104 46.7297C30.1406 46.5638 30.1557 46.4733 30.1557 46.2169C30.1557 45.9265 30.1406 45.8096 30.1142 45.6362C30.0803 45.4024 30.0387 45.1082 30.0387 44.5803C30.0387 44.3238 30.0199 44.2334 29.9898 44.0674C29.9445 43.8299 29.8841 43.5055 29.8841 42.9399C29.8804 42.5101 29.8879 42.2952 29.8917 42.0802C29.8954 41.8841 29.8992 41.688 29.8992 41.2996C29.8992 40.7755 29.9407 40.485 29.9709 40.2512C29.9935 40.0739 30.0086 39.9534 30.0086 39.6555H33.4024Z" fill="var(--fill-0, #2E2720)"/>
<path id="Vector_2" d="M37.5569 37.408C37.719 37.6268 37.7907 37.7021 37.9151 37.8228C38.0923 37.9963 38.3111 38.2113 38.6315 38.6525C38.8352 38.9315 38.9408 39.0523 39.0614 39.1956C39.2047 39.3653 39.3706 39.5575 39.6496 39.9421C39.9665 40.3795 40.1097 40.6737 40.238 40.9603C40.3059 41.1111 40.3359 41.179 40.4717 41.3676C40.6678 41.6353 40.7621 41.7446 40.8866 41.8842C41.0374 42.0576 41.2108 42.2538 41.4974 42.6459C41.735 42.9702 41.8556 43.1324 41.9763 43.2945C42.0969 43.4604 42.2214 43.6264 42.4665 43.962C42.7795 44.3919 42.9151 44.6521 43.0283 44.8632C43.1113 45.0179 43.164 45.1235 43.3337 45.3535C43.4355 45.4892 43.4582 45.5118 43.5826 45.6061C43.8466 45.8135 44.137 46.0549 44.4876 46.5376C44.7893 46.9524 44.9289 47.205 45.042 47.4049C45.1287 47.5632 45.189 47.6764 45.3701 47.9215C45.5962 48.2345 45.7169 48.3891 45.8339 48.5437C45.9658 48.7171 46.0978 48.8869 46.3504 49.2338C46.554 49.5165 46.6596 49.6372 46.7803 49.7805C46.9236 49.9502 47.0857 50.1425 47.3648 50.5233L44.729 52.4428C44.8835 52.6691 44.993 52.8539 45.0758 53.0084C45.0834 53.0161 45.0872 53.0273 45.0947 53.0348C45.2191 53.2046 45.3436 53.3706 45.5812 53.7137C45.7584 53.9663 45.8791 54.1926 45.9658 54.3963C46.0789 54.5546 46.1995 54.7206 46.4258 55.0448C46.603 55.2974 46.6859 55.3955 46.8029 55.5313C46.8896 55.6255 46.9877 55.7462 47.1122 55.9047C47.2064 56.0102 47.3044 56.1347 47.4062 56.2779C47.6098 56.572 47.7305 56.8096 47.8249 57.0245C47.8701 57.115 47.9078 57.2017 47.9454 57.2886C48.0058 57.4356 48.0322 57.496 48.1567 57.6732C48.3376 57.9333 48.4282 58.0389 48.5413 58.1747L48.5488 58.1634C48.6921 58.3332 48.8543 58.5217 49.1257 58.91L49.0654 58.9516L48.9975 58.9967L46.3392 60.8521L46.211 60.9388C45.981 60.6107 45.8677 60.441 45.7547 60.2751C45.6491 60.1168 45.5397 59.9584 45.321 59.6454C44.9816 59.1552 44.8497 58.8044 44.7478 58.4839C44.7215 58.401 44.7063 58.3595 44.6837 58.318C44.6648 58.2878 44.6423 58.2576 44.6159 58.2199C44.5932 58.1898 44.5782 58.1672 44.5593 58.1407C44.5479 58.1369 44.5366 58.1295 44.5253 58.1219C44.2123 57.9259 43.8466 57.6656 43.4582 57.1113C43.2207 56.7682 43.085 56.4778 42.9944 56.2214C42.9869 56.2063 42.9793 56.1911 42.9718 56.176C42.8963 56.0252 42.851 55.9348 42.7002 55.7161C42.5758 55.5388 42.4854 55.3917 42.4099 55.256C42.3835 55.222 42.3572 55.1918 42.3307 55.1579C42.1987 54.992 42.0479 54.8035 41.7878 54.4339L41.882 54.3698L44.152 52.7861L44.5931 52.4768C44.4085 52.2279 44.3067 52.1072 44.1935 51.9715C44.0503 51.8056 43.8881 51.6132 43.609 51.2323C43.3828 50.9193 43.2621 50.7647 43.1452 50.6102C43.0132 50.4366 42.8813 50.2669 42.6287 49.9201C42.3269 49.5053 42.1875 49.2526 42.0743 49.0527C41.9876 48.8944 41.9272 48.7812 41.7463 48.5362C41.6445 48.4004 41.6219 48.3777 41.4974 48.2835C41.2334 48.0761 40.943 47.8347 40.5923 47.3521C40.2795 46.9223 40.1437 46.662 40.0306 46.4508C39.9476 46.2963 39.8948 46.1906 39.7251 45.9606C39.4876 45.6363 39.3668 45.4741 39.2461 45.312C39.1255 45.1461 39.001 44.9801 38.756 44.6446C38.5599 44.3768 38.4657 44.2674 38.3412 44.1279C38.1904 43.9544 38.0168 43.7621 37.7303 43.3662C37.4136 42.9288 37.2703 42.6346 37.1421 42.348C37.0743 42.1972 37.044 42.1294 36.9083 41.9408C36.7047 41.6617 36.5991 41.5411 36.4784 41.3978C36.3351 41.2281 36.1692 41.0357 35.8902 40.6511C35.7319 40.4324 35.6564 40.357 35.5319 40.2363C35.3547 40.0628 35.136 39.8479 34.8155 39.4067L37.5569 37.408Z" fill="var(--fill-0, #2E2720)"/>
<path id="Vector_3" d="M28.6958 39.101C28.4281 39.4706 28.2735 39.6592 28.1377 39.8252C28.0247 39.9684 27.9077 40.1079 27.6965 40.402C27.425 40.7753 27.2705 40.9639 27.1347 41.1299H27.1309C27.014 41.2694 26.9009 41.4126 26.6898 41.703C26.3806 42.1329 26.1731 42.3478 26.0072 42.5175C25.8829 42.6457 25.8036 42.7287 25.634 42.9625C25.3737 43.3246 25.2343 43.5018 25.0947 43.6752C24.9817 43.8223 24.8647 43.9693 24.6459 44.271C24.3518 44.6745 24.1671 44.8819 24.0162 45.0479C23.8956 45.1798 23.8013 45.2854 23.6128 45.5456C23.5298 45.6587 23.5261 45.6701 23.4808 45.8132C23.3715 46.149 23.2357 46.5185 22.87 47.0238C22.6549 47.3179 22.5532 47.4726 22.4551 47.6271C22.3307 47.8157 22.2062 48.008 21.9422 48.3738C21.5954 48.8565 21.3088 49.0978 21.0449 49.3052C20.9242 49.3995 20.8979 49.4222 20.7961 49.5617C20.6905 49.7088 20.6791 49.7427 20.6225 49.8898C20.5056 50.2027 20.3661 50.5421 20.0192 51.021C19.7477 51.3981 19.5893 51.5867 19.4498 51.7564C19.3292 51.9034 19.2236 52.0278 19.0162 52.3144L16.2748 50.3272C16.1616 50.4742 16.0599 50.5912 15.9656 50.693C15.86 50.9003 15.7167 51.1757 15.4075 51.5866C15.1322 51.9524 14.9739 52.1334 14.8305 52.2956C14.7401 52.3974 14.6609 52.4879 14.5402 52.6387C14.5025 52.6953 14.4686 52.7482 14.4195 52.8123C14.3102 52.9593 14.2273 53.0686 14.1594 53.163C14.1557 53.1742 14.1519 53.1856 14.1443 53.1969C14.0387 53.408 13.8953 53.6947 13.5635 54.1359C13.3373 54.4337 13.1526 54.6299 12.9829 54.7882C12.8962 54.9692 12.7755 55.169 12.6133 55.384C12.372 55.7045 12.1759 55.9044 11.9911 56.0703C11.9044 56.2136 11.7875 56.387 11.6216 56.6058L11.5198 56.5303L8.8124 54.4828C8.90289 54.3584 8.98963 54.2565 9.06882 54.166C9.07259 54.1585 9.07632 54.1472 9.08385 54.1359C9.21206 53.8606 9.35541 53.5814 9.67216 53.163C9.84937 52.9291 10.0077 52.7556 10.1472 52.6199C10.2415 52.3974 10.3773 52.1523 10.5847 51.8807C10.9316 51.4207 11.2106 51.1906 11.467 50.9946C11.5047 50.9645 11.531 50.9418 11.5536 50.923C11.599 50.8664 11.6367 50.8098 11.6858 50.742C11.8102 50.5798 11.8328 50.5271 11.8969 50.3838C11.9384 50.2895 11.9874 50.1915 12.0402 50.0896C12.1421 49.8822 12.274 49.6522 12.4852 49.3732C12.8056 48.947 13.047 48.7283 13.2845 48.5284C13.2959 48.5209 13.2997 48.5172 13.3072 48.5096C13.3713 48.4116 13.4467 48.306 13.5334 48.189L16.2409 50.2367L16.3012 50.2819C16.5538 49.935 16.7085 49.7503 16.8404 49.5881C16.9611 49.441 17.0667 49.3165 17.2741 49.0299C17.3797 48.8829 17.3947 48.8451 17.4476 48.7018C17.5644 48.3888 17.7039 48.0494 18.0508 47.5705C18.3977 47.0878 18.6843 46.8466 18.9482 46.6392C19.0689 46.5448 19.0953 46.5222 19.1971 46.3828C19.4121 46.0886 19.514 45.934 19.6119 45.7794C19.7364 45.5909 19.8608 45.3985 20.1248 45.0327C20.2078 44.9196 20.2115 44.9083 20.2567 44.765C20.3661 44.4293 20.5019 44.0599 20.8676 43.5546C21.1617 43.1511 21.3465 42.9436 21.4973 42.7778C21.618 42.6457 21.7122 42.5401 21.9008 42.2799C22.161 41.9179 22.3005 41.7407 22.4401 41.5673C22.5532 41.4202 22.6701 41.2731 22.8888 40.9714C23.198 40.5416 23.4054 40.3265 23.5713 40.1569C23.6957 40.0287 23.775 39.9457 23.9447 39.7119C24.2161 39.3386 24.3707 39.15 24.5064 38.9841C24.6233 38.8446 24.7365 38.7013 24.9477 38.4109C25.2154 38.0414 25.37 37.8528 25.5058 37.6869C25.6188 37.5437 25.7357 37.4041 25.947 37.11L28.6958 39.101Z" fill="var(--fill-0, #2E2720)"/>
<path id="Vector_4" d="M39.7505 32.9765C40.071 33.0821 40.2181 33.116 40.4029 33.1575C40.6216 33.2065 40.8742 33.2669 41.3305 33.4139C41.8772 33.5912 42.179 33.7684 42.4617 33.9456C42.5975 34.0324 42.639 34.0587 42.8276 34.1191C43.035 34.1869 43.1028 34.1907 43.265 34.2058C43.5855 34.2322 43.9136 34.2737 44.4415 34.4433C44.8675 34.5829 45.0786 34.6621 45.2898 34.7412C45.4595 34.8092 45.633 34.8733 45.9836 34.9864C46.3192 35.0957 46.4777 35.1372 46.6624 35.1824C46.8774 35.2353 47.1188 35.2956 47.56 35.4389C47.937 35.5595 48.1256 35.6162 48.3141 35.6727C48.5139 35.7331 48.7175 35.7934 49.121 35.9253C49.4302 36.0272 49.5735 36.0574 49.7507 36.0951C49.9656 36.1403 50.2371 36.2007 50.7047 36.3515C51.2552 36.5288 51.5531 36.6984 51.768 36.8191C51.9113 36.9021 51.983 36.9436 52.2092 37.0152C52.526 37.117 52.6731 37.151 52.854 37.1925C53.0766 37.2415 53.3292 37.2981 53.7893 37.4489C54.37 37.6374 54.6943 37.8449 54.9771 38.0409C55.1015 38.1276 55.1203 38.139 55.2675 38.188L54.2682 41.2802C54.302 41.2914 54.3397 41.3065 54.37 41.314H54.4265C54.7734 41.314 55.192 41.3254 55.7953 41.5328C56.2892 41.7025 56.5645 41.857 56.8248 42.0117C56.8586 42.0306 56.8851 42.0456 56.9115 42.0607C57.0133 42.0908 57.1226 42.1248 57.2433 42.1663C57.3903 42.2153 57.5186 42.2643 57.6279 42.3096C57.873 42.3322 58.2313 42.3662 58.7706 42.5547C59.3511 42.7545 59.6943 43.011 59.9582 43.2447C60.0223 43.2674 60.0903 43.2938 60.1694 43.3202C60.3882 43.3957 60.4674 43.4069 60.6257 43.4295V43.4372C60.8595 43.4711 61.18 43.5164 61.7004 43.6973V43.7049L61.1536 45.2774L60.5918 46.9026L60.5804 46.9289C60.4108 46.8687 60.3655 46.8649 60.2185 46.8536C59.9734 46.8348 59.6038 46.8046 59.0307 46.6047C58.7253 46.4992 58.4876 46.3784 58.2916 46.254C58.2878 46.2502 58.2803 46.2465 58.2765 46.2465C58.1031 46.1786 57.9296 46.1146 57.5789 45.9939C57.0925 45.8279 56.836 45.696 56.6325 45.5904C56.4778 45.5564 56.3081 45.5112 56.1084 45.4433C55.8821 45.3641 55.7161 45.3 55.5803 45.2471C55.3579 45.2133 55.06 45.1604 54.5961 44.9983C54.2379 44.8738 54.0608 44.8173 53.8797 44.7569C53.6837 44.6928 53.4913 44.6288 53.1029 44.493L54.1738 41.4046C53.6271 41.2198 53.3141 41.0199 53.0389 40.8276C52.9144 40.7409 52.8955 40.7295 52.7484 40.6805C52.4317 40.5787 52.2846 40.5448 52.1036 40.5033C51.8812 40.4542 51.6286 40.3977 51.1686 40.2468C50.6181 40.0696 50.3201 39.9 50.1052 39.7793C49.9619 39.6963 49.8902 39.6548 49.664 39.5832C49.3547 39.4814 49.2114 39.4512 49.0342 39.4136C48.8193 39.3682 48.5478 39.308 48.0802 39.1571C47.7031 39.0326 47.5146 38.9761 47.326 38.9195C47.1262 38.8592 46.9226 38.7988 46.5192 38.6668C46.1836 38.5575 46.0251 38.516 45.8403 38.4708C45.6254 38.4179 45.3841 38.3576 44.9429 38.2143C44.513 38.0748 44.3018 37.9956 44.0907 37.9164C43.9173 37.8486 43.7476 37.7844 43.3969 37.6713C43.1895 37.6034 43.1216 37.5996 42.9595 37.5845C42.639 37.5581 42.3109 37.5167 41.783 37.347C41.2363 37.1697 40.9345 36.9926 40.6518 36.8153C40.516 36.7324 40.4745 36.7022 40.2859 36.6418C39.9655 36.54 39.8184 36.5024 39.6336 36.4609C39.4149 36.4118 39.1623 36.3515 38.7061 36.2044L39.7505 32.9765Z" fill="var(--fill-0, #2E2720)"/>
<path id="Vector_5" d="M25.0269 35.5521C24.8006 35.6275 24.7289 35.6653 24.5857 35.7482C24.3669 35.8688 24.0728 36.0386 23.5186 36.2196C23.1189 36.3515 22.919 36.4119 22.7192 36.476C22.5305 36.5363 22.3382 36.5967 21.9574 36.7211C21.6821 36.8116 21.5765 36.8607 21.4181 36.9399C21.2069 37.0455 20.9393 37.1737 20.4378 37.3396C19.9552 37.4979 19.6685 37.5469 19.3668 37.5922C19.201 37.6186 19.0991 37.6338 18.8426 37.7167C18.4355 37.8487 18.2318 37.909 18.0282 37.9731C17.8435 38.0335 17.6549 38.09 17.2816 38.2107C16.8593 38.3465 16.6444 38.4068 16.4294 38.4671C16.2485 38.5199 16.0674 38.5689 15.7129 38.6858C15.3999 38.7876 15.268 38.8441 15.0983 38.9195C14.8871 39.0137 14.6458 39.1195 14.1783 39.2703C13.8842 39.3645 13.7672 39.4211 13.6012 39.4966C13.3938 39.5908 13.1337 39.7115 12.651 39.8698C12.1684 40.0283 11.8931 40.0848 11.6706 40.1301C11.4896 40.1639 11.3614 40.1904 11.0635 40.2884C10.5771 40.4506 10.2981 40.5035 10.0718 40.5487L10.0756 40.5524C9.90213 40.5864 9.77394 40.6128 9.48362 40.707L8.47678 37.6299C8.25432 37.6978 8.1525 37.7468 8.00922 37.8109C7.79807 37.9052 7.53785 38.0258 7.04767 38.1767C6.7347 38.271 6.47069 38.3162 6.24067 38.335C6.16149 38.3464 6.08981 38.3577 6.0257 38.3691C5.99933 38.3728 5.9729 38.3766 5.94651 38.3803C5.82587 38.418 5.69013 38.4633 5.50539 38.5199C5.38474 38.5576 5.27162 38.584 5.16604 38.6066C5.1208 38.6255 5.07549 38.6481 5.02269 38.6745C4.81908 38.7725 4.54002 38.912 4.03099 39.0666C3.7595 39.1496 3.53698 39.1948 3.3409 39.225C3.13351 39.3306 2.88838 39.4323 2.53017 39.5418C2.13802 39.6586 1.9382 39.7153 1.74213 39.7719C1.56112 39.8246 1.3801 39.8736 1.02187 39.983L1.01057 39.9491L0.0225954 36.7023L0 36.6231C0.252644 36.5477 0.343156 36.5024 0.493989 36.4307C0.705142 36.3289 0.969099 36.2007 1.47057 36.0499C1.74206 35.967 1.84391 35.9216 2.00228 35.8499C2.2059 35.7595 2.46231 35.6425 2.94497 35.4956C3.32205 35.3786 3.60868 35.3372 3.86132 35.3221C4.02346 35.2542 4.21199 35.1863 4.46839 35.1071C4.89825 34.9789 5.22632 34.9412 5.50912 34.9412C5.6411 34.896 5.79954 34.8432 6.01824 34.7791C6.27463 34.7 6.4443 34.6509 6.58759 34.6094C6.81384 34.4812 7.0929 34.3492 7.49637 34.2248L7.53026 34.3341L7.53783 34.3642L8.48051 37.4602C8.93298 37.3132 9.20826 37.2567 9.4232 37.2152C9.59665 37.1812 9.7249 37.1548 10.0152 37.0605C10.4979 36.9022 10.7731 36.8456 10.9957 36.8004C11.1767 36.7664 11.3049 36.74 11.6027 36.6419C11.8969 36.5477 12.0139 36.4911 12.1797 36.4156C12.3871 36.3214 12.6436 36.2007 13.13 36.0424C13.4392 35.9406 13.5711 35.8839 13.7408 35.8085C13.9519 35.7143 14.1934 35.6087 14.6609 35.4579C15.0869 35.3183 15.3019 35.2579 15.5169 35.1976C15.6978 35.1486 15.8752 35.0996 16.2296 34.9827C16.633 34.8507 16.8366 34.7866 17.0402 34.7263C17.225 34.6659 17.4136 34.6093 17.7869 34.4886C18.2695 34.3303 18.5562 34.2814 18.8578 34.236C19.0237 34.2097 19.1255 34.1945 19.3819 34.1116C19.6609 34.0211 19.7666 33.9721 19.9249 33.8929C20.1399 33.7911 20.4039 33.6591 20.9054 33.4969C21.305 33.365 21.5048 33.3046 21.7047 33.2405C21.8932 33.1802 22.0856 33.1198 22.4664 32.9954C22.6926 32.9199 22.7644 32.8823 22.9076 32.7993C23.1226 32.6786 23.4205 32.5089 23.971 32.3279L25.0269 35.5521Z" fill="var(--fill-0, #2E2720)"/>
<path id="Vector_6" d="M55.4405 26.1888C55.3624 26.214 55.2845 26.2567 55.2065 26.317C54.9162 26.5395 54.5844 26.7695 53.9734 26.9694C53.4493 27.139 53.1176 27.1807 52.797 27.2108C52.635 27.2259 52.567 27.2334 52.3596 27.3012C51.9184 27.4446 51.6771 27.5086 51.4659 27.5615C51.2812 27.6067 51.1227 27.6482 50.7872 27.7575C50.5421 27.8367 50.4629 27.882 50.3121 27.9612C50.101 28.0743 49.8144 28.2327 49.2789 28.4062C48.8642 28.542 48.6567 28.606 48.4493 28.6663C48.2646 28.7191 48.0797 28.7719 47.714 28.8926C47.3558 29.0095 47.1747 29.0773 46.9975 29.1414C46.7902 29.2169 46.5828 29.2923 46.1642 29.4281C45.8173 29.5411 45.6475 29.609 45.4741 29.6731C45.263 29.7523 45.0518 29.8353 44.6219 29.9749C44.3203 30.073 44.1921 30.1294 44.0262 30.2049C43.8225 30.2991 43.5699 30.4123 43.0947 30.5669C42.4499 30.7743 42.005 30.7668 41.6354 30.7479C41.6015 30.7442 41.5676 30.7442 41.5261 30.7442C41.5297 30.7442 41.4995 30.748 41.4356 30.7705C41.2056 30.8459 41.1339 30.8874 40.9869 30.9704C40.7719 31.0911 40.4777 31.257 39.9272 31.438L38.8752 28.2138C39.1052 28.1384 39.1768 28.0969 39.3239 28.0139C39.5388 27.8932 39.8368 27.7274 40.3835 27.5464C41.0284 27.339 41.4734 27.3464 41.8428 27.3653C41.8768 27.3691 41.9108 27.3691 41.9523 27.3691C41.9484 27.3691 41.9786 27.3653 42.0427 27.3427C42.3443 27.2447 42.4725 27.1882 42.6384 27.1127C42.8421 27.0185 43.0947 26.9053 43.5699 26.7507C43.9206 26.6376 44.0903 26.5696 44.2637 26.5055C44.4748 26.4226 44.686 26.3435 45.1121 26.204C45.4742 26.087 45.6514 26.0191 45.8324 25.955C46.036 25.8795 46.2434 25.8042 46.6581 25.6684C47.0692 25.5364 47.2766 25.4723 47.484 25.412C47.6725 25.3554 47.8572 25.3027 48.2231 25.182C48.4682 25.1028 48.5473 25.0575 48.6982 24.9783C48.9094 24.8652 49.1959 24.7068 49.7313 24.5333C50.1725 24.39 50.4101 24.326 50.6212 24.2732C50.806 24.2241 50.9682 24.1827 51.3038 24.0733C51.8279 23.9037 52.1598 23.8621 52.4803 23.832C52.6424 23.8169 52.7103 23.8093 52.9177 23.7414C52.9956 23.7164 53.0735 23.6736 53.1514 23.6132V23.6171C53.4418 23.3946 53.7737 23.1645 54.3845 22.9646L55.4405 26.1888Z" fill="var(--fill-0, #2E2720)"/>
<path id="Vector_7" d="M3.36464 16.8558C3.80956 17.0105 4.03582 17.116 4.23943 17.2065C4.3978 17.2782 4.52603 17.3386 4.8239 17.4403C5.08785 17.5309 5.201 17.5535 5.36691 17.5874C5.58938 17.6327 5.86844 17.6892 6.34732 17.8551C6.51701 17.9155 6.66035 17.9721 6.78855 18.0286C6.79609 18.0325 6.80362 18.0324 6.81115 18.0324C7.0374 18.0701 7.3504 18.1192 7.85945 18.2964C8.30815 18.451 8.5533 18.5679 8.74937 18.6622C8.9266 18.6961 9.11892 18.7414 9.34514 18.8205C9.82402 18.9864 10.137 19.1826 10.3821 19.3712C10.4839 19.4202 10.5782 19.4654 10.7666 19.5295L10.7328 19.6238L9.65433 22.7423C9.75237 22.7762 9.79012 22.7763 9.91832 22.7763C10.2652 22.78 10.6536 22.7989 11.2418 22.9874C11.7433 23.1496 12.0074 23.2778 12.2185 23.3796C12.3807 23.4551 12.4863 23.5078 12.7652 23.5983C13.2819 23.7642 13.5684 23.9189 13.8399 24.0734C13.9832 24.1564 14.0473 24.1942 14.2698 24.2658C14.3252 24.2879 14.3516 24.2884 14.3527 24.2884C14.3829 24.2884 14.4169 24.2809 14.4507 24.2808C14.824 24.2545 15.2766 24.2394 15.9289 24.4505C16.4153 24.6089 16.6756 24.7372 16.9471 24.8768C17.0979 24.9521 17.1884 25.0011 17.4448 25.0841C18.0406 25.2765 18.3649 25.4839 18.5798 25.6196C18.7118 25.7063 18.7533 25.7289 18.9342 25.7892C19.2472 25.8911 19.3905 25.9212 19.5715 25.9627C19.794 26.0118 20.0504 26.0683 20.5142 26.2192C20.797 26.3097 20.914 26.3323 21.0912 26.3624C21.3212 26.4039 21.6078 26.453 22.1055 26.6152C22.5617 26.7622 22.7956 26.8601 23.003 26.9469C23.1802 27.0223 23.3198 27.0789 23.644 27.1845C23.8627 27.2561 23.9381 27.2636 24.1002 27.2788C24.417 27.309 24.7413 27.3543 25.2579 27.5202L24.2134 30.7481C23.9947 30.6764 23.9193 30.6689 23.7572 30.6537C23.4442 30.6236 23.1198 30.5822 22.5995 30.4125C22.1433 30.2654 21.9094 30.1673 21.702 30.0806C21.5248 30.0052 21.3853 29.9486 21.0611 29.8431C20.7782 29.7525 20.6613 29.7298 20.484 29.6997C20.2502 29.6582 19.9636 29.6093 19.466 29.4471C19.153 29.3453 19.0097 29.315 18.8286 29.2735C18.6062 29.2246 18.3497 29.168 17.886 29.0171C17.2902 28.8248 16.9658 28.6175 16.7509 28.4818C16.619 28.3951 16.5775 28.3723 16.3965 28.3121C15.9101 28.1537 15.6499 28.0255 15.3785 27.8859C15.2276 27.8067 15.1371 27.7615 14.8807 27.6785C14.8006 27.6531 14.7978 27.6556 14.7977 27.6558C14.7675 27.6558 14.7336 27.6635 14.6996 27.6635C14.3263 27.6898 13.8738 27.705 13.2215 27.4937C12.7049 27.3279 12.4183 27.1732 12.1468 27.0186C12.0036 26.9357 11.9394 26.8979 11.717 26.8263C11.2155 26.6641 10.9515 26.5359 10.7403 26.4341C10.5782 26.3586 10.4726 26.3059 10.1935 26.2153C10.054 26.1701 10.0351 26.1701 9.88433 26.1701C9.53742 26.1664 9.14906 26.1474 8.56084 25.9589L9.57514 22.8177C9.38283 22.7499 9.21691 22.6744 9.06986 22.5991C8.97937 22.5651 8.90018 22.5311 8.821 22.501C8.65508 22.4331 8.4891 22.3691 8.1535 22.2521C7.72744 22.1051 7.50877 22.0145 7.3127 21.9316C7.29762 21.924 7.2825 21.9202 7.26742 21.9127C7.08642 21.8787 6.89411 21.8298 6.66034 21.7506C6.47181 21.6827 6.32097 21.6223 6.18522 21.5582H6.17392C5.88734 21.5055 5.61581 21.4489 5.15578 21.2905C4.77116 21.1548 4.54107 21.053 4.36008 20.97C4.164 20.9323 3.94527 20.8757 3.66625 20.7815C3.31181 20.657 3.06673 20.5401 2.85934 20.4195L2.86308 20.4118C2.70095 20.3591 2.5124 20.2988 2.20698 20.1932L2.24845 20.0762L3.3609 16.8709H3.36464V16.8558Z" fill="var(--fill-0, #2E2720)"/>
<path id="Vector_8" d="M62.9355 23.9532L63.9234 27.1999V27.2037L63.995 27.4338C63.5162 27.5808 63.2409 27.626 63.0185 27.6638C62.845 27.6939 62.7318 27.7127 62.4603 27.7957C62.0795 27.9088 61.8042 27.9578 61.5591 27.9842C61.3969 28.0521 61.1972 28.1276 60.9407 28.2068C60.541 28.3274 60.3412 28.3802 60.1375 28.4368C59.9604 28.4858 59.783 28.5348 59.4286 28.6404C59.0817 28.7459 58.9119 28.8025 58.7385 28.8628C58.6706 28.8855 58.6028 28.9081 58.5274 28.9345C58.3652 29.01 58.1729 29.0854 57.9392 29.157C57.6187 29.2551 57.4716 29.3115 57.3057 29.3756C57.2868 29.3795 57.2716 29.387 57.2528 29.3945C57.0454 29.4963 56.8041 29.602 56.4572 29.7075L56.4459 29.6661L55.458 26.4193L55.4429 26.374C55.7596 26.2759 55.9255 26.2195 56.0801 26.1629C56.2951 26.0498 56.5515 25.9366 56.9248 25.8235C57.2038 25.7405 57.3131 25.6877 57.4715 25.6199C57.479 25.6161 57.4904 25.6086 57.4979 25.6086C57.7242 25.4804 57.9957 25.3483 58.3916 25.2276C58.7347 25.1221 58.9836 25.073 59.1834 25.0429C59.3644 24.9901 59.5493 24.9374 59.9113 24.828C60.1564 24.7526 60.3524 24.7073 60.5297 24.6771C60.7257 24.5904 60.9784 24.4811 61.412 24.349C61.7627 24.2434 61.9362 24.1869 62.1096 24.1265C62.3095 24.0587 62.5094 23.9908 62.9091 23.8702L62.9355 23.9532Z" fill="var(--fill-0, #2E2720)"/>
<path id="Vector_9" d="M47.5874 13.481C47.5007 13.5979 47.4969 13.6093 47.4517 13.7524C47.3424 14.088 47.2065 14.4577 46.8408 14.9629C46.5241 15.4004 46.2903 15.6267 46.0564 15.8379C45.9359 15.9509 45.8792 16 45.7434 16.1885C45.4984 16.5241 45.3777 16.6938 45.2533 16.8598C45.1326 17.0218 45.0158 17.1803 44.7782 17.5084C44.5633 17.81 44.4614 17.9647 44.3596 18.1193C44.2352 18.3078 44.1145 18.4964 43.8505 18.8584C43.711 19.0545 43.6734 19.1299 43.6055 19.2807C43.5037 19.507 43.3642 19.8125 43.0248 20.28C42.6025 20.8608 42.214 21.1171 41.9802 21.2717C41.9098 21.3195 41.8546 21.3698 41.8144 21.4227C41.6748 21.615 41.6409 21.6903 41.5729 21.8412C41.4712 22.0674 41.3279 22.3766 40.9884 22.848C40.815 23.0893 40.7584 23.1949 40.6717 23.3533C40.5624 23.5607 40.4228 23.8172 40.1174 24.2395C39.7555 24.741 39.4538 24.9862 39.1748 25.1936C39.0541 25.2841 39.0389 25.2992 38.9485 25.4199C38.8203 25.5971 38.794 25.6574 38.7336 25.8045C38.6092 26.1024 38.4696 26.4079 38.1416 26.8603L35.3926 24.8692C35.5208 24.6921 35.5473 24.6317 35.6076 24.4846C35.7321 24.1829 35.8715 23.8775 36.1996 23.425C36.5616 22.9235 36.8633 22.6784 37.1423 22.471C37.263 22.3804 37.278 22.3691 37.3686 22.2447C37.542 22.0033 37.5986 21.8977 37.6853 21.7394C37.7947 21.532 37.9342 21.2756 38.2396 20.8532C38.3791 20.6609 38.4131 20.5855 38.4809 20.4346C38.5828 20.2084 38.726 19.8992 39.0654 19.4278C39.4877 18.8471 39.8761 18.5906 40.11 18.436C40.1803 18.3882 40.2356 18.3379 40.2758 18.2852C40.4153 18.0892 40.4531 18.0137 40.5209 17.8629C40.6227 17.6366 40.7623 17.3311 41.1017 16.8636C41.3166 16.5657 41.4184 16.411 41.5202 16.2564C41.6409 16.0679 41.7653 15.883 42.0292 15.5173C42.2743 15.1817 42.3951 15.0119 42.5195 14.8461C42.6401 14.6839 42.7571 14.5255 42.9946 14.1976C43.3113 13.7601 43.5452 13.5338 43.7789 13.3226C43.8995 13.2095 43.9562 13.1604 44.092 12.9719C44.1787 12.8551 44.1824 12.8437 44.2276 12.7004C44.3369 12.3648 44.4728 11.9952 44.8385 11.4899L47.5874 13.481Z" fill="var(--fill-0, #2E2720)"/>
<path id="Vector_10" d="M17.6062 2.98307C17.7947 3.25457 17.8852 3.36777 18.002 3.51106C18.1076 3.63927 18.2246 3.78255 18.3943 4.01634C18.4471 4.08421 18.4998 4.15209 18.5564 4.23504C18.5979 4.29536 18.6319 4.34441 18.6657 4.39341C18.7336 4.48013 18.7902 4.53672 18.8656 4.61212C19.0277 4.77803 19.254 5.00056 19.5669 5.44928C19.8007 5.7849 19.9177 5.9697 20.027 6.14694C20.1477 6.28646 20.2873 6.46375 20.4758 6.73525C20.7397 7.1161 20.8793 7.42909 20.9697 7.70436C21.0489 7.80994 21.1394 7.93815 21.2601 8.1116C21.4598 8.39817 21.5843 8.62066 21.6786 8.82428C21.8068 8.9638 21.9539 9.14483 22.1424 9.41632L19.4426 11.3018C19.7555 11.7392 19.8951 12.0447 20.0158 12.3426C20.0723 12.4896 20.0948 12.5388 20.2118 12.7008C20.3739 12.9233 20.4493 12.9988 20.5738 13.1233C20.7472 13.2967 20.9622 13.5116 21.2826 13.9491C21.5956 14.3751 21.7314 14.6354 21.8445 14.8428C21.9275 14.9973 21.9841 15.1029 22.1537 15.3367C22.2631 15.4875 22.2932 15.514 22.4177 15.612C22.6213 15.7741 22.923 16.0156 23.2963 16.5284C23.6206 16.9695 23.7601 17.2674 23.8883 17.5578C23.9524 17.7086 23.9826 17.7766 24.1145 17.9575C24.2879 18.1952 24.3711 18.2819 24.4954 18.4138C24.6576 18.5797 24.8612 18.7909 25.1666 19.2132C25.5098 19.6847 25.6531 19.9977 25.7549 20.224C25.8265 20.3748 25.8566 20.4464 25.9962 20.6349C26.147 20.8423 26.215 20.9065 26.3393 21.0234C26.5128 21.1893 26.7504 21.4156 27.0822 21.868C27.2179 22.0528 27.2745 22.1018 27.3952 22.2111C27.6327 22.4224 27.8741 22.6486 28.1946 23.0899C28.5264 23.5423 28.6697 23.8516 28.7942 24.1532C28.8583 24.304 28.8809 24.3606 29.0053 24.5303L26.2639 26.529C25.9321 26.0765 25.7888 25.7672 25.6644 25.4656C25.6003 25.3148 25.5776 25.2581 25.4532 25.0885C25.3175 24.9037 25.2609 24.8547 25.1402 24.7453C24.9027 24.5341 24.6613 24.3079 24.3408 23.8667C24.19 23.6593 24.1222 23.5951 23.9978 23.4782C23.8242 23.3123 23.5867 23.086 23.2548 22.6297C22.9117 22.1584 22.7684 21.8454 22.6666 21.6191C22.595 21.4646 22.5648 21.3929 22.4253 21.2043C22.2518 20.9668 22.1688 20.8801 22.0443 20.7481C21.8823 20.5822 21.6787 20.371 21.3732 19.9486C21.049 19.5074 20.9094 19.2095 20.7812 18.9191C20.7133 18.7683 20.6831 18.7004 20.5512 18.5194C20.4419 18.3686 20.4116 18.3422 20.2873 18.2442C20.0836 18.082 19.7819 17.8407 19.4086 17.3278C19.0957 16.898 18.9599 16.6377 18.8468 16.4303C18.7639 16.2757 18.7072 16.1701 18.5375 15.9363C18.3754 15.7138 18.3 15.6384 18.1756 15.514C18.0021 15.3405 17.7871 15.1256 17.4666 14.6882C17.131 14.2281 16.9915 13.9151 16.8671 13.6059C16.8106 13.4589 16.7878 13.4098 16.671 13.2476L19.205 11.3998C19.009 11.1133 18.8882 10.8833 18.7939 10.6796C18.6771 10.5401 18.5376 10.3704 18.3641 10.1216C18.1265 9.77839 17.9908 9.488 17.9003 9.23535C17.8135 9.11469 17.708 8.97139 17.5609 8.76023C17.3309 8.42838 17.2178 8.25865 17.1047 8.09273C16.9953 7.93435 16.8897 7.77596 16.671 7.46296C16.573 7.32722 16.5013 7.22162 16.4372 7.12735C16.2072 6.93126 15.9508 6.69365 15.6491 6.26001C15.4267 5.93576 15.3023 5.73594 15.2042 5.57004L15.1967 5.58133C15.0534 5.43427 14.8987 5.25318 14.7215 4.99675L14.8233 4.92513L17.6062 2.98307Z" fill="var(--fill-0, #2E2720)"/>
<path id="Vector_11" d="M34.0085 0.00369875H34.1933L37.3683 0.0678571H37.391C37.3871 0.256369 37.3985 0.305441 37.4325 0.452496C37.5003 0.765465 37.5644 1.09353 37.553 1.64404C37.5455 1.99851 37.5003 2.28136 37.4362 2.51894C37.4588 2.71125 37.47 2.93 37.4663 3.21659C37.4625 3.39381 37.4474 3.55222 37.4285 3.69928C37.4098 3.93306 37.3834 4.09901 37.3608 4.2423C37.3344 4.4082 37.3155 4.51755 37.3118 4.78905C37.3043 5.16989 37.3043 5.35844 37.3043 5.55075C37.3004 5.75061 37.3004 5.95426 37.2929 6.36149C37.2892 6.49725 37.2815 6.62175 37.274 6.7311C37.2778 6.79143 37.2854 6.84798 37.2929 6.91207C37.323 7.13832 37.357 7.42492 37.3456 7.93021H37.1118L33.9293 7.86989C33.9293 8.25075 33.9256 8.45818 33.9256 8.65803C33.9218 8.8579 33.9217 9.05779 33.9217 9.45374C33.9255 9.83459 33.9293 10.0231 33.9369 10.2155C33.9444 10.4342 33.9519 10.6529 33.9519 11.0903C33.9557 11.6447 33.8916 11.9727 33.8199 12.2857C33.7861 12.4441 33.771 12.5082 33.771 12.7268C33.7747 12.9531 33.7898 13.0249 33.8237 13.1832C33.8916 13.4924 33.9558 13.8167 33.9558 14.3635C33.9558 14.9253 33.8917 15.2572 33.8162 15.5739C33.7823 15.7324 33.7672 15.7927 33.7672 16.0039C33.7672 16.2225 33.7822 16.2905 33.8199 16.4488C33.8916 16.7618 33.9558 17.0899 33.9558 17.6404H33.9632C33.9632 17.9082 33.9784 18.01 34.0085 18.1797C34.0613 18.4776 34.1028 18.768 34.1028 19.277C34.1028 19.7785 34.0726 20.0577 34.0499 20.2801C34.0311 20.4649 34.0161 20.5969 34.0161 20.9136C34.0161 21.4529 33.9746 21.7508 33.9369 21.9884C33.9104 22.1581 33.8954 22.2711 33.8954 22.554C33.8954 23.0253 33.8765 23.278 33.8614 23.4968C33.8502 23.6816 33.8388 23.8437 33.8388 24.1981H30.4451C30.4451 23.7306 30.464 23.4779 30.4791 23.2592C30.4904 23.0745 30.5017 22.9123 30.5017 22.5615C30.5017 22.0223 30.5432 21.7244 30.5809 21.4868C30.6073 21.3172 30.6224 21.204 30.6224 20.9212C30.6224 20.4197 30.6525 20.1405 30.6752 19.9181C30.694 19.7333 30.7091 19.6014 30.7091 19.2846C30.7091 19.0169 30.6939 18.915 30.6637 18.7453C30.611 18.4475 30.5695 18.1571 30.5695 17.6479C30.5695 17.4293 30.5545 17.3614 30.5167 17.203C30.4451 16.89 30.381 16.562 30.381 16.0113C30.381 15.4495 30.4451 15.1177 30.5206 14.8009C30.5544 14.6426 30.5695 14.5822 30.5695 14.371C30.5658 14.1448 30.5507 14.0732 30.5167 13.9148C30.4489 13.6055 30.3847 13.2812 30.3847 12.7344C30.381 12.1801 30.4451 11.8521 30.5167 11.5391C30.5507 11.3807 30.5657 11.3165 30.5657 11.0978C30.562 10.7169 30.5582 10.5284 30.5507 10.3361C30.5432 10.1174 30.5355 9.89862 30.5355 9.46121C30.5355 9.03889 30.5394 8.83147 30.5394 8.6203C30.5432 8.42046 30.5431 8.22434 30.5431 7.82086H33.7258C33.737 7.34951 33.7899 7.0516 33.8351 6.83289C33.8389 6.69714 33.8463 6.53876 33.8502 6.29744C33.8539 6.16923 33.8577 6.0674 33.8577 5.97312C33.8539 5.9392 33.8463 5.9015 33.8388 5.86004C33.7822 5.55837 33.7295 5.24534 33.7407 4.71743C33.7483 4.3818 33.7899 4.11401 33.8463 3.88398C33.8313 3.69921 33.82 3.47293 33.8276 3.14487C33.8351 2.75272 33.8916 2.45483 33.9632 2.20218C33.9481 2.02873 33.9407 1.82507 33.9444 1.57241C33.9482 1.45176 33.9519 1.35373 33.9519 1.26323C33.9519 1.10111 33.9444 0.980413 33.9444 0.867298C33.9407 0.652359 33.9331 0.433605 33.9406 -3.25926e-05H33.9859L34.0085 0.00369875Z" fill="var(--fill-0, #2E2720)"/>
<path id="Vector_12" d="M55.047 9.30666L55.1262 9.36699L55.2317 9.44618C54.9111 9.86852 54.6133 10.1099 54.3456 10.2833C54.2814 10.3588 54.2136 10.4455 54.1156 10.5737C53.8969 10.8602 53.795 11.0073 53.6932 11.1544C53.6367 11.2336 53.5801 11.3166 53.5123 11.4109C53.4293 11.5466 53.335 11.6899 53.2068 11.8596C53.1578 11.9237 53.1163 11.9765 53.071 12.0293C53.0484 12.067 53.0333 12.1085 53.007 12.1688C52.9089 12.3989 52.7655 12.742 52.3998 13.2284C52.1207 13.6017 51.9548 13.7865 51.8078 13.9487C51.6872 14.0806 51.5928 14.19 51.3968 14.4465C51.2309 14.6652 51.0875 14.8273 50.9519 14.963C50.8538 15.1931 50.7142 15.4495 50.4956 15.7399L49.2323 14.7859L49.2361 14.7821L47.592 13.5377C47.7617 13.3153 47.905 13.1493 48.0408 13.0135C48.1388 12.7835 48.2746 12.5308 48.4932 12.2442C48.6818 11.9954 48.8364 11.8218 48.9835 11.6785C49.0814 11.4711 49.2173 11.2412 49.4209 10.9697C49.6283 10.6944 49.7979 10.5096 49.9564 10.3588C50.0507 10.1816 50.1789 9.97039 50.3712 9.71774C50.6389 9.36327 50.801 9.18219 50.9405 9.02381C51.0347 8.86167 51.1517 8.68063 51.3176 8.46193C51.5024 8.21685 51.6795 8.03588 51.8454 7.89259C51.8606 7.87373 51.8719 7.85482 51.887 7.83973C52.0039 7.69645 52.117 7.55316 52.3395 7.25909L55.047 9.30666Z" fill="var(--fill-0, #2E2720)"/>
</g>
<defs>
<clipPath id="clip0_0_23">
<rect width="64" height="63.8939" fill="white"/>
</clipPath>
</defs>
</svg>
