<svg preserveAspectRatio="none" width="100%" height="100%" overflow="visible" style="display: block;" viewBox="0 0 519 2" fill="none" xmlns="http://www.w3.org/2000/svg">
<path id="svg" d="M518.298 0.65609H518.064C517.684 0.65609 517.26 0.65609 516.632 0.637956C516.003 0.637956 516.281 0.637956 515.024 0.637956C512.114 0.601689 508.284 0.565422 505.375 0.547289C504.469 0.547289 504.922 0.547289 504.293 0.547289C503.065 0.547289 501.91 0.511022 500.697 0.511022C500.302 0.511022 500.799 0.529156 500.375 0.529156C498.066 0.529156 495.873 0.492889 493.519 0.492889C481.97 0.438488 470.611 0.384088 458.916 0.347821C455.057 0.347821 450.364 0.365954 446.388 0.329687C445.92 0.329687 446.198 0.275287 446.11 0.275287C444.721 0.202753 445.189 0.311554 444.283 0.311554C440.687 0.365954 436.681 0.347821 433.216 0.311554C431.754 0.311554 433.231 0.18462 431.74 0.257154C431.784 0.29342 431.901 0.329687 431.608 0.329687C430.687 0.347821 428.962 0.329687 428.246 0.329687H425.366C423.597 0.329687 421.492 0.347821 419.592 0.329687C419.182 0.329687 419.723 0.257153 419.08 0.23902C418.422 0.220887 416.712 0.220887 416.141 0.23902C415.571 0.257153 415.805 0.311554 415.703 0.329687C414.87 0.438488 412.896 0.275287 412.633 0.275287C407.999 0.18462 404.022 0.275287 399.666 0.257154C396.347 0.257154 392.81 0.220887 389.667 0.202753C385.924 0.202753 382.737 0.257153 379.097 0.23902C378.717 0.23902 379.17 0.130219 378.702 0.130219C373.703 0.0939522 368.762 0.0939523 363.791 0.166486C363.294 0.166486 363.937 0.275287 363.44 0.29342C360.385 0.365954 355.575 0.565422 353.763 0.112086C351.701 0.130219 349.187 0.130219 347.345 0.220887C346.146 0.29342 347.316 0.402221 345.839 0.347821C345.518 0.347821 345.941 0.23902 345.459 0.23902C343.369 0.18462 341.088 0.220887 339.041 0.166486C338.617 0.148353 338.734 0.0576853 338.617 0.0395519C337.609 -0.0873824 335.957 0.130219 335.591 0.148353C332.828 0.257154 330.826 0.220887 328.253 0.220887C327.653 0.220887 328.355 0.0939523 327.785 0.0758188C324.817 0.0576854 321.733 0.0576853 318.809 0.112086C318.166 0.130219 318.765 0.23902 318.458 0.257154C317.084 0.311554 316.791 0.0939523 315.476 0.148353C315.198 0.148353 315.359 0.23902 315.3 0.257154C314.526 0.420355 313.838 0.18462 313.634 0.18462C311.061 0.112086 309.423 0.347821 306.953 0.311554C306.661 0.311554 307.318 0.18462 306.485 0.18462C300.945 0.148353 295.068 0.166486 289.586 0.275287C288.723 0.29342 289.337 0.384088 289.279 0.402221C288.402 0.583556 287.846 0.329687 287.554 0.329687C285.361 0.257153 283.314 0.456622 281.823 0.166486C274.353 0.23902 266.912 0.148353 259.5 0.257154C252.088 0.148353 244.647 0.23902 237.177 0.166486C235.686 0.456622 233.639 0.257153 231.446 0.329687C231.154 0.329687 230.598 0.583556 229.721 0.402221C229.663 0.384088 230.277 0.29342 229.414 0.275287C223.932 0.166486 218.055 0.148353 212.515 0.18462C211.682 0.18462 212.339 0.311554 212.047 0.311554C209.576 0.347821 207.939 0.112086 205.366 0.18462C205.162 0.18462 204.474 0.420355 203.7 0.257154C203.641 0.23902 203.802 0.148353 203.524 0.148353C202.209 0.0939523 201.916 0.311554 200.542 0.257154C200.235 0.23902 200.834 0.130219 200.191 0.112086C197.267 0.0576853 194.183 0.0576854 191.215 0.0758188C190.645 0.0758188 191.347 0.220887 190.747 0.220887C188.174 0.220887 186.172 0.257154 183.409 0.148353C183.043 0.130219 181.391 -0.0873824 180.383 0.0395519C180.266 0.0576853 180.383 0.148353 179.959 0.166486C177.912 0.220887 175.631 0.18462 173.541 0.23902C173.058 0.23902 173.482 0.347821 173.161 0.347821C171.684 0.402221 172.854 0.29342 171.655 0.220887C169.813 0.130219 167.299 0.130219 165.237 0.112086C163.425 0.565422 158.615 0.365954 155.56 0.29342C155.063 0.275287 155.706 0.166486 155.209 0.166486C150.238 0.0939523 145.297 0.0939522 140.298 0.130219C139.83 0.130219 140.298 0.23902 139.903 0.23902C136.263 0.257153 133.076 0.202753 129.333 0.202753C126.19 0.220887 122.653 0.257154 119.334 0.257154C114.978 0.275287 111.001 0.18462 106.367 0.275287C106.104 0.275287 104.13 0.438488 103.297 0.329687C103.195 0.311554 103.429 0.257153 102.859 0.23902C102.288 0.220887 100.578 0.220887 99.9201 0.23902C99.2769 0.257153 99.8178 0.329687 99.4085 0.329687C97.508 0.347821 95.4029 0.329687 93.634 0.329687H90.7541C90.0378 0.329687 88.3127 0.347821 87.3917 0.329687C87.0994 0.329687 87.2163 0.29342 87.2602 0.257154C85.769 0.18462 87.2456 0.311554 85.7837 0.311554C82.319 0.347821 78.3134 0.365954 74.7172 0.311554C73.8108 0.311554 74.2786 0.202753 72.8898 0.275287C72.8021 0.275287 73.0799 0.329687 72.612 0.329687C68.6357 0.365954 63.943 0.347821 60.0836 0.347821C48.3885 0.384088 37.0297 0.438488 25.4807 0.492889C23.1271 0.492889 20.9343 0.529156 18.6245 0.529156C18.2005 0.529156 18.6976 0.511022 18.3029 0.511022C17.0895 0.511022 15.9346 0.529156 14.7066 0.547289C14.078 0.547289 14.5312 0.547289 13.6248 0.547289C10.7156 0.565422 6.8855 0.601689 3.97634 0.637956C2.71911 0.637956 2.99687 0.637956 2.36826 0.637956C1.73965 0.65609 1.3157 0.65609 0.935608 0.65609H0.701706C0.584755 0.65609 0.292378 0.65609 0 0.674223H1.0818C2.04664 0.692357 1.37417 0.692357 3.18691 0.692357C5.87679 0.728624 8.94676 0.746757 11.7828 0.764891C12.1775 0.764891 11.5782 0.783024 12.1337 0.783024C15.5984 0.819291 19.2385 0.855558 22.7031 0.891825C23.3025 0.891825 22.9663 0.873691 23.0248 0.855558C23.5072 0.855558 25.3638 0.873691 25.5684 0.873691C26.8111 0.873691 26.5918 0.909958 27.0011 0.928092C31.2113 0.982492 35.2023 1.01876 39.3248 1.05503C40.0265 1.05503 39.3979 1.01876 39.7634 1.01876C48.4616 1.09129 57.0575 1.18196 65.7265 1.23636C65.7558 1.20009 65.7558 1.16383 65.8289 1.12756C66.706 1.10943 67.0569 1.23636 67.4808 1.23636C73.5038 1.3633 79.3514 1.39956 85.3159 1.43583C86.193 1.43583 85.1697 1.3633 85.8568 1.3633C87.4356 1.3633 89.0875 1.3633 90.6225 1.39956C91.2804 1.4177 90.4032 1.4721 91.0611 1.49023C92.406 1.5265 94.1018 1.54463 95.4321 1.54463C96.0754 1.54463 95.4906 1.45396 95.8999 1.45396C100.826 1.4721 105.68 1.5265 110.607 1.5265C110.987 1.5265 110.533 1.43583 110.987 1.43583C117.945 1.45396 123.603 1.54463 130.898 1.61716C136.497 1.67156 143.821 1.76223 149.756 1.70783C150.969 1.70783 151.51 1.78036 152.884 1.70783C153.191 1.6897 154.507 1.50836 155.399 1.65343C155.53 1.67156 155.136 1.76223 155.764 1.76223C159.083 1.8529 162.606 1.87103 166.012 1.87103C166.582 1.8529 165.866 1.7441 166.509 1.7441C168.249 1.7441 170.164 1.72596 171.889 1.7985C172.503 1.81663 171.772 1.99797 172.751 1.9073C172.839 1.9073 172.503 1.7985 172.985 1.7985C174.681 1.78036 176.099 1.87103 177.941 1.81663C178.234 1.7985 178.774 1.5809 179.666 1.7441C179.725 1.7441 179.198 1.8529 179.959 1.8529C182.034 1.9073 184.68 1.94357 186.815 1.9073C187.59 1.9073 186.815 1.7985 187.327 1.78036C189.271 1.76223 191.244 1.78036 193.145 1.7441C193.671 1.72596 193.32 1.61716 193.408 1.61716C194.051 1.5809 194.811 1.7985 195.104 1.83477C196.215 2.0161 198.466 1.7441 198.7 1.70783C200.045 1.50836 199.738 1.7441 199.972 1.78036C201.127 1.92543 201.156 1.70783 201.697 1.6897C203.51 1.59903 205.454 1.6897 207.033 1.70783C207.881 1.70783 207.413 1.78037 207.34 1.83477C208.626 1.9073 209.781 1.9617 211.097 1.97983C211.652 1.97983 211.535 1.88917 212.135 1.88917C213.465 1.88917 214.942 1.94357 216.33 1.92543C216.74 1.9073 216.272 1.7985 216.74 1.78036C219.064 1.7441 220.862 1.88917 223.435 1.78036C223.713 1.78036 224.882 1.49023 225.979 1.50836C228.245 1.5809 224.517 1.6897 227.485 1.8529C231.183 2.05237 238.551 1.97983 242.82 1.97983C243.975 1.97983 243.331 1.87103 244.121 1.88917C249.252 1.9073 254.354 2.05237 259.5 1.97983C264.646 2.05237 269.748 1.9073 274.879 1.88917C275.668 1.88917 275.025 1.97983 276.18 1.97983C280.449 1.97983 287.817 2.05237 291.515 1.8529C294.483 1.6897 290.755 1.5809 293.021 1.50836C294.118 1.49023 295.287 1.78036 295.565 1.78036C298.138 1.88917 299.936 1.7441 302.26 1.78036C302.728 1.7985 302.26 1.9073 302.67 1.92543C304.058 1.94357 305.535 1.88917 306.865 1.88917C307.465 1.88917 307.348 1.97983 307.903 1.97983C309.219 1.9617 310.374 1.9073 311.66 1.83477C311.587 1.78037 311.119 1.70783 311.967 1.70783C313.546 1.6897 315.49 1.59903 317.303 1.6897C317.844 1.70783 317.873 1.92543 319.028 1.78036C319.262 1.7441 318.955 1.50836 320.3 1.70783C320.534 1.7441 322.785 2.0161 323.896 1.83477C324.189 1.7985 324.949 1.5809 325.592 1.61716C325.68 1.61716 325.329 1.72596 325.855 1.7441C327.756 1.78036 329.729 1.7441 331.673 1.78036C332.185 1.7985 331.41 1.9073 332.185 1.9073C334.319 1.94357 336.966 1.9073 339.041 1.8529C339.802 1.8529 339.275 1.76223 339.334 1.7441C340.225 1.5809 340.766 1.7985 341.059 1.81663C342.901 1.87103 344.319 1.78036 346.015 1.7985C346.497 1.7985 346.161 1.9073 346.248 1.9073C347.228 1.99797 346.497 1.81663 347.111 1.7985C348.836 1.72596 350.751 1.7441 352.491 1.7441C353.134 1.7441 352.418 1.8529 352.988 1.87103C356.394 1.87103 359.917 1.8529 363.236 1.76223C363.864 1.76223 363.47 1.67156 363.601 1.65343C364.493 1.50836 365.809 1.6897 366.116 1.70783C367.49 1.78036 368.031 1.70783 369.244 1.70783C375.179 1.76223 382.503 1.67156 388.102 1.61716C395.397 1.54463 401.055 1.45396 408.013 1.43583C408.467 1.43583 408.013 1.5265 408.393 1.5265C413.32 1.5265 418.173 1.4721 423.1 1.45396C423.509 1.45396 422.925 1.54463 423.568 1.54463C424.898 1.54463 426.594 1.54463 427.939 1.49023C428.597 1.4721 427.72 1.4177 428.377 1.39956C429.912 1.3633 431.564 1.3633 433.143 1.3633C433.83 1.3633 432.807 1.43583 433.684 1.43583C439.649 1.39956 445.496 1.3633 451.519 1.23636C451.943 1.23636 452.294 1.10943 453.171 1.12756C453.244 1.16383 453.244 1.20009 453.273 1.23636C461.942 1.18196 470.538 1.09129 479.237 1.01876C479.602 1.01876 478.973 1.05503 479.675 1.05503C483.798 1.01876 487.789 0.982492 491.999 0.928092C492.408 0.909958 492.189 0.873691 493.432 0.873691C493.636 0.873691 495.493 0.855558 495.975 0.855558C496.034 0.873691 495.697 0.891825 496.297 0.891825C499.762 0.855558 503.402 0.819291 506.866 0.783024C507.422 0.783024 506.822 0.764891 507.217 0.764891C510.053 0.746757 513.123 0.728624 515.813 0.692357C517.626 0.692357 516.953 0.692357 517.918 0.674223H519C518.708 0.65609 518.415 0.65609 518.298 0.65609Z" fill="var(--fill-0, #39362E)"/>
</svg>
