<svg preserveAspectRatio="none" width="100%" height="100%" overflow="visible" style="display: block;" viewBox="0 0 40 39.1078" fill="none" xmlns="http://www.w3.org/2000/svg">
<path id="Vector" d="M7.8677 27.7992C9.18442 28.6564 10.119 28.9514 10.2593 30.8028C10.2593 30.4576 11.0975 39.5387 11.0975 39.0918C11.0975 39.3466 18.0744 34.5959 18.0744 34.5808C19.2433 34.1051 20.7454 33.8478 21.9143 34.5808C21.9143 34.3611 28.8913 39.0203 28.8913 39.0918C28.8913 38.7467 29.7294 30.8517 29.7294 30.804C29.8697 29.9279 30.8056 28.7845 32.1223 27.8004C32.1223 27.7038 40 24.8734 40 25.1433C40 24.5358 34.0541 19.598 34.0541 19.3243C33.0606 18.2349 32.7261 16.8994 33.1997 15.5777C33.1997 15.9668 35.4924 8.66553 35.9496 7.79194C35.1103 8.01535 27.7888 8.66176 27.7888 8.78351C26.4094 10.0136 25.0576 8.77096 24.3322 7.11541C24.3322 7.12294 22.5157 3.99006 21.234 1.87888C21.2591 1.94791 21.219 2.07971 21.1864 2.16255L21.1263 2.31442C21.1163 2.33952 21.0524 2.3822 21.0436 2.3571L20.986 2.18514C20.9534 2.091 20.8945 1.97427 20.9045 1.90524C20.9171 1.82491 21.1401 1.80106 21.209 1.84374C21.2127 1.84625 21.2152 1.85127 21.219 1.85378C20.5274 0.715348 19.995 -0.118078 19.995 0.013714C19.995 0.259725 16.1388 6.62464 15.6991 7.09532C15.8093 7.08905 15.9158 7.14929 15.981 7.32878C15.8707 7.37648 15.7204 7.35012 15.5926 7.27355C14.8534 8.98434 13.5405 9.18516 12.2012 8.78226C12.2012 8.63038 11.9669 8.50989 11.5773 8.41198C11.5986 8.43583 11.6199 8.46721 11.6262 8.47851C11.6424 8.50612 11.5798 8.60026 11.5535 8.58143C11.5034 8.54503 11.333 8.43332 11.3054 8.48729L11.1701 8.75966L10.9697 8.37182L11.437 8.37935C9.39614 7.93126 3.95891 7.99653 3.95891 7.75554C3.95891 7.98774 6.78903 15.1911 6.78903 15.5789C7.26134 17.1542 6.92809 18.5738 5.93586 19.3231C5.93586 18.9641 0 24.8006 0 25.142C0 24.714 7.86645 27.8205 7.86645 27.7992H7.8677ZM34.1343 26.1461L34.1819 26.3997C34.1932 26.4574 34.0905 26.5992 34.0428 26.5666L33.7873 26.3921L34.1343 26.1461ZM29.7783 26.6708L29.2734 26.5139C29.222 26.3156 29.4876 26.2729 29.6054 26.3319C29.7156 26.3871 29.8046 26.5905 29.7783 26.6708ZM30.2844 24.2609C30.1165 24.1165 30.124 23.853 30.1929 23.6559C30.3758 23.8128 30.5224 24.0375 30.2844 24.2609ZM30.575 22.8137L30.4134 22.9266C30.3721 22.9555 30.2744 22.8639 30.2731 22.8124C30.2719 22.761 30.3107 22.6593 30.3608 22.6656C30.4297 22.6744 30.5525 22.707 30.5838 22.6781L30.7605 22.5124L30.7943 22.9442C30.6928 22.8865 30.6126 22.7873 30.575 22.8124V22.8137ZM31.0348 18.2826L30.9559 18.4307C30.9196 18.4997 30.7993 18.6993 30.7304 18.6679C30.6515 18.6315 30.5174 18.4595 30.5412 18.4558C30.8795 18.334 31.1614 18.0441 31.0348 18.2826ZM32.5708 17.419C32.448 17.3926 32.2689 17.242 32.3027 17.1303L32.7587 17.1755C32.8502 17.1843 32.656 17.4378 32.5708 17.419ZM33.0519 15.2865C32.9466 15.3317 32.7111 15.2714 32.7963 15.0229L33.2774 15.0267C33.2636 15.0945 33.1383 15.2501 33.0519 15.2865ZM33.2348 11.7595C33.1446 11.757 33.4653 12.013 33.573 12.2126L34.0216 12.313C33.8587 12.3908 33.6207 12.4297 33.444 12.3582C33.122 12.2264 33.2887 11.8812 32.9516 11.8725C32.9253 11.8725 32.8903 11.7909 32.9153 11.7821C32.9404 11.7733 33.013 11.752 33.0406 11.7532L33.236 11.7595H33.2348ZM32.7061 10.4052C32.8802 10.3625 33.013 10.6976 32.8627 10.8696C32.8051 10.9361 32.6723 10.798 32.6159 10.6813C32.5733 10.5922 32.5708 10.4378 32.7048 10.4052H32.7061ZM32.3353 9.20273L32.0734 9.52029L31.8705 9.00316L32.3353 9.20273ZM30.887 8.71071L30.9972 8.56386C31.0211 8.53248 31.0536 8.44713 31.0674 8.41073C31.0862 8.36178 31.2754 8.35174 31.2854 8.4032C31.3092 8.53373 31.0987 8.76845 30.9897 8.84376C30.9547 8.86761 30.8619 8.74586 30.887 8.71197V8.71071ZM30.6828 17.7817C30.7179 17.7679 30.778 17.8357 30.7742 17.8734C30.763 18.014 30.4535 18.1445 30.4072 18.1081C30.3658 18.0742 30.2443 17.9524 30.2957 17.9324L30.5237 17.8433L30.6815 17.7817H30.6828ZM30.228 8.63289L30.3007 8.88016C30.3107 8.9153 30.3671 9.0107 30.3834 9.03705C30.4059 9.07345 30.3257 9.11864 30.2744 9.13872C30.233 9.15504 30.1954 9.086 30.1804 9.0358L30.0539 8.64168C30.0038 8.64042 30.2142 8.58394 30.2293 8.63289H30.228ZM29.6943 14.3966C29.5766 14.4129 29.43 14.2949 29.3811 14.1267L29.9474 14.1418C29.866 14.2811 29.7732 14.3865 29.6943 14.3966ZM29.6379 8.79355C29.6805 8.88769 29.6455 9.09856 29.6079 9.16382L29.2659 8.77096C29.3247 8.73833 29.6016 8.71071 29.6379 8.7923V8.79355ZM29.3636 24.414C29.4813 24.4291 29.5816 24.7152 29.4989 24.778C29.3748 24.8721 29.2596 24.7441 29.2571 24.6437C29.2546 24.5722 29.2922 24.4065 29.3636 24.4153V24.414ZM28.4202 24.8257C28.6257 24.7579 28.8612 24.8332 28.9176 25.1119L28.4064 25.0391L28.4202 24.8257ZM12.0208 26.1072C12.0283 26.0796 12.1248 26.0595 12.1523 26.0595C12.3428 26.0545 12.0596 26.4587 12.0108 26.4499L11.7214 26.3947L11.9394 26.3068C11.9882 26.2867 12.0008 26.1775 12.0195 26.1072H12.0208ZM12.0033 22.7547C11.9982 22.638 12.423 22.6467 12.4618 22.7585C12.4768 22.8036 12.3515 22.7961 12.3027 22.7886C12.2488 22.7798 12.2213 22.9292 12.21 23.002C12.2037 23.0459 12.0183 23.0773 12.0158 23.0333L12.002 22.7547H12.0033ZM11.9795 29.0945C12.2576 29.0543 12.4693 29.1033 12.6685 29.2589C12.3904 29.397 12.116 29.3706 11.9795 29.0945ZM12.6134 28.8108L13.0406 28.8435L12.8715 29.023C12.8339 29.0631 12.9504 29.1133 13.1133 29.2953L12.7136 29.3355C12.7725 29.0493 12.7562 29.043 12.6121 28.8108H12.6134ZM12.8652 20.4753C12.8627 20.2745 13.0243 19.9356 13.1997 19.7749C13.3325 19.9482 13.1082 19.9645 13.1158 20.4678C13.1158 20.5368 12.8665 20.5544 12.8665 20.4766L12.8652 20.4753ZM13.8687 34.4791L13.8825 33.9407L14.2621 34.2796L13.8687 34.4791ZM14.544 28.0238L14.6492 27.6875C14.6492 27.6875 14.8509 27.6674 14.8534 27.7314L14.8634 28.0377C14.866 28.113 14.5214 28.0941 14.544 28.0238ZM15.2819 28.3803L14.6029 28.5887C14.7106 28.2711 15.0188 28.2598 15.2819 28.3803ZM15.8757 34.8984C15.887 34.9184 15.8895 34.9586 15.8657 34.9611C15.8256 34.9649 15.7104 34.9649 15.6778 34.9473L15.555 34.882C15.5212 34.8645 15.4798 34.9624 15.4823 35.0063L15.4936 35.2147C15.4949 35.2423 15.4159 35.2649 15.3997 35.2435L15.3157 35.1318C15.1867 35.2385 14.9837 35.2573 14.8772 35.1745C15.0589 35.1029 15.1904 35.0101 15.2756 34.8632L15.4059 34.641C15.4422 34.5795 15.6477 34.5871 15.7216 34.5745C15.7605 34.5682 15.674 34.4427 15.6502 34.4126C15.6264 34.3812 15.7129 34.3423 15.7517 34.3423C15.7905 34.3423 15.8958 34.4239 15.8882 34.4641L15.8231 34.8092L15.8745 34.8996L15.8757 34.8984ZM16.8379 34.1478C16.8291 34.1729 16.789 34.2419 16.784 34.2181C16.7752 34.1817 16.7489 34.0662 16.7276 34.0373C16.6688 33.957 16.4508 33.9218 16.4107 33.8315C16.3618 33.7248 16.3743 33.4348 16.4019 33.3671L16.997 33.7336L16.8391 34.149L16.8379 34.1478ZM17.6923 28.6866C17.6297 28.6401 17.5958 28.5046 17.5771 28.3979L17.5257 28.1155C17.5107 28.0351 17.8564 28.0364 17.8589 28.118C17.8639 28.2523 17.8915 28.4305 17.9667 28.6564C18.0205 28.6715 17.7549 28.733 17.6923 28.6866ZM19.2458 32.9064C19.2759 32.9416 19.2696 33.0608 19.2245 33.0646L18.9714 33.0846L18.8198 33.0959C18.7898 33.0985 18.7422 32.9943 18.771 32.9905L19.014 32.9566L19.0278 32.2512C19.0278 32.191 19.2821 32.2286 19.316 32.1784L19.4876 31.9312L19.5039 32.4822L19.1719 32.3127L19.128 32.7721L19.2458 32.9064ZM18.7221 31.7165C18.9451 31.6889 19.2132 31.7994 19.2746 31.9789C19.2959 32.0404 19.0479 32.147 19.009 32.0956L18.7221 31.7165ZM22.3052 29.3506L22.5219 29.2978C22.5457 29.2916 22.4518 29.2213 22.4317 29.2075C22.4117 29.1937 22.3666 29.1397 22.3891 29.1322C22.4117 29.1234 22.4944 29.0945 22.5182 29.0945H22.7236C22.7662 29.0932 22.7838 29.269 22.7462 29.2878L22.324 29.4949C22.2902 29.5112 22.2701 29.3606 22.3064 29.3518L22.3052 29.3506ZM22.8201 33.6407C22.6397 33.4863 22.5532 33.2717 22.7086 33.0395L22.7775 33.2767C22.7938 33.3344 22.894 33.342 23.0231 33.3683L22.8201 33.6407ZM23.2147 28.5724C23.1696 28.546 23.1145 28.4393 23.127 28.3866L23.1659 28.2247C23.1772 28.177 23.355 28.1707 23.3651 28.2184L23.4152 28.4782C23.4265 28.5397 23.2598 28.5987 23.2147 28.5724ZM24.2383 29.392L24.0241 29.5037C23.9639 29.5351 24.0779 29.707 24.103 29.7735C24.1218 29.825 23.9126 29.8137 23.8775 29.771C23.8424 29.7296 23.796 29.6342 23.8224 29.5865L23.9539 29.3418C23.9902 29.274 24.3084 29.3556 24.2395 29.3907L24.2383 29.392ZM24.9862 29.102C24.9637 29.1121 24.9136 28.9727 24.9361 28.9627L25.0977 28.8974C25.0439 28.851 24.9662 28.5799 25.0514 28.5811C25.1579 28.5836 25.3094 28.6954 25.3984 28.7757C25.2894 28.8912 25.0927 29.0506 24.985 29.102H24.9862ZM24.8785 26.48L25.1103 26.3055C25.109 26.6595 25.3746 26.8227 25.2606 26.8126C25.233 26.8101 25.109 26.8189 25.094 26.7963L24.8785 26.4787V26.48ZM26.3568 31.8822L25.9672 32.0893L26.3217 31.4667L26.5172 31.6638C26.5623 31.7102 26.4194 31.8496 26.3568 31.8822ZM27.4079 26.421L27.2613 26.6595L27.562 26.7536L27.2363 26.8302C27.1736 26.8453 27.1135 26.6745 27.1336 26.613C27.1586 26.539 27.2425 26.416 27.2977 26.3532C27.3215 26.3256 27.4255 26.3921 27.4079 26.421ZM26.8792 16.6094L26.9945 16.5241C27.0308 16.4977 27.1686 16.5655 27.1511 16.6069L27.0584 16.8253C27.0434 16.8605 27.1661 16.9533 27.1298 16.9722L26.982 17.05C26.9456 17.0688 26.9018 16.9295 26.883 16.8931L26.8103 16.755C26.7915 16.7199 26.8479 16.6333 26.8792 16.6094ZM26.6788 25.4319L26.9619 25.639C27.0459 25.7005 26.9506 25.8637 26.8767 25.8675C26.5435 25.8838 26.7727 25.5537 26.3668 25.5073C26.3894 25.4696 26.6149 25.3842 26.6788 25.4319ZM25.9547 13.3109L26.3731 13.0975C26.3393 13.464 26.016 13.3385 25.8106 13.3937L25.3921 13.5079C25.4711 13.2192 25.7367 13.223 25.9547 13.3109ZM22.3616 6.07488L22.4518 5.8251C22.5144 6.04475 22.5182 6.2619 22.4706 6.54556L22.3453 6.28198C22.3202 6.23052 22.2012 6.19663 22.1461 6.17278C22.2375 6.1414 22.344 6.12257 22.3616 6.07488ZM21.7427 10.483C21.7489 10.798 21.4683 11.1018 21.0862 10.9813L21.7427 10.483ZM19.8434 10.1228L19.6354 10.0926C19.5841 10.0851 19.6718 9.92571 19.6931 9.87801L19.8058 9.63576C19.8396 9.56296 20.1779 9.6571 20.1027 9.68848L19.9449 9.75249C19.797 9.81274 19.9186 10.1341 19.8421 10.1228H19.8434ZM19.7745 11.2549L20.0113 11.393C20.0614 11.4219 20.1766 11.2474 20.2343 11.2662L20.7417 11.4394L20.4172 11.6403C20.1867 11.506 20.0213 11.4658 19.767 11.4834L19.7757 11.2549H19.7745ZM20.2844 3.59468L20.0902 3.85325L19.7332 3.48674C19.9524 3.48674 20.0689 3.51937 20.2844 3.59468ZM19.8647 8.99438C19.8885 8.98559 19.9975 8.98434 19.9962 9.00944C19.995 9.03454 19.9862 9.10232 19.9624 9.10985L19.7695 9.17136C19.8083 9.22282 19.8923 9.31821 19.8797 9.38097C19.8647 9.45502 19.7093 9.59936 19.6805 9.60062C19.5377 9.32825 19.6655 9.06843 19.8659 8.99563L19.8647 8.99438ZM18.9627 4.9967C19.0266 5.01678 19.1268 5.20129 19.1318 5.26907C19.1356 5.33559 19.0103 5.35316 18.8963 5.35442C18.8023 5.35567 18.756 5.28162 18.7071 5.07703L18.3237 5.23769C18.3876 4.93519 18.796 4.94272 18.9639 4.9967H18.9627ZM17.9754 6.1414C18.0581 6.1665 17.9792 6.49285 17.9128 6.43887C17.8163 6.3598 17.6798 6.21295 17.6121 6.12634C17.7938 6.12132 17.904 6.12132 17.9742 6.14266L17.9754 6.1414ZM17.6146 14.1117L17.8602 13.9949L18.0544 13.9033C18.0982 13.8832 18.1634 14.0414 18.1308 14.0765C18.0982 14.1117 18.0544 14.133 17.9479 14.1794L17.7286 14.2761C17.6823 14.2974 17.567 14.1343 17.6134 14.1129L17.6146 14.1117ZM17.1423 6.4577L17.126 6.8581C17.3002 6.89701 17.3666 6.91458 17.3816 6.95098C17.4029 7.00119 17.319 7.10536 17.2676 7.07273C17.1837 7.02001 17.0133 6.95474 16.9957 6.87065C16.9744 6.76773 16.9444 6.49536 17.1423 6.4577ZM14.9536 9.90688C15.0013 9.94579 15.1754 10.0588 15.2017 10.0035L15.3307 9.73492C15.421 9.88805 15.342 10.1466 15.2155 10.2156L14.7682 10.0675C14.7344 10.0839 14.8973 9.86295 14.9536 9.90688ZM13.7935 19.0444C14.3636 17.119 16.1025 14.8899 18.2523 14.5823C19.8271 14.256 21.3468 14.4217 22.6397 14.9702C22.6272 14.9601 22.6159 14.9489 22.6059 14.9363C22.5457 14.8622 22.5119 14.7091 22.5269 14.6351L22.9178 14.8334C22.8928 14.9777 22.8239 15.0242 22.7524 15.0191C25.4184 16.2103 27.0822 19.0557 26.2052 22.579C25.6302 25.4294 23.8837 26.2541 21.7289 27.0423C16.8241 28.9966 12.4931 23.5655 13.7935 19.0444ZM13.4828 29.9304L13.2498 29.9468C13.1909 29.9505 13.0732 29.9329 13.0218 29.9204C12.9704 29.9078 12.9905 29.6894 13.0406 29.702L13.3049 29.771L13.4553 29.7949C13.4891 29.7999 13.5179 29.9279 13.4828 29.9304ZM12.8652 10.0839C12.9103 10.0224 13.0105 9.88805 13.0744 9.91692L13.4327 10.0726L13.0594 10.1353C12.9942 10.1466 12.9993 10.3223 12.9416 10.355C12.8765 10.3914 12.8201 10.1454 12.8639 10.0851L12.8652 10.0839ZM12.6146 27.1904L12.24 27.1967L12.2363 26.9369L12.6109 26.9306L12.6146 27.1904ZM12.5645 22.0443C12.6046 22.0342 12.6071 22.2689 12.567 22.2752C12.4555 22.2928 12.24 22.284 12.0722 22.2602L12.4204 22.0756C12.4493 22.0606 12.5382 22.0518 12.5645 22.0443ZM12.0396 21.177L12.3603 21.6803C12.2927 21.6803 12.0158 21.6564 11.9907 21.6363C11.9055 21.4016 11.9005 21.3 12.0408 21.1782L12.0396 21.177ZM11.8229 25.5863L11.9544 25.5437C11.987 25.5336 11.9807 25.7181 11.9544 25.7395C11.8529 25.821 11.5685 25.821 11.4382 25.757L11.8241 25.5851L11.8229 25.5863ZM11.4295 37.3534C11.4846 37.376 11.5034 37.5329 11.4984 37.602L11.4796 37.8404C11.4758 37.8907 11.3418 37.9132 11.3017 37.8819C11.2616 37.8505 11.2453 37.7375 11.2415 37.6723L11.2265 37.4476C11.2228 37.3873 11.3743 37.3296 11.4295 37.3534ZM11.2127 24.9424L11.1351 25.0843C11.1163 25.1194 11.0975 25.1671 11.1313 25.1759L11.3706 25.2412C11.1589 25.4018 10.9384 25.2964 10.8457 25.0981C10.9897 24.9813 11.1288 24.9211 11.2127 24.9412V24.9424ZM10.5174 23.4287C10.4598 23.4312 10.5036 23.1425 10.5149 23.2065L11.1351 23.4036L10.5174 23.4287ZM10.9183 22.1522C10.8281 22.23 10.6652 22.0957 10.7266 21.9677C10.763 21.8911 10.8306 21.7995 10.9396 21.6815C10.9885 21.7932 11.011 22.0731 10.9196 22.1522H10.9183ZM10.8507 18.8298C10.8594 18.88 10.8356 19.0269 10.7905 19.0582L10.6339 19.1662C10.5926 19.1938 10.4623 19.1223 10.4761 19.0746C10.4886 19.0269 10.5324 18.9152 10.57 18.885L10.7028 18.7783C10.7329 18.7545 10.8444 18.7922 10.8519 18.8298H10.8507ZM10.238 18.0868C10.2468 18.0478 10.3934 18.0215 10.4297 18.0227L10.6139 18.3754C10.4247 18.5035 10.2092 18.2123 10.238 18.0868ZM9.96242 15.1873C10.0088 15.1811 10.1228 15.1861 10.119 15.2225C10.114 15.2714 10.0827 15.3467 10.0476 15.4082L9.92984 15.6103C9.90228 15.658 9.75194 15.6442 9.73064 15.5927C9.67803 15.4723 9.79329 15.2112 9.96367 15.1873H9.96242ZM8.97144 27.5883C8.9752 27.6824 8.90504 27.9071 8.79855 27.936C8.66951 27.9711 8.41644 27.936 8.36131 27.8971L8.97144 27.5896V27.5883ZM8.18592 14.4493L8.2423 15.0769L7.7349 14.8334L8.05437 14.748C8.11451 14.7317 8.08695 14.6037 8.18717 14.4493H8.18592ZM7.42922 12.7134C7.49436 12.6105 7.56327 12.5051 7.63217 12.4536C7.71486 12.3921 7.93536 12.3695 7.97294 12.4473C7.99925 12.5025 7.97294 12.7812 7.91656 12.7611L7.63969 12.662L7.52944 12.8678C7.50063 12.923 7.3315 12.8841 7.20496 12.8427L7.42922 12.7134ZM7.19619 15.3919C7.3102 15.3919 7.4881 15.3957 7.47933 15.4472C7.47056 15.4986 7.443 15.5978 7.41168 15.6668L7.29642 15.9254C7.16362 15.8764 7.16237 15.894 7.07091 15.7333L7.2225 15.5953C7.12228 15.4923 7.11727 15.4032 7.19619 15.3919ZM3.97269 24.6876C4.03157 24.6876 4.09547 24.6123 4.1556 24.5408L4.38361 24.6337C4.19945 24.832 3.91631 24.9387 3.70584 24.6851L3.97269 24.6876Z" fill="var(--fill-0, #2E2720)" fill-opacity="0.16"/>
</svg>
