<svg preserveAspectRatio="none" width="100%" height="100%" overflow="visible" style="display: block;" viewBox="0 0 64 62.5725" fill="none" xmlns="http://www.w3.org/2000/svg">
<path id="Vector" d="M12.5883 44.4787C14.6951 45.8503 16.1904 46.3223 16.4149 49.2844C16.4149 48.7322 17.756 63.2619 17.756 62.5469C17.756 62.9546 28.9191 55.3534 28.9191 55.3293C30.7893 54.5681 33.1927 54.1565 35.0629 55.3293C35.0629 54.9778 46.226 62.4325 46.226 62.5469C46.226 61.9947 47.567 49.3627 47.567 49.2864C47.7915 47.8847 49.2889 46.0552 51.3956 44.4807C51.3956 44.326 64 39.7974 64 40.2292C64 39.2572 54.4866 31.3567 54.4866 30.9189C52.897 29.1758 52.3618 27.039 53.1195 24.9243C53.1195 25.5469 56.7878 13.8648 57.5194 12.4671C56.1764 12.8246 44.462 13.8588 44.462 14.0536C42.2551 16.0217 40.0922 14.0335 38.9316 11.3846C38.9316 11.3967 36.0251 6.38409 33.9744 3.00621C34.0145 3.11666 33.9504 3.32753 33.8983 3.46007L33.8021 3.70307C33.786 3.74324 33.6838 3.81152 33.6698 3.77135L33.5776 3.49622C33.5254 3.3456 33.4312 3.15884 33.4473 3.04838C33.4673 2.91985 33.8241 2.8817 33.9344 2.94998C33.9404 2.95399 33.9444 2.96203 33.9504 2.96604C32.8439 1.14456 31.992 -0.188924 31.992 0.0219424C31.992 0.41556 25.8221 10.5994 25.1185 11.3525C25.2949 11.3425 25.4653 11.4389 25.5695 11.7261C25.3931 11.8024 25.1526 11.7602 24.9481 11.6377C23.7655 14.3749 21.6647 14.6963 19.5219 14.0516C19.5219 13.8086 19.1471 13.6158 18.5237 13.4592C18.5578 13.4973 18.5918 13.5475 18.6019 13.5656C18.6279 13.6098 18.5277 13.7604 18.4856 13.7303C18.4054 13.672 18.1328 13.4933 18.0887 13.5797L17.8722 14.0155L17.5515 13.3949L18.2992 13.407C15.0338 12.69 6.33425 12.7944 6.33425 12.4089C6.33425 12.7804 10.8624 24.3058 10.8624 24.9263C11.6181 27.4467 11.0849 29.718 9.49737 30.9169C9.49737 30.3426 0 39.681 0 40.2272C0 39.5424 12.5863 44.5128 12.5863 44.4787H12.5883ZM54.6149 41.8338L54.6911 42.2395C54.7091 42.3319 54.5447 42.5588 54.4686 42.5066L54.0596 42.2274L54.6149 41.8338ZM47.6452 42.6733L46.8374 42.4222C46.7552 42.1049 47.1802 42.0366 47.3686 42.131C47.545 42.2194 47.6873 42.5447 47.6452 42.6733ZM48.455 38.8174C48.1864 38.5865 48.1984 38.1647 48.3087 37.8494C48.6014 38.1005 48.8359 38.4599 48.455 38.8174ZM48.9201 36.5019L48.6615 36.6826C48.5953 36.7288 48.439 36.5822 48.437 36.4999C48.435 36.4175 48.4971 36.2549 48.5773 36.2649C48.6875 36.279 48.884 36.3312 48.9341 36.285L49.2167 36.0199L49.2709 36.7107C49.1085 36.6184 48.9802 36.4597 48.9201 36.4999V36.5019ZM49.6557 29.2521L49.5294 29.4891C49.4713 29.5995 49.2789 29.9188 49.1686 29.8686C49.0423 29.8104 48.8279 29.5353 48.8659 29.5292C49.4072 29.3344 49.8582 28.8705 49.6557 29.2521ZM52.1133 27.8704C51.9168 27.8282 51.6302 27.5872 51.6843 27.4085L52.4139 27.4808C52.5603 27.4949 52.2496 27.9005 52.1133 27.8704ZM52.883 24.4584C52.7146 24.5307 52.3378 24.4343 52.4741 24.0367L53.2438 24.0427C53.2218 24.1511 53.0213 24.4001 52.883 24.4584ZM53.1756 18.8152C53.0313 18.8112 53.5445 19.2209 53.7169 19.5402L54.4345 19.7008C54.1739 19.8253 53.793 19.8876 53.5104 19.7731C52.9952 19.5623 53.2618 19.01 52.7226 18.9959C52.6805 18.9959 52.6244 18.8654 52.6645 18.8513C52.7046 18.8373 52.8208 18.8031 52.8649 18.8051L53.1776 18.8152H53.1756ZM52.3297 16.6483C52.6084 16.58 52.8209 17.1162 52.5803 17.3913C52.4881 17.4978 52.2756 17.2769 52.1854 17.0901C52.1173 16.9475 52.1133 16.7005 52.3277 16.6483H52.3297ZM51.7364 14.7244L51.3175 15.2325L50.9927 14.4051L51.7364 14.7244ZM49.4192 13.9371L49.5956 13.7022C49.6337 13.652 49.6858 13.5154 49.7078 13.4572C49.7379 13.3788 50.0406 13.3628 50.0566 13.4451C50.0947 13.654 49.758 14.0295 49.5836 14.15C49.5274 14.1882 49.3791 13.9934 49.4192 13.9391V13.9371ZM49.0925 28.4508C49.1486 28.4287 49.2448 28.5372 49.2388 28.5974C49.2208 28.8223 48.7256 29.0312 48.6515 28.9729C48.5853 28.9187 48.3909 28.7239 48.4731 28.6918L48.8379 28.5492L49.0905 28.4508H49.0925ZM48.3648 13.8126L48.4811 14.2083C48.4971 14.2645 48.5873 14.4171 48.6134 14.4593C48.6495 14.5175 48.5212 14.5898 48.439 14.622C48.3728 14.6481 48.3127 14.5376 48.2887 14.4573L48.0862 13.8267C48.006 13.8247 48.3428 13.7343 48.3668 13.8126H48.3648ZM47.5109 23.0345C47.3225 23.0606 47.088 22.8719 47.0098 22.6028L47.9158 22.6269C47.7855 22.8498 47.6372 23.0185 47.5109 23.0345ZM47.4207 14.0697C47.4889 14.2203 47.4327 14.5577 47.3726 14.6621L46.8254 14.0335C46.9196 13.9813 47.3626 13.9371 47.4207 14.0677V14.0697ZM46.9817 39.0624C47.1701 39.0865 47.3305 39.5444 47.1982 39.6448C46.9998 39.7954 46.8153 39.5906 46.8113 39.4299C46.8073 39.3155 46.8675 39.0504 46.9817 39.0644V39.0624ZM45.4723 39.7211C45.8011 39.6127 46.1779 39.7332 46.2681 40.179L45.4503 40.0625L45.4723 39.7211ZM19.2333 41.7715C19.2453 41.7274 19.3996 41.6952 19.4437 41.6952C19.7484 41.6872 19.2954 42.3339 19.2172 42.3198L18.7542 42.2314L19.103 42.0909C19.1812 42.0587 19.2012 41.884 19.2313 41.7715H19.2333ZM19.2052 36.4075C19.1972 36.2207 19.8767 36.2348 19.9389 36.4135C19.9629 36.4858 19.7625 36.4738 19.6843 36.4617C19.5981 36.4477 19.554 36.6866 19.536 36.8031C19.5259 36.8734 19.2293 36.9236 19.2253 36.8533L19.2032 36.4075H19.2052ZM19.1671 46.5512C19.6121 46.4869 19.9509 46.5653 20.2696 46.8143C19.8246 47.0352 19.3856 46.993 19.1671 46.5512ZM20.1814 46.0973L20.8649 46.1495L20.5943 46.4367C20.5342 46.501 20.7206 46.5813 20.9812 46.8725L20.3418 46.9368C20.436 46.4789 20.4099 46.4689 20.1794 46.0973H20.1814ZM20.5843 32.7605C20.5803 32.4392 20.8389 31.897 21.1195 31.6399C21.332 31.917 20.9732 31.9432 20.9852 32.7485C20.9852 32.8589 20.5863 32.887 20.5863 32.7625L20.5843 32.7605ZM22.1899 55.1666L22.212 54.3051L22.8193 54.8473L22.1899 55.1666ZM23.2704 44.8382L23.4387 44.2999C23.4387 44.2999 23.7615 44.2678 23.7655 44.3702L23.7815 44.8602C23.7855 44.9807 23.2343 44.9506 23.2704 44.8382ZM24.451 45.4085L23.3646 45.7419C23.537 45.2338 24.0301 45.2157 24.451 45.4085ZM25.4012 55.8374C25.4192 55.8695 25.4232 55.9338 25.3851 55.9378C25.321 55.9438 25.1366 55.9438 25.0844 55.9157L24.888 55.8113C24.8339 55.7831 24.7677 55.9398 24.7717 56.0101L24.7898 56.3434C24.7918 56.3876 24.6655 56.4238 24.6394 56.3896L24.5051 56.2109C24.2987 56.3816 23.9739 56.4117 23.8036 56.2792C24.0942 56.1647 24.3047 56.0161 24.441 55.7811L24.6495 55.4257C24.7076 55.3273 25.0363 55.3393 25.1546 55.3192C25.2167 55.3092 25.0784 55.1084 25.0403 55.0602C25.0023 55.01 25.1406 54.9477 25.2027 54.9477C25.2648 54.9477 25.4332 55.0782 25.4212 55.1425L25.317 55.6948L25.3992 55.8394L25.4012 55.8374ZM26.9406 54.6364C26.9266 54.6766 26.8624 54.787 26.8544 54.7489C26.8404 54.6907 26.7983 54.5059 26.7642 54.4597C26.67 54.3312 26.3212 54.2749 26.2571 54.1303C26.1789 53.9596 26.1989 53.4957 26.243 53.3873L27.1952 53.9737L26.9426 54.6384L26.9406 54.6364ZM28.3077 45.8985C28.2075 45.8242 28.1533 45.6073 28.1233 45.4366L28.0411 44.9848C28.017 44.8562 28.5703 44.8582 28.5743 44.9888C28.5823 45.2037 28.6264 45.4888 28.7467 45.8503C28.8329 45.8744 28.4079 45.9728 28.3077 45.8985ZM30.7933 52.6503C30.8414 52.7065 30.8314 52.8973 30.7592 52.9033L30.3543 52.9354L30.1118 52.9535C30.0636 52.9575 29.9875 52.7908 30.0336 52.7848L30.4225 52.7306L30.4445 51.602C30.4445 51.5056 30.8514 51.5658 30.9055 51.4855L31.1802 51.0899L31.2062 51.9715L30.675 51.7004L30.6049 52.4354L30.7933 52.6503ZM29.9554 50.7464C30.3122 50.7023 30.7412 50.879 30.8394 51.1662C30.8735 51.2646 30.4766 51.4353 30.4144 51.3529L29.9554 50.7464ZM35.6883 46.9609L36.0351 46.8765C36.0732 46.8665 35.9228 46.754 35.8908 46.7319C35.8587 46.7098 35.7865 46.6235 35.8226 46.6114C35.8587 46.5974 35.991 46.5512 36.0291 46.5512H36.3578C36.426 46.5492 36.454 46.8303 36.3939 46.8605L35.7184 47.1918C35.6642 47.2179 35.6322 46.9769 35.6903 46.9629L35.6883 46.9609ZM36.5122 53.8251C36.2235 53.5781 36.0852 53.2347 36.3338 52.8631L36.444 53.2427C36.4701 53.3351 36.6304 53.3471 36.8369 53.3893L36.5122 53.8251ZM37.1436 45.7158C37.0714 45.6736 36.9832 45.5029 37.0033 45.4185L37.0654 45.1595C37.0834 45.0832 37.3681 45.0731 37.3841 45.1494L37.4643 45.5651C37.4823 45.6635 37.2157 45.7579 37.1436 45.7158ZM38.7813 47.0271L38.4385 47.2059C38.3423 47.2561 38.5247 47.5312 38.5648 47.6377C38.5948 47.72 38.2601 47.7019 38.204 47.6336C38.1478 47.5674 38.0737 47.4147 38.1158 47.3384L38.3262 46.9468C38.3844 46.8384 38.8935 46.9689 38.7833 47.0251L38.7813 47.0271ZM39.978 46.5632C39.9419 46.5793 39.8617 46.3564 39.8978 46.3403L40.1564 46.2359C40.0702 46.1616 39.9459 45.7278 40.0822 45.7298C40.2526 45.7338 40.4951 45.9126 40.6374 46.0411C40.463 46.2259 40.1483 46.4809 39.976 46.5632H39.978ZM39.8056 42.368L40.1764 42.0889C40.1744 42.6552 40.5993 42.9163 40.4169 42.9002C40.3728 42.8962 40.1744 42.9102 40.1503 42.8741L39.8056 42.366V42.368ZM42.1709 51.0115L41.5475 51.3429L42.1148 50.3468L42.4275 50.6621C42.4996 50.7364 42.2711 50.9593 42.1709 51.0115ZM43.8527 42.2736L43.6181 42.6552L44.0992 42.8058L43.5781 42.9283C43.4778 42.9524 43.3816 42.6793 43.4137 42.5809C43.4538 42.4624 43.5881 42.2656 43.6763 42.1652C43.7144 42.121 43.8807 42.2274 43.8527 42.2736ZM43.0068 26.5751L43.1912 26.4385C43.2493 26.3964 43.4698 26.5048 43.4417 26.5711L43.2934 26.9205C43.2694 26.9767 43.4658 27.1253 43.4077 27.1555L43.1711 27.28C43.113 27.3101 43.0429 27.0872 43.0128 27.029L42.8965 26.808C42.8664 26.7518 42.9567 26.6132 43.0068 26.5751ZM42.686 40.6911L43.1391 41.0225C43.2734 41.1209 43.121 41.3819 43.0028 41.388C42.4696 41.4141 42.8364 40.8859 42.1869 40.8116C42.223 40.7514 42.5838 40.6148 42.686 40.6911ZM41.5274 21.2974L42.1969 20.956C42.1428 21.5424 41.6257 21.3416 41.2969 21.4299L40.6274 21.6127C40.7537 21.1508 41.1787 21.1568 41.5274 21.2974ZM35.7785 9.7198L35.9228 9.32016C36.0231 9.67161 36.0291 10.019 35.9529 10.4729L35.7524 10.0512C35.7124 9.96883 35.5219 9.9146 35.4337 9.87645C35.5801 9.82624 35.7504 9.79612 35.7785 9.7198ZM34.7883 16.7728C34.7983 17.2769 34.3493 17.7629 33.7379 17.5701L34.7883 16.7728ZM31.7494 16.1964L31.4167 16.1482C31.3345 16.1362 31.4748 15.8811 31.5089 15.8048L31.6893 15.4172C31.7434 15.3007 32.2846 15.4514 32.1644 15.5016L31.9118 15.604C31.6753 15.7004 31.8697 16.2145 31.7474 16.1964H31.7494ZM31.6392 18.0079L32.018 18.2288C32.0982 18.275 32.2826 17.9958 32.3748 18.0259L33.1867 18.3031L32.6675 18.6244C32.2987 18.4095 32.0341 18.3453 31.6272 18.3734L31.6412 18.0079H31.6392ZM32.455 5.75149L32.1443 6.16519L31.573 5.57878C31.9238 5.57878 32.1102 5.631 32.455 5.75149ZM31.7835 14.391C31.8216 14.3769 31.996 14.3749 31.994 14.4151C31.992 14.4553 31.9779 14.5637 31.9399 14.5758L31.6312 14.6742C31.6933 14.7565 31.8276 14.9091 31.8076 15.0095C31.7835 15.128 31.535 15.359 31.4888 15.361C31.2603 14.9252 31.4648 14.5095 31.7855 14.393L31.7835 14.391ZM30.3403 7.99471C30.4425 8.02685 30.6029 8.32206 30.6109 8.43051C30.6169 8.53694 30.4164 8.56506 30.234 8.56707C30.0837 8.56907 30.0095 8.45059 29.9313 8.12324L29.318 8.3803C29.4202 7.89631 30.0737 7.90836 30.3423 7.99471H30.3403ZM28.7607 9.82624C28.893 9.86641 28.7667 10.3886 28.6605 10.3022C28.5061 10.1757 28.2876 9.94071 28.1794 9.80214C28.4701 9.79411 28.6465 9.79411 28.7587 9.82825L28.7607 9.82624ZM28.1834 22.5787L28.5763 22.3919L28.887 22.2453C28.9572 22.2132 29.0614 22.4662 29.0093 22.5224C28.9572 22.5787 28.887 22.6128 28.7166 22.6871L28.3658 22.8417C28.2917 22.8759 28.1072 22.6148 28.1814 22.5807L28.1834 22.5787ZM27.4277 10.3323L27.4017 10.973C27.6803 11.0352 27.7865 11.0633 27.8106 11.1216C27.8447 11.2019 27.7104 11.3686 27.6282 11.3164C27.4939 11.232 27.2212 11.1276 27.1932 10.993C27.1591 10.8284 27.111 10.3926 27.4277 10.3323ZM23.9258 15.851C24.002 15.9133 24.2806 16.094 24.3227 16.0056L24.5292 15.5759C24.6735 15.8209 24.5472 16.2346 24.3448 16.345L23.6292 16.1081C23.575 16.1342 23.8356 15.7807 23.9258 15.851ZM22.0697 30.4711C22.9817 27.3904 25.764 23.8238 29.2037 23.3318C31.7234 22.8096 34.1549 23.0747 36.2235 23.9523C36.2035 23.9362 36.1854 23.9182 36.1694 23.8981C36.0732 23.7796 36.019 23.5346 36.0431 23.4161L36.6685 23.7334C36.6284 23.9644 36.5182 24.0387 36.4039 24.0306C40.6695 25.9365 43.3315 30.4892 41.9283 36.1263C41.0083 40.6871 38.214 42.0065 34.7662 43.2677C26.9186 46.3946 19.989 37.7048 22.0697 30.4711ZM21.5725 47.8887L21.1997 47.9148C21.1055 47.9208 20.9171 47.8927 20.8349 47.8726C20.7527 47.8525 20.7848 47.5031 20.8649 47.5232L21.2879 47.6336L21.5284 47.6718C21.5826 47.6798 21.6287 47.8847 21.5725 47.8887ZM20.5843 16.1342C20.6565 16.0358 20.8168 15.8209 20.9191 15.8671L21.4924 16.1161L20.895 16.2165C20.7908 16.2346 20.7988 16.5157 20.7066 16.568C20.6024 16.6262 20.5122 16.2326 20.5823 16.1362L20.5843 16.1342ZM20.1834 43.5047L19.5841 43.5147L19.5781 43.099L20.1774 43.089L20.1834 43.5047ZM20.1032 35.2708C20.1674 35.2548 20.1714 35.6303 20.1072 35.6403C19.9288 35.6685 19.5841 35.6544 19.3155 35.6162L19.8727 35.321C19.9188 35.2969 20.0611 35.2829 20.1032 35.2708ZM19.2633 33.8831L19.7765 34.6884C19.6683 34.6884 19.2253 34.6503 19.1852 34.6181C19.0489 34.2426 19.0408 34.0799 19.2653 33.8851L19.2633 33.8831ZM18.9166 40.9381L19.127 40.8698C19.1792 40.8538 19.1691 41.149 19.127 41.1831C18.9647 41.3137 18.5096 41.3137 18.3012 41.2112L18.9186 40.9361L18.9166 40.9381ZM18.2871 59.7655C18.3753 59.8017 18.4054 60.0527 18.3974 60.1631L18.3673 60.5447C18.3613 60.625 18.1468 60.6612 18.0827 60.611C18.0185 60.5608 17.9925 60.38 17.9865 60.2756L17.9624 59.9161C17.9564 59.8197 18.1989 59.7274 18.2871 59.7655ZM17.9404 39.9079L17.8161 40.1348C17.786 40.1911 17.756 40.2674 17.8101 40.2814L18.1929 40.3859C17.8542 40.6429 17.5014 40.4742 17.353 40.1569C17.5836 39.9701 17.8061 39.8737 17.9404 39.9059V39.9079ZM16.8279 37.4859C16.7357 37.4899 16.8058 37.028 16.8239 37.1305L17.8161 37.4458L16.8279 37.4859ZM17.4693 35.4435C17.325 35.568 17.0644 35.3532 17.1626 35.1483C17.2207 35.0258 17.329 34.8792 17.5034 34.6904C17.5816 34.8692 17.6176 35.317 17.4713 35.4435H17.4693ZM17.3611 30.1277C17.3751 30.208 17.337 30.443 17.2648 30.4932L17.0143 30.6659C16.9481 30.7101 16.7397 30.5956 16.7617 30.5193C16.7818 30.443 16.8519 30.2642 16.9121 30.2161L17.1245 30.0453C17.1726 30.0072 17.351 30.0674 17.3631 30.1277H17.3611ZM16.3809 28.9388C16.3949 28.8765 16.6294 28.8344 16.6875 28.8364L16.9822 29.4007C16.6795 29.6055 16.3348 29.1396 16.3809 28.9388ZM15.9399 24.2997C16.014 24.2897 16.1964 24.2977 16.1904 24.356C16.1824 24.4343 16.1323 24.5548 16.0762 24.6532L15.8877 24.9765C15.8436 25.0528 15.6031 25.0307 15.569 24.9484C15.4848 24.7556 15.6693 24.3379 15.9419 24.2997H15.9399ZM14.3543 44.1413C14.3603 44.2919 14.2481 44.6514 14.0777 44.6976C13.8712 44.7538 13.4663 44.6976 13.3781 44.6353L14.3543 44.1433V44.1413ZM13.0975 23.1189L13.1877 24.123L12.3758 23.7334L12.887 23.5968C12.9832 23.5707 12.9391 23.3659 13.0995 23.1189H13.0975ZM11.8867 20.3415C11.991 20.1768 12.1012 20.0081 12.2115 19.9258C12.3438 19.8274 12.6966 19.7912 12.7567 19.9157C12.7988 20.0041 12.7567 20.4499 12.6665 20.4178L12.2235 20.2591L12.0471 20.5885C12.001 20.6768 11.7304 20.6146 11.5279 20.5483L11.8867 20.3415ZM11.5139 24.6271C11.6963 24.6271 11.981 24.6331 11.9669 24.7154C11.9529 24.7978 11.9088 24.9564 11.8587 25.0669L11.6743 25.4806C11.4618 25.4023 11.4598 25.4304 11.3135 25.1733L11.556 24.9524C11.3956 24.7877 11.3876 24.6452 11.5139 24.6271ZM6.3563 39.5002C6.45051 39.5002 6.55274 39.3797 6.64896 39.2652L7.01378 39.4139C6.71912 39.7312 6.2661 39.9019 5.92934 39.4962L6.3563 39.5002Z" fill="var(--fill-0, #2E2720)" fill-opacity="0.16"/>
</svg>
