<svg preserveAspectRatio="none" width="100%" height="100%" overflow="visible" style="display: block;" viewBox="0 0 32 31.2862" fill="none" xmlns="http://www.w3.org/2000/svg">
<path id="Vector" d="M6.29416 22.2393C7.34753 22.9252 8.09521 23.1611 8.20747 24.6422C8.20747 24.3661 8.87798 31.6309 8.87798 31.2735C8.87798 31.4773 14.4595 27.6767 14.4595 27.6646C15.3946 27.2841 16.5963 27.0782 17.5314 27.6646C17.5314 27.4889 23.113 31.2162 23.113 31.2735C23.113 30.9973 23.7835 24.6814 23.7835 24.6432C23.8958 23.9423 24.6445 23.0276 25.6978 22.2403C25.6978 22.163 32 19.8987 32 20.1146C32 19.6286 27.2433 15.6784 27.2433 15.4595C26.4485 14.5879 26.1809 13.5195 26.5598 12.4622C26.5598 12.7734 28.3939 6.93242 28.7597 6.23355C28.0882 6.41228 22.231 6.92941 22.231 7.02681C21.1275 8.01085 20.0461 7.01677 19.4658 5.69232C19.4658 5.69835 18.0125 3.19205 16.9872 1.5031C17.0073 1.55833 16.9752 1.66376 16.9491 1.73004L16.901 1.85154C16.893 1.87162 16.8419 1.90576 16.8349 1.88568L16.7888 1.74811C16.7627 1.6728 16.7156 1.57942 16.7236 1.52419C16.7337 1.45993 16.9121 1.44085 16.9672 1.47499C16.9702 1.477 16.9722 1.48101 16.9752 1.48302C16.422 0.572278 15.996 -0.0944621 15.996 0.0109712C15.996 0.20778 12.911 5.29971 12.5593 5.67626C12.6475 5.67124 12.7326 5.71944 12.7848 5.86303C12.6966 5.90118 12.5763 5.8801 12.4741 5.81884C11.8827 7.18747 10.8324 7.34813 9.76096 7.0258C9.76096 6.90431 9.57354 6.80791 9.26184 6.72959C9.27888 6.74867 9.29592 6.77377 9.30093 6.78281C9.31396 6.8049 9.26384 6.88021 9.2428 6.86514C9.20271 6.83602 9.0664 6.74666 9.04435 6.78983L8.93611 7.00773L8.77575 6.69745L9.14959 6.70348C7.51691 6.34501 3.16713 6.39722 3.16713 6.20443C3.16713 6.39019 5.43122 12.1529 5.43122 12.4632C5.80907 13.7233 5.54247 14.859 4.74868 15.4585C4.74868 15.1713 0 19.8405 0 20.1136C0 19.7712 6.29316 22.2564 6.29316 22.2393H6.29416ZM27.3074 20.9169L27.3455 21.1197C27.3545 21.1659 27.2724 21.2794 27.2343 21.2533L27.0298 21.1137L27.3074 20.9169ZM23.8226 21.3366L23.4187 21.2111C23.3776 21.0525 23.5901 21.0183 23.6843 21.0655C23.7725 21.1097 23.8436 21.2724 23.8226 21.3366ZM24.2275 19.4087C24.0932 19.2932 24.0992 19.0824 24.1543 18.9247C24.3007 19.0502 24.4179 19.23 24.2275 19.4087ZM24.46 18.2509L24.3307 18.3413C24.2977 18.3644 24.2195 18.2911 24.2185 18.2499C24.2175 18.2088 24.2486 18.1274 24.2886 18.1325C24.3438 18.1395 24.442 18.1656 24.4671 18.1425L24.6084 18.01L24.6354 18.3554C24.5542 18.3092 24.4901 18.2299 24.46 18.2499V18.2509ZM24.8279 14.626L24.7647 14.7445C24.7357 14.7998 24.6394 14.9594 24.5843 14.9343C24.5212 14.9052 24.4139 14.7676 24.433 14.7646C24.7036 14.6672 24.9291 14.4353 24.8279 14.626ZM26.0566 13.9352C25.9584 13.9141 25.8151 13.7936 25.8421 13.7043L26.207 13.7404C26.2801 13.7474 26.1248 13.9503 26.0566 13.9352ZM26.4415 12.2292C26.3573 12.2653 26.1689 12.2171 26.237 12.0183L26.6219 12.0213C26.6109 12.0756 26.5107 12.2001 26.4415 12.2292ZM26.5878 9.40759C26.5157 9.40559 26.7722 9.61043 26.8584 9.77008L27.2172 9.85041C27.0869 9.91267 26.8965 9.9438 26.7552 9.88656C26.4976 9.78113 26.6309 9.50499 26.3613 9.49797C26.3403 9.49797 26.3122 9.4327 26.3322 9.42567C26.3523 9.41864 26.4104 9.40157 26.4325 9.40257L26.5888 9.40759H26.5878ZM26.1649 8.32414C26.3042 8.29 26.4104 8.5581 26.2902 8.69567C26.2441 8.74889 26.1378 8.63843 26.0927 8.54505C26.0586 8.47376 26.0566 8.35025 26.1639 8.32414H26.1649ZM25.8682 7.36219L25.6587 7.61623L25.4964 7.20253L25.8682 7.36219ZM24.7096 6.96857L24.7978 6.85109C24.8168 6.82598 24.8429 6.7577 24.8539 6.72858C24.869 6.68942 25.0203 6.68139 25.0283 6.72256C25.0474 6.82699 24.879 7.01476 24.7918 7.07501C24.7637 7.09409 24.6896 6.99668 24.7096 6.96957V6.96857ZM24.5462 14.2254C24.5743 14.2144 24.6224 14.2686 24.6194 14.2987C24.6104 14.4112 24.3628 14.5156 24.3257 14.4865C24.2927 14.4594 24.1954 14.362 24.2365 14.3459L24.4189 14.2746L24.5452 14.2254H24.5462ZM24.1824 6.90631L24.2405 7.10413C24.2486 7.13224 24.2937 7.20856 24.3067 7.22964C24.3247 7.25876 24.2606 7.29491 24.2195 7.31098C24.1864 7.32403 24.1564 7.2688 24.1443 7.22864L24.0431 6.91334C24.003 6.91234 24.1714 6.86715 24.1834 6.90631H24.1824ZM23.7555 11.5173C23.6612 11.5303 23.544 11.4359 23.5049 11.3014L23.9579 11.3134C23.8928 11.4249 23.8186 11.5092 23.7555 11.5173ZM23.7103 7.03484C23.7444 7.11015 23.7164 7.27884 23.6863 7.33106L23.4127 7.01677C23.4598 6.99066 23.6813 6.96857 23.7103 7.03384V7.03484ZM23.4909 19.5312C23.5851 19.5433 23.6652 19.7722 23.5991 19.8224C23.4999 19.8977 23.4077 19.7953 23.4057 19.715C23.4037 19.6577 23.4337 19.5252 23.4909 19.5322V19.5312ZM22.7362 19.8606C22.9005 19.8063 23.089 19.8666 23.1341 20.0895L22.7251 20.0313L22.7362 19.8606ZM9.61664 20.8858C9.62265 20.8637 9.69982 20.8476 9.72187 20.8476C9.87422 20.8436 9.64771 21.1669 9.60862 21.1599L9.3771 21.1157L9.55149 21.0454C9.59058 21.0294 9.6006 20.942 9.61564 20.8858H9.61664ZM9.60261 18.2038C9.5986 18.1104 9.93836 18.1174 9.96943 18.2068C9.98146 18.2429 9.88123 18.2369 9.84215 18.2309C9.79905 18.2238 9.777 18.3433 9.76798 18.4016C9.76297 18.4367 9.61463 18.4618 9.61263 18.4267L9.6016 18.2038H9.60261ZM9.58356 23.2756C9.80606 23.2435 9.97545 23.2826 10.1348 23.4071C9.9123 23.5176 9.69281 23.4965 9.58356 23.2756ZM10.0907 23.0487L10.4325 23.0748L10.2972 23.2184C10.2671 23.2505 10.3603 23.2907 10.4906 23.4363L10.1709 23.4684C10.218 23.2394 10.205 23.2344 10.0897 23.0487H10.0907ZM10.2922 16.3803C10.2902 16.2196 10.4194 15.9485 10.5598 15.82C10.666 15.9585 10.4866 15.9716 10.4926 16.3742C10.4926 16.4295 10.2932 16.4435 10.2932 16.3813L10.2922 16.3803ZM11.095 27.5833L11.106 27.1525L11.4097 27.4236L11.095 27.5833ZM11.6352 22.4191L11.7194 22.15C11.7194 22.15 11.8807 22.1339 11.8827 22.1851L11.8908 22.4301C11.8928 22.4904 11.6171 22.4753 11.6352 22.4191ZM12.2255 22.7042L11.6823 22.8709C11.7685 22.6169 12.015 22.6079 12.2255 22.7042ZM12.7006 27.9187C12.7096 27.9347 12.7116 27.9669 12.6926 27.9689C12.6605 27.9719 12.5683 27.9719 12.5422 27.9578L12.444 27.9056C12.4169 27.8916 12.3839 27.9699 12.3859 28.005L12.3949 28.1717C12.3959 28.1938 12.3327 28.2119 12.3197 28.1948L12.2526 28.1055C12.1493 28.1908 11.987 28.2059 11.9018 28.1396C12.0471 28.0824 12.1523 28.008 12.2205 27.8906L12.3247 27.7128C12.3538 27.6636 12.5182 27.6697 12.5773 27.6596C12.6084 27.6546 12.5392 27.5542 12.5202 27.5301C12.5011 27.505 12.5703 27.4739 12.6014 27.4739C12.6324 27.4739 12.7166 27.5391 12.7106 27.5713L12.6585 27.8474L12.6996 27.9197L12.7006 27.9187ZM13.4703 27.3182C13.4633 27.3383 13.4312 27.3935 13.4272 27.3744C13.4202 27.3453 13.3991 27.2529 13.3821 27.2299C13.335 27.1656 13.1606 27.1375 13.1285 27.0652C13.0895 26.9798 13.0995 26.7479 13.1215 26.6936L13.5976 26.9869L13.4713 27.3192L13.4703 27.3182ZM14.1538 22.9493C14.1037 22.9121 14.0767 22.8037 14.0616 22.7183L14.0205 22.4924C14.0085 22.4281 14.2851 22.4291 14.2871 22.4944C14.2912 22.6018 14.3132 22.7444 14.3733 22.9252C14.4164 22.9372 14.204 22.9864 14.1538 22.9493ZM15.3966 26.3251C15.4207 26.3532 15.4157 26.4486 15.3796 26.4517L15.1772 26.4677L15.0559 26.4768C15.0318 26.4788 14.9937 26.3954 15.0168 26.3924L15.2112 26.3653L15.2223 25.801C15.2223 25.7528 15.4257 25.7829 15.4528 25.7427L15.5901 25.5449L15.6031 25.9857L15.3375 25.8502L15.3024 26.2177L15.3966 26.3251ZM14.9777 25.3732C15.1561 25.3511 15.3706 25.4395 15.4197 25.5831C15.4367 25.6323 15.2383 25.7176 15.2072 25.6765L14.9777 25.3732ZM17.8442 23.4804L18.0175 23.4383C18.0366 23.4332 17.9614 23.377 17.9454 23.366C17.9293 23.3549 17.8933 23.3117 17.9113 23.3057C17.9293 23.2987 17.9955 23.2756 18.0145 23.2756H18.1789C18.213 23.2746 18.227 23.4152 18.1969 23.4302L17.8592 23.5959C17.8321 23.609 17.8161 23.4885 17.8452 23.4814L17.8442 23.4804ZM18.2561 26.9125C18.1118 26.789 18.0426 26.6173 18.1669 26.4316L18.222 26.6213C18.235 26.6675 18.3152 26.6736 18.4184 26.6946L18.2561 26.9125ZM18.5718 22.8579C18.5357 22.8368 18.4916 22.7514 18.5016 22.7093L18.5327 22.5797C18.5417 22.5416 18.684 22.5366 18.6921 22.5747L18.7321 22.7826C18.7412 22.8318 18.6079 22.879 18.5718 22.8579ZM19.3906 23.5136L19.2192 23.6029C19.1711 23.628 19.2623 23.7656 19.2824 23.8188C19.2974 23.86 19.13 23.851 19.102 23.8168C19.0739 23.7837 19.0368 23.7074 19.0579 23.6692L19.1631 23.4734C19.1922 23.4192 19.4468 23.4845 19.3916 23.5126L19.3906 23.5136ZM19.989 23.2816C19.9709 23.2897 19.9308 23.1782 19.9489 23.1702L20.0782 23.1179C20.0351 23.0808 19.9729 22.8639 20.0411 22.8649C20.1263 22.8669 20.2476 22.9563 20.3187 23.0205C20.2315 23.1129 20.0742 23.2405 19.988 23.2816H19.989ZM19.9028 21.184L20.0882 21.0444C20.0872 21.3276 20.2997 21.4581 20.2085 21.4501C20.1864 21.4481 20.0872 21.4551 20.0752 21.437L19.9028 21.183V21.184ZM21.0854 25.5058L20.7737 25.6714L21.0574 25.1734L21.2137 25.331C21.2498 25.3682 21.1356 25.4797 21.0854 25.5058ZM21.9263 21.1368L21.8091 21.3276L22.0496 21.4029L21.789 21.4642C21.7389 21.4762 21.6908 21.3396 21.7068 21.2904C21.7269 21.2312 21.794 21.1328 21.8381 21.0826C21.8572 21.0605 21.9404 21.1137 21.9263 21.1368ZM21.5034 13.2875L21.5956 13.2193C21.6247 13.1982 21.7349 13.2524 21.7209 13.2855L21.6467 13.4603C21.6347 13.4884 21.7329 13.5627 21.7038 13.5777L21.5856 13.64C21.5565 13.6551 21.5214 13.5436 21.5064 13.5145L21.4483 13.404C21.4332 13.3759 21.4783 13.3066 21.5034 13.2875ZM21.343 20.3456L21.5695 20.5112C21.6367 20.5604 21.5605 20.691 21.5014 20.694C21.2348 20.707 21.4182 20.443 21.0935 20.4058C21.1115 20.3757 21.2919 20.3074 21.343 20.3456ZM20.7637 10.6487L21.0985 10.478C21.0714 10.7712 20.8128 10.6708 20.6485 10.715L20.3137 10.8063C20.3769 10.5754 20.5893 10.5784 20.7637 10.6487ZM17.8893 4.8599L17.9614 4.66008C18.0115 4.8358 18.0145 5.00952 17.9764 5.23645L17.8762 5.02558C17.8562 4.98441 17.761 4.9573 17.7169 4.93822C17.79 4.91312 17.8752 4.89806 17.8893 4.8599ZM17.3941 8.3864C17.3991 8.63843 17.1746 8.88143 16.869 8.78504L17.3941 8.3864ZM15.8747 8.09821L15.7083 8.07411C15.6673 8.06809 15.7374 7.94056 15.7544 7.90241L15.8446 7.70861C15.8717 7.65037 16.1423 7.72568 16.0822 7.75078L15.9559 7.80199C15.8376 7.85019 15.9349 8.10725 15.8737 8.09821H15.8747ZM15.8196 9.00394L16.009 9.11439C16.0491 9.13748 16.1413 8.99791 16.1874 9.01297L16.5933 9.15154L16.3338 9.3122C16.1493 9.20476 16.017 9.17263 15.8136 9.18669L15.8206 9.00394H15.8196ZM16.2275 2.87575L16.0722 3.0826L15.7865 2.78939C15.9619 2.78939 16.0551 2.8155 16.2275 2.87575ZM15.8918 7.1955C15.9108 7.18847 15.998 7.18747 15.997 7.20755C15.996 7.22763 15.989 7.28186 15.9699 7.28788L15.8156 7.33708C15.8467 7.37825 15.9138 7.45457 15.9038 7.50477C15.8918 7.56402 15.7675 7.67949 15.7444 7.6805C15.6302 7.4626 15.7324 7.25475 15.8928 7.19651L15.8918 7.1955ZM15.1701 3.99736C15.2212 4.01342 15.3014 4.16103 15.3054 4.21525C15.3084 4.26847 15.2082 4.28253 15.117 4.28353C15.0418 4.28454 15.0048 4.22529 14.9657 4.06162L14.659 4.19015C14.7101 3.94815 15.0368 3.95418 15.1711 3.99736H15.1701ZM14.3804 4.91312C14.4465 4.9332 14.3834 5.19428 14.3302 5.1511C14.2531 5.08784 14.1438 4.97036 14.0897 4.90107C14.235 4.89705 14.3232 4.89705 14.3794 4.91413L14.3804 4.91312ZM14.0917 11.2893L14.2881 11.1959L14.4435 11.1226C14.4786 11.1066 14.5307 11.2331 14.5046 11.2612C14.4786 11.2893 14.4435 11.3064 14.3583 11.3436L14.1829 11.4209C14.1458 11.4379 14.0536 11.3074 14.0907 11.2903L14.0917 11.2893ZM13.7139 5.16616L13.7008 5.48648C13.8401 5.51761 13.8933 5.53166 13.9053 5.56078C13.9223 5.60095 13.8552 5.68429 13.8141 5.65818C13.7469 5.61601 13.6106 5.5638 13.5966 5.49652C13.5796 5.41418 13.5555 5.19628 13.7139 5.16616ZM11.9629 7.9255C12.001 7.95663 12.1403 8.047 12.1614 8.00282L12.2646 7.78794C12.3368 7.91044 12.2736 8.11729 12.1724 8.17252L11.8146 8.05403C11.7875 8.06708 11.9178 7.89036 11.9629 7.9255ZM11.0348 15.2356C11.4909 13.6952 12.882 11.9119 14.6019 11.6659C15.8617 11.4048 17.0774 11.5373 18.1118 11.9762C18.1017 11.9681 18.0927 11.9591 18.0847 11.949C18.0366 11.8898 18.0095 11.7673 18.0215 11.7081L18.3343 11.8667C18.3142 11.9822 18.2591 12.0193 18.202 12.0153C20.3348 12.9682 21.6657 15.2446 20.9642 18.0632C20.5041 20.3435 19.107 21.0033 17.3831 21.6338C13.4593 23.1973 9.99449 18.8524 11.0348 15.2356ZM10.7863 23.9443L10.5998 23.9574C10.5527 23.9604 10.4585 23.9464 10.4174 23.9363C10.3763 23.9263 10.3924 23.7516 10.4325 23.7616L10.6439 23.8168L10.7642 23.8359C10.7913 23.8399 10.8143 23.9423 10.7863 23.9443ZM10.2922 8.06708C10.3282 8.01788 10.4084 7.91044 10.4595 7.93354L10.7462 8.05805L10.4475 8.10825C10.3954 8.11729 10.3994 8.25787 10.3533 8.28398C10.3012 8.3131 10.2561 8.11629 10.2912 8.06809L10.2922 8.06708ZM10.0917 21.7523L9.79203 21.7574L9.78903 21.5495L10.0887 21.5445L10.0917 21.7523ZM10.0516 17.6354C10.0837 17.6274 10.0857 17.8152 10.0536 17.8202C9.96442 17.8342 9.79203 17.8272 9.65773 17.8081L9.93636 17.6605C9.95941 17.6485 10.0306 17.6414 10.0516 17.6354ZM9.63167 16.9416L9.88825 17.3442C9.83413 17.3442 9.61263 17.3251 9.59258 17.3091C9.52443 17.1213 9.52042 17.04 9.63267 16.9426L9.63167 16.9416ZM9.45828 20.4691L9.56352 20.4349C9.58958 20.4269 9.58457 20.5745 9.56352 20.5916C9.48234 20.6568 9.25482 20.6568 9.15059 20.6056L9.45928 20.4681L9.45828 20.4691ZM9.14357 29.8828C9.18767 29.9008 9.20271 30.0263 9.1987 30.0816L9.18366 30.2724C9.18066 30.3125 9.07342 30.3306 9.04134 30.3055C9.00927 30.2804 8.99624 30.19 8.99324 30.1378L8.98121 29.9581C8.9782 29.9099 9.09947 29.8637 9.14357 29.8828ZM8.97018 19.9539L8.90804 20.0674C8.89301 20.0955 8.87798 20.1337 8.90504 20.1407L9.09647 20.1929C8.92709 20.3215 8.75069 20.2371 8.67652 20.0785C8.79178 19.9851 8.90303 19.9369 8.97018 19.9529V19.9539ZM8.41393 18.743C8.36783 18.745 8.40291 18.514 8.41193 18.5652L8.90804 18.7229L8.41393 18.743ZM8.73465 17.7218C8.66249 17.784 8.5322 17.6766 8.58131 17.5742C8.61037 17.5129 8.6645 17.4396 8.75169 17.3452C8.79078 17.4346 8.80882 17.6585 8.73565 17.7218H8.73465ZM8.68053 15.0638C8.68755 15.104 8.6685 15.2215 8.63242 15.2466L8.50714 15.333C8.47407 15.355 8.36983 15.2978 8.38086 15.2596C8.39088 15.2215 8.42596 15.1321 8.45603 15.108L8.56227 15.0227C8.58632 15.0036 8.67552 15.0337 8.68153 15.0638H8.68053ZM8.19043 14.4694C8.19745 14.4383 8.31471 14.4172 8.34377 14.4182L8.49111 14.7004C8.33977 14.8028 8.16738 14.5698 8.19043 14.4694ZM7.96993 12.1499C8.00702 12.1448 8.09822 12.1489 8.09521 12.178C8.0912 12.2171 8.06615 12.2774 8.03809 12.3266L7.94387 12.4883C7.92182 12.5264 7.80155 12.5154 7.78452 12.4742C7.74242 12.3778 7.83463 12.1689 7.97094 12.1499H7.96993ZM7.17715 22.0706C7.18016 22.146 7.12403 22.3257 7.03884 22.3488C6.93561 22.3769 6.73315 22.3488 6.68905 22.3177L7.17715 22.0716V22.0706ZM6.54873 11.5594L6.59384 12.0615L6.18792 11.8667L6.4435 11.7984C6.49161 11.7854 6.46956 11.6829 6.54974 11.5594H6.54873ZM5.94337 10.1707C5.99549 10.0884 6.05061 10.004 6.10574 9.96288C6.17189 9.91368 6.34828 9.8956 6.37835 9.95786C6.3994 10.002 6.37835 10.225 6.33325 10.2089L6.11175 10.1296L6.02355 10.2942C6.0005 10.3384 5.8652 10.3073 5.76397 10.2742L5.94337 10.1707ZM5.75695 12.3135C5.84816 12.3135 5.99048 12.3166 5.98346 12.3577C5.97645 12.3989 5.9544 12.4782 5.92934 12.5334L5.83713 12.7403C5.73089 12.7011 5.72989 12.7152 5.65673 12.5867L5.778 12.4762C5.69782 12.3939 5.69381 12.3226 5.75695 12.3135ZM3.17815 19.7501C3.22526 19.7501 3.27637 19.6899 3.32448 19.6326L3.50689 19.7069C3.35956 19.8656 3.13305 19.9509 2.96467 19.7481L3.17815 19.7501Z" fill="var(--fill-0, #2E2720)" fill-opacity="0.16"/>
</svg>
