<svg preserveAspectRatio="none" width="100%" height="100%" overflow="visible" style="display: block;" viewBox="0 0 1921.5 235.413" fill="none" xmlns="http://www.w3.org/2000/svg">
<g id="Vector" filter="url(#filter0_d_0_75)">
<path d="M1636.58 234.005C1635.9 233.176 1635.5 232.291 1635.5 231.6C1635.5 231.296 1635.23 230.826 1634.93 230.55C1634.6 230.273 1634.18 229.72 1634 229.361C1633.83 228.974 1633.43 228.366 1633.13 227.979C1632.73 227.481 1632.53 226.79 1632.43 225.629C1632.33 224.717 1632.1 223.445 1631.9 222.782C1631.68 222.146 1631.35 220.653 1631.13 219.465C1630.9 218.304 1630.53 217.087 1630.28 216.783C1629.53 215.843 1628.78 214.213 1628.63 213.134C1628.35 211.31 1628.28 211.199 1626.55 209.651C1624.43 207.772 1623.95 207.495 1622.73 207.468C1621.65 207.468 1620.3 208.38 1619.58 209.679C1619.33 210.094 1619.08 210.481 1619 210.564C1618.63 210.951 1618.05 212.195 1617.9 212.969C1617.68 214.047 1616.58 215.152 1615.45 215.401C1615 215.512 1614.58 215.678 1614.5 215.788C1614.23 216.148 1612.83 217.115 1612.05 217.474C1611.4 217.751 1610.33 217.779 1607.18 217.613C1604.95 217.502 1602.35 217.391 1601.38 217.364C1599.6 217.309 1598.43 216.839 1597.45 215.816C1596.45 214.793 1593.58 215.014 1592 216.23C1590.8 217.143 1590.25 217.115 1589 215.954C1588.43 215.429 1587.65 214.904 1587.28 214.821C1586.1 214.572 1584.65 214.102 1583.18 213.549C1581.98 213.079 1581.43 213.024 1580.05 213.19C1579.13 213.3 1577.95 213.383 1577.43 213.356C1576.9 213.328 1575.93 213.604 1575.18 213.991C1574.25 214.461 1573.25 214.682 1571.7 214.793C1570.53 214.876 1568.93 215.152 1568.15 215.401C1566.78 215.843 1566.73 215.843 1565.35 215.152C1563.38 214.13 1562.18 214.213 1560.5 215.401C1559.75 215.926 1558.9 216.369 1558.63 216.369C1558.35 216.369 1557.63 216.535 1557 216.756C1553.25 218.11 1551.98 218.414 1550.45 218.442C1549.15 218.442 1548.5 218.608 1547.45 219.188C1546.73 219.575 1545.68 220.045 1545.13 220.211C1544.08 220.515 1540.48 220.902 1539.63 220.819C1539.35 220.792 1538.13 220.764 1536.88 220.736C1534.43 220.709 1533.05 221.179 1532.83 222.201C1532.68 222.754 1532.58 222.81 1530.03 223.252C1529.15 223.418 1528.25 223.722 1528.03 223.915C1527.8 224.109 1526.78 224.634 1525.75 225.049C1524.73 225.463 1523.7 225.933 1523.5 226.072C1521.73 227.288 1521.1 227.26 1519.3 225.906C1518.48 225.298 1518.13 225.215 1515.98 225.215C1513.3 225.215 1512.08 224.828 1511.35 223.694C1510.75 222.81 1508.75 222.367 1506.45 222.588C1504.05 222.865 1502.83 222.561 1501.85 221.483C1501.13 220.681 1500.85 220.57 1499.08 220.377C1497.65 220.239 1496.68 219.962 1495.38 219.271C1493.25 218.166 1492.2 217.861 1489.65 217.613C1488.13 217.474 1487.3 217.226 1485.95 216.479C1484.98 215.982 1483.9 215.539 1483.53 215.539C1481.1 215.512 1477.1 212.803 1474.7 209.541C1473.28 207.606 1472.75 207.163 1471.48 206.749C1471 206.583 1470.13 206.251 1469.5 206.002C1468.38 205.532 1465.7 205.228 1462.85 205.256C1461.25 205.284 1459.83 205.892 1458.43 207.163C1458.03 207.523 1457.45 207.799 1457.15 207.799C1456.83 207.799 1455.65 208.324 1454.5 208.988C1452.63 210.038 1452.35 210.315 1451.8 211.531C1451.45 212.277 1450.9 213.217 1450.58 213.604C1450.25 213.991 1449.85 214.821 1449.7 215.484C1449.53 216.258 1449.18 216.866 1448.7 217.281C1447.95 217.889 1447.05 218.829 1445.78 220.377C1445.38 220.847 1444.83 221.787 1444.55 222.506C1444.28 223.224 1443.68 224.219 1443.28 224.717C1442.85 225.215 1442.4 226.044 1442.25 226.569C1442.05 227.426 1439.75 230.19 1439.25 230.19C1438.5 230.19 1438.38 228.587 1438.88 225.85C1439.3 223.611 1438.3 222.699 1436.05 223.307C1435.15 223.556 1434.53 223.888 1434.13 224.441C1433.75 224.938 1433.03 225.408 1432.25 225.657C1431.58 225.878 1430.65 226.459 1430.23 226.901C1429.33 227.896 1428.78 227.868 1426.43 226.846C1425.1 226.293 1424.85 226.265 1423.75 226.569C1422.75 226.846 1422.35 226.846 1421.18 226.459C1420.43 226.21 1419.63 225.795 1419.4 225.519C1419.18 225.242 1418.55 224.8 1418 224.523C1417.1 224.081 1416.95 224.081 1415.85 224.496C1415.2 224.745 1414 224.938 1413.2 224.938C1412.38 224.938 1410.95 225.076 1409.98 225.27L1408.25 225.574L1406.4 224.523C1404.73 223.584 1404.48 223.501 1403.23 223.694C1401 224.026 1399.9 224.911 1398.88 227.15C1398.15 228.753 1398 228.974 1396.8 230.384C1396.08 231.213 1395.85 231.324 1395.18 231.186C1393.48 230.826 1391.65 230.19 1391.25 229.776C1391.03 229.555 1390.6 229.361 1390.33 229.361C1390.08 229.361 1389.35 229.195 1388.73 228.974C1388.13 228.753 1386.95 228.421 1386.13 228.228C1385.08 227.979 1384.4 227.62 1383.88 227.067C1383.48 226.597 1382.78 226.072 1382.35 225.878C1381.93 225.685 1381.1 224.883 1380.53 224.136C1379.23 222.423 1377.65 221.649 1376.53 222.174C1376.13 222.34 1375.43 222.81 1374.98 223.169C1374.53 223.528 1373.85 223.832 1373.45 223.832C1372.63 223.832 1370.18 222.146 1369.6 221.206C1368.85 219.962 1366.05 218.497 1362.63 217.613C1361.68 217.364 1360.33 216.866 1359.63 216.535C1356.6 214.987 1356.38 214.904 1354.38 214.848C1350.58 214.738 1350.83 214.821 1350.13 213.604C1349.78 212.969 1349.23 212.36 1348.93 212.25C1348.6 212.112 1348.23 211.835 1348.08 211.642C1347.83 211.255 1347.18 209.181 1346.9 207.772C1346.83 207.385 1346.33 206.555 1345.83 205.947C1345.08 205.063 1344.63 204.786 1343.68 204.648C1343.03 204.537 1342.25 204.537 1341.98 204.62C1341.2 204.897 1340.28 204.233 1339.7 202.962C1339.4 202.353 1338.98 201.552 1338.73 201.192C1338.45 200.833 1338.25 200.197 1338.25 199.755C1338.25 199.119 1338.08 198.87 1337.25 198.4C1336.63 198.041 1336.2 197.599 1336.1 197.129C1336 196.714 1335.53 196.134 1334.9 195.719C1334.35 195.332 1333.68 194.779 1333.43 194.503C1332.78 193.729 1331.18 193.342 1330.05 193.701C1328.3 194.199 1326.98 193.729 1325.45 191.987C1322.98 189.168 1319.43 188.338 1316.88 189.997C1315.53 190.854 1314.15 190.992 1310.65 190.522C1309.38 190.356 1308.15 190.439 1305.9 190.826C1303.05 191.296 1302.83 191.379 1302.13 192.236C1301.73 192.761 1300.8 193.508 1300.08 193.895C1298.9 194.558 1298.68 194.613 1297.93 194.309C1297.48 194.116 1296.83 193.978 1296.48 193.978C1295.65 193.95 1294.98 193.314 1294.38 192.015C1293.88 190.909 1292.98 190.19 1291.38 189.638C1290.63 189.389 1290.63 189.389 1290.6 187.343C1290.6 186.21 1290.45 184.993 1290.3 184.662C1289.65 183.335 1288.33 183.141 1286.1 184.054C1284.95 184.551 1284.6 184.579 1284.13 184.302C1283.65 184.026 1283.45 184.054 1282.9 184.441C1282.55 184.717 1282.25 185.021 1282.25 185.132C1282.25 185.242 1281.73 185.491 1281.08 185.684C1280.4 185.85 1279.33 186.237 1278.63 186.486C1277.95 186.763 1277.03 186.928 1276.6 186.873C1276.03 186.763 1275.68 186.901 1275.33 187.343C1274.93 187.813 1274.35 187.979 1272.48 188.2C1268.9 188.587 1267.5 189.168 1267.5 190.218C1267.5 190.743 1265.65 191.573 1265 191.351C1264.08 191.02 1262.85 191.462 1261.9 192.485C1261.15 193.314 1260.85 193.452 1260.05 193.369C1259.23 193.286 1259.08 193.148 1258.55 191.987C1258.25 191.241 1257.9 190.66 1257.78 190.66C1257.65 190.66 1257.08 190.246 1256.53 189.72C1254.8 188.145 1252.63 187.758 1251.53 188.836C1250.7 189.638 1248.83 190.605 1247.5 190.909C1246.3 191.158 1245.88 191.13 1244.25 190.633C1243.23 190.301 1241.95 189.997 1241.43 189.914C1240.63 189.803 1240.4 189.61 1240.05 188.808C1239.75 188.089 1239.28 187.675 1238.1 187.067C1237.25 186.597 1236.45 186.237 1236.33 186.237C1235.93 186.237 1233.63 184.772 1232.95 184.081C1232.58 183.722 1231.45 183.031 1230.45 182.588C1229.45 182.146 1228.45 181.621 1228.25 181.4C1227.78 180.957 1225 180.156 1223.88 180.156C1222.15 180.156 1221.48 180.46 1220.85 181.566C1219.98 183.141 1218.65 183.473 1216.58 182.671C1214.53 181.897 1211.48 181.87 1210.35 182.616C1209.8 182.975 1209.53 183.445 1209.4 184.081C1209.25 184.938 1208.63 185.85 1207.85 186.32C1207.7 186.431 1206.93 186.265 1206.15 185.961C1205.38 185.657 1204.15 185.27 1203.43 185.104C1202.73 184.938 1202 184.662 1201.83 184.523C1201.48 184.192 1197.85 184.109 1197.08 184.413C1196.75 184.523 1196.5 184.772 1196.5 184.966C1196.5 185.27 1194.4 186.099 1193.93 186.016C1193.83 185.989 1193.33 186.21 1192.83 186.514C1191.68 187.177 1191.23 187.205 1190.2 186.624C1188.95 185.906 1186.8 186.237 1185.4 187.343C1183.28 189.029 1181.23 188.891 1180.35 186.984C1179.63 185.491 1177.73 183.224 1177 183.058C1176.2 182.865 1173.73 183.584 1172.6 184.33C1171.25 185.242 1169.4 185.463 1167.58 184.966C1166.63 184.717 1165.58 184.606 1165.05 184.689C1162.33 185.215 1161.13 185.187 1160.53 184.662C1160.03 184.219 1159.95 183.86 1159.93 182.367C1159.9 181.206 1160.05 180.045 1160.38 179.105C1161 177.17 1160.75 176.866 1158.23 176.673C1157.23 176.59 1156.3 176.452 1156.2 176.396C1156.13 176.341 1155.88 176.452 1155.7 176.673C1155.5 176.866 1155 177.253 1154.55 177.502C1154.1 177.751 1153.6 178.193 1153.43 178.497C1153.28 178.801 1153.03 179.05 1152.9 179.05C1152.75 179.05 1152.23 179.52 1151.7 180.073L1150.75 181.096L1149.43 180.626C1148.73 180.377 1147.8 180.128 1147.38 180.101C1146.98 180.045 1146.65 179.907 1146.7 179.796C1146.75 179.658 1146.53 179.354 1146.2 179.078C1145.6 178.552 1144.45 178.248 1142.5 178.083C1141.25 178 1138.78 177.502 1137.63 177.143C1136.88 176.922 1135.88 177.281 1135 178.083C1134.65 178.414 1132.8 178.912 1130.68 179.244C1129.93 179.354 1129.53 179.686 1128.7 180.736C1128.13 181.483 1127.53 182.091 1127.35 182.091C1127.18 182.091 1126.65 181.731 1126.2 181.289C1124.78 179.935 1123.85 179.548 1121.78 179.52L1119.88 179.465L1119.73 178.083C1119.65 177.336 1119.68 176.341 1119.78 175.899C1119.9 175.456 1119.93 174.986 1119.85 174.876C1119.65 174.489 1118.43 174.572 1117.25 175.042C1116.68 175.263 1115.93 175.456 1115.6 175.456C1115.25 175.456 1114.75 175.816 1114.33 176.424C1113.48 177.557 1110.4 179.327 1109.25 179.327C1108.83 179.327 1108.23 179.188 1107.93 178.995C1107.63 178.829 1107.05 178.58 1106.63 178.47C1104.98 178 1103.33 177.226 1102.28 176.424C1101.25 175.65 1100.95 175.595 1098.38 175.456L1095.6 175.318L1093.6 173.577C1092.53 172.609 1091.48 171.503 1091.3 171.144C1091.05 170.619 1090.78 170.481 1090.05 170.481C1089.55 170.481 1088.18 170.287 1087 170.066C1083.1 169.292 1081.5 169.541 1079.53 171.199C1078.8 171.807 1078.15 172.139 1077.63 172.139C1076.38 172.139 1074.28 172.941 1074 173.521C1073.85 173.825 1073.53 174.185 1073.25 174.351C1072.43 174.848 1071.65 174.185 1070.88 172.333C1069.95 170.094 1069.58 169.651 1068.7 169.651C1068.18 169.651 1067.68 169.983 1066.9 170.868C1065.63 172.333 1064.98 172.582 1063.63 172.056C1062.9 171.78 1062.5 171.393 1062.13 170.619C1061.85 170.038 1061.35 169.458 1061 169.32C1060.68 169.181 1060.03 168.684 1059.6 168.186C1059.18 167.689 1058.45 167.053 1058 166.749C1057.5 166.417 1057.05 165.837 1056.9 165.311C1056.75 164.814 1056.25 164.012 1055.83 163.514C1052.88 160.197 1051.98 159.092 1051.58 158.373C1050.93 157.212 1049.78 156.217 1048.28 155.581C1046.65 154.862 1046.25 154.862 1044.8 155.581C1043.1 156.438 1040.5 156.465 1039.7 155.636C1038.85 154.752 1037.13 154.503 1036.48 155.166C1036.03 155.608 1035.53 155.691 1032.85 155.719C1028.95 155.719 1028.75 155.885 1028.75 158.622C1028.75 159.644 1028.65 160.805 1028.5 161.192C1028.18 162.132 1026.28 163.127 1025.2 162.934C1024.75 162.851 1023.55 162.658 1022.55 162.492C1021.58 162.326 1019.9 161.884 1018.85 161.469C1017.55 160.971 1016.7 160.805 1016.15 160.916C1013.73 161.469 1013.85 161.496 1012.58 160.059C1011.08 158.373 1009.4 157.184 1007.15 156.272C1004.93 155.332 1000.53 155.083 998 155.747C995.9 156.272 994.025 156.106 993.125 155.332C992.525 154.807 992.1 154.724 990.3 154.724C989.15 154.724 987.075 154.53 985.725 154.282C983.025 153.812 983 153.812 981.075 155.443C980.05 156.327 979.825 156.382 978.125 156.382C976.5 156.382 976.225 156.3 975.9 155.774C975.675 155.443 975.5 154.807 975.5 154.392C975.5 153.784 975.375 153.59 974.825 153.48C972.75 153.038 971.55 152.678 970.95 152.347C969.875 151.738 968.475 151.877 967.5 152.651C966.425 153.535 966.275 153.508 965.125 152.512C963.8 151.351 962.275 151.351 961.45 152.485C960.575 153.729 958.325 155.277 957.4 155.277C956.975 155.277 955.55 155.581 954.25 155.94C952.075 156.521 951.8 156.548 951 156.189C949.525 155.47 949.25 155.47 948.225 155.995C947.55 156.3 947.05 156.825 946.75 157.461C946.15 158.76 945.65 159.257 944 160.114C943.25 160.474 942.325 161.054 941.975 161.386C941.05 162.188 939.525 162.353 938.15 161.773C937.15 161.358 936.825 161.331 935.375 161.635C934.475 161.828 933.525 161.911 933.25 161.828C932.975 161.745 931.55 161.801 930.075 161.939C927.7 162.16 927.325 162.271 926.725 162.906C925.95 163.736 925.6 163.625 925.375 162.464C924.975 160.418 922.525 160.28 920.3 162.132C919.4 162.879 917.8 163.072 915.95 162.63C915.15 162.436 914.875 162.519 913.85 163.266C913.2 163.736 912.45 164.123 912.175 164.123C911.925 164.123 911.225 164.675 910.6 165.367C910 166.058 909.4 166.611 909.225 166.611C908.95 166.611 908.125 167.274 906.175 169.126C905.6 169.679 904.625 170.481 904 170.895C903.375 171.31 902.775 171.835 902.675 172.029C902.575 172.25 902.3 172.416 902.1 172.416C901.5 172.416 900.2 173.245 899.175 174.24C898.675 174.765 898.05 175.18 897.8 175.18C897.55 175.18 896.9 175.539 896.35 175.954C895.325 176.783 893.75 177.391 892.675 177.391C892.225 177.391 891.425 177.944 890.2 179.133C886.35 182.782 885.525 183.197 882.025 183.197C878.65 183.224 876.3 183.639 875.2 184.441C874.675 184.828 873.975 185.132 873.625 185.132C873.075 185.132 871.875 185.684 869.95 186.818C869.225 187.233 868.8 187.094 868.275 186.265C867.6 185.242 867.2 185.159 865.375 185.574C863.2 186.099 863.175 186.071 861.45 184.662C859.775 183.252 858.2 182.588 855.375 182.091C853.875 181.842 853.575 181.676 853.225 181.04C852.875 180.349 852.625 180.239 850.6 179.962C849.375 179.796 847.45 179.299 846.3 178.884L844.225 178.11L842.025 178.746C840.825 179.078 839.225 179.354 838.475 179.327C836.475 179.271 836.25 179.299 836.3 179.658C836.35 179.852 835.875 180.073 835.125 180.183C834.45 180.322 833.1 180.681 832.15 181.013C830.6 181.566 830.325 181.593 829.275 181.262C827.45 180.681 826.55 180.626 825.7 181.013C824.575 181.538 823.05 181.344 822.25 180.598C821.825 180.211 820.775 179.796 819.525 179.492C818.025 179.133 817.375 178.829 817.025 178.331C816.775 177.972 816.275 177.557 815.925 177.419C815.55 177.253 814.975 176.645 814.65 176.037C813.5 174.047 812.35 173.853 810.75 175.318C809.575 176.424 808.725 176.535 808 175.733C807.375 175.042 807.375 174.157 808 173.107C808.575 172.139 808.625 171.338 808.15 170.619C807.725 169.983 806 169.734 799.25 169.403C794.55 169.181 794.1 169.098 793 168.241C791.55 167.08 787.9 166.224 785.725 166.5C784.6 166.638 784.225 166.611 784.35 166.389C784.45 166.196 784.4 166.113 784.175 166.224C784 166.279 783.55 166.224 783.175 166.085C782.725 165.892 782.5 165.892 782.45 166.113C782.3 166.611 781.525 166.141 781.075 165.256C780.5 164.178 778.6 162.934 777.775 163.1C777.425 163.183 776.45 163.542 775.6 163.874C774.25 164.427 774 164.454 773.275 164.123C772.8 163.901 772.3 163.376 772 162.768C771.225 161.054 769.2 159.423 767.875 159.423C767.375 159.423 766.65 159.23 766.225 159.009C765.825 158.76 764.775 158.511 763.925 158.428C762.475 158.29 762.25 158.345 760.375 159.396C758.15 160.667 757.35 160.75 755.775 159.976C754.3 159.23 753.375 159.285 751 160.225C747.85 161.496 746.625 161.496 745.45 160.142C744.675 159.23 744.525 159.174 742.35 158.981L740.05 158.815L739.775 159.755C739.6 160.363 738.925 161.192 737.85 162.188C736.925 163.017 735.875 164.067 735.475 164.51C734.95 165.118 734.65 165.256 734.2 165.118C733.875 165.007 732.8 164.758 731.8 164.537C730.775 164.316 729.75 163.957 729.475 163.68C728.95 163.155 726.475 163.017 725.95 163.487C725.775 163.653 724.9 163.846 724 163.929C723.1 164.012 721.875 164.288 721.25 164.537C720.275 164.924 719.825 164.924 717.85 164.648C716.125 164.399 715.3 164.399 714.425 164.62C712.85 165.062 710.975 165.035 709.925 164.537C708.675 163.957 707.425 164.012 705.975 164.703C704.9 165.228 704.625 165.256 703.6 164.98C702.125 164.565 700.275 163.514 699.65 162.768C699.025 161.994 697.625 161.524 696.1 161.579C695.025 161.607 694.55 161.441 693.175 160.529C691.425 159.368 690.25 159.147 688.55 159.7C687.25 160.087 685.5 159.617 684.8 158.677C684.475 158.262 683.65 157.212 682.975 156.382C680.4 153.231 680.25 152.982 680.25 152.042C680.25 151.545 680.2 151.13 680.15 151.13C680.125 151.13 679.725 151.268 679.3 151.434C678.175 151.849 676.725 150.909 676.1 149.361C675.675 148.338 675.475 148.172 674 147.619C673.1 147.288 672.075 147.011 671.725 147.011C671.375 146.984 670.875 146.735 670.65 146.458C670.1 145.767 668.2 145.049 667.025 145.049C666.525 145.049 665.4 144.8 664.55 144.496C662.525 143.805 661.6 143.805 660.15 144.496C659.525 144.828 658.425 145.159 657.7 145.242C656.975 145.353 656.025 145.684 655.55 146.071C655.075 146.403 654.425 146.707 654.125 146.707C653.825 146.707 653.275 146.956 652.925 147.26C651.925 148.145 650.9 147.979 650.125 146.845C649.275 145.657 648.775 145.463 647.625 146.016C646.05 146.735 643.875 146.569 642.125 145.602C640.85 144.883 640.35 144.772 638.75 144.8C636.85 144.8 635.9 145.159 634.125 146.569C633.575 146.984 632.975 147.122 631.275 147.15C630.1 147.15 628.45 147.315 627.625 147.481C626.8 147.647 625.35 147.924 624.425 148.117C623.2 148.338 622.325 148.725 621.225 149.499C619.4 150.826 618.7 150.854 617.675 149.693C616.475 148.394 615.475 147.813 614.375 147.813C612.75 147.841 611.25 148.255 610.525 148.891C609.525 149.776 607.8 150.577 605.8 151.13C604.575 151.49 603.7 151.904 603.125 152.485C601.8 153.756 600.625 153.895 597.925 153.038C596.775 152.678 596.7 152.706 595.125 153.563C594.225 154.06 593.3 154.447 593.075 154.447C592.85 154.447 592.225 154.033 591.65 153.535C590.2 152.264 589.45 151.96 587.6 151.96C586.025 151.96 585.95 151.932 584.8 150.743C584 149.942 583.3 149.472 582.625 149.361C582.075 149.25 581.1 148.946 580.45 148.698C579.5 148.338 579.225 148.311 578.9 148.615C578.675 148.808 578.5 149.223 578.5 149.499C578.5 150.024 576.425 151.407 575.65 151.407C575.45 151.407 574.85 151.821 574.3 152.319C573.75 152.789 572.975 153.425 572.6 153.673C572.2 153.95 571.7 154.282 571.5 154.42C570.875 154.862 568.975 155.719 567.4 156.272C565.475 156.935 565.125 157.295 564.525 159.285C564.1 160.722 563.925 160.971 563.25 161.192C562.55 161.414 559.175 161.165 556.25 160.64C555.5 160.501 555.125 160.667 554 161.496C553.25 162.049 552.175 163.072 551.625 163.736C551.05 164.399 550.425 164.952 550.2 164.952C549.975 164.952 548.9 165.947 547.8 167.163C545.8 169.403 545.25 169.707 544.225 169.098C543.225 168.49 541.575 168.711 540.325 169.596C539.675 170.038 538.95 170.481 538.75 170.536C538.275 170.702 536.225 169.845 535.075 168.988C534.225 168.352 534.1 168.324 530.425 168.435C528.35 168.518 526.6 168.628 526.525 168.684C526.475 168.767 526 168.822 525.5 168.822C524.975 168.822 524.15 169.016 523.65 169.237C522.325 169.872 519.825 170.177 518.775 169.845C518.275 169.707 515.75 169.541 513.125 169.485C510.525 169.43 507.975 169.375 507.5 169.375C507.025 169.375 505.075 169.403 503.2 169.485C501.3 169.541 499.45 169.513 499.075 169.403C498.7 169.292 498.15 168.794 497.875 168.324C497.6 167.827 497.125 167.385 496.8 167.302C496.5 167.219 495.975 167.108 495.625 167.025C495.3 166.942 494.875 166.583 494.7 166.224C494.375 165.56 493.45 164.675 490.575 162.271C489.15 161.082 489 160.861 489 159.948C489 159.285 488.825 158.787 488.475 158.428C487.975 157.93 487.925 157.93 487.2 158.4C486 159.174 484.5 159.009 482.6 157.903C481.7 157.378 480.6 156.935 480.15 156.935C479.45 156.935 477.875 156.189 475.675 154.807C475 154.364 474 154.364 473.1 154.752C472.025 155.194 469.775 157.267 469.6 157.986C469.275 159.313 467.625 159.506 465.7 158.456C464.15 157.599 463.975 157.599 462.4 158.456C461.25 159.064 460.95 159.119 459.875 158.898C459.2 158.76 458.55 158.705 458.425 158.787C458.325 158.87 457.95 158.843 457.625 158.76C457.225 158.649 457 158.318 456.825 157.599C456.725 157.018 456.45 156.465 456.25 156.355C452.55 154.199 451.95 154.116 450.5 155.443C449.85 156.078 449.55 156.161 448.55 156.051C447.4 155.913 446.875 155.691 444.375 154.282C442.875 153.425 441.9 153.342 440.625 154.005C439.975 154.337 439.4 154.447 438.75 154.337C438.25 154.254 436.925 154.282 435.85 154.447C434.775 154.586 432.675 154.779 431.225 154.89C428.625 155.056 428.55 155.056 427.975 154.392C427.1 153.397 425.15 152.236 424.375 152.236C424 152.236 423.425 151.987 423.075 151.683C422.725 151.379 422.275 151.13 422.1 151.13C421.9 151.13 421.075 150.716 420.225 150.246C418.1 149.002 416.425 149.002 414.475 150.246C413.7 150.743 412.925 151.13 412.725 151.13C412.2 151.13 409.075 152.899 408.425 153.563C408.125 153.867 407.525 154.309 407.075 154.558C406.625 154.807 406.15 155.249 406 155.553C405.85 155.857 405.575 156.106 405.4 156.106C404.825 156.106 402.375 157.405 402 157.903C401.8 158.179 401.15 158.622 400.55 158.898C399.95 159.202 399.275 159.672 399.05 159.948C398.45 160.695 396.175 161.414 393.95 161.579C392.2 161.69 391.9 161.635 390.375 160.833C389.45 160.363 388.475 159.976 388.225 159.976C387.95 159.976 386.775 159.451 385.625 158.843L383.5 157.682L382 158.041C381.175 158.235 380.575 158.483 380.625 158.622C380.8 158.926 379.375 159.23 378.55 159.036C378.175 158.926 376.975 158.981 375.9 159.147C374.3 159.368 373.55 159.34 371.875 158.953C369.875 158.483 369.8 158.511 368.2 159.092C366.2 159.838 365.7 159.838 363.85 159.119C362.7 158.677 361.55 158.511 358.625 158.4C356.575 158.318 354.7 158.152 354.45 158.013C354.225 157.875 353.075 157.765 351.875 157.737C350.625 157.709 349.325 157.543 348.85 157.322C347.775 156.825 346.4 156.825 344.85 157.35C344.175 157.571 343.15 157.765 342.575 157.765C342 157.765 341.15 157.93 340.7 158.152C339.525 158.732 336.5 159.893 335.675 160.087C335.275 160.197 334.7 160.584 334.4 160.944C333.975 161.441 333.55 161.635 332.85 161.635C332.3 161.662 331.625 161.801 331.3 161.994C330.775 162.326 328.75 165.311 328.75 165.781C328.75 165.892 328.3 166.196 327.75 166.472C326.575 167.053 325.55 166.942 323.575 165.947C322.825 165.56 321.85 165.228 321.4 165.228C320.975 165.228 320.125 164.952 319.5 164.648C317.75 163.763 316.375 163.708 314.35 164.371C312.025 165.118 311.6 165.118 309.85 164.123C307.925 163.072 306.675 162.879 305.275 163.404C304.475 163.736 303.275 163.846 300.65 163.819C297.8 163.819 296.775 163.901 295.225 164.371C293.75 164.841 293.15 164.897 292.65 164.675C291.375 164.15 290.6 164.344 289.4 165.477C288.4 166.445 288.1 166.555 286.45 166.749C284.3 166.97 282.325 167.578 281.625 168.269C281.35 168.546 280.225 168.988 279.125 169.237C277.225 169.707 276.775 169.955 274.375 171.642C273.825 172.029 273.125 172.443 272.825 172.526C272.55 172.637 272.1 173.051 271.85 173.466C270.975 174.959 269.2 177.087 268.675 177.281C268.375 177.391 267.65 177.944 267.075 178.525C266.475 179.133 265.875 179.603 265.7 179.603C265.15 179.603 263.475 181.068 263.1 181.87C262.9 182.284 262.275 182.975 261.725 183.335C261.175 183.722 260.625 184.358 260.5 184.745C260.175 185.684 257.2 187.177 256.1 186.956C255.675 186.846 255 186.901 254.6 187.039C254.2 187.177 253.2 187.454 252.375 187.647C251.125 187.951 250.7 188.228 249.725 189.306C248.275 190.964 247.575 191.186 245.625 190.55C243.875 189.969 243.475 189.942 240.125 190.329C238.425 190.494 237.125 190.826 236.075 191.324C235.225 191.711 234.3 192.042 234.025 192.042C233.725 192.042 233.325 192.347 233.125 192.706C232.9 193.093 232.1 193.618 231.225 194.005C230.2 194.42 229.625 194.834 229.45 195.249C229.3 195.608 228.675 196.161 228.075 196.493C227.45 196.825 226.9 197.295 226.825 197.544C226.55 198.4 225.9 198.953 225.175 198.953C224.425 198.953 222.75 199.893 222.75 200.336C222.75 200.446 222.175 201.027 221.475 201.607C220.775 202.215 220.05 203.072 219.825 203.57C219.625 204.067 219.05 204.786 218.55 205.201C218.025 205.615 217.45 206.196 217.25 206.472C217.025 206.749 216.2 207.191 215.4 207.412C214.6 207.633 213.7 207.993 213.4 208.214C213.125 208.407 212.25 208.656 211.5 208.767C210.05 208.96 207.925 210.315 204.3 213.383C203.425 214.102 202.425 214.765 202.05 214.876C201.675 214.959 200.65 215.291 199.75 215.622C198.825 215.954 197.425 216.203 196.45 216.23C195.55 216.258 194.65 216.396 194.45 216.535C194.275 216.7 193.65 216.977 193.05 217.17C192.275 217.419 191.825 217.779 191.4 218.525C190.6 219.907 189.8 220.653 188.675 221.068C188.175 221.234 187.75 221.483 187.75 221.593C187.75 221.704 187.375 222.008 186.95 222.284C186.5 222.588 185.875 223.141 185.6 223.528C185.125 224.136 185 224.192 184.425 223.915C183.95 223.667 182.15 223.639 177.925 223.749C174.025 223.86 171.15 223.805 169.325 223.584C166.275 223.197 165.3 223.418 164 224.8C163.65 225.159 162.75 225.712 162 226.044L160.625 226.652L159.05 226.044C157.025 225.242 156.25 225.436 154.7 227.039L153.45 228.311L151.3 228.145C150.1 228.034 148.525 227.896 147.775 227.813C146.95 227.702 145.425 227.841 143.85 228.117C141.375 228.587 141.175 228.587 139.2 228.117C138.025 227.841 137.025 227.454 136.9 227.233C136.775 226.984 136.625 226.928 136.525 227.067C136.35 227.371 131.75 228.477 129.325 228.808C128.15 228.974 127.325 229.306 126.175 230.08C124.35 231.296 122.625 231.6 121.2 230.937C120.7 230.688 119.225 230.412 117.95 230.329C116.55 230.19 115.275 229.914 114.75 229.638C113.2 228.781 111.825 228.836 110.8 229.776C109.6 230.909 107.65 230.633 106.75 229.251C106.55 228.919 105.9 228.089 105.275 227.371C103.85 225.657 103.225 225.629 101.5 227.26C99.225 229.389 96.725 229.555 92.625 227.785C89.575 226.459 86.7 226.237 84.85 227.15C84.1 227.509 82.9 227.813 81.75 227.896C80.025 228.034 79.8 227.979 79 227.315C78.525 226.928 77.85 226.403 77.525 226.127C76.125 225.021 73.6 225.989 70.375 228.891C69.975 229.251 69.35 229.665 69 229.776C68.65 229.886 68.125 230.218 67.825 230.522C67.425 230.937 66.725 231.158 65.325 231.324C64 231.462 62.9 231.794 61.875 232.347C59.975 233.369 57.8 233.784 54.35 233.784C51.6 233.784 47.425 233.397 46.675 233.065C46.45 232.982 46.2 232.678 46.125 232.402C46 231.932 43.625 230.688 42.15 230.329C41.775 230.246 41.275 229.969 41.075 229.776C40.875 229.555 40.425 229.361 40.1 229.361C39.425 229.361 37.65 228.449 36.925 227.758C36.675 227.509 36.25 226.707 35.95 225.989C35.625 225.159 35.025 224.302 34.275 223.667C33.65 223.114 32.85 222.312 32.5 221.897C32.1 221.427 31.2 220.902 30.05 220.515C29.05 220.156 27.825 219.52 27.325 219.105C26.825 218.663 26.2 218.304 25.9 218.304C25.175 218.304 22.75 217.115 22.75 216.756C22.75 215.954 21.5 215.761 16.875 215.899C15.575 215.926 15.2 215.816 14.15 215.069C13.475 214.572 12.725 213.798 12.475 213.356C12.225 212.886 11.65 212.333 11.2 212.112C10.75 211.89 10.1 211.531 9.75 211.31C8.15 210.315 7.55 209.983 6.75 209.568C6.275 209.32 5.65 208.905 5.375 208.601C4.9 208.131 2.65 207.246 0.825 206.832L0 206.638V103.694V0.75H960H1920V92.2221V183.694L1918.88 183.998C1918.28 184.164 1917.35 184.606 1916.85 184.993C1915.48 186.016 1914.9 186.099 1913.15 185.436C1912.3 185.132 1911.3 184.855 1910.95 184.855C1909.6 184.855 1907.73 183.639 1905.73 181.4C1903.95 179.409 1903.95 179.409 1904.25 178.774C1904.65 177.944 1904.18 177.391 1903 177.391C1902.48 177.391 1900.95 177.64 1899.58 177.944C1898.23 178.248 1896.38 178.497 1895.45 178.497C1894.08 178.497 1893.68 178.608 1893.08 179.133C1892.18 179.99 1890.95 180.432 1889.58 180.432C1888.38 180.432 1887.23 180.957 1886.25 181.98C1885.9 182.34 1885.1 182.727 1884.38 182.865C1883.48 183.031 1883.15 183.197 1883.23 183.501C1883.28 183.722 1883.38 184.109 1883.43 184.385C1883.53 184.717 1883.43 184.855 1883.05 184.855C1882.4 184.855 1882.13 184.385 1882.5 183.888C1882.73 183.584 1882.65 183.418 1882.15 183.058C1881.15 182.312 1876.53 182.367 1874.9 183.114L1873.68 183.667L1872.03 183.031C1870 182.229 1869.1 182.201 1868.13 182.92C1866.75 183.915 1866.03 183.473 1865.4 181.206C1865.18 180.377 1864 180.626 1862.43 181.814C1861.6 182.423 1860.6 182.975 1860.15 183.086C1859.05 183.307 1857.63 182.616 1857.15 181.621C1856.55 180.322 1854.18 178.525 1852.45 178.083C1850.83 177.668 1850.03 177.751 1848.33 178.414C1847.35 178.801 1847.18 178.801 1846.38 178.387C1845.3 177.806 1845 177.972 1843.43 179.935C1841.08 182.865 1840.1 183.749 1839.18 183.749C1838.85 183.749 1838.3 183.998 1837.95 184.275C1837 185.104 1835.7 185.38 1830.5 185.74C1823.25 186.237 1822.15 186.21 1820.45 185.325L1819.03 184.606L1817.7 185.436C1816.98 185.878 1816.15 186.237 1815.88 186.237C1815.6 186.237 1815 186.486 1814.55 186.79C1813.83 187.288 1813.48 187.315 1810.78 187.15C1808.68 187.039 1807.78 187.067 1807.65 187.315C1807.35 187.841 1806.8 187.675 1805.85 186.735L1804.93 185.823H1801.9C1798.4 185.823 1797.93 185.933 1796.63 187.067C1795.58 187.979 1794.4 188.145 1793.6 187.481C1792.43 186.514 1790.3 187.537 1789.75 189.389C1789.53 190.163 1789.33 190.356 1788.58 190.522C1787.5 190.743 1786.75 191.241 1785.33 192.651C1784.73 193.231 1784.08 193.701 1783.88 193.701C1783.4 193.701 1780.95 195.166 1779.88 196.078C1779.1 196.742 1778.83 197.046 1777.88 198.207C1777.43 198.76 1776.98 198.953 1775.65 199.092C1773.53 199.34 1772.6 199.174 1770.8 198.207C1769.53 197.516 1769.15 197.461 1767.08 197.516C1763.45 197.599 1763.18 197.599 1762.4 197.571C1761.98 197.544 1761.38 197.378 1761.03 197.157C1760 196.548 1758.23 196.217 1757.08 196.382C1756.5 196.465 1755.5 196.382 1754.88 196.217C1754 195.968 1753.35 195.968 1752.25 196.217C1750.48 196.604 1748.35 196.189 1747.83 195.36C1747.45 194.779 1746 194.558 1746 195.083C1746 195.249 1745.28 195.747 1744.38 196.217C1743.45 196.687 1742.33 197.35 1741.8 197.737C1740.55 198.677 1739.75 198.539 1739.18 197.239C1738.5 195.747 1737.75 195.553 1733.65 195.885C1729.68 196.217 1728.35 196.797 1727.13 198.677C1725.83 200.695 1724.7 202.022 1723.78 202.575C1723.28 202.879 1722.43 203.487 1721.88 203.929C1720.58 204.98 1719.63 205.173 1718.28 204.648C1717.68 204.399 1716.9 204.206 1716.53 204.206C1716.18 204.206 1715.1 203.984 1714.15 203.736C1712.68 203.349 1712.13 203.321 1710.45 203.597C1709.25 203.791 1708.23 204.123 1707.85 204.454C1707.45 204.786 1706.65 205.035 1705.43 205.173C1704.45 205.284 1703.4 205.505 1703.13 205.698C1702.13 206.389 1698.45 207.302 1697.38 207.136C1696.48 206.97 1692.3 207.578 1691.78 207.91C1691.68 207.993 1690.48 208.103 1689.08 208.214C1687.25 208.324 1686.18 208.546 1685.08 209.043C1683.85 209.568 1683.23 209.707 1681.85 209.624C1680.9 209.568 1679.23 209.679 1678.13 209.872C1677.03 210.066 1675.28 210.315 1674.25 210.425C1672.53 210.591 1672.23 210.536 1671.08 209.9C1670.4 209.513 1669.65 208.988 1669.48 208.711C1669.28 208.463 1668.68 207.91 1668.15 207.468C1667.35 206.832 1666.93 206.693 1665.75 206.693C1663.5 206.693 1662.8 206.942 1661.43 208.324C1660.7 209.043 1659.83 209.817 1659.48 210.066C1659.13 210.315 1658.68 210.895 1658.5 211.365C1658.3 211.918 1657.8 212.416 1657.13 212.803C1656.53 213.134 1655.93 213.687 1655.78 214.074C1655.63 214.434 1655.1 214.931 1654.65 215.125C1654.18 215.346 1653.63 215.871 1653.45 216.286C1653.28 216.7 1652.73 217.336 1652.25 217.696C1651.78 218.055 1651.23 218.663 1651.03 219.078C1650.85 219.492 1650.33 220.211 1649.85 220.709C1649.38 221.206 1649 221.787 1649 222.063C1649 222.312 1648.65 222.975 1648.25 223.528C1647.83 224.081 1647.35 224.689 1647.18 224.911C1647.03 225.132 1646.88 225.491 1646.85 225.685C1646.75 226.403 1645.98 227.426 1645.55 227.426C1644.85 227.426 1644.03 228.2 1643.48 229.389C1643.15 230.107 1642.68 230.633 1642.15 230.881C1641.7 231.103 1641.05 231.683 1640.7 232.181C1638.95 234.724 1637.65 235.277 1636.58 234.005Z" fill="#FFFDDF"/>
</g>
<defs>
<filter id="filter0_d_0_75" x="0" y="0" width="1921.5" height="235.413" filterUnits="userSpaceOnUse" color-interpolation-filters="sRGB">
<feFlood flood-opacity="0" result="BackgroundImageFix"/>
<feColorMatrix in="SourceAlpha" type="matrix" values="0 0 0 0 0 0 0 0 0 0 0 0 0 0 0 0 0 0 127 0" result="hardAlpha"/>
<feOffset dx="0.75"/>
<feGaussianBlur stdDeviation="0.375"/>
<feComposite in2="hardAlpha" operator="out"/>
<feColorMatrix type="matrix" values="0 0 0 0 0 0 0 0 0 0 0 0 0 0 0 0 0 0 0.25 0"/>
<feBlend mode="normal" in2="BackgroundImageFix" result="effect1_dropShadow_0_75"/>
<feBlend mode="normal" in="SourceGraphic" in2="effect1_dropShadow_0_75" result="shape"/>
</filter>
</defs>
</svg>
