<svg preserveAspectRatio="none" width="100%" height="100%" overflow="visible" style="display: block;" viewBox="0 0 38 1" fill="none" xmlns="http://www.w3.org/2000/svg">
<path id="Line 46" d="M37.638 0.994915C37.4251 1.00794 37.146 0.994013 36.9338 0.974896C36.8674 0.968966 36.901 0.942462 36.8551 0.937176C36.7654 0.926871 36.6817 0.93987 36.593 0.927594C36.5636 0.923395 36.6002 0.881413 36.5694 0.877972C36.4005 0.859418 36.2407 0.870112 36.0696 0.861188C35.2268 0.817157 34.3983 0.801398 33.5451 0.782269C33.2638 0.775998 32.9219 0.737897 32.6313 0.754559C32.5974 0.756542 32.6176 0.793392 32.6112 0.796429C32.5099 0.842925 32.5436 0.768533 32.4775 0.758649C32.2152 0.719623 31.9235 0.716229 31.6711 0.730451C31.5637 0.736609 31.6714 0.809802 31.5633 0.76872C31.5557 0.765944 31.583 0.726812 31.5535 0.722638C31.4868 0.713251 31.36 0.720245 31.3083 0.717145C31.2085 0.710972 31.192 0.711365 31.0977 0.710919C30.9687 0.709969 30.8152 0.690517 30.6768 0.699384C30.6473 0.701393 30.6864 0.741508 30.6393 0.748334C30.5921 0.755149 30.4674 0.751748 30.4253 0.742291C30.3833 0.73283 30.4012 0.701301 30.3937 0.694074C30.3325 0.633075 30.1882 0.717558 30.1696 0.719647C29.8311 0.755247 29.5408 0.70712 29.223 0.707257C28.9818 0.707464 28.7239 0.723352 28.4943 0.721173C28.2209 0.718422 27.9891 0.696685 27.7234 0.700421C27.6954 0.70077 27.7283 0.747935 27.694 0.748456C27.3302 0.753944 26.9689 0.748803 26.6067 0.716962C26.5704 0.713727 26.6172 0.672316 26.5809 0.666608C26.3587 0.632576 26.0071 0.550821 25.8751 0.731122C25.7246 0.724082 25.5418 0.716807 25.4071 0.680463C25.3203 0.657071 25.4047 0.611958 25.298 0.631208C25.2739 0.635497 25.3052 0.675005 25.2691 0.678449C25.1173 0.692912 24.9513 0.68007 24.8011 0.700482C24.7705 0.704727 24.7789 0.740128 24.7702 0.746503C24.6974 0.798129 24.5763 0.712787 24.5499 0.706586C24.3488 0.660342 24.2019 0.67854 24.0145 0.677411C23.9711 0.677129 24.0224 0.72468 23.9806 0.726117C23.7636 0.732932 23.5389 0.728845 23.3264 0.707746C23.2792 0.702938 23.3226 0.662433 23.3 0.658063C23.2005 0.639288 23.1784 0.715791 23.0829 0.699262C23.0627 0.695875 23.0741 0.6612 23.0704 0.657392C23.0129 0.597611 22.963 0.682316 22.9482 0.684186C22.7612 0.709739 22.6417 0.621311 22.461 0.633832C22.4394 0.63542 22.4881 0.679294 22.4274 0.681073C22.0226 0.693185 21.5946 0.681133 21.1939 0.646039C21.1316 0.640642 21.1761 0.607683 21.1722 0.60362C21.1083 0.540136 21.067 0.625197 21.0466 0.6284C20.8864 0.651459 20.7367 0.580126 20.6279 0.68144C19.9492 0.64628 19.2738 0.703173 18.6008 0.612409C18.5922 0.611358 18.6075 0.569465 18.5905 0.567548C18.3849 0.544026 18.4244 0.609135 18.2884 0.688764C18.2541 0.708759 18.1499 0.61262 18.1407 0.605573C18.107 0.579604 18.1419 0.51728 18.1307 0.512251C18.0375 0.472759 18.0527 0.67887 17.9271 0.678937C17.9232 0.678593 17.9397 0.640656 17.9292 0.636884C17.8964 0.625042 17.8639 0.640117 17.8319 0.627057C17.7585 0.596839 17.7324 0.496687 17.6204 0.554975C17.6062 0.56254 17.6279 0.679455 17.5157 0.673932C17.471 0.671631 17.2732 0.673635 17.2177 0.666059C17.1623 0.658491 17.2003 0.620815 17.1964 0.619184C17.0472 0.569364 17.1037 0.548716 17.029 0.474958C16.9542 0.401478 16.9749 0.576735 16.9445 0.596296C16.9139 0.615801 16.8045 0.574697 16.7776 0.560407C16.7507 0.546112 16.7843 0.522171 16.7604 0.514082C16.6019 0.461227 16.6908 0.601072 16.6386 0.628888C16.5155 0.694751 16.4196 0.564781 16.3069 0.552045C16.2764 0.548606 16.3013 0.578208 16.2742 0.580976C16.1666 0.591548 16.102 0.550994 15.9796 0.588178C15.9596 0.594238 15.8607 0.672379 15.7967 0.615033C15.7876 0.606764 15.8134 0.574376 15.7675 0.567121C15.6991 0.556233 15.5757 0.549154 15.5021 0.55998C15.4478 0.56799 15.5101 0.621358 15.4417 0.60478C15.4113 0.597377 15.4676 0.566156 15.4105 0.554853C15.3537 0.543553 15.2085 0.544925 15.1532 0.546003C15.098 0.547105 15.1282 0.587587 15.1238 0.590314C15.0968 0.605937 14.9909 0.625458 14.9816 0.625409C14.5097 0.630351 14.0745 0.562114 13.615 0.584699C13.579 0.586413 13.603 0.629102 13.5975 0.629804C13.4741 0.64769 13.5714 0.534189 13.4852 0.496198C13.4976 0.582828 13.4467 0.567142 13.3598 0.576642C13.3179 0.581291 13.3407 0.614835 13.3369 0.618268C13.2747 0.669217 13.2315 0.60341 13.2203 0.589948C13.1792 0.540428 13.1344 0.598939 13.1064 0.565839C13.0784 0.532987 13.1428 0.484283 13.0594 0.484907C13.036 0.515917 13.0979 0.596956 13.0346 0.61009C12.7957 0.659769 12.3498 0.596187 12.1578 0.589582C11.9661 0.582983 11.9042 0.588704 11.7925 0.577497C11.5907 0.557233 11.6647 0.617359 11.5394 0.64488C11.4137 0.672397 11.4748 0.524461 11.4568 0.492658C11.439 0.46087 11.4197 0.493593 11.3976 0.476118C11.3756 0.458647 11.4232 0.437024 11.3715 0.430464C11.3198 0.42391 11.1784 0.480463 11.16 0.513715C11.1213 0.584164 11.185 0.658103 11.0481 0.632123C11.0402 0.630581 11.0658 0.591682 11.0356 0.587751C10.7962 0.557805 10.5475 0.555948 10.3084 0.529462C10.2755 0.52576 10.3049 0.482486 10.2858 0.479841C10.0865 0.452162 10.1577 0.525128 10.0485 0.606183C10.073 0.498316 10.0126 0.432321 9.86133 0.431684C9.7704 0.431264 9.78606 0.478375 9.72725 0.511579C9.7096 0.521589 9.64526 0.48924 9.6336 0.511396C9.59516 0.58382 9.65576 0.664894 9.49981 0.632612C9.49297 0.631077 9.51475 0.591433 9.49111 0.589033C9.33828 0.573318 9.32 0.649072 9.1548 0.658246C9.02532 0.665445 8.79503 0.619251 8.64759 0.611738C8.65069 0.490463 8.51144 0.518233 8.45494 0.60185C8.35926 0.598427 8.25592 0.603154 8.16343 0.591596C8.1316 0.587656 8.15252 0.552543 8.1485 0.54875C8.08696 0.489235 8.04535 0.570585 8.0247 0.573774C7.80086 0.604776 7.61849 0.543119 7.40486 0.603376C7.39728 0.605546 7.385 0.689787 7.32789 0.628278C7.3242 0.624038 7.39475 0.58571 7.29426 0.582746C7.19375 0.579775 7.00428 0.534616 6.86474 0.573652C6.83098 0.583049 6.74557 0.651436 6.67702 0.598005C6.66789 0.590749 6.67788 0.566589 6.6647 0.553144C6.62209 0.510305 6.59882 0.595451 6.54874 0.523115C6.49864 0.450781 6.39447 0.396609 6.25374 0.446516C6.24926 0.447967 6.21595 0.515454 6.1717 0.514387C6.10105 0.512625 6.00077 0.498567 5.92701 0.499006C5.89169 0.499241 5.91429 0.541147 5.90816 0.541914C5.6707 0.565396 5.50169 0.528037 5.2473 0.511823C5.20067 0.508768 5.06664 0.565914 4.97637 0.520734C4.87723 0.471277 4.9791 0.265544 4.75125 0.314558C4.65934 0.334163 4.54299 0.595174 4.37783 0.459944C4.05752 0.493453 3.76129 0.424243 3.44009 0.47209C3.42565 0.474209 3.37998 0.547055 3.34602 0.546064C3.2956 0.544451 3.26793 0.510404 3.23193 0.508161C3.0811 0.497906 2.94306 0.527035 2.79764 0.522504C2.74242 0.520858 2.76173 0.485654 2.69588 0.483686C2.63007 0.481752 2.58618 0.528109 2.49699 0.50572C2.42963 0.488654 2.36229 0.393901 2.27288 0.382856C2.26948 0.47632 2.20807 0.474395 2.09893 0.499067C2.07796 0.503854 2.10045 0.536384 2.09053 0.540327C2.05015 0.557093 2.01276 0.530132 1.97441 0.548383C1.96508 0.552767 1.96465 0.584685 1.95702 0.59007C1.89218 0.637076 1.78533 0.565279 1.76698 0.552778C1.69666 0.505302 1.66378 0.546815 1.60984 0.52812C1.556 0.509426 1.63651 0.486058 1.5736 0.474714C1.44321 0.451251 1.27566 0.456406 1.14322 0.454939C1.09038 0.454551 1.12643 0.497157 1.11887 0.498091C1.0096 0.508897 0.899101 0.463576 0.838519 0.548444C0.76276 0.329006 0.772625 0.569729 0.616442 0.5258C0.604133 0.522247 0.588494 0.418477 0.635722 0.403242C0.682956 0.388022 0.754574 0.420459 0.820109 0.396711C0.83563 0.391138 0.92453 0.293899 0.936656 0.288008C1.03167 0.241973 1.04513 0.397044 1.05016 0.405562C1.10717 0.497477 1.21579 0.39272 1.2444 0.385481C1.37528 0.352313 1.48646 0.374121 1.59593 0.350447C1.66752 0.335146 1.67452 0.233568 1.73074 0.236678C1.91762 0.246954 1.98286 0.388656 2.15895 0.265791C2.19671 0.239587 2.15919 0.128566 2.29448 0.215865C2.30299 0.221368 2.40343 0.301231 2.46148 0.250716C2.46876 0.244347 2.46853 0.211991 2.47815 0.209273C2.54258 0.191692 2.58553 0.217468 2.65572 0.205123C2.7259 0.192777 2.81029 0.174373 2.89041 0.185347C2.93869 0.19191 3.00066 0.252192 3.02377 0.266951C3.08904 0.309467 3.15903 0.239759 3.19946 0.291243C3.24024 0.342986 3.16052 0.421567 3.26745 0.455C3.27141 0.370938 3.2805 0.284657 3.28687 0.200118C3.5212 0.203078 3.75177 0.23026 3.98688 0.226546C4.01603 0.226001 3.98622 0.180809 4.01746 0.179061C4.1493 0.171881 4.26445 0.204097 4.40117 0.191268C4.507 0.181164 4.62304 0.133315 4.73371 0.121261C4.8013 0.217451 4.96551 0.184797 5.0848 0.193587C5.12658 0.196624 5.1238 0.222315 5.15351 0.230696C5.26561 0.261694 5.21309 0.176691 5.24382 0.163314C5.37568 0.106222 5.38697 0.298621 5.54243 0.293868C5.55067 0.293681 5.65134 0.191124 5.66521 0.184737C5.75332 0.143091 5.6798 0.220433 5.73494 0.228011C5.83561 0.241858 5.90557 0.266351 6.0237 0.236312C6.05814 0.227414 6.14076 0.163491 6.20765 0.212935C6.21645 0.21941 6.21158 0.253308 6.21866 0.255293C6.34686 0.288385 6.35023 0.181871 6.42349 0.145797C6.49676 0.109731 6.60992 0.183259 6.63296 0.204451C6.69321 0.259273 6.58679 0.22788 6.58353 0.23326C6.5452 0.297283 6.62773 0.28626 6.69079 0.29167C6.69993 0.396109 6.78812 0.38984 6.75617 0.296858C6.75254 0.286702 6.70346 0.296442 6.69079 0.29167C6.74615 0.189201 6.84307 0.176078 6.95013 0.271834C7.00024 0.316713 6.95287 0.36904 7.10509 0.349898C7.17417 0.341256 7.14748 0.269345 7.20844 0.249739C7.34773 0.205007 7.52872 0.272088 7.67231 0.261519C7.72443 0.257682 7.67366 0.218318 7.70928 0.214339C7.8038 0.203657 7.88716 0.233192 7.98209 0.218062C7.99069 0.216641 7.96967 0.175435 7.99919 0.17491C8.22298 0.170125 8.41785 0.196518 8.65151 0.197249C8.7644 0.197584 8.96625 0.174858 9.08319 0.179427C9.28589 0.187103 9.53524 0.247023 9.7084 0.232466C9.82134 0.223149 9.79656 0.181934 9.84495 0.153853C9.93833 0.0994207 10.1036 0.196922 10.1259 0.21202C10.1266 0.212519 10.0294 0.222235 10.0812 0.243392C10.1114 0.287475 10.1248 0.212211 10.1259 0.21202C10.1405 0.221773 10.3346 0.231129 10.3732 0.22325C10.3941 0.218945 10.3824 0.179896 10.3933 0.178389C10.6529 0.143445 10.913 0.13352 11.1763 0.151778C11.1809 0.152567 11.1739 0.196245 11.1848 0.197554C11.3372 0.216975 11.4348 0.163543 11.5605 0.13182C11.6862 0.100111 11.7859 0.110731 11.8603 0.185714C11.9552 0.176273 12.0912 0.209422 12.1695 0.229537C12.2478 0.249651 12.2587 0.164628 12.2656 0.162948C12.4805 0.10915 12.6047 0.157815 12.8276 0.165389C12.9336 0.169135 13.1438 0.156803 13.2586 0.147506C13.3493 0.140016 13.4039 0.159941 13.4875 0.147201C13.4988 0.145499 13.4874 0.107643 13.4908 0.106185C13.5841 0.0608921 13.5393 0.153438 13.5585 0.169967C13.6283 0.230073 13.6714 0.262085 13.7909 0.233809C13.8184 0.227334 13.8987 0.0940804 13.9489 0.0862876C14.0142 0.0764 13.9895 0.124163 14.0579 0.112594C14.0637 0.111647 14.0625 0.0821807 14.1047 0.08348C14.3006 0.0891234 14.5141 0.106269 14.7176 0.103316C14.7454 0.103026 14.7098 0.0562876 14.7499 0.0550988C14.9384 0.0495585 15.145 0.0512882 15.3286 0.0731651C15.3738 0.0786969 15.3455 0.111422 15.3553 0.121139C15.4155 0.179931 15.5009 0.094507 15.515 0.0928794C15.8512 0.0518287 16.1085 0.129136 16.4512 0.0923301C16.4698 0.0901693 16.6134 -0.00140691 16.6774 0.0771323C16.6818 0.0823576 16.7452 0.162711 16.8012 0.107772C16.8047 0.104335 16.7652 0.0629675 16.8341 0.0671837C16.9031 0.0713907 17.014 0.0437658 17.1087 0.0892173C17.1387 0.103535 17.2096 0.183691 17.299 0.119796C17.3049 0.115335 17.443 -0.0291401 17.4923 0.0705406C17.5002 0.086949 17.4919 0.192434 17.5987 0.13835C17.619 0.127865 17.582 0.104337 17.6358 0.0896446C17.7181 0.0670008 17.8272 0.0952532 17.9284 0.0482628C17.9461 0.0399439 18.0212 -0.0316529 18.0815 0.0226892C18.0909 0.0312001 18.073 0.0664164 18.1049 0.0703575C18.2562 0.0892623 18.4147 0.065706 18.5684 0.0900718C18.6229 0.0986335 18.595 0.155565 18.6518 0.170821C18.7085 0.186072 18.8229 0.200743 18.8823 0.174727C18.9417 0.1487 18.8768 0.0579649 18.9658 0.0507042C19.3526 0.0191704 19.7358 0.072398 20.1221 0.0801841C20.1794 0.081347 20.1319 0.0488792 20.2163 0.0482628C20.5276 0.0458474 21.065 0.0154054 21.3351 0.0843955C21.5515 0.139653 21.2792 0.181721 21.4446 0.204207C21.5244 0.214934 21.6107 0.109445 21.63 0.106124C21.8182 0.0723889 21.9489 0.119118 22.1183 0.104781C22.1533 0.101806 22.119 0.0590505 22.1488 0.0569908C22.2504 0.0495761 22.3573 0.0686603 22.4545 0.0651695C22.4981 0.0635051 22.49 0.0308499 22.5302 0.0333703C22.6261 0.0390247 22.711 0.0527515 22.8046 0.0833579C22.8131 0.0861469 22.7556 0.126769 22.8266 0.12828C22.9415 0.130609 23.0842 0.160803 23.2164 0.129622C23.2556 0.120243 23.2572 0.04561 23.3415 0.0971518C23.3592 0.107917 23.3366 0.197535 23.4348 0.120101C23.4514 0.107233 23.6164 0.00278968 23.6974 0.0701134C23.7187 0.0878322 23.7733 0.161167 23.8204 0.149642C23.8268 0.147803 23.8012 0.107715 23.8403 0.103805C23.9781 0.0907214 24.1225 0.0949984 24.264 0.0824424C24.3018 0.0790102 24.2455 0.0375271 24.3018 0.0337365C24.4568 0.0232513 24.6502 0.0338137 24.8017 0.046798C24.8575 0.0516639 24.8189 0.0860271 24.823 0.0897666C24.8883 0.150591 24.927 0.0684918 24.9486 0.0637047C25.0835 0.0350395 25.1863 0.0736051 25.3106 0.0633995C25.3449 0.0606871 25.3206 0.0215411 25.3274 0.0180505C25.3983 -0.0160547 25.3455 0.0542465 25.3903 0.0619957C25.516 0.083938 25.656 0.0807918 25.783 0.0757896C25.8297 0.0738946 25.7772 0.028504 25.8191 0.0273278C26.067 0.0195062 26.3246 0.0238496 26.5665 0.0488732C26.6121 0.0536672 26.5834 0.0886194 26.5929 0.0966025C26.6583 0.152455 26.7542 0.0762717 26.7763 0.0690147C26.8766 0.0358794 26.9156 0.0667883 27.0042 0.0610191C27.4369 0.032295 27.9713 0.0527665 28.3798 0.0654137C28.9122 0.0816905 29.3252 0.114941 29.8329 0.106307C29.8652 0.105802 29.8326 0.0593048 29.8604 0.0582725C30.2195 0.0470636 30.573 0.0652328 30.9328 0.0518029C30.9624 0.0507832 30.9198 0.0067035 30.9672 0.00358522C31.0644 -0.00311983 31.1875 -0.000723958 31.2858 0.0133508C31.3337 0.0201324 31.2694 0.0579567 31.3177 0.0640098C31.4301 0.0781909 31.5505 0.0813303 31.6659 0.0742637C31.715 0.0711605 31.6409 0.0260781 31.7047 0.0255578C32.1396 0.0210853 32.5666 0.013321 33.006 0.0717003C33.0362 0.0757097 33.0626 0.167335 33.1266 0.149764C33.1315 0.124336 33.1312 0.0944238 33.1333 0.0672447C33.7663 0.0526038 34.3928 0.0843673 35.0276 0.0892783C35.0544 0.089475 35.0081 0.0409274 35.06 0.0410607C35.3599 0.0417784 35.6511 0.0283293 35.9578 0.076583C35.9883 0.0813021 35.9727 0.166709 36.0623 0.153792C36.0782 0.151435 36.2133 0.140045 36.2482 0.121505C36.2529 0.118708 36.2283 0.0788435 36.2718 0.0776817C36.5248 0.0716281 36.7899 0.0807291 37.0424 0.105086C37.0832 0.109094 37.0398 0.151546 37.0688 0.154769C37.2747 0.177304 37.4987 0.145033 37.6954 0.183577C37.8272 0.20953 37.7784 0.282913 37.8484 0.355147C37.8583 0.365338 37.9398 0.366953 37.9441 0.408979C37.9549 0.51466 37.9154 0.630379 37.9316 0.743024C37.935 0.767287 38.0442 0.741154 37.9796 0.799786C37.9751 0.80371 37.8959 0.82317 37.8764 0.84306C37.8628 0.856812 37.8873 0.899553 37.8595 0.917157C37.8318 0.934744 37.8014 0.898916 37.7555 0.919598C37.7096 0.940536 37.7297 0.989159 37.638 0.994915ZM12.5221 0.319441C12.5946 0.360272 12.6052 0.210725 12.5268 0.246504C12.523 0.248411 12.5183 0.317438 12.5221 0.319441ZM3.75045 0.343062C3.84523 0.409023 3.91009 0.312034 3.84322 0.261092C3.77637 0.210204 3.72157 0.323066 3.75045 0.343062ZM2.76763 0.391218C2.87841 0.443225 2.89583 0.231161 2.7772 0.274031C2.77029 0.276454 2.76115 0.388198 2.76763 0.391218ZM37.5238 0.375715C37.5248 0.377701 37.5834 0.379637 37.5848 0.377668C37.6161 0.330173 37.4988 0.326335 37.5238 0.375715ZM1.79235 0.443647C1.82693 0.472334 1.9265 0.439219 1.88352 0.403547C1.84894 0.374851 1.74928 0.407963 1.79235 0.443647ZM16.3039 0.479048C16.305 0.481276 16.3471 0.483283 16.3462 0.470686C16.3434 0.430114 16.2849 0.441564 16.3039 0.479048ZM0.134743 0.446089C0.379651 0.454071 0.528136 0.629246 0.261437 0.609479C0.21314 0.605903 0.365531 0.553617 0.304055 0.537824C0.191579 0.509052 0.116893 0.61904 0.00210611 0.560102C-0.0186713 0.549314 0.120779 0.445244 0.135178 0.445845C0.135037 0.445926 0.134892 0.446007 0.134743 0.446089ZM12.5638 0.499067C12.5653 0.501045 12.6234 0.50292 12.6248 0.500959C12.6563 0.453482 12.5391 0.449677 12.5638 0.499067ZM18.7564 0.571516C18.7597 0.575729 18.8947 0.579671 18.8991 0.575788C18.9695 0.49815 18.6965 0.489952 18.7564 0.571516ZM8.64527 0.608503C8.58178 0.656265 8.50585 0.661888 8.45523 0.601911C8.51832 0.605095 8.58184 0.605564 8.64527 0.608503Z" fill="var(--stroke-0, #FFFDDF)"/>
</svg>
