<svg preserveAspectRatio="none" width="100%" height="100%" overflow="visible" style="display: block;" viewBox="0 0 38 1" fill="none" xmlns="http://www.w3.org/2000/svg">
<path id="Line 47" d="M0.361952 0.00508493C0.574894 -0.00794148 0.854025 0.00598687 1.06616 0.0251043C1.13265 0.0310336 1.09898 0.0575377 1.14487 0.062824C1.23463 0.0731291 1.31826 0.0601305 1.40696 0.0724065C1.43636 0.0766045 1.39976 0.118587 1.43059 0.122028C1.5995 0.140582 1.7593 0.129888 1.93041 0.138812C2.77324 0.182843 3.60172 0.198602 4.45486 0.217731C4.73617 0.224002 5.07813 0.262103 5.36868 0.245441C5.4026 0.243458 5.38238 0.206608 5.38883 0.203571C5.49005 0.157075 5.4564 0.231467 5.52248 0.241351C5.78478 0.280377 6.07646 0.283771 6.32889 0.269549C6.43628 0.263391 6.32861 0.190198 6.43674 0.23128C6.44425 0.234056 6.417 0.273188 6.44645 0.277362C6.51324 0.286749 6.63996 0.279755 6.69172 0.282855C6.79148 0.289028 6.80799 0.288635 6.90235 0.289081C7.03134 0.290031 7.18476 0.309483 7.32316 0.300616C7.3527 0.298607 7.3136 0.258493 7.36071 0.251666C7.40786 0.244851 7.53261 0.248252 7.57467 0.257709C7.61673 0.26717 7.59882 0.298699 7.60627 0.305926C7.66751 0.366925 7.81181 0.282442 7.83037 0.280353C8.1689 0.244753 8.45919 0.29288 8.77695 0.292743C9.01818 0.292536 9.27613 0.276648 9.50566 0.278827C9.77912 0.281578 10.0109 0.303315 10.2766 0.299579C10.3046 0.29923 10.2717 0.252065 10.306 0.251544C10.6698 0.246056 11.0311 0.251197 11.3933 0.283038C11.4296 0.286273 11.3828 0.327684 11.4191 0.333392C11.6413 0.367424 11.9929 0.449179 12.1249 0.268878C12.2754 0.275918 12.4582 0.283193 12.5928 0.319537C12.6797 0.342929 12.5953 0.388042 12.702 0.368792C12.7261 0.364503 12.6948 0.324995 12.7308 0.321551C12.8827 0.307088 13.0487 0.31993 13.1989 0.299518C13.2295 0.295273 13.2211 0.259872 13.2298 0.253497C13.3026 0.201871 13.4237 0.287213 13.4501 0.293414C13.6512 0.339658 13.7981 0.32146 13.9855 0.322589C14.0289 0.322871 13.9776 0.27532 14.0194 0.273883C14.2364 0.267068 14.4611 0.271155 14.6736 0.292254C14.7208 0.297062 14.6774 0.337567 14.7 0.341937C14.7995 0.360712 14.8216 0.284209 14.9171 0.300738C14.9373 0.304125 14.9259 0.3388 14.9296 0.342608C14.9871 0.402389 15.037 0.317684 15.0518 0.315814C15.2388 0.290261 15.3583 0.378689 15.539 0.366168C15.5606 0.36458 15.5119 0.320706 15.5726 0.318927C15.9774 0.306815 16.4054 0.318867 16.8061 0.353961C16.8684 0.359358 16.8239 0.392317 16.8278 0.39638C16.8917 0.459864 16.933 0.374803 16.9534 0.3716C17.1136 0.348541 17.2633 0.419874 17.3721 0.31856C18.0508 0.35372 18.7262 0.296827 19.3992 0.387591C19.4078 0.388642 19.3925 0.430535 19.4095 0.432452C19.6151 0.455974 19.5756 0.390866 19.7116 0.311236C19.7459 0.291241 19.8501 0.38738 19.8593 0.394427C19.893 0.420396 19.8581 0.48272 19.8693 0.487749C19.9625 0.527241 19.9473 0.32113 20.0729 0.321063C20.0768 0.321407 20.0603 0.359344 20.0708 0.363116C20.1036 0.374958 20.1361 0.359883 20.1681 0.372943C20.2415 0.403161 20.2676 0.503313 20.3796 0.445025C20.3938 0.43746 20.3721 0.320545 20.4843 0.326068C20.529 0.328369 20.7268 0.326365 20.7823 0.333941C20.8377 0.341509 20.7997 0.379185 20.8036 0.380816C20.9528 0.430636 20.8963 0.451284 20.971 0.525042C21.0458 0.598522 21.0251 0.423265 21.0555 0.403704C21.0861 0.384199 21.1955 0.425303 21.2224 0.439593C21.2493 0.453888 21.2157 0.477829 21.2396 0.485918C21.3981 0.538773 21.3092 0.398928 21.3614 0.371112C21.4845 0.305249 21.5804 0.435219 21.6931 0.447955C21.7236 0.451394 21.6987 0.421792 21.7258 0.419024C21.8334 0.408452 21.898 0.449006 22.0204 0.411822C22.0404 0.405762 22.1393 0.327621 22.2033 0.384966C22.2124 0.393236 22.1866 0.425624 22.2325 0.432879C22.3009 0.443767 22.4243 0.450846 22.4979 0.44002C22.5522 0.43201 22.4899 0.378642 22.5583 0.39522C22.5887 0.402623 22.5324 0.433844 22.5895 0.445147C22.6463 0.456447 22.7915 0.455075 22.8468 0.453997C22.902 0.452895 22.8718 0.412413 22.8762 0.409686C22.9032 0.394063 23.0091 0.374542 23.0184 0.374591C23.4903 0.369649 23.9255 0.437886 24.385 0.415301C24.421 0.413587 24.397 0.370898 24.4025 0.370196C24.5259 0.35231 24.4286 0.465811 24.5148 0.503802C24.5024 0.417172 24.5533 0.432858 24.6402 0.423357C24.6821 0.418709 24.6593 0.385165 24.6631 0.381732C24.7253 0.330783 24.7685 0.39659 24.7797 0.410052C24.8208 0.459572 24.8656 0.401061 24.8936 0.434161C24.9216 0.467013 24.8572 0.515717 24.9406 0.515093C24.964 0.484083 24.9021 0.403044 24.9654 0.38991C25.2043 0.340231 25.6502 0.403813 25.8422 0.410418C26.0339 0.417017 26.0958 0.411296 26.2075 0.422503C26.4093 0.442767 26.3353 0.382641 26.4606 0.35512C26.5863 0.327603 26.5252 0.475539 26.5432 0.507342C26.561 0.53913 26.5803 0.506407 26.6024 0.523882C26.6244 0.541353 26.5768 0.562976 26.6285 0.569536C26.6802 0.57609 26.8216 0.519537 26.84 0.486285C26.8787 0.415836 26.815 0.341897 26.9519 0.367877C26.9598 0.369419 26.9342 0.408318 26.9644 0.412249C27.2038 0.442195 27.4525 0.444052 27.6916 0.470538C27.7245 0.47424 27.6951 0.517514 27.7142 0.520159C27.9135 0.547838 27.8423 0.474872 27.9515 0.393817C27.927 0.501684 27.9874 0.567679 28.1387 0.568316C28.2296 0.568736 28.2139 0.521625 28.2728 0.488421C28.2904 0.478411 28.3547 0.51076 28.3664 0.488604C28.4048 0.41618 28.3442 0.335106 28.5002 0.367388C28.507 0.368923 28.4853 0.408567 28.5089 0.410967C28.6617 0.426682 28.68 0.350928 28.8452 0.341754C28.9747 0.334555 29.205 0.380749 29.3524 0.388262C29.3493 0.509537 29.4886 0.481767 29.5451 0.39815C29.6407 0.401573 29.7441 0.396846 29.8366 0.408404C29.8684 0.412344 29.8475 0.447457 29.8515 0.45125C29.913 0.510765 29.9546 0.429415 29.9753 0.426226C30.1991 0.395224 30.3815 0.456881 30.5951 0.396624C30.6027 0.394454 30.615 0.310213 30.6721 0.371722C30.6758 0.375962 30.6052 0.41429 30.7057 0.417254C30.8062 0.420225 30.9957 0.465384 31.1353 0.426348C31.169 0.416951 31.2544 0.348564 31.323 0.401995C31.3321 0.409251 31.3221 0.433411 31.3353 0.446856C31.3779 0.489695 31.4012 0.404549 31.4513 0.476885C31.5014 0.549219 31.6055 0.603391 31.7463 0.553484C31.7507 0.552033 31.784 0.484546 31.8283 0.485613C31.8989 0.487375 31.9992 0.501433 32.073 0.500994C32.1083 0.500759 32.0857 0.458853 32.0918 0.458086C32.3293 0.434604 32.4983 0.471963 32.7527 0.488177C32.7993 0.491232 32.9334 0.434086 33.0236 0.479266C33.1228 0.528723 33.0209 0.734456 33.2488 0.685442C33.3407 0.665837 33.457 0.404826 33.6222 0.540056C33.9425 0.506547 34.2387 0.575757 34.5599 0.52791C34.5744 0.525791 34.62 0.452945 34.654 0.453936C34.7044 0.455549 34.7321 0.489596 34.7681 0.491839C34.9189 0.502094 35.0569 0.472965 35.2024 0.477495C35.2576 0.479142 35.2383 0.514346 35.3041 0.516314C35.3699 0.518249 35.4138 0.471891 35.503 0.49428C35.5704 0.511346 35.6377 0.606099 35.7271 0.617144C35.7305 0.52368 35.7919 0.525605 35.9011 0.500933C35.922 0.496146 35.8995 0.463616 35.9095 0.459673C35.9499 0.442907 35.9872 0.469868 36.0256 0.451617C36.0349 0.447233 36.0354 0.415315 36.043 0.40993C36.1078 0.362924 36.2147 0.434721 36.233 0.447222C36.3033 0.494698 36.3362 0.453185 36.3902 0.47188C36.444 0.490574 36.3635 0.513942 36.4264 0.525286C36.5568 0.548749 36.7243 0.543594 36.8568 0.545061C36.9096 0.545449 36.8736 0.502843 36.8811 0.501909C36.9904 0.491103 37.1009 0.536424 37.1615 0.451556C37.2372 0.670994 37.2274 0.430271 37.3836 0.4742C37.3959 0.477753 37.4115 0.581523 37.3643 0.596758C37.317 0.611978 37.2454 0.579541 37.1799 0.603289C37.1644 0.608862 37.0755 0.706102 37.0633 0.711992C36.9683 0.758027 36.9549 0.602956 36.9498 0.594438C36.8928 0.502523 36.7842 0.60728 36.7556 0.614519C36.6247 0.647687 36.5135 0.625878 36.4041 0.649553C36.3325 0.664854 36.3255 0.766432 36.2693 0.763322C36.0824 0.753046 36.0171 0.611344 35.8411 0.734209C35.8033 0.760413 35.8408 0.871434 35.7055 0.784135C35.697 0.778632 35.5966 0.698769 35.5385 0.749284C35.5312 0.755653 35.5315 0.788009 35.5219 0.790727C35.4574 0.808308 35.4145 0.782532 35.3443 0.794877C35.2741 0.807223 35.1897 0.825627 35.1096 0.814653C35.0613 0.80809 34.9993 0.747808 34.9762 0.733049C34.911 0.690533 34.841 0.760241 34.8005 0.708757C34.7598 0.657014 34.8395 0.578433 34.7326 0.545C34.7286 0.629062 34.7195 0.715343 34.7131 0.799882C34.4788 0.796922 34.2482 0.76974 34.0131 0.773454C33.984 0.773999 34.0138 0.819191 33.9825 0.820939C33.8507 0.828119 33.7355 0.795903 33.5988 0.808732C33.493 0.818836 33.377 0.866685 33.2663 0.878739C33.1987 0.782549 33.0345 0.815203 32.9152 0.806413C32.8734 0.803376 32.8762 0.777685 32.8465 0.769304C32.7344 0.738306 32.7869 0.823309 32.7562 0.836686C32.6243 0.893778 32.613 0.701379 32.4576 0.706133C32.4493 0.706319 32.3487 0.808876 32.3348 0.815263C32.2467 0.856909 32.3202 0.779567 32.2651 0.771989C32.1644 0.758142 32.0944 0.733649 31.9763 0.763688C31.9419 0.772586 31.8592 0.836509 31.7924 0.787065C31.7836 0.78059 31.7884 0.746692 31.7813 0.744707C31.6531 0.711615 31.6498 0.818129 31.5765 0.854203C31.5032 0.890269 31.3901 0.816741 31.367 0.795549C31.3068 0.740727 31.4132 0.77212 31.4165 0.76674C31.4548 0.702717 31.3723 0.71374 31.3092 0.70833C31.3001 0.603891 31.2119 0.61016 31.2438 0.703142C31.2475 0.713298 31.2965 0.703558 31.3092 0.70833C31.2538 0.810799 31.1569 0.823922 31.0499 0.728166C30.9998 0.683287 31.0471 0.63096 30.8949 0.650102C30.8258 0.658744 30.8525 0.730655 30.7916 0.750261C30.6523 0.794993 30.4713 0.727912 30.3277 0.738481C30.2756 0.742318 30.3263 0.781682 30.2907 0.785661C30.1962 0.796343 30.1128 0.766808 30.0179 0.781938C30.0093 0.783359 30.0303 0.824565 30.0008 0.82509C29.777 0.829875 29.5821 0.803482 29.3485 0.802751C29.2356 0.802416 29.0338 0.825142 28.9168 0.820573C28.7141 0.812897 28.4648 0.752977 28.2916 0.767534C28.1787 0.776851 28.2034 0.818066 28.155 0.846147C28.0617 0.900579 27.8964 0.803078 27.8741 0.78798C27.8734 0.787481 27.9706 0.777765 27.9188 0.756608C27.8886 0.712525 27.8752 0.787789 27.8741 0.78798C27.8595 0.778227 27.6654 0.768871 27.6268 0.77675C27.6059 0.781055 27.6176 0.820104 27.6067 0.821611C27.3471 0.856555 27.087 0.86648 26.8237 0.848222C26.8191 0.847433 26.8261 0.803755 26.8152 0.802446C26.6628 0.783025 26.5652 0.836457 26.4395 0.86818C26.3138 0.899889 26.2141 0.889269 26.1397 0.814286C26.0448 0.823727 25.9088 0.790578 25.8305 0.770463C25.7522 0.750349 25.7413 0.835372 25.7344 0.837052C25.5195 0.89085 25.3953 0.842185 25.1724 0.834611C25.0664 0.830865 24.8562 0.843197 24.7414 0.852494C24.6507 0.859984 24.5961 0.840059 24.5125 0.8528C24.5012 0.854501 24.5126 0.892357 24.5092 0.893815C24.4159 0.939108 24.4607 0.846562 24.4415 0.830033C24.3717 0.769927 24.3286 0.737915 24.2091 0.766191C24.1816 0.772666 24.1013 0.90592 24.0511 0.913712C23.9858 0.9236 24.0105 0.875837 23.9421 0.887406C23.9363 0.888353 23.9375 0.917819 23.8953 0.91652C23.6994 0.910877 23.4859 0.893731 23.2824 0.896684C23.2546 0.896974 23.2902 0.943712 23.2501 0.944901C23.0616 0.950441 22.855 0.948712 22.6714 0.926835C22.6262 0.921303 22.6545 0.888578 22.6447 0.878861C22.5845 0.820069 22.4991 0.905493 22.485 0.907121C22.1488 0.948171 21.8915 0.870864 21.5488 0.90767C21.5302 0.909831 21.3866 1.00141 21.3226 0.922868C21.3182 0.917642 21.2548 0.837289 21.1988 0.892228C21.1953 0.895665 21.2348 0.937033 21.1659 0.932816C21.0969 0.928609 20.986 0.956234 20.8913 0.910783C20.8613 0.896465 20.7904 0.816309 20.701 0.880204C20.6951 0.884665 20.557 1.02914 20.5077 0.929459C20.4998 0.913051 20.5081 0.807566 20.4013 0.86165C20.381 0.872135 20.418 0.895663 20.3642 0.910355C20.2819 0.932999 20.1728 0.904747 20.0716 0.951737C20.0539 0.960056 19.9788 1.03165 19.9185 0.977311C19.909 0.9688 19.927 0.933584 19.8951 0.929643C19.7438 0.910738 19.5853 0.934294 19.4316 0.909928C19.3771 0.901367 19.405 0.844435 19.3482 0.829179C19.2915 0.813928 19.1771 0.799257 19.1177 0.825273C19.0583 0.8513 19.1232 0.942035 19.0342 0.949296C18.6474 0.98083 18.2642 0.927602 17.8779 0.919816C17.8206 0.918653 17.8681 0.951121 17.7837 0.951737C17.4724 0.954153 16.935 0.984595 16.6649 0.915604C16.4485 0.860347 16.7208 0.818279 16.5554 0.795793C16.4756 0.785066 16.3893 0.890555 16.37 0.893876C16.1818 0.927611 16.0511 0.880882 15.8817 0.895219C15.8467 0.898194 15.881 0.940949 15.8512 0.943009C15.7495 0.950424 15.6427 0.93134 15.5455 0.93483C15.5019 0.936495 15.51 0.96915 15.4698 0.96663C15.3739 0.960975 15.289 0.947249 15.1954 0.916642C15.1869 0.913853 15.2444 0.873231 15.1734 0.87172C15.0585 0.869391 14.9158 0.839197 14.7836 0.870378C14.7444 0.879757 14.7428 0.95439 14.6585 0.902848C14.6408 0.892083 14.6634 0.802465 14.5652 0.879899C14.5486 0.892767 14.3836 0.99721 14.3026 0.929887C14.2813 0.912168 14.2267 0.838833 14.1796 0.850358C14.1732 0.852197 14.1988 0.892285 14.1597 0.896195C14.0219 0.909279 13.8775 0.905002 13.736 0.917558C13.6982 0.92099 13.7545 0.962473 13.6982 0.966263C13.5432 0.976749 13.3498 0.966186 13.1983 0.953202C13.1425 0.948336 13.1811 0.913973 13.177 0.910233C13.1117 0.849408 13.073 0.931508 13.0514 0.936295C12.9165 0.96496 12.8137 0.926395 12.6894 0.936601C12.6551 0.939313 12.6794 0.978459 12.6726 0.981949C12.6017 1.01605 12.6545 0.945754 12.6097 0.938004C12.484 0.916062 12.344 0.919208 12.217 0.92421C12.1703 0.926105 12.2228 0.971496 12.1809 0.972672C11.933 0.980494 11.6754 0.97615 11.4335 0.951127C11.3879 0.946333 11.4166 0.911381 11.4071 0.903397C11.3417 0.847545 11.2458 0.923728 11.2237 0.930985C11.1234 0.964121 11.0844 0.933212 10.9958 0.938981C10.5631 0.967705 10.0287 0.947234 9.62018 0.934586C9.08784 0.918309 8.67476 0.885059 8.16711 0.893693C8.13485 0.894198 8.16738 0.940695 8.13957 0.941727C7.78048 0.952936 7.42697 0.934767 7.06717 0.948197C7.03764 0.949217 7.0802 0.993296 7.03281 0.996415C6.9356 1.00312 6.81247 1.00072 6.71419 0.986649C6.66625 0.979868 6.73055 0.942043 6.6823 0.93599C6.56995 0.921809 6.44951 0.91867 6.33411 0.925736C6.285 0.92884 6.3591 0.973922 6.29526 0.974442C5.86043 0.978915 5.43338 0.986679 4.99397 0.9283C4.96384 0.92429 4.93741 0.832665 4.87336 0.850236C4.86853 0.875664 4.8688 0.905576 4.86669 0.932755C4.23369 0.947396 3.60715 0.915633 2.97237 0.910722C2.94561 0.910525 2.99186 0.959073 2.94004 0.958939C2.64015 0.958222 2.34893 0.971671 2.04217 0.923417C2.01173 0.918698 2.02735 0.833291 1.93765 0.846208C1.92183 0.848565 1.78674 0.859955 1.75182 0.878495C1.74707 0.881292 1.77172 0.921156 1.72819 0.922318C1.47522 0.928372 1.21012 0.919271 0.957588 0.894914C0.916831 0.890906 0.960234 0.848454 0.931205 0.845231C0.725289 0.822696 0.501311 0.854967 0.304548 0.816423C0.172842 0.79047 0.221604 0.717087 0.151617 0.644853C0.141718 0.634662 0.0601616 0.633047 0.0559441 0.591021C0.0451164 0.48534 0.0846197 0.369621 0.0684105 0.256976C0.064986 0.232713 -0.0442391 0.258846 0.0204291 0.200214C0.0249469 0.19629 0.104136 0.17683 0.12364 0.15694C0.137219 0.143188 0.112749 0.100447 0.140455 0.0828434C0.168159 0.0652564 0.198602 0.101084 0.244535 0.080402C0.290448 0.0594636 0.27026 0.0108407 0.361952 0.00508493ZM25.4779 0.680559C25.4054 0.639728 25.3948 0.789275 25.4732 0.753496C25.477 0.751589 25.4817 0.682562 25.4779 0.680559ZM34.2495 0.656938C34.1548 0.590977 34.0899 0.687966 34.1568 0.738908C34.2236 0.789796 34.2784 0.676934 34.2495 0.656938ZM35.2324 0.608782C35.1216 0.556775 35.1042 0.768839 35.2228 0.725969C35.2297 0.723546 35.2388 0.611802 35.2324 0.608782ZM0.47618 0.624285C0.475179 0.622299 0.416553 0.620363 0.415152 0.622331C0.383935 0.669827 0.501162 0.673665 0.47618 0.624285ZM36.2077 0.556353C36.1731 0.527666 36.0735 0.560781 36.1165 0.596453C36.1511 0.625149 36.2507 0.592037 36.2077 0.556353ZM21.6961 0.520952C21.695 0.518724 21.6529 0.516717 21.6538 0.529314C21.6566 0.569886 21.7151 0.558436 21.6961 0.520952ZM37.8653 0.553911C37.6203 0.545929 37.4719 0.370754 37.7386 0.390521C37.7869 0.394097 37.6345 0.446383 37.6959 0.462176C37.8084 0.490948 37.8831 0.38096 37.9979 0.439898C38.0187 0.450686 37.8792 0.554756 37.8648 0.554155C37.865 0.554074 37.8651 0.553993 37.8653 0.553911ZM25.4362 0.500933C25.4347 0.498955 25.3766 0.49708 25.3752 0.499041C25.3437 0.546518 25.4609 0.550323 25.4362 0.500933ZM19.2436 0.428484C19.2403 0.424271 19.1053 0.420329 19.1009 0.424212C19.0305 0.50185 19.3035 0.510048 19.2436 0.428484ZM29.3547 0.391497C29.4182 0.343735 29.4942 0.338112 29.5448 0.398089C29.4817 0.394905 29.4182 0.394436 29.3547 0.391497Z" fill="var(--stroke-0, #FFFDDF)"/>
</svg>
