<svg width="32" height="32" viewBox="0 0 32 32" fill="none" xmlns="http://www.w3.org/2000/svg">
<path fill-rule="evenodd" clip-rule="evenodd" d="M16.3939 8.02055C18.3714 8.12365 20.2465 8.95679 21.6506 10.3663C23.0547 11.7759 23.8798 13.6541 23.9753 15.6319L23.985 16.0291C23.9777 18.1014 23.1651 20.0897 21.7192 21.5742C20.273 23.0588 18.3064 23.9234 16.2348 23.985H15.9764C13.9039 23.9805 11.9144 23.1704 10.4279 21.7262C9.03423 20.3722 8.18469 18.5603 8.0311 16.6321L8.01 16.2445V15.987C8.0128 13.8705 8.85565 11.8418 10.3532 10.3461C11.8508 8.85041 13.8809 8.01 15.9975 8.01L16.3939 8.02055ZM13.8407 16.669L13.8468 16.7868C13.9258 18.3129 14.2338 19.7198 14.6167 20.7682C14.8081 21.292 15.0196 21.7299 15.2329 22.0496C15.3395 22.2095 15.4479 22.3429 15.5572 22.4425C15.6656 22.5415 15.7811 22.6126 15.8999 22.6394L15.9122 22.642H15.9975C16.1192 22.642 16.2371 22.5895 16.3464 22.5076C16.4563 22.4252 16.566 22.3078 16.6725 22.163C16.8857 21.8734 17.0988 21.4603 17.2948 20.9589C17.6872 19.9547 18.0166 18.5764 18.1271 17.0715L18.1482 16.7894L18.157 16.669H13.8407ZM19.4955 16.669L19.4912 16.7762C19.3976 18.8129 18.9402 20.6993 18.2695 22.0409L18.1385 22.3019L18.411 22.1955C19.4889 21.7741 20.4384 21.0789 21.1655 20.1785C21.8925 19.2781 22.3718 18.2034 22.5568 17.061L22.5577 17.0601L22.599 16.7991L22.6201 16.669H19.4955ZM9.39076 16.669L9.40571 16.7947C9.5503 17.9895 10.0164 19.1229 10.7539 20.0739C11.4916 21.0249 12.4733 21.7582 13.5946 22.1955L13.8556 22.2975L13.7378 22.0435C13.0259 20.5132 12.6174 18.8592 12.5355 17.1735V17.17L12.5038 16.7727L12.4959 16.669H9.39076ZM13.4671 9.85219C12.3749 10.302 11.4221 11.035 10.7065 11.9747C9.99102 12.9145 9.53823 14.0279 9.39516 15.2003L9.38022 15.326H12.488L12.4933 15.2188C12.5868 13.3195 12.9905 11.5484 13.5884 10.2371L13.5893 10.238L13.7352 9.9559L13.8776 9.68168L13.4671 9.85219ZM15.987 9.35297C15.8618 9.353 15.7405 9.40832 15.6284 9.49447C15.5155 9.58129 15.403 9.70564 15.2935 9.85834C15.0745 10.1639 14.8555 10.5992 14.6563 11.1275C14.2575 12.1853 13.931 13.6341 13.8468 15.2074L13.8407 15.326H18.1543L18.1482 15.2082C18.0692 13.682 17.7585 12.2752 17.373 11.2268C17.1804 10.703 16.9676 10.2651 16.7534 9.94535C16.6462 9.7855 16.5368 9.6521 16.4273 9.55248C16.3186 9.45368 16.2032 9.38235 16.0845 9.35561L16.0731 9.35297H15.987ZM18.3002 10.0165C19.0409 11.6526 19.4462 13.4207 19.4912 15.2162L19.4938 15.326H22.6051L22.5893 15.1995C22.4416 14.0086 21.9753 12.8792 21.2402 11.9308C20.505 10.9825 19.5274 10.2499 18.411 9.81L18.1034 9.68871L18.3002 10.0165Z" fill="#FFFDDF"/>
</svg>
