<svg preserveAspectRatio="none" width="100%" height="100%" overflow="visible" style="display: block;" viewBox="0 0 375.293 54.293" fill="none" xmlns="http://www.w3.org/2000/svg">
<g id="Vector" filter="url(#filter0_d_0_30)">
<path d="M319.644 53.9946C319.512 53.8032 319.434 53.599 319.434 53.4394C319.434 53.3692 319.38 53.2607 319.321 53.1969C319.258 53.1331 319.175 53.0055 319.141 52.9225C319.106 52.8332 319.028 52.6928 318.97 52.6034C318.892 52.4886 318.853 52.329 318.833 52.061C318.813 51.8504 318.77 51.5568 318.73 51.4037C318.687 51.2569 318.623 50.9123 318.579 50.6379C318.535 50.3699 318.462 50.0891 318.413 50.0189C318.267 49.8019 318.12 49.4254 318.091 49.1765C318.037 48.7553 318.022 48.7298 317.686 48.3724C317.271 47.9385 317.178 47.8746 316.938 47.8683C316.729 47.8683 316.465 48.0789 316.323 48.3788C316.274 48.4745 316.226 48.5639 316.211 48.583C316.138 48.6723 316.025 48.9595 315.996 49.1382C315.952 49.3871 315.737 49.6423 315.518 49.6998C315.43 49.7253 315.347 49.7636 315.332 49.7891C315.278 49.8721 315.005 50.0954 314.854 50.1784C314.727 50.2422 314.517 50.2486 313.901 50.2103C313.467 50.1848 312.959 50.1593 312.769 50.1529C312.422 50.1401 312.192 50.0316 312.002 49.7955C311.807 49.5594 311.245 49.6104 310.938 49.8912C310.703 50.1018 310.596 50.0954 310.352 49.8274C310.239 49.7062 310.088 49.5849 310.015 49.5658C309.785 49.5083 309.502 49.3998 309.214 49.2722C308.979 49.1637 308.872 49.151 308.604 49.1893C308.423 49.2148 308.193 49.2339 308.091 49.2275C307.988 49.2212 307.798 49.285 307.651 49.3743C307.471 49.4828 307.275 49.5339 306.973 49.5594C306.743 49.5785 306.431 49.6423 306.279 49.6998C306.011 49.8019 306.001 49.8019 305.732 49.6423C305.347 49.4062 305.112 49.4254 304.785 49.6998C304.639 49.821 304.473 49.9231 304.419 49.9231C304.365 49.9231 304.224 49.9614 304.102 50.0125C303.369 50.3252 303.12 50.3954 302.822 50.4018C302.568 50.4018 302.441 50.4401 302.236 50.5741C302.095 50.6634 301.89 50.7719 301.782 50.8102C301.577 50.8804 300.874 50.9697 300.708 50.9506C300.654 50.9442 300.415 50.9378 300.171 50.9314C299.692 50.9251 299.424 51.0335 299.38 51.2697C299.351 51.3973 299.331 51.4101 298.833 51.5122C298.662 51.5505 298.486 51.6207 298.442 51.6653C298.398 51.71 298.198 51.8312 297.998 51.927C297.798 52.0227 297.598 52.1312 297.559 52.1631C297.212 52.4439 297.09 52.4375 296.738 52.1248C296.577 51.9844 296.509 51.9653 296.089 51.9653C295.566 51.9653 295.327 51.8759 295.186 51.6143C295.068 51.4101 294.678 51.308 294.229 51.359C293.76 51.4228 293.521 51.3526 293.33 51.1037C293.188 50.9187 293.135 50.8931 292.788 50.8485C292.51 50.8166 292.319 50.7528 292.065 50.5932C291.65 50.3379 291.445 50.2677 290.947 50.2103C290.649 50.1784 290.488 50.121 290.225 49.9487C290.034 49.8338 289.824 49.7317 289.751 49.7317C289.277 49.7253 288.496 49.0999 288.027 48.3469C287.749 47.9002 287.646 47.7981 287.397 47.7023C287.305 47.664 287.134 47.5875 287.012 47.53C286.792 47.4215 286.27 47.3513 285.713 47.3577C285.4 47.3641 285.122 47.5045 284.849 47.7981C284.771 47.881 284.658 47.9448 284.6 47.9448C284.536 47.9448 284.307 48.0661 284.082 48.2192C283.716 48.4617 283.662 48.5256 283.555 48.8064C283.486 48.9787 283.379 49.1956 283.315 49.285C283.252 49.3743 283.174 49.5658 283.145 49.7189C283.11 49.8976 283.042 50.038 282.949 50.1337C282.803 50.2741 282.627 50.4911 282.378 50.8485C282.3 50.957 282.192 51.1739 282.139 51.3399C282.085 51.5058 281.968 51.7355 281.89 51.8504C281.807 51.9653 281.719 52.1567 281.689 52.278C281.65 52.4758 281.201 53.114 281.104 53.114C280.957 53.114 280.933 52.7438 281.03 52.112C281.113 51.5951 280.918 51.3845 280.479 51.5249C280.303 51.5824 280.181 51.6589 280.103 51.7866C280.029 51.9014 279.888 52.0099 279.736 52.0674C279.604 52.1184 279.424 52.2524 279.341 52.3545C279.165 52.5843 279.058 52.5779 278.599 52.3418C278.34 52.2141 278.291 52.2078 278.076 52.278C277.881 52.3418 277.803 52.3418 277.573 52.2524C277.427 52.195 277.271 52.0993 277.227 52.0355C277.183 51.9716 277.061 51.8695 276.953 51.8057C276.777 51.7036 276.748 51.7036 276.533 51.7993C276.406 51.8568 276.172 51.9014 276.016 51.9014C275.854 51.9014 275.576 51.9334 275.386 51.978L275.049 52.0482L274.688 51.8057C274.36 51.5887 274.312 51.5696 274.067 51.6143C273.633 51.6908 273.418 51.8951 273.218 52.412C273.076 52.7821 273.047 52.8332 272.812 53.1586C272.671 53.3501 272.627 53.3756 272.495 53.3437C272.163 53.2607 271.807 53.114 271.729 53.0182C271.685 52.9672 271.602 52.9225 271.548 52.9225C271.499 52.9225 271.357 52.8842 271.235 52.8332C271.118 52.7821 270.889 52.7055 270.728 52.6609C270.522 52.6034 270.391 52.5205 270.288 52.3928C270.21 52.2843 270.073 52.1631 269.99 52.1184C269.907 52.0737 269.746 51.8887 269.634 51.7164C269.38 51.3207 269.072 51.142 268.853 51.2633C268.774 51.3016 268.638 51.4101 268.55 51.493C268.462 51.576 268.33 51.6462 268.252 51.6462C268.091 51.6462 267.612 51.2569 267.5 51.0399C267.354 50.7528 266.807 50.4145 266.138 50.2103C265.952 50.1529 265.688 50.038 265.552 49.9614C264.961 49.6041 264.917 49.5849 264.526 49.5722C263.784 49.5466 263.833 49.5658 263.696 49.285C263.628 49.1382 263.521 48.9978 263.462 48.9723C263.398 48.9404 263.325 48.8766 263.296 48.8319C263.247 48.7425 263.12 48.2639 263.066 47.9385C263.052 47.8491 262.954 47.6577 262.856 47.5173C262.71 47.3131 262.622 47.2492 262.437 47.2173C262.31 47.1918 262.158 47.1918 262.104 47.211C261.953 47.2748 261.772 47.1216 261.66 46.8281C261.602 46.6877 261.519 46.5026 261.47 46.4196C261.416 46.3367 261.377 46.1899 261.377 46.0878C261.377 45.941 261.343 45.8836 261.182 45.7751C261.06 45.6921 260.977 45.59 260.957 45.4815C260.938 45.3858 260.845 45.2518 260.723 45.1561C260.615 45.0667 260.483 44.9391 260.435 44.8753C260.308 44.6966 259.995 44.6072 259.775 44.6902C259.434 44.8051 259.175 44.6966 258.877 44.2945C258.394 43.6436 257.7 43.4522 257.202 43.8351C256.938 44.0329 256.67 44.0648 255.986 43.9563C255.737 43.918 255.498 43.9372 255.059 44.0265C254.502 44.135 254.458 44.1542 254.321 44.352C254.243 44.4732 254.062 44.6455 253.921 44.7349C253.691 44.888 253.647 44.9008 253.501 44.8306C253.413 44.7859 253.286 44.754 253.218 44.754C253.057 44.7476 252.925 44.6009 252.808 44.3009C252.71 44.0457 252.534 43.8797 252.222 43.7521C252.075 43.6947 252.075 43.6947 252.07 43.2224C252.07 42.9608 252.041 42.68 252.012 42.6034C251.885 42.2971 251.626 42.2524 251.191 42.463C250.967 42.5779 250.898 42.5843 250.806 42.5205C250.713 42.4566 250.674 42.463 250.566 42.5524C250.498 42.6162 250.439 42.6864 250.439 42.7119C250.439 42.7374 250.337 42.7949 250.21 42.8395C250.078 42.8778 249.868 42.9672 249.731 43.0246C249.6 43.0884 249.419 43.1267 249.336 43.1139C249.224 43.0884 249.155 43.1203 249.087 43.2224C249.009 43.3309 248.896 43.3692 248.53 43.4203C247.832 43.5096 247.559 43.6436 247.559 43.8861C247.559 44.0074 247.197 44.1988 247.07 44.1478C246.89 44.0712 246.65 44.1733 246.465 44.4094C246.318 44.6009 246.26 44.6328 246.104 44.6136C245.942 44.5945 245.913 44.5626 245.811 44.2945C245.752 44.1222 245.684 43.9882 245.659 43.9882C245.635 43.9882 245.522 43.8925 245.415 43.7713C245.078 43.4075 244.653 43.3182 244.438 43.567C244.277 43.7521 243.911 43.9755 243.652 44.0457C243.418 44.1031 243.335 44.0967 243.018 43.9818C242.817 43.9053 242.568 43.8351 242.466 43.8159C242.31 43.7904 242.266 43.7457 242.197 43.5607C242.139 43.3947 242.046 43.299 241.816 43.1586C241.65 43.0501 241.494 42.9672 241.47 42.9672C241.392 42.9672 240.942 42.6289 240.811 42.4694C240.737 42.3864 240.518 42.2269 240.322 42.1248C240.127 42.0227 239.932 41.9014 239.893 41.8504C239.8 41.7483 239.258 41.5632 239.038 41.5632C238.701 41.5632 238.569 41.6334 238.447 41.8887C238.276 42.2524 238.018 42.329 237.612 42.1439C237.212 41.9653 236.616 41.9589 236.396 42.1312C236.289 42.2141 236.235 42.3226 236.211 42.4694C236.182 42.6672 236.06 42.8778 235.908 42.9863C235.879 43.0118 235.728 42.9736 235.576 42.9034C235.425 42.8332 235.186 42.7438 235.044 42.7055C234.907 42.6672 234.766 42.6034 234.731 42.5715C234.663 42.4949 233.955 42.4758 233.804 42.546C233.74 42.5715 233.691 42.6289 233.691 42.6736C233.691 42.7438 233.281 42.9353 233.188 42.9161C233.169 42.9097 233.071 42.9608 232.974 43.031C232.749 43.1841 232.661 43.1905 232.461 43.0565C232.217 42.8906 231.797 42.9672 231.523 43.2224C231.108 43.6117 230.708 43.5798 230.537 43.1395C230.396 42.7949 230.024 42.2716 229.883 42.2333C229.727 42.1886 229.243 42.3545 229.023 42.5268C228.76 42.7374 228.398 42.7885 228.042 42.6736C227.856 42.6162 227.651 42.5907 227.549 42.6098C227.017 42.7311 226.782 42.7247 226.665 42.6034C226.567 42.5013 226.553 42.4184 226.548 42.0737C226.543 41.8057 226.572 41.5377 226.636 41.3207C226.758 40.874 226.709 40.8038 226.216 40.7591C226.021 40.74 225.84 40.7081 225.82 40.6953C225.806 40.6826 225.757 40.7081 225.723 40.7591C225.684 40.8038 225.586 40.8931 225.498 40.9506C225.41 41.008 225.312 41.1101 225.278 41.1803C225.249 41.2505 225.2 41.3079 225.176 41.3079C225.146 41.3079 225.044 41.4164 224.941 41.5441L224.756 41.7802L224.497 41.6717C224.36 41.6143 224.18 41.5568 224.097 41.5505C224.019 41.5377 223.955 41.5058 223.965 41.4803C223.975 41.4483 223.931 41.3781 223.867 41.3143C223.75 41.1931 223.525 41.1229 223.145 41.0846C222.9 41.0654 222.417 40.9506 222.192 40.8676C222.046 40.8166 221.851 40.8995 221.68 41.0846C221.611 41.1612 221.25 41.276 220.835 41.3526C220.688 41.3781 220.61 41.4547 220.449 41.6972C220.337 41.8695 220.22 42.0099 220.186 42.0099C220.151 42.0099 220.049 41.927 219.961 41.8249C219.683 41.5122 219.502 41.4228 219.097 41.4164L218.726 41.4037L218.696 41.0846C218.682 40.9123 218.687 40.6826 218.706 40.5804C218.73 40.4783 218.735 40.3699 218.721 40.3443C218.682 40.255 218.442 40.2741 218.213 40.3826C218.101 40.4337 217.954 40.4783 217.891 40.4783C217.822 40.4783 217.725 40.5613 217.642 40.7017C217.476 40.9633 216.875 41.3718 216.65 41.3718C216.567 41.3718 216.45 41.3399 216.392 41.2952C216.333 41.2569 216.221 41.1995 216.138 41.1739C215.815 41.0654 215.493 40.8868 215.288 40.7017C215.088 40.523 215.029 40.5102 214.526 40.4783L213.984 40.4464L213.594 40.0444C213.384 39.821 213.179 39.5658 213.145 39.4828C213.096 39.3616 213.042 39.3296 212.9 39.3296C212.803 39.3296 212.534 39.285 212.305 39.2339C211.543 39.0552 211.23 39.1127 210.845 39.4956C210.703 39.636 210.576 39.7125 210.474 39.7125C210.229 39.7125 209.819 39.8976 209.766 40.0316C209.736 40.1018 209.673 40.1848 209.619 40.2231C209.458 40.3379 209.307 40.1848 209.155 39.7572C208.975 39.2403 208.901 39.1382 208.73 39.1382C208.628 39.1382 208.53 39.2148 208.379 39.419C208.13 39.7572 208.003 39.8146 207.739 39.6934C207.598 39.6296 207.52 39.5402 207.446 39.3616C207.393 39.2275 207.295 39.0935 207.227 39.0616C207.163 39.0297 207.036 38.9148 206.953 38.8C206.87 38.6851 206.729 38.5383 206.641 38.4681C206.543 38.3915 206.455 38.2575 206.426 38.1363C206.396 38.0214 206.299 37.8363 206.216 37.7215C205.64 36.9557 205.464 36.7004 205.386 36.5345C205.259 36.2665 205.034 36.0367 204.741 35.89C204.424 35.724 204.346 35.724 204.062 35.89C203.73 36.0878 203.223 36.0942 203.066 35.9027C202.9 35.6985 202.563 35.6411 202.437 35.7942C202.349 35.8963 202.251 35.9155 201.729 35.9219C200.967 35.9219 200.928 35.9601 200.928 36.5919C200.928 36.8281 200.908 37.0961 200.879 37.1854C200.815 37.4024 200.444 37.6321 200.234 37.5875C200.146 37.5683 199.912 37.5236 199.717 37.4854C199.526 37.4471 199.199 37.345 198.994 37.2492C198.74 37.1344 198.574 37.0961 198.467 37.1216C197.993 37.2492 198.018 37.2556 197.769 36.9238C197.476 36.5345 197.148 36.2601 196.709 36.0495C196.274 35.8325 195.415 35.7751 194.922 35.9282C194.512 36.0495 194.146 36.0112 193.97 35.8325C193.853 35.7113 193.77 35.6921 193.418 35.6921C193.193 35.6921 192.788 35.6475 192.524 35.59C191.997 35.4815 191.992 35.4815 191.616 35.858C191.416 36.0623 191.372 36.075 191.04 36.075C190.723 36.075 190.669 36.0559 190.605 35.9346C190.562 35.858 190.527 35.7113 190.527 35.6155C190.527 35.4751 190.503 35.4305 190.396 35.4049C189.99 35.3028 189.756 35.2199 189.639 35.1433C189.429 35.0029 189.155 35.0348 188.965 35.2135C188.755 35.4177 188.726 35.4113 188.501 35.1816C188.242 34.9136 187.944 34.9136 187.783 35.1752C187.612 35.4624 187.173 35.8198 186.992 35.8198C186.909 35.8198 186.631 35.89 186.377 35.9729C185.952 36.1069 185.898 36.1133 185.742 36.0303C185.454 35.8644 185.4 35.8644 185.2 35.9857C185.068 36.0559 184.971 36.1771 184.912 36.3239C184.795 36.6238 184.697 36.7387 184.375 36.9365C184.229 37.0195 184.048 37.1535 183.979 37.2301C183.799 37.4152 183.501 37.4534 183.232 37.3194C183.037 37.2237 182.974 37.2173 182.69 37.2875C182.515 37.3322 182.329 37.3513 182.275 37.3322C182.222 37.3131 181.943 37.3258 181.655 37.3577C181.191 37.4088 181.118 37.4343 181.001 37.5811C180.85 37.7725 180.781 37.747 180.737 37.479C180.659 37.0067 180.181 36.9748 179.746 37.4024C179.57 37.5747 179.258 37.6194 178.896 37.5173C178.74 37.4726 178.687 37.4917 178.486 37.664C178.359 37.7725 178.213 37.8619 178.159 37.8619C178.11 37.8619 177.974 37.9895 177.852 38.149C177.734 38.3086 177.617 38.4362 177.583 38.4362C177.529 38.4362 177.368 38.5894 176.987 39.0169C176.875 39.1446 176.685 39.3296 176.562 39.4254C176.44 39.5211 176.323 39.6423 176.304 39.687C176.284 39.7381 176.23 39.7764 176.191 39.7764C176.074 39.7764 175.82 39.9678 175.62 40.1975C175.522 40.3188 175.4 40.4145 175.352 40.4145C175.303 40.4145 175.176 40.4975 175.068 40.5932C174.868 40.7847 174.561 40.9251 174.351 40.9251C174.263 40.9251 174.106 41.0527 173.867 41.3271C173.115 42.1695 172.954 42.2652 172.271 42.2652C171.611 42.2716 171.152 42.3673 170.938 42.5524C170.835 42.6417 170.698 42.7119 170.63 42.7119C170.522 42.7119 170.288 42.8395 169.912 43.1012C169.771 43.1969 169.688 43.165 169.585 42.9736C169.453 42.7374 169.375 42.7183 169.019 42.814C168.594 42.9353 168.589 42.9289 168.252 42.6034C167.925 42.278 167.617 42.1248 167.065 42.0099C166.772 41.9525 166.714 41.9142 166.646 41.7674C166.577 41.6079 166.528 41.5824 166.133 41.5185C165.894 41.4803 165.518 41.3654 165.293 41.2697L164.888 41.091L164.458 41.2378C164.224 41.3143 163.911 41.3781 163.765 41.3718C163.374 41.359 163.33 41.3654 163.34 41.4483C163.35 41.493 163.257 41.5441 163.11 41.5696C162.979 41.6015 162.715 41.6845 162.529 41.761C162.227 41.8887 162.173 41.8951 161.968 41.8185C161.611 41.6845 161.436 41.6717 161.27 41.761C161.05 41.8823 160.752 41.8376 160.596 41.6653C160.513 41.576 160.308 41.4803 160.063 41.4101C159.771 41.3271 159.644 41.2569 159.575 41.142C159.526 41.0591 159.429 40.9633 159.36 40.9314C159.287 40.8931 159.175 40.7527 159.111 40.6124C158.887 40.1529 158.662 40.1082 158.35 40.4464C158.12 40.7017 157.954 40.7272 157.812 40.5422C157.69 40.3826 157.69 40.1784 157.812 39.9359C157.925 39.7125 157.935 39.5275 157.842 39.3616C157.759 39.2148 157.422 39.1573 156.104 39.0808C155.186 39.0297 155.098 39.0106 154.883 38.8127C154.6 38.5447 153.887 38.3469 153.462 38.4107C153.242 38.4426 153.169 38.4362 153.193 38.3852C153.213 38.3405 153.203 38.3214 153.159 38.3469C153.125 38.3596 153.037 38.3469 152.964 38.315C152.876 38.2703 152.832 38.2703 152.822 38.3214C152.793 38.4362 152.642 38.3277 152.554 38.1235C152.441 37.8746 152.07 37.5875 151.909 37.6258C151.841 37.6449 151.65 37.7279 151.484 37.8044C151.221 37.9321 151.172 37.9385 151.03 37.8619C150.938 37.8108 150.84 37.6896 150.781 37.5492C150.63 37.1535 150.234 36.777 149.976 36.777C149.878 36.777 149.736 36.7323 149.653 36.6813C149.575 36.6238 149.37 36.5664 149.204 36.5473C148.921 36.5154 148.877 36.5281 148.511 36.7706C148.076 37.0642 147.92 37.0833 147.612 36.9046C147.324 36.7323 147.144 36.7451 146.68 36.9621C146.064 37.2556 145.825 37.2556 145.596 36.9429C145.444 36.7323 145.415 36.7196 144.99 36.6749L144.541 36.6366L144.487 36.8536C144.453 36.994 144.321 37.1854 144.111 37.4152C143.931 37.6066 143.726 37.8491 143.647 37.9512C143.545 38.0916 143.486 38.1235 143.398 38.0916C143.335 38.0661 143.125 38.0087 142.93 37.9576C142.729 37.9065 142.529 37.8236 142.476 37.7598C142.373 37.6385 141.89 37.6066 141.787 37.7151C141.753 37.7534 141.582 37.7981 141.406 37.8172C141.23 37.8363 140.991 37.9002 140.869 37.9576C140.679 38.0469 140.591 38.0469 140.205 37.9831C139.868 37.9257 139.707 37.9257 139.536 37.9767C139.229 38.0788 138.862 38.0725 138.657 37.9576C138.413 37.8236 138.169 37.8363 137.886 37.9959C137.676 38.1171 137.622 38.1235 137.422 38.0597C137.134 37.964 136.772 37.7215 136.65 37.5492C136.528 37.3705 136.255 37.262 135.957 37.2748C135.747 37.2811 135.654 37.2429 135.386 37.0323C135.044 36.7642 134.814 36.7132 134.482 36.8408C134.229 36.9302 133.887 36.8217 133.75 36.6047C133.687 36.509 133.525 36.2665 133.394 36.075C132.891 35.3475 132.861 35.2901 132.861 35.0731C132.861 34.9582 132.852 34.8625 132.842 34.8625C132.837 34.8625 132.759 34.8944 132.676 34.9327C132.456 35.0284 132.173 34.8115 132.051 34.4541C131.968 34.218 131.929 34.1797 131.641 34.052C131.465 33.9755 131.265 33.9116 131.196 33.9116C131.128 33.9053 131.03 33.8478 130.986 33.784C130.879 33.6245 130.508 33.4586 130.278 33.4586C130.181 33.4586 129.961 33.4011 129.795 33.3309C129.399 33.1714 129.219 33.1714 128.936 33.3309C128.813 33.4075 128.599 33.4841 128.457 33.5032C128.315 33.5288 128.13 33.6053 128.037 33.6947C127.944 33.7713 127.817 33.8415 127.759 33.8415C127.7 33.8415 127.593 33.8989 127.524 33.9691C127.329 34.1733 127.129 34.135 126.978 33.8734C126.812 33.5989 126.714 33.5543 126.489 33.6819C126.182 33.8478 125.757 33.8095 125.415 33.5862C125.166 33.4203 125.068 33.3947 124.756 33.4011C124.385 33.4011 124.199 33.4841 123.853 33.8095C123.745 33.9053 123.628 33.9372 123.296 33.9436C123.066 33.9436 122.744 33.9818 122.583 34.0201C122.422 34.0584 122.139 34.1222 121.958 34.1669C121.719 34.218 121.548 34.3073 121.333 34.486C120.977 34.7923 120.84 34.7987 120.64 34.5307C120.405 34.2307 120.21 34.0967 119.995 34.0967C119.678 34.1031 119.385 34.1988 119.243 34.3456C119.048 34.5498 118.711 34.7349 118.32 34.8625C118.081 34.9455 117.91 35.0412 117.798 35.1752C117.539 35.4688 117.31 35.5007 116.782 35.3028C116.558 35.2199 116.543 35.2263 116.235 35.4241C116.06 35.539 115.879 35.6283 115.835 35.6283C115.791 35.6283 115.669 35.5326 115.557 35.4177C115.273 35.1242 115.127 35.054 114.766 35.054C114.458 35.054 114.443 35.0476 114.219 34.7732C114.062 34.5881 113.926 34.4796 113.794 34.4541C113.687 34.4286 113.496 34.3584 113.369 34.3009C113.184 34.218 113.13 34.2116 113.066 34.2818C113.022 34.3265 112.988 34.4222 112.988 34.486C112.988 34.6072 112.583 34.9263 112.432 34.9263C112.393 34.9263 112.275 35.0221 112.168 35.1369C112.061 35.2454 111.909 35.3922 111.836 35.4496C111.758 35.5134 111.66 35.59 111.621 35.6219C111.499 35.724 111.128 35.9219 110.82 36.0495C110.444 36.2027 110.376 36.2856 110.259 36.7451C110.176 37.0769 110.142 37.1344 110.01 37.1854C109.873 37.2365 109.214 37.179 108.643 37.0578C108.496 37.0259 108.423 37.0642 108.203 37.2556C108.057 37.3833 107.847 37.6194 107.739 37.7725C107.627 37.9257 107.505 38.0533 107.461 38.0533C107.417 38.0533 107.207 38.2831 106.992 38.5639C106.602 39.0808 106.494 39.151 106.294 39.0106C106.099 38.8702 105.776 38.9212 105.532 39.1254C105.405 39.2275 105.264 39.3296 105.225 39.3424C105.132 39.3807 104.731 39.1829 104.507 38.985C104.341 38.8383 104.316 38.8319 103.599 38.8574C103.193 38.8766 102.852 38.9021 102.837 38.9148C102.827 38.934 102.734 38.9467 102.637 38.9467C102.534 38.9467 102.373 38.9914 102.275 39.0425C102.017 39.1893 101.528 39.2594 101.323 39.1829C101.226 39.151 100.732 39.1127 100.22 39.0999C99.7119 39.0871 99.2139 39.0744 99.1211 39.0744C99.0283 39.0744 98.6475 39.0808 98.2812 39.0999C97.9102 39.1127 97.5488 39.1063 97.4756 39.0808C97.4023 39.0552 97.2949 38.9404 97.2412 38.8319C97.1875 38.717 97.0947 38.6149 97.0312 38.5958C96.9727 38.5766 96.8701 38.5511 96.8018 38.5319C96.7383 38.5128 96.6553 38.4298 96.6211 38.3469C96.5576 38.1937 96.377 37.9895 95.8154 37.4343C95.5371 37.1599 95.5078 37.1088 95.5078 36.8982C95.5078 36.7451 95.4736 36.6302 95.4053 36.5473C95.3076 36.4324 95.2979 36.4324 95.1562 36.5409C94.9219 36.7196 94.6289 36.6813 94.2578 36.426C94.082 36.3048 93.8672 36.2027 93.7793 36.2027C93.6426 36.2027 93.335 36.0303 92.9053 35.7113C92.7734 35.6092 92.5781 35.6092 92.4023 35.6985C92.1924 35.8006 91.7529 36.2792 91.7188 36.4452C91.6553 36.7515 91.333 36.7961 90.957 36.5536C90.6543 36.3558 90.6201 36.3558 90.3125 36.5536C90.0879 36.694 90.0293 36.7068 89.8193 36.6557C89.6875 36.6238 89.5605 36.6111 89.5361 36.6302C89.5166 36.6494 89.4434 36.643 89.3799 36.6238C89.3018 36.5983 89.2578 36.5217 89.2236 36.3558C89.2041 36.2218 89.1504 36.0942 89.1113 36.0686C88.3887 35.5709 88.2715 35.5517 87.9883 35.858C87.8613 36.0048 87.8027 36.024 87.6074 35.9984C87.3828 35.9665 87.2803 35.9155 86.792 35.59C86.499 35.3922 86.3086 35.373 86.0596 35.5262C85.9326 35.6028 85.8203 35.6283 85.6934 35.6028C85.5957 35.5836 85.3369 35.59 85.127 35.6283C84.917 35.6602 84.5068 35.7049 84.2236 35.7304C83.7158 35.7687 83.7012 35.7687 83.5889 35.6155C83.418 35.3858 83.0371 35.1178 82.8857 35.1178C82.8125 35.1178 82.7002 35.0603 82.6318 34.9901C82.5635 34.9199 82.4756 34.8625 82.4414 34.8625C82.4023 34.8625 82.2412 34.7668 82.0752 34.6583C81.6602 34.3711 81.333 34.3711 80.9521 34.6583C80.8008 34.7732 80.6494 34.8625 80.6104 34.8625C80.5078 34.8625 79.8975 35.2709 79.7705 35.4241C79.7119 35.4943 79.5947 35.5964 79.5068 35.6538C79.4189 35.7113 79.3262 35.8134 79.2969 35.8836C79.2676 35.9538 79.2139 36.0112 79.1797 36.0112C79.0674 36.0112 78.5889 36.3111 78.5156 36.426C78.4766 36.4898 78.3496 36.5919 78.2324 36.6557C78.1152 36.7259 77.9834 36.8344 77.9395 36.8982C77.8223 37.0706 77.3779 37.2365 76.9434 37.2748C76.6016 37.3003 76.543 37.2875 76.2451 37.1025C76.0645 36.994 75.874 36.9046 75.8252 36.9046C75.7715 36.9046 75.542 36.7834 75.3174 36.643L74.9023 36.375L74.6094 36.4579C74.4482 36.5026 74.3311 36.56 74.3408 36.5919C74.375 36.6621 74.0967 36.7323 73.9355 36.6877C73.8623 36.6621 73.6279 36.6749 73.418 36.7132C73.1055 36.7642 72.959 36.7579 72.6318 36.6685C72.2412 36.56 72.2266 36.5664 71.9141 36.7004C71.5234 36.8727 71.4258 36.8727 71.0645 36.7068C70.8398 36.6047 70.6152 36.5664 70.0439 36.5409C69.6436 36.5217 69.2773 36.4834 69.2285 36.4515C69.1846 36.4196 68.96 36.3941 68.7256 36.3877C68.4814 36.3813 68.2275 36.343 68.1348 36.292C67.9248 36.1771 67.6562 36.1771 67.3535 36.2984C67.2217 36.3494 67.0215 36.3941 66.9092 36.3941C66.7969 36.3941 66.6309 36.4324 66.543 36.4834C66.3135 36.6175 65.7227 36.8855 65.5615 36.9302C65.4834 36.9557 65.3711 37.045 65.3125 37.128C65.2295 37.2429 65.1465 37.2875 65.0098 37.2875C64.9023 37.2939 64.7705 37.3258 64.707 37.3705C64.6045 37.4471 64.209 38.1363 64.209 38.2448C64.209 38.2703 64.1211 38.3405 64.0137 38.4043C63.7842 38.5383 63.584 38.5128 63.1982 38.2831C63.0518 38.1937 62.8613 38.1171 62.7734 38.1171C62.6904 38.1171 62.5244 38.0533 62.4023 37.9831C62.0605 37.7789 61.792 37.7661 61.3965 37.9193C60.9424 38.0916 60.8594 38.0916 60.5176 37.8619C60.1416 37.6194 59.8975 37.5747 59.624 37.696C59.4678 37.7725 59.2334 37.7981 58.7207 37.7917C58.1641 37.7917 57.9639 37.8108 57.6611 37.9193C57.373 38.0278 57.2559 38.0406 57.1582 37.9895C56.9092 37.8683 56.7578 37.9129 56.5234 38.1746C56.3281 38.3979 56.2695 38.4235 55.9473 38.4681C55.5273 38.5192 55.1416 38.6596 55.0049 38.8191C54.9512 38.8829 54.7314 38.985 54.5166 39.0425C54.1455 39.151 54.0576 39.2084 53.5889 39.5977C53.4814 39.687 53.3447 39.7827 53.2861 39.8019C53.2324 39.8274 53.1445 39.9231 53.0957 40.0189C52.9248 40.3635 52.5781 40.8549 52.4756 40.8995C52.417 40.9251 52.2754 41.0527 52.1631 41.1867C52.0459 41.3271 51.9287 41.4356 51.8945 41.4356C51.7871 41.4356 51.46 41.7738 51.3867 41.9589C51.3477 42.0546 51.2256 42.2141 51.1182 42.2971C51.0107 42.3864 50.9033 42.5332 50.8789 42.6226C50.8154 42.8395 50.2344 43.1841 50.0195 43.1331C49.9365 43.1076 49.8047 43.1203 49.7266 43.1522C49.6484 43.1841 49.4531 43.248 49.292 43.2926C49.0479 43.3628 48.9648 43.4266 48.7744 43.6755C48.4912 44.0584 48.3545 44.1095 47.9736 43.9627C47.6318 43.8287 47.5537 43.8223 46.8994 43.9117C46.5674 43.9499 46.3135 44.0265 46.1084 44.1414C45.9424 44.2307 45.7617 44.3073 45.708 44.3073C45.6494 44.3073 45.5713 44.3775 45.5322 44.4605C45.4883 44.5498 45.332 44.6711 45.1611 44.7604C44.9609 44.8561 44.8486 44.9519 44.8145 45.0476C44.7852 45.1305 44.6631 45.2582 44.5459 45.3348C44.4238 45.4113 44.3164 45.5198 44.3018 45.5773C44.248 45.7751 44.1211 45.9027 43.9795 45.9027C43.833 45.9027 43.5059 46.1197 43.5059 46.2218C43.5059 46.2473 43.3936 46.3813 43.2568 46.5154C43.1201 46.6557 42.9785 46.8536 42.9346 46.9684C42.8955 47.0833 42.7832 47.2492 42.6855 47.345C42.583 47.4407 42.4707 47.5747 42.4316 47.6385C42.3877 47.7023 42.2266 47.8044 42.0703 47.8555C41.9141 47.9065 41.7383 47.9895 41.6797 48.0406C41.626 48.0852 41.4551 48.1427 41.3086 48.1682C41.0254 48.2129 40.6104 48.5256 39.9023 49.2339C39.7314 49.3998 39.5361 49.553 39.4629 49.5785C39.3896 49.5977 39.1895 49.6743 39.0137 49.7508C38.833 49.8274 38.5596 49.8849 38.3691 49.8912C38.1934 49.8976 38.0176 49.9295 37.9785 49.9614C37.9443 49.9997 37.8223 50.0635 37.7051 50.1082C37.5537 50.1656 37.4658 50.2486 37.3828 50.4209C37.2266 50.74 37.0703 50.9123 36.8506 51.008C36.7529 51.0463 36.6699 51.1037 36.6699 51.1293C36.6699 51.1548 36.5967 51.225 36.5137 51.2888C36.4258 51.359 36.3037 51.4866 36.25 51.576C36.1572 51.7164 36.1328 51.7291 36.0205 51.6653C35.9277 51.6079 35.5762 51.6015 34.751 51.627C33.9893 51.6526 33.4277 51.6398 33.0713 51.5887C32.4756 51.4994 32.2852 51.5505 32.0312 51.8695C31.9629 51.9525 31.7871 52.0801 31.6406 52.1567L31.3721 52.2971L31.0645 52.1567C30.6689 51.9716 30.5176 52.0163 30.2148 52.3864L29.9707 52.68L29.5508 52.6417C29.3164 52.6162 29.0088 52.5843 28.8623 52.5651C28.7012 52.5396 28.4033 52.5715 28.0957 52.6353C27.6123 52.7438 27.5732 52.7438 27.1875 52.6353C26.958 52.5715 26.7627 52.4822 26.7383 52.4311C26.7139 52.3737 26.6846 52.3609 26.665 52.3928C26.6309 52.463 25.7324 52.7183 25.2588 52.7949C25.0293 52.8332 24.8682 52.9097 24.6436 53.0884C24.2871 53.3692 23.9502 53.4394 23.6719 53.2863C23.5742 53.2288 23.2861 53.165 23.0371 53.1459C22.7637 53.114 22.5146 53.0501 22.4121 52.9863C22.1094 52.7885 21.8408 52.8013 21.6406 53.0182C21.4062 53.2799 21.0254 53.2161 20.8496 52.897C20.8105 52.8204 20.6836 52.6289 20.5615 52.463C20.2832 52.0674 20.1611 52.061 19.8242 52.4375C19.3799 52.9289 18.8916 52.9672 18.0908 52.5588C17.4951 52.2524 16.9336 52.2014 16.5723 52.412C16.4258 52.4949 16.1914 52.5651 15.9668 52.5843C15.6299 52.6162 15.5859 52.6034 15.4297 52.4503C15.3369 52.3609 15.2051 52.2397 15.1416 52.1759C14.8682 51.9206 14.375 52.1439 13.7451 52.814C13.667 52.897 13.5449 52.9927 13.4766 53.0182C13.4082 53.0438 13.3057 53.1203 13.2471 53.1905C13.1689 53.2863 13.0322 53.3373 12.7588 53.3756C12.5 53.4075 12.2852 53.4841 12.085 53.6117C11.7139 53.8478 11.2891 53.9436 10.6152 53.9436C10.0781 53.9436 9.2627 53.8542 9.11621 53.7776C9.07227 53.7585 9.02344 53.6883 9.00879 53.6245C8.98438 53.516 8.52051 53.2288 8.23242 53.1459C8.15918 53.1267 8.06152 53.0629 8.02246 53.0182C7.9834 52.9672 7.89551 52.9225 7.83203 52.9225C7.7002 52.9225 7.35352 52.7119 7.21191 52.5524C7.16309 52.4949 7.08008 52.3099 7.02148 52.1439C6.95801 51.9525 6.84082 51.7547 6.69434 51.6079C6.57227 51.4803 6.41602 51.2952 6.34766 51.1995C6.26953 51.091 6.09375 50.9697 5.86914 50.8804C5.67383 50.7974 5.43457 50.6506 5.33691 50.5549C5.23926 50.4528 5.11719 50.3699 5.05859 50.3699C4.91699 50.3699 4.44336 50.0954 4.44336 50.0125C4.44336 49.8274 4.19922 49.7827 3.2959 49.8147C3.04199 49.821 2.96875 49.7955 2.76367 49.6232C2.63184 49.5083 2.48535 49.3296 2.43652 49.2275C2.3877 49.1191 2.27539 48.9914 2.1875 48.9404C2.09961 48.8893 1.97266 48.8064 1.9043 48.7553C1.5918 48.5256 1.47461 48.449 1.31836 48.3533C1.22559 48.2958 1.10352 48.2001 1.0498 48.1299C0.957031 48.0214 0.517578 47.8172 0.161133 47.7215L0 47.6768V23.9116V0.146484H187.5H375V21.2633V42.3801L374.78 42.4503C374.663 42.4885 374.482 42.5907 374.385 42.68C374.116 42.9161 374.004 42.9353 373.662 42.7821C373.496 42.7119 373.301 42.6481 373.232 42.6481C372.969 42.6481 372.603 42.3673 372.212 41.8504C371.865 41.3909 371.865 41.3909 371.924 41.2441C372.002 41.0527 371.909 40.9251 371.68 40.9251C371.577 40.9251 371.279 40.9825 371.011 41.0527C370.747 41.1229 370.386 41.1803 370.205 41.1803C369.937 41.1803 369.858 41.2058 369.741 41.3271C369.565 41.5249 369.326 41.627 369.058 41.627C368.823 41.627 368.599 41.7483 368.408 41.9844C368.34 42.0674 368.184 42.1567 368.042 42.1886C367.866 42.2269 367.803 42.2652 367.817 42.3354C367.827 42.3864 367.847 42.4758 367.856 42.5396C367.876 42.6162 367.856 42.6481 367.783 42.6481C367.656 42.6481 367.603 42.5396 367.676 42.4247C367.72 42.3545 367.705 42.3162 367.607 42.2333C367.412 42.061 366.509 42.0737 366.191 42.246L365.952 42.3737L365.63 42.2269C365.234 42.0418 365.059 42.0355 364.868 42.2014C364.6 42.4311 364.458 42.329 364.336 41.8057C364.292 41.6143 364.062 41.6717 363.755 41.9461C363.594 42.0865 363.398 42.2141 363.311 42.2397C363.096 42.2907 362.817 42.1312 362.725 41.9014C362.607 41.6015 362.144 41.1867 361.807 41.0846C361.489 40.9889 361.333 41.008 361.001 41.1612C360.811 41.2505 360.776 41.2505 360.62 41.1548C360.41 41.0208 360.352 41.0591 360.044 41.5122C359.585 42.1886 359.395 42.3928 359.214 42.3928C359.15 42.3928 359.043 42.4503 358.975 42.5141C358.789 42.7055 358.535 42.7693 357.52 42.8523C356.104 42.9672 355.889 42.9608 355.557 42.7566L355.278 42.5907L355.02 42.7821C354.878 42.8842 354.717 42.9672 354.663 42.9672C354.609 42.9672 354.492 43.0246 354.404 43.0948C354.263 43.2097 354.194 43.2161 353.667 43.1778C353.257 43.1522 353.081 43.1586 353.057 43.2161C352.998 43.3373 352.891 43.299 352.705 43.082L352.524 42.8714H351.934C351.25 42.8714 351.157 42.897 350.903 43.1586C350.698 43.3692 350.469 43.4075 350.312 43.2543C350.083 43.031 349.668 43.2671 349.561 43.6947C349.517 43.8734 349.478 43.918 349.331 43.9563C349.121 44.0074 348.975 44.1222 348.696 44.4477C348.579 44.5817 348.452 44.6902 348.413 44.6902C348.32 44.6902 347.842 45.0284 347.632 45.239C347.48 45.3922 347.427 45.4624 347.241 45.7304C347.153 45.858 347.065 45.9027 346.807 45.9346C346.392 45.9921 346.211 45.9538 345.859 45.7304C345.61 45.5709 345.537 45.5581 345.132 45.5709C344.424 45.59 344.37 45.59 344.219 45.5836C344.136 45.5773 344.019 45.539 343.95 45.4879C343.75 45.3475 343.403 45.2709 343.179 45.3092C343.066 45.3284 342.871 45.3092 342.749 45.2709C342.578 45.2135 342.451 45.2135 342.236 45.2709C341.89 45.3603 341.475 45.2646 341.372 45.0731C341.299 44.9391 341.016 44.888 341.016 45.0093C341.016 45.0476 340.874 45.1624 340.698 45.2709C340.518 45.3794 340.298 45.5326 340.195 45.6219C339.951 45.8389 339.795 45.807 339.683 45.5071C339.551 45.1624 339.404 45.1178 338.604 45.1944C337.827 45.2709 337.568 45.405 337.329 45.8389C337.075 46.3048 336.855 46.6111 336.675 46.7387C336.577 46.8089 336.411 46.9493 336.304 47.0514C336.05 47.2939 335.864 47.3386 335.601 47.2173C335.483 47.1599 335.332 47.1152 335.259 47.1152C335.19 47.1152 334.98 47.0642 334.795 47.0067C334.507 46.9174 334.399 46.911 334.072 46.9748C333.838 47.0195 333.638 47.0961 333.564 47.1727C333.486 47.2492 333.33 47.3067 333.091 47.3386C332.9 47.3641 332.695 47.4152 332.642 47.4598C332.446 47.6194 331.729 47.83 331.519 47.7917C331.343 47.7534 330.527 47.8938 330.425 47.9704C330.405 47.9895 330.171 48.015 329.897 48.0406C329.541 48.0661 329.331 48.1171 329.116 48.232C328.877 48.3533 328.755 48.3852 328.486 48.366C328.301 48.3533 327.974 48.3788 327.759 48.4235C327.544 48.4681 327.202 48.5256 327.002 48.5511C326.665 48.5894 326.606 48.5766 326.382 48.4298C326.25 48.3405 326.104 48.2192 326.069 48.1554C326.03 48.098 325.913 47.9704 325.811 47.8683C325.654 47.7215 325.571 47.6896 325.342 47.6896C324.902 47.6896 324.766 47.747 324.497 48.0661C324.355 48.232 324.185 48.4107 324.116 48.4681C324.048 48.5256 323.96 48.6596 323.926 48.7681C323.887 48.8957 323.789 49.0106 323.657 49.0999C323.54 49.1765 323.423 49.3041 323.394 49.3935C323.364 49.4764 323.262 49.5913 323.174 49.636C323.081 49.687 322.974 49.8083 322.939 49.904C322.905 49.9997 322.798 50.1465 322.705 50.2295C322.612 50.3124 322.505 50.4528 322.466 50.5485C322.432 50.6443 322.329 50.8102 322.236 50.9251C322.144 51.0399 322.07 51.1739 322.07 51.2378C322.07 51.2952 322.002 51.4483 321.924 51.576C321.841 51.7036 321.748 51.844 321.714 51.8951C321.685 51.9461 321.655 52.0291 321.65 52.0737C321.631 52.2397 321.479 52.4758 321.396 52.4758C321.26 52.4758 321.099 52.6545 320.991 52.9289C320.928 53.0948 320.835 53.2161 320.732 53.2735C320.645 53.3245 320.518 53.4586 320.449 53.5734C320.107 54.1605 319.854 54.2882 319.644 53.9946Z" fill="#FFFDDF"/>
</g>
<defs>
<filter id="filter0_d_0_30" x="0" y="0" width="375.293" height="54.293" filterUnits="userSpaceOnUse" color-interpolation-filters="sRGB">
<feFlood flood-opacity="0" result="BackgroundImageFix"/>
<feColorMatrix in="SourceAlpha" type="matrix" values="0 0 0 0 0 0 0 0 0 0 0 0 0 0 0 0 0 0 127 0" result="hardAlpha"/>
<feOffset dx="0.146484"/>
<feGaussianBlur stdDeviation="0.0732422"/>
<feComposite in2="hardAlpha" operator="out"/>
<feColorMatrix type="matrix" values="0 0 0 0 0 0 0 0 0 0 0 0 0 0 0 0 0 0 0.25 0"/>
<feBlend mode="normal" in2="BackgroundImageFix" result="effect1_dropShadow_0_30"/>
<feBlend mode="normal" in="SourceGraphic" in2="effect1_dropShadow_0_30" result="shape"/>
</filter>
</defs>
</svg>
