<svg preserveAspectRatio="none" width="100%" height="100%" overflow="hidden" style="display:block" viewBox="0 0 1920 270" fill="none" xmlns="http://www.w3.org/2000/svg">
<path d="M1636.58 268.993C1635.9 268.04 1635.5 267.023 1635.5 266.228C1635.5 265.878 1635.23 265.338 1634.93 265.02C1634.6 264.702 1634.18 264.066 1634 263.653C1633.83 263.208 1633.43 262.508 1633.13 262.063C1632.73 261.491 1632.53 260.696 1632.43 259.361C1632.33 258.312 1632.1 256.85 1631.9 256.087C1631.68 255.356 1631.35 253.639 1631.13 252.272C1630.9 250.937 1630.53 249.538 1630.28 249.188C1629.53 248.107 1628.78 246.232 1628.63 244.992C1628.35 242.894 1628.28 242.767 1626.55 240.987C1624.43 238.825 1623.95 238.507 1622.73 238.475C1621.65 238.475 1620.3 239.524 1619.58 241.018C1619.33 241.495 1619.08 241.94 1619 242.036C1618.63 242.481 1618.05 243.911 1617.9 244.801C1617.68 246.041 1616.58 247.313 1615.45 247.599C1615 247.726 1614.58 247.917 1614.5 248.044C1614.23 248.457 1612.83 249.57 1612.05 249.983C1611.4 250.301 1610.33 250.333 1607.18 250.142C1604.95 250.015 1602.35 249.888 1601.38 249.856C1599.6 249.792 1598.43 249.252 1597.45 248.076C1596.45 246.899 1593.58 247.154 1592 248.553C1590.8 249.602 1590.25 249.57 1589 248.235C1588.43 247.631 1587.65 247.027 1587.28 246.931C1586.1 246.645 1584.65 246.105 1583.18 245.469C1581.98 244.928 1581.43 244.865 1580.05 245.056C1579.13 245.183 1577.95 245.278 1577.43 245.246C1576.9 245.215 1575.93 245.533 1575.18 245.978C1574.25 246.518 1573.25 246.772 1571.7 246.899C1570.53 246.995 1568.93 247.313 1568.15 247.599C1566.78 248.107 1566.73 248.107 1565.35 247.313C1563.38 246.137 1562.18 246.232 1560.5 247.599C1559.75 248.203 1558.9 248.712 1558.63 248.712C1558.35 248.712 1557.63 248.902 1557 249.157C1553.25 250.714 1551.98 251.064 1550.45 251.096C1549.15 251.096 1548.5 251.286 1547.45 251.954C1546.73 252.399 1545.68 252.94 1545.13 253.13C1544.08 253.48 1540.48 253.925 1539.63 253.83C1539.35 253.798 1538.13 253.766 1536.88 253.734C1534.43 253.703 1533.05 254.243 1532.83 255.419C1532.68 256.055 1532.58 256.119 1530.03 256.627C1529.15 256.818 1528.25 257.168 1528.03 257.39C1527.8 257.613 1526.78 258.217 1525.75 258.694C1524.73 259.17 1523.7 259.711 1523.5 259.87C1521.73 261.269 1521.1 261.237 1519.3 259.679C1518.48 258.98 1518.13 258.884 1515.98 258.884C1513.3 258.884 1512.08 258.439 1511.35 257.136C1510.75 256.119 1508.75 255.61 1506.45 255.864C1504.05 256.182 1502.83 255.832 1501.85 254.593C1501.13 253.671 1500.85 253.544 1499.08 253.321C1497.65 253.162 1496.68 252.844 1495.38 252.049C1493.25 250.778 1492.2 250.428 1489.65 250.142C1488.13 249.983 1487.3 249.697 1485.95 248.839C1484.98 248.266 1483.9 247.758 1483.53 247.758C1481.1 247.726 1477.1 244.611 1474.7 240.859C1473.28 238.634 1472.75 238.125 1471.48 237.649C1471 237.458 1470.13 237.076 1469.5 236.79C1468.38 236.25 1465.7 235.9 1462.85 235.932C1461.25 235.964 1459.83 236.663 1458.43 238.125C1458.03 238.539 1457.45 238.857 1457.15 238.857C1456.83 238.857 1455.65 239.461 1454.5 240.224C1452.63 241.432 1452.35 241.75 1451.8 243.148C1451.45 244.007 1450.9 245.087 1450.58 245.533C1450.25 245.978 1449.85 246.931 1449.7 247.694C1449.53 248.584 1449.18 249.284 1448.7 249.761C1447.95 250.46 1447.05 251.541 1445.78 253.321C1445.38 253.861 1444.83 254.942 1444.55 255.769C1444.28 256.595 1443.68 257.74 1443.28 258.312C1442.85 258.884 1442.4 259.838 1442.25 260.442C1442.05 261.427 1439.75 264.606 1439.25 264.606C1438.5 264.606 1438.38 262.763 1438.88 259.615C1439.3 257.04 1438.3 255.991 1436.05 256.691C1435.15 256.977 1434.53 257.358 1434.13 257.994C1433.75 258.566 1433.03 259.107 1432.25 259.393C1431.58 259.647 1430.65 260.315 1430.23 260.823C1429.33 261.968 1428.78 261.936 1426.43 260.76C1425.1 260.124 1424.85 260.092 1423.75 260.442C1422.75 260.76 1422.35 260.76 1421.18 260.315C1420.43 260.029 1419.63 259.552 1419.4 259.234C1419.18 258.916 1418.55 258.407 1418 258.09C1417.1 257.581 1416.95 257.581 1415.85 258.058C1415.2 258.344 1414 258.566 1413.2 258.566C1412.38 258.566 1410.95 258.725 1409.98 258.948L1408.25 259.298L1406.4 258.09C1404.73 257.009 1404.48 256.913 1403.23 257.136C1401 257.517 1399.9 258.535 1398.88 261.11C1398.15 262.953 1398 263.208 1396.8 264.829C1396.08 265.783 1395.85 265.91 1395.18 265.751C1393.48 265.338 1391.65 264.606 1391.25 264.13C1391.03 263.875 1390.6 263.653 1390.33 263.653C1390.08 263.653 1389.35 263.462 1388.73 263.208C1388.13 262.953 1386.95 262.572 1386.13 262.349C1385.08 262.063 1384.4 261.65 1383.88 261.014C1383.48 260.474 1382.78 259.87 1382.35 259.647C1381.93 259.425 1381.1 258.503 1380.53 257.644C1379.23 255.673 1377.65 254.783 1376.53 255.387C1376.13 255.578 1375.43 256.119 1374.98 256.532C1374.53 256.945 1373.85 257.295 1373.45 257.295C1372.63 257.295 1370.18 255.356 1369.6 254.275C1368.85 252.844 1366.05 251.159 1362.63 250.142C1361.68 249.856 1360.33 249.284 1359.63 248.902C1356.6 247.122 1356.38 247.027 1354.38 246.963C1350.58 246.836 1350.83 246.931 1350.13 245.533C1349.78 244.801 1349.23 244.102 1348.93 243.975C1348.6 243.816 1348.23 243.498 1348.08 243.275C1347.83 242.83 1347.18 240.446 1346.9 238.825C1346.83 238.38 1346.33 237.426 1345.83 236.727C1345.08 235.709 1344.63 235.392 1343.68 235.233C1343.03 235.105 1342.25 235.105 1341.98 235.201C1341.2 235.519 1340.28 234.756 1339.7 233.293C1339.4 232.594 1338.98 231.672 1338.73 231.259C1338.45 230.846 1338.25 230.114 1338.25 229.606C1338.25 228.875 1338.08 228.588 1337.25 228.048C1336.63 227.635 1336.2 227.126 1336.1 226.586C1336 226.109 1335.53 225.441 1334.9 224.964C1334.35 224.519 1333.68 223.884 1333.43 223.566C1332.78 222.676 1331.18 222.23 1330.05 222.644C1328.3 223.216 1326.98 222.676 1325.45 220.673C1322.98 217.43 1319.43 216.477 1316.88 218.384C1315.53 219.369 1314.15 219.528 1310.65 218.988C1309.38 218.797 1308.15 218.893 1305.9 219.338C1303.05 219.878 1302.83 219.973 1302.13 220.959C1301.73 221.563 1300.8 222.421 1300.08 222.866C1298.9 223.629 1298.68 223.693 1297.93 223.343C1297.48 223.121 1296.83 222.962 1296.48 222.962C1295.65 222.93 1294.98 222.199 1294.38 220.705C1293.88 219.433 1292.98 218.606 1291.38 217.971C1290.63 217.685 1290.63 217.685 1290.6 215.332C1290.6 214.029 1290.45 212.63 1290.3 212.248C1289.65 210.723 1288.33 210.5 1286.1 211.549C1284.95 212.121 1284.6 212.153 1284.13 211.835C1283.65 211.517 1283.45 211.549 1282.9 211.994C1282.55 212.312 1282.25 212.662 1282.25 212.789C1282.25 212.916 1281.73 213.202 1281.08 213.425C1280.4 213.615 1279.33 214.06 1278.63 214.347C1277.95 214.664 1277.03 214.855 1276.6 214.792C1276.03 214.664 1275.68 214.823 1275.33 215.332C1274.93 215.872 1274.35 216.063 1272.48 216.318C1268.9 216.763 1267.5 217.43 1267.5 218.638C1267.5 219.242 1265.65 220.196 1265 219.942C1264.08 219.56 1262.85 220.069 1261.9 221.245C1261.15 222.199 1260.85 222.358 1260.05 222.262C1259.23 222.167 1259.08 222.008 1258.55 220.673C1258.25 219.814 1257.9 219.147 1257.78 219.147C1257.65 219.147 1257.08 218.67 1256.53 218.066C1254.8 216.254 1252.63 215.809 1251.53 217.049C1250.7 217.971 1248.83 219.083 1247.5 219.433C1246.3 219.719 1245.88 219.687 1244.25 219.115C1243.23 218.734 1241.95 218.384 1241.43 218.289C1240.63 218.161 1240.4 217.939 1240.05 217.017C1239.75 216.19 1239.28 215.714 1238.1 215.014C1237.25 214.474 1236.45 214.06 1236.33 214.06C1235.93 214.06 1233.63 212.376 1232.95 211.581C1232.58 211.168 1231.45 210.373 1230.45 209.864C1229.45 209.356 1228.45 208.752 1228.25 208.497C1227.78 207.989 1225 207.067 1223.88 207.067C1222.15 207.067 1221.48 207.416 1220.85 208.688C1219.98 210.5 1218.65 210.881 1216.58 209.96C1214.53 209.069 1211.48 209.038 1210.35 209.896C1209.8 210.309 1209.53 210.85 1209.4 211.581C1209.25 212.566 1208.63 213.615 1207.85 214.156C1207.7 214.283 1206.93 214.092 1206.15 213.743C1205.38 213.393 1204.15 212.948 1203.43 212.757C1202.73 212.566 1202 212.248 1201.83 212.089C1201.48 211.708 1197.85 211.613 1197.08 211.962C1196.75 212.089 1196.5 212.376 1196.5 212.598C1196.5 212.948 1194.4 213.902 1193.93 213.806C1193.83 213.774 1193.33 214.029 1192.83 214.378C1191.68 215.141 1191.23 215.173 1190.2 214.506C1188.95 213.679 1186.8 214.06 1185.4 215.332C1183.28 217.271 1181.23 217.112 1180.35 214.919C1179.63 213.202 1177.73 210.595 1177 210.405C1176.2 210.182 1173.73 211.009 1172.6 211.867C1171.25 212.916 1169.4 213.17 1167.58 212.598C1166.63 212.312 1165.58 212.185 1165.05 212.28C1162.33 212.884 1161.13 212.852 1160.53 212.248C1160.03 211.74 1159.95 211.327 1159.93 209.61C1159.9 208.275 1160.05 206.94 1160.38 205.859C1161 203.633 1160.75 203.284 1158.23 203.061C1157.23 202.966 1156.3 202.807 1156.2 202.743C1156.13 202.68 1155.88 202.807 1155.7 203.061C1155.5 203.284 1155 203.729 1154.55 204.015C1154.1 204.301 1153.6 204.81 1153.43 205.159C1153.28 205.509 1153.03 205.795 1152.9 205.795C1152.75 205.795 1152.23 206.336 1151.7 206.971L1150.75 208.148L1149.43 207.607C1148.73 207.321 1147.8 207.035 1147.38 207.003C1146.98 206.94 1146.65 206.781 1146.7 206.653C1146.75 206.494 1146.53 206.145 1146.2 205.827C1145.6 205.223 1144.45 204.873 1142.5 204.682C1141.25 204.587 1138.78 204.015 1137.63 203.602C1136.88 203.347 1135.88 203.761 1135 204.682C1134.65 205.064 1132.8 205.636 1130.68 206.018C1129.93 206.145 1129.53 206.526 1128.7 207.734C1128.13 208.593 1127.53 209.292 1127.35 209.292C1127.18 209.292 1126.65 208.879 1126.2 208.37C1124.78 206.812 1123.85 206.367 1121.78 206.336L1119.88 206.272L1119.73 204.682C1119.65 203.824 1119.68 202.68 1119.78 202.171C1119.9 201.662 1119.93 201.122 1119.85 200.995C1119.65 200.55 1118.43 200.645 1117.25 201.186C1116.68 201.44 1115.93 201.662 1115.6 201.662C1115.25 201.662 1114.75 202.076 1114.33 202.775C1113.48 204.078 1110.4 206.113 1109.25 206.113C1108.83 206.113 1108.23 205.954 1107.93 205.732C1107.63 205.541 1107.05 205.255 1106.63 205.127C1104.98 204.587 1103.33 203.697 1102.28 202.775C1101.25 201.885 1100.95 201.821 1098.38 201.662L1095.6 201.503L1093.6 199.501C1092.53 198.388 1091.48 197.116 1091.3 196.703C1091.05 196.099 1090.78 195.94 1090.05 195.94C1089.55 195.94 1088.18 195.718 1087 195.463C1083.1 194.573 1081.5 194.859 1079.53 196.767C1078.8 197.466 1078.15 197.848 1077.63 197.848C1076.38 197.848 1074.28 198.77 1074 199.437C1073.85 199.787 1073.53 200.2 1073.25 200.391C1072.43 200.963 1071.65 200.2 1070.88 198.07C1069.95 195.495 1069.58 194.987 1068.7 194.987C1068.18 194.987 1067.68 195.368 1066.9 196.385C1065.63 198.07 1064.98 198.356 1063.63 197.752C1062.9 197.434 1062.5 196.989 1062.13 196.099C1061.85 195.432 1061.35 194.764 1061 194.605C1060.68 194.446 1060.03 193.874 1059.6 193.302C1059.18 192.729 1058.45 191.998 1058 191.649C1057.5 191.267 1057.05 190.599 1056.9 189.995C1056.75 189.423 1056.25 188.501 1055.83 187.929C1052.88 184.114 1051.98 182.843 1051.58 182.016C1050.93 180.681 1049.78 179.537 1048.28 178.805C1046.65 177.979 1046.25 177.979 1044.8 178.805C1043.1 179.791 1040.5 179.823 1039.7 178.869C1038.85 177.852 1037.13 177.566 1036.48 178.329C1036.03 178.837 1035.53 178.933 1032.85 178.964C1028.95 178.964 1028.75 179.155 1028.75 182.302C1028.75 183.479 1028.65 184.814 1028.5 185.259C1028.18 186.34 1026.28 187.484 1025.2 187.262C1024.75 187.166 1023.55 186.944 1022.55 186.753C1021.58 186.562 1019.9 186.054 1018.85 185.577C1017.55 185.004 1016.7 184.814 1016.15 184.941C1013.73 185.577 1013.85 185.608 1012.58 183.955C1011.08 182.016 1009.4 180.649 1007.15 179.6C1004.93 178.519 1000.53 178.233 998 178.996C995.9 179.6 994.025 179.409 993.125 178.519C992.525 177.915 992.1 177.82 990.3 177.82C989.15 177.82 987.075 177.597 985.725 177.311C983.025 176.771 983 176.771 981.075 178.646C980.05 179.664 979.825 179.727 978.125 179.727C976.5 179.727 976.225 179.632 975.9 179.028C975.675 178.646 975.5 177.915 975.5 177.438C975.5 176.739 975.375 176.517 974.825 176.389C972.75 175.881 971.55 175.467 970.95 175.086C969.875 174.387 968.475 174.546 967.5 175.436C966.425 176.453 966.275 176.421 965.125 175.277C963.8 173.942 962.275 173.942 961.45 175.245C960.575 176.676 958.325 178.456 957.4 178.456C956.975 178.456 955.55 178.805 954.25 179.219C952.075 179.886 951.8 179.918 951 179.505C949.525 178.678 949.25 178.678 948.225 179.282C947.55 179.632 947.05 180.236 946.75 180.967C946.15 182.461 945.65 183.033 944 184.019C943.25 184.432 942.325 185.1 941.975 185.481C941.05 186.403 939.525 186.594 938.15 185.926C937.15 185.45 936.825 185.418 935.375 185.767C934.475 185.99 933.525 186.085 933.25 185.99C932.975 185.895 931.55 185.958 930.075 186.117C927.7 186.371 927.325 186.499 926.725 187.23C925.95 188.183 925.6 188.056 925.375 186.721C924.975 184.369 922.525 184.21 920.3 186.34C919.4 187.198 917.8 187.421 915.95 186.912C915.15 186.689 914.875 186.785 913.85 187.643C913.2 188.183 912.45 188.629 912.175 188.629C911.925 188.629 911.225 189.264 910.6 190.059C910 190.854 909.4 191.49 909.225 191.49C908.95 191.49 908.125 192.253 906.175 194.383C905.6 195.018 904.625 195.94 904 196.417C903.375 196.894 902.775 197.498 902.675 197.72C902.575 197.975 902.3 198.166 902.1 198.166C901.5 198.166 900.2 199.119 899.175 200.264C898.675 200.868 898.05 201.344 897.8 201.344C897.55 201.344 896.9 201.758 896.35 202.235C895.325 203.188 893.75 203.888 892.675 203.888C892.225 203.888 891.425 204.523 890.2 205.89C886.35 210.087 885.525 210.564 882.025 210.564C878.65 210.595 876.3 211.072 875.2 211.994C874.675 212.439 873.975 212.789 873.625 212.789C873.075 212.789 871.875 213.425 869.95 214.728C869.225 215.205 868.8 215.046 868.275 214.092C867.6 212.916 867.2 212.821 865.375 213.298C863.2 213.902 863.175 213.87 861.45 212.248C859.775 210.627 858.2 209.864 855.375 209.292C853.875 209.006 853.575 208.815 853.225 208.084C852.875 207.289 852.625 207.162 850.6 206.844C849.375 206.653 847.45 206.081 846.3 205.604L844.225 204.714L842.025 205.445C840.825 205.827 839.225 206.145 838.475 206.113C836.475 206.049 836.25 206.081 836.3 206.494C836.35 206.717 835.875 206.971 835.125 207.098C834.45 207.257 833.1 207.671 832.15 208.052C830.6 208.688 830.325 208.72 829.275 208.338C827.45 207.671 826.55 207.607 825.7 208.052C824.575 208.656 823.05 208.434 822.25 207.575C821.825 207.13 820.775 206.653 819.525 206.304C818.025 205.89 817.375 205.541 817.025 204.969C816.775 204.555 816.275 204.078 815.925 203.919C815.55 203.729 814.975 203.029 814.65 202.33C813.5 200.041 812.35 199.819 810.75 201.503C809.575 202.775 808.725 202.902 808 201.98C807.375 201.186 807.375 200.168 808 198.96C808.575 197.848 808.625 196.926 808.15 196.099C807.725 195.368 806 195.082 799.25 194.7C794.55 194.446 794.1 194.351 793 193.365C791.55 192.03 787.9 191.045 785.725 191.362C784.6 191.521 784.225 191.49 784.35 191.235C784.45 191.013 784.4 190.917 784.175 191.045C784 191.108 783.55 191.045 783.175 190.886C782.725 190.663 782.5 190.663 782.45 190.917C782.3 191.49 781.525 190.949 781.075 189.932C780.5 188.692 778.6 187.262 777.775 187.452C777.425 187.548 776.45 187.961 775.6 188.342C774.25 188.978 774 189.01 773.275 188.629C772.8 188.374 772.3 187.77 772 187.071C771.225 185.1 769.2 183.224 767.875 183.224C767.375 183.224 766.65 183.002 766.225 182.747C765.825 182.461 764.775 182.175 763.925 182.08C762.475 181.921 762.25 181.984 760.375 183.192C758.15 184.655 757.35 184.75 755.775 183.86C754.3 183.002 753.375 183.065 751 184.146C747.85 185.608 746.625 185.608 745.45 184.051C744.675 183.002 744.525 182.938 742.35 182.716L740.05 182.525L739.775 183.606C739.6 184.305 738.925 185.259 737.85 186.403C736.925 187.357 735.875 188.565 735.475 189.074C734.95 189.773 734.65 189.932 734.2 189.773C733.875 189.646 732.8 189.36 731.8 189.105C730.775 188.851 729.75 188.438 729.475 188.12C728.95 187.516 726.475 187.357 725.95 187.897C725.775 188.088 724.9 188.311 724 188.406C723.1 188.501 721.875 188.819 721.25 189.105C720.275 189.55 719.825 189.55 717.85 189.233C716.125 188.946 715.3 188.946 714.425 189.201C712.85 189.709 710.975 189.678 709.925 189.105C708.675 188.438 707.425 188.501 705.975 189.296C704.9 189.9 704.625 189.932 703.6 189.614C702.125 189.137 700.275 187.929 699.65 187.071C699.025 186.181 697.625 185.64 696.1 185.704C695.025 185.736 694.55 185.545 693.175 184.496C691.425 183.161 690.25 182.906 688.55 183.542C687.25 183.987 685.5 183.447 684.8 182.366C684.475 181.889 683.65 180.681 682.975 179.727C680.4 176.103 680.25 175.817 680.25 174.736C680.25 174.164 680.2 173.687 680.15 173.687C680.125 173.687 679.725 173.846 679.3 174.037C678.175 174.514 676.725 173.433 676.1 171.653C675.675 170.476 675.475 170.286 674 169.65C673.1 169.268 672.075 168.951 671.725 168.951C671.375 168.919 670.875 168.633 670.65 168.315C670.1 167.52 668.2 166.693 667.025 166.693C666.525 166.693 665.4 166.407 664.55 166.058C662.525 165.263 661.6 165.263 660.15 166.058C659.525 166.439 658.425 166.821 657.7 166.916C656.975 167.043 656.025 167.425 655.55 167.87C655.075 168.251 654.425 168.601 654.125 168.601C653.825 168.601 653.275 168.887 652.925 169.237C651.925 170.254 650.9 170.063 650.125 168.76C649.275 167.393 648.775 167.17 647.625 167.806C646.05 168.633 643.875 168.442 642.125 167.329C640.85 166.503 640.35 166.376 638.75 166.407C636.85 166.407 635.9 166.821 634.125 168.442C633.575 168.919 632.975 169.078 631.275 169.11C630.1 169.11 628.45 169.3 627.625 169.491C626.8 169.682 625.35 170 624.425 170.222C623.2 170.476 622.325 170.922 621.225 171.812C619.4 173.338 618.7 173.369 617.675 172.034C616.475 170.54 615.475 169.872 614.375 169.872C612.75 169.904 611.25 170.381 610.525 171.112C609.525 172.13 607.8 173.051 605.8 173.687C604.575 174.101 603.7 174.577 603.125 175.245C601.8 176.707 600.625 176.866 597.925 175.881C596.775 175.467 596.7 175.499 595.125 176.485C594.225 177.057 593.3 177.502 593.075 177.502C592.85 177.502 592.225 177.025 591.65 176.453C590.2 174.991 589.45 174.641 587.6 174.641C586.025 174.641 585.95 174.609 584.8 173.242C584 172.32 583.3 171.78 582.625 171.653C582.075 171.526 581.1 171.176 580.45 170.89C579.5 170.476 579.225 170.445 578.9 170.794C578.675 171.017 578.5 171.494 578.5 171.812C578.5 172.416 576.425 174.005 575.65 174.005C575.45 174.005 574.85 174.482 574.3 175.054C573.75 175.595 572.975 176.326 572.6 176.612C572.2 176.93 571.7 177.311 571.5 177.47C570.875 177.979 568.975 178.964 567.4 179.6C565.475 180.363 565.125 180.776 564.525 183.065C564.1 184.718 563.925 185.004 563.25 185.259C562.55 185.513 559.175 185.227 556.25 184.623C555.5 184.464 555.125 184.655 554 185.608C553.25 186.244 552.175 187.421 551.625 188.183C551.05 188.946 550.425 189.582 550.2 189.582C549.975 189.582 548.9 190.727 547.8 192.125C545.8 194.7 545.25 195.05 544.225 194.351C543.225 193.651 541.575 193.906 540.325 194.923C539.675 195.432 538.95 195.94 538.75 196.004C538.275 196.195 536.225 195.209 535.075 194.224C534.225 193.492 534.1 193.461 530.425 193.588C528.35 193.683 526.6 193.81 526.525 193.874C526.475 193.969 526 194.033 525.5 194.033C524.975 194.033 524.15 194.255 523.65 194.51C522.325 195.241 519.825 195.591 518.775 195.209C518.275 195.05 515.75 194.859 513.125 194.796C510.525 194.732 507.975 194.669 507.5 194.669C507.025 194.669 505.075 194.7 503.2 194.796C501.3 194.859 499.45 194.828 499.075 194.7C498.7 194.573 498.15 194.001 497.875 193.461C497.6 192.888 497.125 192.38 496.8 192.284C496.5 192.189 495.975 192.062 495.625 191.966C495.3 191.871 494.875 191.458 494.7 191.045C494.375 190.282 493.45 189.264 490.575 186.499C489.15 185.132 489 184.877 489 183.828C489 183.065 488.825 182.493 488.475 182.08C487.975 181.508 487.925 181.508 487.2 182.048C486 182.938 484.5 182.747 482.6 181.476C481.7 180.872 480.6 180.363 480.15 180.363C479.45 180.363 477.875 179.505 475.675 177.915C475 177.407 474 177.407 473.1 177.852C472.025 178.36 469.775 180.745 469.6 181.571C469.275 183.097 467.625 183.32 465.7 182.112C464.15 181.126 463.975 181.126 462.4 182.112C461.25 182.811 460.95 182.875 459.875 182.62C459.2 182.461 458.55 182.398 458.425 182.493C458.325 182.588 457.95 182.557 457.625 182.461C457.225 182.334 457 181.953 456.825 181.126C456.725 180.459 456.45 179.823 456.25 179.696C452.55 177.216 451.95 177.121 450.5 178.646C449.85 179.378 449.55 179.473 448.55 179.346C447.4 179.187 446.875 178.933 444.375 177.311C442.875 176.326 441.9 176.23 440.625 176.993C439.975 177.375 439.4 177.502 438.75 177.375C438.25 177.28 436.925 177.311 435.85 177.502C434.775 177.661 432.675 177.884 431.225 178.011C428.625 178.201 428.55 178.201 427.975 177.438C427.1 176.294 425.15 174.959 424.375 174.959C424 174.959 423.425 174.673 423.075 174.323C422.725 173.973 422.275 173.687 422.1 173.687C421.9 173.687 421.075 173.21 420.225 172.67C418.1 171.239 416.425 171.239 414.475 172.67C413.7 173.242 412.925 173.687 412.725 173.687C412.2 173.687 409.075 175.722 408.425 176.485C408.125 176.834 407.525 177.343 407.075 177.629C406.625 177.915 406.15 178.424 406 178.774C405.85 179.123 405.575 179.409 405.4 179.409C404.825 179.409 402.375 180.904 402 181.476C401.8 181.794 401.15 182.302 400.55 182.62C399.95 182.97 399.275 183.51 399.05 183.828C398.45 184.687 396.175 185.513 393.95 185.704C392.2 185.831 391.9 185.767 390.375 184.846C389.45 184.305 388.475 183.86 388.225 183.86C387.95 183.86 386.775 183.256 385.625 182.557L383.5 181.221L382 181.635C381.175 181.857 380.575 182.143 380.625 182.302C380.8 182.652 379.375 183.002 378.55 182.779C378.175 182.652 376.975 182.716 375.9 182.906C374.3 183.161 373.55 183.129 371.875 182.684C369.875 182.143 369.8 182.175 368.2 182.843C366.2 183.701 365.7 183.701 363.85 182.875C362.7 182.366 361.55 182.175 358.625 182.048C356.575 181.953 354.7 181.762 354.45 181.603C354.225 181.444 353.075 181.317 351.875 181.285C350.625 181.253 349.325 181.063 348.85 180.808C347.775 180.236 346.4 180.236 344.85 180.84C344.175 181.094 343.15 181.317 342.575 181.317C342 181.317 341.15 181.508 340.7 181.762C339.525 182.429 336.5 183.765 335.675 183.987C335.275 184.114 334.7 184.559 334.4 184.973C333.975 185.545 333.55 185.767 332.85 185.767C332.3 185.799 331.625 185.958 331.3 186.181C330.775 186.562 328.75 189.995 328.75 190.536C328.75 190.663 328.3 191.013 327.75 191.331C326.575 191.998 325.55 191.871 323.575 190.727C322.825 190.282 321.85 189.9 321.4 189.9C320.975 189.9 320.125 189.582 319.5 189.233C317.75 188.215 316.375 188.152 314.35 188.915C312.025 189.773 311.6 189.773 309.85 188.629C307.925 187.421 306.675 187.198 305.275 187.802C304.475 188.183 303.275 188.311 300.65 188.279C297.8 188.279 296.775 188.374 295.225 188.915C293.75 189.455 293.15 189.519 292.65 189.264C291.375 188.66 290.6 188.883 289.4 190.186C288.4 191.299 288.1 191.426 286.45 191.649C284.3 191.903 282.325 192.602 281.625 193.397C281.35 193.715 280.225 194.224 279.125 194.51C277.225 195.05 276.775 195.336 274.375 197.275C273.825 197.72 273.125 198.197 272.825 198.293C272.55 198.42 272.1 198.897 271.85 199.374C270.975 201.09 269.2 203.538 268.675 203.761C268.375 203.888 267.65 204.523 267.075 205.191C266.475 205.89 265.875 206.431 265.7 206.431C265.15 206.431 263.475 208.116 263.1 209.038C262.9 209.515 262.275 210.309 261.725 210.723C261.175 211.168 260.625 211.899 260.5 212.344C260.175 213.425 257.2 215.141 256.1 214.887C255.675 214.76 255 214.823 254.6 214.982C254.2 215.141 253.2 215.459 252.375 215.682C251.125 216.031 250.7 216.349 249.725 217.589C248.275 219.497 247.575 219.751 245.625 219.02C243.875 218.352 243.475 218.32 240.125 218.765C238.425 218.956 237.125 219.338 236.075 219.91C235.225 220.355 234.3 220.736 234.025 220.736C233.725 220.736 233.325 221.086 233.125 221.499C232.9 221.944 232.1 222.548 231.225 222.993C230.2 223.47 229.625 223.947 229.45 224.424C229.3 224.837 228.675 225.473 228.075 225.855C227.45 226.236 226.9 226.776 226.825 227.063C226.55 228.048 225.9 228.684 225.175 228.684C224.425 228.684 222.75 229.765 222.75 230.273C222.75 230.4 222.175 231.068 221.475 231.736C220.775 232.435 220.05 233.421 219.825 233.993C219.625 234.565 219.05 235.392 218.55 235.868C218.025 236.345 217.45 237.013 217.25 237.331C217.025 237.649 216.2 238.157 215.4 238.412C214.6 238.666 213.7 239.079 213.4 239.333C213.125 239.556 212.25 239.842 211.5 239.969C210.05 240.192 207.925 241.75 204.3 245.278C203.425 246.105 202.425 246.868 202.05 246.995C201.675 247.09 200.65 247.472 199.75 247.853C198.825 248.235 197.425 248.521 196.45 248.553C195.55 248.584 194.65 248.743 194.45 248.902C194.275 249.093 193.65 249.411 193.05 249.633C192.275 249.92 191.825 250.333 191.4 251.191C190.6 252.781 189.8 253.639 188.675 254.116C188.175 254.307 187.75 254.593 187.75 254.72C187.75 254.847 187.375 255.197 186.95 255.515C186.5 255.864 185.875 256.5 185.6 256.945C185.125 257.644 185 257.708 184.425 257.39C183.95 257.104 182.15 257.072 177.925 257.199C174.025 257.327 171.15 257.263 169.325 257.009C166.275 256.564 165.3 256.818 164 258.407C163.65 258.821 162.75 259.457 162 259.838L160.625 260.537L159.05 259.838C157.025 258.916 156.25 259.139 154.7 260.982L153.45 262.445L151.3 262.254C150.1 262.127 148.525 261.968 147.775 261.873C146.95 261.745 145.425 261.904 143.85 262.222C141.375 262.763 141.175 262.763 139.2 262.222C138.025 261.904 137.025 261.459 136.9 261.205C136.775 260.919 136.625 260.855 136.525 261.014C136.35 261.364 131.75 262.635 129.325 263.017C128.15 263.208 127.325 263.589 126.175 264.479C124.35 265.878 122.625 266.228 121.2 265.465C120.7 265.179 119.225 264.861 117.95 264.765C116.55 264.606 115.275 264.289 114.75 263.971C113.2 262.985 111.825 263.049 110.8 264.13C109.6 265.433 107.65 265.115 106.75 263.526C106.55 263.144 105.9 262.19 105.275 261.364C103.85 259.393 103.225 259.361 101.5 261.237C99.225 263.685 96.725 263.875 92.625 261.841C89.575 260.315 86.7 260.061 84.85 261.11C84.1 261.523 82.9 261.873 81.75 261.968C80.025 262.127 79.8 262.063 79 261.3C78.525 260.855 77.85 260.251 77.525 259.933C76.125 258.662 73.6 259.774 70.375 263.112C69.975 263.526 69.35 264.002 69 264.13C68.65 264.257 68.125 264.638 67.825 264.988C67.425 265.465 66.725 265.719 65.325 265.91C64 266.069 62.9 266.45 61.875 267.086C59.975 268.262 57.8 268.739 54.35 268.739C51.6 268.739 47.425 268.294 46.675 267.913C46.45 267.817 46.2 267.468 46.125 267.15C46 266.609 43.625 265.179 42.15 264.765C41.775 264.67 41.275 264.352 41.075 264.13C40.875 263.875 40.425 263.653 40.1 263.653C39.425 263.653 37.65 262.604 36.925 261.809C36.675 261.523 36.25 260.601 35.95 259.774C35.625 258.821 35.025 257.835 34.275 257.104C33.65 256.468 32.85 255.546 32.5 255.069C32.1 254.529 31.2 253.925 30.05 253.48C29.05 253.067 27.825 252.336 27.325 251.859C26.825 251.35 26.2 250.937 25.9 250.937C25.175 250.937 22.75 249.57 22.75 249.157C22.75 248.235 21.5 248.012 16.875 248.171C15.575 248.203 15.2 248.076 14.15 247.217C13.475 246.645 12.725 245.755 12.475 245.246C12.225 244.706 11.65 244.07 11.2 243.816C10.75 243.562 10.1 243.148 9.75 242.894C8.15 241.75 7.55 241.368 6.75 240.891C6.275 240.605 5.65 240.128 5.375 239.779C4.9 239.238 2.65 238.221 0.825 237.744L0 237.521V119.136V0.75H960H1920V105.943V211.136L1918.88 211.485C1918.28 211.676 1917.35 212.185 1916.85 212.63C1915.48 213.806 1914.9 213.902 1913.15 213.139C1912.3 212.789 1911.3 212.471 1910.95 212.471C1909.6 212.471 1907.73 211.072 1905.73 208.497C1903.95 206.208 1903.95 206.208 1904.25 205.477C1904.65 204.523 1904.18 203.888 1903 203.888C1902.48 203.888 1900.95 204.174 1899.58 204.523C1898.23 204.873 1896.38 205.159 1895.45 205.159C1894.08 205.159 1893.68 205.286 1893.08 205.89C1892.18 206.876 1890.95 207.385 1889.58 207.385C1888.38 207.385 1887.23 207.989 1886.25 209.165C1885.9 209.578 1885.1 210.023 1884.38 210.182C1883.48 210.373 1883.15 210.564 1883.23 210.913C1883.28 211.168 1883.38 211.613 1883.43 211.931C1883.53 212.312 1883.43 212.471 1883.05 212.471C1882.4 212.471 1882.13 211.931 1882.5 211.358C1882.73 211.009 1882.65 210.818 1882.15 210.405C1881.15 209.546 1876.53 209.61 1874.9 210.468L1873.68 211.104L1872.03 210.373C1870 209.451 1869.1 209.419 1868.13 210.246C1866.75 211.39 1866.03 210.881 1865.4 208.275C1865.18 207.321 1864 207.607 1862.43 208.974C1861.6 209.673 1860.6 210.309 1860.15 210.436C1859.05 210.691 1857.63 209.896 1857.15 208.752C1856.55 207.257 1854.18 205.191 1852.45 204.682C1850.83 204.206 1850.03 204.301 1848.33 205.064C1847.35 205.509 1847.18 205.509 1846.38 205.032C1845.3 204.365 1845 204.555 1843.43 206.812C1841.08 210.182 1840.1 211.199 1839.18 211.199C1838.85 211.199 1838.3 211.485 1837.95 211.803C1837 212.757 1835.7 213.075 1830.5 213.488C1823.25 214.06 1822.15 214.029 1820.45 213.011L1819.03 212.185L1817.7 213.139C1816.98 213.647 1816.15 214.06 1815.88 214.06C1815.6 214.06 1815 214.347 1814.55 214.696C1813.83 215.268 1813.48 215.3 1810.78 215.11C1808.68 214.982 1807.78 215.014 1807.65 215.3C1807.35 215.904 1806.8 215.714 1805.85 214.633L1804.93 213.584H1801.9C1798.4 213.584 1797.93 213.711 1796.63 215.014C1795.58 216.063 1794.4 216.254 1793.6 215.491C1792.43 214.378 1790.3 215.555 1789.75 217.685C1789.53 218.575 1789.33 218.797 1788.58 218.988C1787.5 219.242 1786.75 219.814 1785.33 221.436C1784.73 222.103 1784.08 222.644 1783.88 222.644C1783.4 222.644 1780.95 224.329 1779.88 225.378C1779.1 226.141 1778.83 226.49 1777.88 227.826C1777.43 228.461 1776.98 228.684 1775.65 228.843C1773.53 229.129 1772.6 228.938 1770.8 227.826C1769.53 227.031 1769.15 226.967 1767.08 227.031C1763.45 227.126 1763.18 227.126 1762.4 227.094C1761.98 227.063 1761.38 226.872 1761.03 226.617C1760 225.918 1758.23 225.537 1757.08 225.727C1756.5 225.823 1755.5 225.727 1754.88 225.537C1754 225.251 1753.35 225.251 1752.25 225.537C1750.48 225.982 1748.35 225.505 1747.83 224.551C1747.45 223.884 1746 223.629 1746 224.233C1746 224.424 1745.28 224.996 1744.38 225.537C1743.45 226.077 1742.33 226.84 1741.8 227.285C1740.55 228.366 1739.75 228.207 1739.18 226.713C1738.5 224.996 1737.75 224.774 1733.65 225.155C1729.68 225.537 1728.35 226.204 1727.13 228.366C1725.83 230.687 1724.7 232.213 1723.78 232.848C1723.28 233.198 1722.43 233.897 1721.88 234.406C1720.58 235.614 1719.63 235.837 1718.28 235.233C1717.68 234.946 1716.9 234.724 1716.53 234.724C1716.18 234.724 1715.1 234.47 1714.15 234.184C1712.68 233.738 1712.13 233.707 1710.45 234.025C1709.25 234.247 1708.23 234.629 1707.85 235.01C1707.45 235.392 1706.65 235.678 1705.43 235.837C1704.45 235.964 1703.4 236.218 1703.13 236.441C1702.13 237.235 1698.45 238.284 1697.38 238.094C1696.48 237.903 1692.3 238.602 1691.78 238.984C1691.68 239.079 1690.48 239.206 1689.08 239.333C1687.25 239.461 1686.18 239.715 1685.08 240.287C1683.85 240.891 1683.23 241.05 1681.85 240.955C1680.9 240.891 1679.23 241.018 1678.13 241.241C1677.03 241.463 1675.28 241.75 1674.25 241.877C1672.53 242.067 1672.23 242.004 1671.08 241.273C1670.4 240.828 1669.65 240.224 1669.48 239.906C1669.28 239.62 1668.68 238.984 1668.15 238.475C1667.35 237.744 1666.93 237.585 1665.75 237.585C1663.5 237.585 1662.8 237.871 1661.43 239.461C1660.7 240.287 1659.83 241.177 1659.48 241.463C1659.13 241.75 1658.68 242.417 1658.5 242.958C1658.3 243.593 1657.8 244.166 1657.13 244.611C1656.53 244.992 1655.93 245.628 1655.78 246.073C1655.63 246.486 1655.1 247.058 1654.65 247.281C1654.18 247.535 1653.63 248.139 1653.45 248.616C1653.28 249.093 1652.73 249.824 1652.25 250.237C1651.78 250.651 1651.23 251.35 1651.03 251.827C1650.85 252.304 1650.33 253.13 1649.85 253.703C1649.38 254.275 1649 254.942 1649 255.26C1649 255.546 1648.65 256.309 1648.25 256.945C1647.83 257.581 1647.35 258.28 1647.18 258.535C1647.03 258.789 1646.88 259.202 1646.85 259.425C1646.75 260.251 1645.98 261.427 1645.55 261.427C1644.85 261.427 1644.03 262.318 1643.48 263.685C1643.15 264.511 1642.68 265.115 1642.15 265.401C1641.7 265.656 1641.05 266.323 1640.7 266.895C1638.95 269.82 1637.65 270.456 1636.58 268.993Z" fill="#FFFDDF"/>
</svg>
