<svg preserveAspectRatio="none" width="100%" height="100%" overflow="visible" style="display: block;" viewBox="0 0 961.5 136.5" fill="none" xmlns="http://www.w3.org/2000/svg">
<g id="Vector" filter="url(#filter0_d_0_23)">
<path d="M818.288 135.37C817.95 134.892 817.75 134.381 817.75 133.982C817.75 133.807 817.613 133.536 817.463 133.376C817.3 133.217 817.088 132.897 817 132.69C816.913 132.467 816.713 132.116 816.563 131.892C816.363 131.605 816.263 131.206 816.213 130.536C816.163 130.01 816.05 129.276 815.95 128.893C815.838 128.526 815.675 127.665 815.563 126.978C815.45 126.308 815.263 125.606 815.138 125.431C814.763 124.889 814.388 123.947 814.313 123.325C814.175 122.272 814.138 122.208 813.275 121.315C812.213 120.23 811.975 120.07 811.363 120.054C810.825 120.054 810.15 120.581 809.788 121.331C809.663 121.57 809.538 121.793 809.5 121.841C809.313 122.065 809.025 122.783 808.95 123.229C808.838 123.852 808.288 124.49 807.725 124.633C807.5 124.697 807.288 124.793 807.25 124.857C807.113 125.064 806.413 125.622 806.025 125.83C805.7 125.989 805.163 126.005 803.588 125.91C802.475 125.846 801.175 125.782 800.688 125.766C799.8 125.734 799.213 125.463 798.725 124.873C798.225 124.282 796.788 124.41 796 125.112C795.4 125.638 795.125 125.622 794.5 124.952C794.213 124.649 793.825 124.346 793.638 124.298C793.05 124.155 792.325 123.883 791.588 123.564C790.988 123.293 790.713 123.261 790.025 123.357C789.563 123.421 788.975 123.469 788.713 123.453C788.45 123.437 787.963 123.596 787.588 123.82C787.125 124.091 786.625 124.218 785.85 124.282C785.263 124.33 784.463 124.49 784.075 124.633C783.388 124.889 783.363 124.889 782.675 124.49C781.688 123.899 781.088 123.947 780.25 124.633C779.875 124.936 779.45 125.192 779.313 125.192C779.175 125.192 778.813 125.287 778.5 125.415C776.625 126.197 775.988 126.372 775.225 126.388C774.575 126.388 774.25 126.484 773.725 126.819C773.363 127.042 772.838 127.314 772.563 127.409C772.038 127.585 770.238 127.808 769.813 127.76C769.675 127.744 769.063 127.728 768.438 127.712C767.213 127.696 766.525 127.968 766.413 128.558C766.338 128.877 766.288 128.909 765.013 129.164C764.575 129.26 764.125 129.435 764.013 129.547C763.9 129.659 763.388 129.962 762.875 130.201C762.363 130.441 761.85 130.712 761.75 130.792C760.863 131.493 760.55 131.478 759.65 130.696C759.238 130.345 759.063 130.297 757.988 130.297C756.65 130.297 756.038 130.074 755.675 129.419C755.375 128.909 754.375 128.654 753.225 128.781C752.025 128.941 751.413 128.765 750.925 128.143C750.563 127.68 750.425 127.617 749.538 127.505C748.825 127.425 748.338 127.266 747.688 126.867C746.625 126.229 746.1 126.053 744.825 125.91C744.063 125.83 743.65 125.686 742.975 125.255C742.488 124.968 741.95 124.713 741.763 124.713C740.55 124.697 738.55 123.134 737.35 121.251C736.638 120.134 736.375 119.879 735.738 119.64C735.5 119.544 735.063 119.352 734.75 119.209C734.188 118.938 732.85 118.762 731.425 118.778C730.625 118.794 729.913 119.145 729.213 119.879C729.013 120.086 728.725 120.246 728.575 120.246C728.413 120.246 727.825 120.549 727.25 120.932C726.313 121.538 726.175 121.698 725.9 122.4C725.725 122.83 725.45 123.373 725.288 123.596C725.125 123.82 724.925 124.298 724.85 124.681C724.763 125.128 724.588 125.479 724.35 125.718C723.975 126.069 723.525 126.612 722.888 127.505C722.688 127.776 722.413 128.319 722.275 128.733C722.138 129.148 721.838 129.723 721.638 130.01C721.425 130.297 721.2 130.776 721.125 131.079C721.025 131.573 719.875 133.169 719.625 133.169C719.25 133.169 719.188 132.243 719.438 130.664C719.65 129.372 719.15 128.845 718.025 129.196C717.575 129.34 717.263 129.531 717.063 129.85C716.875 130.137 716.513 130.409 716.125 130.552C715.788 130.68 715.325 131.015 715.113 131.27C714.663 131.844 714.388 131.829 713.213 131.238C712.55 130.919 712.425 130.903 711.875 131.079C711.375 131.238 711.175 131.238 710.588 131.015C710.213 130.871 709.813 130.632 709.7 130.472C709.588 130.313 709.275 130.058 709 129.898C708.55 129.643 708.475 129.643 707.925 129.882C707.6 130.026 707 130.137 706.6 130.137C706.188 130.137 705.475 130.217 704.988 130.329L704.125 130.504L703.2 129.898C702.363 129.356 702.238 129.308 701.613 129.419C700.5 129.611 699.95 130.121 699.438 131.414C699.075 132.339 699 132.467 698.4 133.28C698.038 133.759 697.925 133.823 697.588 133.743C696.738 133.536 695.825 133.169 695.625 132.929C695.513 132.802 695.3 132.69 695.163 132.69C695.038 132.69 694.675 132.594 694.363 132.467C694.063 132.339 693.475 132.148 693.063 132.036C692.538 131.892 692.2 131.685 691.938 131.366C691.738 131.095 691.388 130.792 691.175 130.68C690.963 130.568 690.55 130.105 690.263 129.675C689.613 128.686 688.825 128.239 688.263 128.542C688.063 128.638 687.713 128.909 687.488 129.116C687.263 129.324 686.925 129.499 686.725 129.499C686.313 129.499 685.088 128.526 684.8 127.984C684.425 127.266 683.025 126.42 681.313 125.91C680.838 125.766 680.163 125.479 679.813 125.287C678.3 124.394 678.188 124.346 677.188 124.314C675.288 124.25 675.413 124.298 675.063 123.596C674.888 123.229 674.613 122.878 674.463 122.814C674.3 122.735 674.113 122.575 674.038 122.463C673.913 122.24 673.588 121.044 673.45 120.23C673.413 120.007 673.163 119.528 672.913 119.177C672.538 118.666 672.313 118.507 671.838 118.427C671.513 118.363 671.125 118.363 670.988 118.411C670.6 118.571 670.138 118.188 669.85 117.454C669.7 117.103 669.488 116.64 669.363 116.433C669.225 116.225 669.125 115.859 669.125 115.603C669.125 115.236 669.038 115.093 668.625 114.822C668.313 114.614 668.1 114.359 668.05 114.088C668 113.848 667.763 113.513 667.45 113.274C667.175 113.051 666.838 112.732 666.713 112.572C666.388 112.125 665.588 111.902 665.025 112.109C664.15 112.396 663.488 112.125 662.725 111.12C661.488 109.493 659.713 109.014 658.438 109.971C657.763 110.466 657.075 110.546 655.325 110.275C654.688 110.179 654.075 110.227 652.95 110.45C651.525 110.721 651.413 110.769 651.063 111.264C650.863 111.567 650.4 111.998 650.038 112.221C649.45 112.604 649.338 112.636 648.963 112.46C648.738 112.349 648.413 112.269 648.238 112.269C647.825 112.253 647.488 111.886 647.188 111.136C646.938 110.498 646.488 110.083 645.688 109.764C645.313 109.62 645.313 109.62 645.3 108.44C645.3 107.786 645.225 107.084 645.15 106.892C644.825 106.127 644.163 106.015 643.05 106.541C642.475 106.829 642.3 106.844 642.063 106.685C641.825 106.525 641.725 106.541 641.45 106.765C641.275 106.924 641.125 107.1 641.125 107.164C641.125 107.227 640.863 107.371 640.538 107.483C640.2 107.578 639.663 107.802 639.313 107.945C638.975 108.105 638.513 108.201 638.3 108.169C638.013 108.105 637.838 108.185 637.663 108.44C637.463 108.711 637.175 108.807 636.238 108.934C634.45 109.158 633.75 109.493 633.75 110.099C633.75 110.402 632.825 110.881 632.5 110.753C632.038 110.562 631.425 110.817 630.95 111.407C630.575 111.886 630.425 111.966 630.025 111.918C629.613 111.87 629.538 111.79 629.275 111.12C629.125 110.689 628.95 110.354 628.888 110.354C628.825 110.354 628.538 110.115 628.263 109.812C627.4 108.903 626.313 108.679 625.763 109.301C625.35 109.764 624.413 110.322 623.75 110.498C623.15 110.642 622.938 110.626 622.125 110.338C621.613 110.147 620.975 109.971 620.713 109.924C620.313 109.86 620.2 109.748 620.025 109.285C619.875 108.871 619.638 108.631 619.05 108.28C618.625 108.009 618.225 107.802 618.163 107.802C617.963 107.802 616.813 106.956 616.475 106.557C616.288 106.35 615.725 105.951 615.225 105.696C614.725 105.441 614.225 105.137 614.125 105.01C613.888 104.754 612.5 104.292 611.938 104.292C611.075 104.292 610.738 104.467 610.425 105.105C609.988 106.015 609.325 106.206 608.288 105.744C607.263 105.297 605.738 105.281 605.175 105.712C604.9 105.919 604.763 106.19 604.7 106.557C604.625 107.052 604.313 107.578 603.925 107.85C603.85 107.913 603.463 107.818 603.075 107.642C602.688 107.467 602.075 107.243 601.713 107.148C601.363 107.052 601 106.892 600.913 106.813C600.738 106.621 598.925 106.573 598.538 106.749C598.375 106.813 598.25 106.956 598.25 107.068C598.25 107.243 597.2 107.722 596.963 107.674C596.913 107.658 596.663 107.786 596.413 107.961C595.838 108.344 595.613 108.36 595.1 108.025C594.475 107.61 593.4 107.802 592.7 108.44C591.638 109.413 590.613 109.333 590.175 108.232C589.813 107.371 588.863 106.063 588.5 105.967C588.1 105.855 586.863 106.27 586.3 106.701C585.625 107.227 584.7 107.355 583.788 107.068C583.313 106.924 582.788 106.86 582.525 106.908C581.163 107.211 580.563 107.195 580.263 106.892C580.013 106.637 579.975 106.43 579.963 105.568C579.95 104.898 580.025 104.228 580.188 103.686C580.5 102.569 580.375 102.393 579.113 102.282C578.613 102.234 578.15 102.154 578.1 102.122C578.063 102.09 577.938 102.154 577.85 102.282C577.75 102.393 577.5 102.617 577.275 102.76C577.05 102.904 576.8 103.159 576.713 103.335C576.638 103.51 576.513 103.654 576.45 103.654C576.375 103.654 576.113 103.925 575.85 104.244L575.375 104.834L574.713 104.563C574.363 104.419 573.9 104.276 573.688 104.26C573.488 104.228 573.325 104.148 573.35 104.084C573.375 104.005 573.263 103.829 573.1 103.67C572.8 103.366 572.225 103.191 571.25 103.095C570.625 103.047 569.388 102.76 568.813 102.553C568.438 102.425 567.938 102.633 567.5 103.095C567.325 103.287 566.4 103.574 565.338 103.765C564.963 103.829 564.763 104.021 564.35 104.627C564.063 105.058 563.763 105.409 563.675 105.409C563.588 105.409 563.325 105.201 563.1 104.946C562.388 104.164 561.925 103.941 560.888 103.925L559.938 103.893L559.863 103.095C559.825 102.665 559.838 102.09 559.888 101.835C559.95 101.58 559.963 101.308 559.925 101.245C559.825 101.021 559.213 101.069 558.625 101.34C558.338 101.468 557.963 101.58 557.8 101.58C557.625 101.58 557.375 101.787 557.163 102.138C556.738 102.792 555.2 103.813 554.625 103.813C554.413 103.813 554.113 103.733 553.963 103.622C553.813 103.526 553.525 103.382 553.313 103.319C552.488 103.047 551.663 102.601 551.138 102.138C550.625 101.691 550.475 101.659 549.188 101.58L547.8 101.5L546.8 100.495C546.263 99.9364 545.738 99.2982 545.65 99.0908C545.525 98.7877 545.388 98.7079 545.025 98.7079C544.775 98.7079 544.088 98.5962 543.5 98.4686C541.55 98.0219 540.75 98.1655 539.763 99.1227C539.4 99.4737 539.075 99.6652 538.813 99.6652C538.188 99.6652 537.138 100.128 537 100.463C536.925 100.638 536.763 100.846 536.625 100.941C536.213 101.229 535.825 100.846 535.438 99.7768C534.975 98.4846 534.788 98.2293 534.35 98.2293C534.088 98.2293 533.838 98.4207 533.45 98.9313C532.813 99.7768 532.488 99.9204 531.813 99.6173C531.45 99.4577 531.25 99.2344 531.063 98.7877C530.925 98.4526 530.675 98.1176 530.5 98.0378C530.338 97.9581 530.013 97.6709 529.8 97.3837C529.588 97.0965 529.225 96.7296 529 96.5541C528.75 96.3627 528.525 96.0276 528.45 95.7245C528.375 95.4373 528.125 94.9747 527.913 94.6875C526.438 92.773 525.988 92.1348 525.788 91.72C525.463 91.05 524.888 90.4756 524.138 90.1087C523.325 89.6939 523.125 89.6939 522.4 90.1087C521.55 90.6032 520.25 90.6192 519.85 90.1406C519.425 89.6301 518.563 89.4865 518.238 89.8694C518.013 90.1246 517.763 90.1725 516.425 90.1884C514.475 90.1884 514.375 90.2842 514.375 91.8636C514.375 92.4539 514.325 93.124 514.25 93.3473C514.088 93.8898 513.138 94.4641 512.6 94.3525C512.375 94.3046 511.775 94.1929 511.275 94.0972C510.788 94.0015 509.95 93.7462 509.425 93.5069C508.775 93.2197 508.35 93.124 508.075 93.1878C506.863 93.5069 506.925 93.5228 506.288 92.6932C505.538 91.72 504.7 91.034 503.575 90.5075C502.463 89.9651 500.263 89.8215 499 90.2044C497.95 90.5075 497.013 90.4118 496.563 89.9651C496.263 89.662 496.05 89.6141 495.15 89.6141C494.575 89.6141 493.538 89.5024 492.863 89.3588C491.513 89.0876 491.5 89.0876 490.538 90.0289C490.025 90.5394 489.913 90.5713 489.063 90.5713C488.25 90.5713 488.113 90.5235 487.95 90.2204C487.838 90.0289 487.75 89.662 487.75 89.4226C487.75 89.0717 487.688 88.96 487.413 88.8962C486.375 88.6409 485.775 88.4335 485.475 88.242C484.938 87.8911 484.238 87.9708 483.75 88.4175C483.213 88.9281 483.138 88.9121 482.563 88.3378C481.9 87.6677 481.138 87.6677 480.725 88.3218C480.288 89.0398 479.163 89.9332 478.7 89.9332C478.488 89.9332 477.775 90.1087 477.125 90.3161C476.038 90.6511 475.9 90.6671 475.5 90.4597C474.763 90.0449 474.625 90.0449 474.113 90.348C473.775 90.5235 473.525 90.8266 473.375 91.1935C473.075 91.9434 472.825 92.2306 472 92.7251C471.625 92.9325 471.163 93.2676 470.988 93.459C470.525 93.9217 469.763 94.0174 469.075 93.6824C468.575 93.4431 468.413 93.4271 467.688 93.6026C467.238 93.7143 466.763 93.7622 466.625 93.7143C466.488 93.6664 465.775 93.6983 465.038 93.7781C463.85 93.9057 463.663 93.9696 463.363 94.3365C462.975 94.8151 462.8 94.7513 462.688 94.0812C462.488 92.9006 461.263 92.8209 460.15 93.8898C459.7 94.3205 458.9 94.4322 457.975 94.177C457.575 94.0653 457.438 94.1131 456.925 94.5439C456.6 94.8151 456.225 95.0385 456.088 95.0385C455.963 95.0385 455.613 95.3576 455.3 95.7564C455 96.1553 454.7 96.4743 454.613 96.4743C454.475 96.4743 454.063 96.8572 453.088 97.9262C452.8 98.2452 452.313 98.7079 452 98.9472C451.688 99.1865 451.388 99.4897 451.338 99.6013C451.288 99.729 451.15 99.8247 451.05 99.8247C450.75 99.8247 450.1 100.303 449.588 100.878C449.338 101.181 449.025 101.42 448.9 101.42C448.775 101.42 448.45 101.628 448.175 101.867C447.663 102.345 446.875 102.696 446.338 102.696C446.113 102.696 445.713 103.016 445.1 103.702C443.175 105.807 442.763 106.047 441.013 106.047C439.325 106.063 438.15 106.302 437.6 106.765C437.338 106.988 436.988 107.164 436.813 107.164C436.538 107.164 435.938 107.483 434.975 108.137C434.613 108.376 434.4 108.296 434.138 107.818C433.8 107.227 433.6 107.18 432.688 107.419C431.6 107.722 431.588 107.706 430.725 106.892C429.888 106.079 429.1 105.696 427.688 105.409C426.938 105.265 426.788 105.169 426.613 104.802C426.438 104.404 426.313 104.34 425.3 104.18C424.688 104.084 423.725 103.797 423.15 103.558L422.113 103.111L421.013 103.478C420.413 103.67 419.613 103.829 419.238 103.813C418.238 103.781 418.125 103.797 418.15 104.005C418.175 104.116 417.938 104.244 417.563 104.308C417.225 104.388 416.55 104.595 416.075 104.786C415.3 105.105 415.163 105.121 414.638 104.93C413.725 104.595 413.275 104.563 412.85 104.786C412.288 105.09 411.525 104.978 411.125 104.547C410.913 104.324 410.388 104.084 409.763 103.909C409.013 103.702 408.688 103.526 408.513 103.239C408.388 103.031 408.138 102.792 407.963 102.712C407.775 102.617 407.488 102.266 407.325 101.915C406.75 100.766 406.175 100.654 405.375 101.5C404.788 102.138 404.363 102.202 404 101.739C403.688 101.34 403.688 100.83 404 100.224C404.288 99.6652 404.313 99.2025 404.075 98.7877C403.863 98.4207 403 98.2771 399.625 98.0857C397.275 97.9581 397.05 97.9102 396.5 97.4156C395.775 96.7456 393.95 96.251 392.863 96.4105C392.3 96.4903 392.113 96.4743 392.175 96.3467C392.225 96.235 392.2 96.1872 392.088 96.251C392 96.2829 391.775 96.251 391.588 96.1712C391.363 96.0595 391.25 96.0595 391.225 96.1872C391.15 96.4743 390.763 96.2031 390.538 95.6926C390.25 95.0704 389.3 94.3525 388.888 94.4482C388.713 94.496 388.225 94.7034 387.8 94.8949C387.125 95.214 387 95.2299 386.638 95.0385C386.4 94.9108 386.15 94.6077 386 94.2567C385.613 93.2676 384.6 92.3263 383.938 92.3263C383.688 92.3263 383.325 92.2146 383.113 92.087C382.913 91.9434 382.388 91.7998 381.963 91.7519C381.238 91.6722 381.125 91.7041 380.188 92.3103C379.075 93.0442 378.675 93.0921 377.888 92.6454C377.15 92.2146 376.688 92.2465 375.5 92.789C373.925 93.5228 373.313 93.5228 372.725 92.7411C372.338 92.2146 372.263 92.1827 371.175 92.071L370.025 91.9753L369.888 92.5177C369.8 92.8687 369.463 93.3473 368.925 93.9217C368.463 94.4003 367.938 95.0066 367.738 95.2618C367.475 95.6128 367.325 95.6926 367.1 95.6128C366.938 95.549 366.4 95.4054 365.9 95.2778C365.388 95.1502 364.875 94.9428 364.738 94.7832C364.475 94.4801 363.238 94.4003 362.975 94.6715C362.888 94.7673 362.45 94.8789 362 94.9268C361.55 94.9747 360.938 95.1342 360.625 95.2778C360.138 95.5011 359.913 95.5011 358.925 95.3416C358.063 95.198 357.65 95.198 357.213 95.3256C356.425 95.5809 355.488 95.565 354.963 95.2778C354.338 94.9428 353.713 94.9747 352.988 95.3735C352.45 95.6766 352.313 95.6926 351.8 95.5331C351.063 95.2937 350.138 94.6875 349.825 94.2567C349.513 93.81 348.813 93.5388 348.05 93.5707C347.513 93.5867 347.275 93.4909 346.588 92.9644C345.713 92.2944 345.125 92.1667 344.275 92.4858C343.625 92.7092 342.75 92.438 342.4 91.8955C342.238 91.6562 341.825 91.05 341.488 90.5713C340.2 88.7526 340.125 88.609 340.125 88.0666C340.125 87.7794 340.1 87.5401 340.075 87.5401C340.063 87.5401 339.863 87.6198 339.65 87.7156C339.088 87.9549 338.363 87.4124 338.05 86.519C337.838 85.9287 337.738 85.833 337 85.5139C336.55 85.3225 336.038 85.1629 335.863 85.1629C335.688 85.147 335.438 85.0034 335.325 84.8438C335.05 84.445 334.1 84.0302 333.513 84.0302C333.263 84.0302 332.7 83.8866 332.275 83.7111C331.263 83.3122 330.8 83.3122 330.075 83.7111C329.763 83.9025 329.213 84.094 328.85 84.1419C328.488 84.2057 328.013 84.3971 327.775 84.6205C327.538 84.8119 327.213 84.9874 327.063 84.9874C326.913 84.9874 326.638 85.131 326.463 85.3065C325.963 85.817 325.45 85.7213 325.063 85.0672C324.638 84.3812 324.388 84.2695 323.813 84.5886C323.025 85.0034 321.938 84.9076 321.063 84.3493C320.425 83.9345 320.175 83.8706 319.375 83.8866C318.425 83.8866 317.95 84.094 317.063 84.9076C316.788 85.147 316.488 85.2267 315.638 85.2427C315.05 85.2427 314.225 85.3384 313.813 85.4341C313.4 85.5299 312.675 85.6894 312.213 85.8011C311.6 85.9287 311.163 86.1521 310.613 86.5988C309.7 87.3646 309.35 87.3805 308.838 86.7105C308.238 85.9606 307.738 85.6256 307.188 85.6256C306.375 85.6415 305.625 85.8808 305.263 86.2478C304.763 86.7583 303.9 87.221 302.9 87.5401C302.288 87.7475 301.85 87.9868 301.563 88.3218C300.9 89.0557 300.313 89.1355 298.963 88.6409C298.388 88.4335 298.35 88.4494 297.563 88.944C297.113 89.2312 296.65 89.4546 296.538 89.4546C296.425 89.4546 296.113 89.2152 295.825 88.9281C295.1 88.1942 294.725 88.0187 293.8 88.0187C293.013 88.0187 292.975 88.0027 292.4 87.3167C292 86.854 291.65 86.5828 291.313 86.519C291.038 86.4552 290.55 86.2797 290.225 86.1361C289.75 85.9287 289.613 85.9128 289.45 86.0882C289.338 86.1999 289.25 86.4392 289.25 86.5988C289.25 86.9019 288.213 87.6996 287.825 87.6996C287.725 87.6996 287.425 87.9389 287.15 88.2261C286.875 88.4973 286.488 88.8643 286.3 89.0078C286.1 89.1674 285.85 89.3588 285.75 89.4386C285.438 89.6939 284.488 90.1884 283.7 90.5075C282.738 90.8904 282.563 91.0978 282.263 92.2465C282.05 93.0761 281.963 93.2197 281.625 93.3473C281.275 93.475 279.588 93.3314 278.125 93.0283C277.75 92.9485 277.563 93.0442 277 93.5228C276.625 93.8419 276.088 94.4322 275.813 94.8151C275.525 95.198 275.213 95.5171 275.1 95.5171C274.988 95.5171 274.45 96.0914 273.9 96.7934C272.9 98.0857 272.625 98.2612 272.113 97.9102C271.613 97.5592 270.788 97.6868 270.163 98.1974C269.838 98.4526 269.475 98.7079 269.375 98.7398C269.138 98.8355 268.113 98.341 267.538 97.8464C267.113 97.4794 267.05 97.4635 265.213 97.5273C264.175 97.5752 263.3 97.639 263.263 97.6709C263.238 97.7188 263 97.7507 262.75 97.7507C262.488 97.7507 262.075 97.8623 261.825 97.99C261.163 98.3569 259.913 98.5324 259.388 98.341C259.138 98.2612 257.875 98.1655 256.563 98.1336C255.263 98.1017 253.988 98.0697 253.75 98.0697C253.513 98.0697 252.538 98.0857 251.6 98.1336C250.65 98.1655 249.725 98.1495 249.538 98.0857C249.35 98.0219 249.075 97.7347 248.938 97.4635C248.8 97.1763 248.563 96.9211 248.4 96.8732C248.25 96.8253 247.988 96.7615 247.813 96.7137C247.65 96.6658 247.438 96.4584 247.35 96.251C247.188 95.8681 246.725 95.3576 245.288 93.9696C244.575 93.2835 244.5 93.1559 244.5 92.6294C244.5 92.2465 244.413 91.9593 244.238 91.7519C243.988 91.4648 243.963 91.4648 243.6 91.736C243 92.1827 242.25 92.087 241.3 91.4488C240.85 91.1457 240.3 90.8904 240.075 90.8904C239.725 90.8904 238.938 90.4597 237.838 89.662C237.5 89.4067 237 89.4067 236.55 89.6301C236.013 89.8853 234.888 91.0819 234.8 91.4967C234.638 92.2625 233.813 92.3741 232.85 91.7679C232.075 91.2733 231.988 91.2733 231.2 91.7679C230.625 92.1189 230.475 92.1508 229.938 92.0232C229.6 91.9434 229.275 91.9115 229.213 91.9593C229.163 92.0072 228.975 91.9913 228.813 91.9434C228.613 91.8796 228.5 91.6881 228.413 91.2733C228.363 90.9383 228.225 90.6192 228.125 90.5554C226.275 89.311 225.975 89.2631 225.25 90.0289C224.925 90.3958 224.775 90.4437 224.275 90.3799C223.7 90.3001 223.438 90.1725 222.188 89.3588C221.438 88.8643 220.95 88.8164 220.313 89.1993C219.988 89.3907 219.7 89.4546 219.375 89.3907C219.125 89.3429 218.463 89.3588 217.925 89.4546C217.388 89.5343 216.338 89.646 215.613 89.7098C214.313 89.8055 214.275 89.8055 213.988 89.4226C213.55 88.8483 212.575 88.1782 212.188 88.1782C212 88.1782 211.713 88.0346 211.538 87.8591C211.363 87.6837 211.138 87.5401 211.05 87.5401C210.95 87.5401 210.538 87.3008 210.113 87.0295C209.05 86.3116 208.213 86.3116 207.238 87.0295C206.85 87.3167 206.463 87.5401 206.363 87.5401C206.1 87.5401 204.538 88.5611 204.213 88.944C204.063 89.1195 203.763 89.3748 203.538 89.5184C203.313 89.662 203.075 89.9172 203 90.0927C202.925 90.2682 202.788 90.4118 202.7 90.4118C202.413 90.4118 201.188 91.1616 201 91.4488C200.9 91.6084 200.575 91.8636 200.275 92.0232C199.975 92.1987 199.638 92.4699 199.525 92.6294C199.225 93.0602 198.088 93.475 196.975 93.5707C196.1 93.6345 195.95 93.6026 195.188 93.1399C194.725 92.8687 194.238 92.6454 194.113 92.6454C193.975 92.6454 193.388 92.3422 192.813 91.9913L191.75 91.3212L191 91.5286C190.588 91.6403 190.288 91.7838 190.313 91.8636C190.4 92.0391 189.688 92.2146 189.275 92.1029C189.088 92.0391 188.488 92.071 187.95 92.1667C187.15 92.2944 186.775 92.2784 185.938 92.0551C184.938 91.7838 184.9 91.7998 184.1 92.1348C183.1 92.5656 182.85 92.5656 181.925 92.1508C181.35 91.8955 180.775 91.7998 179.313 91.736C178.288 91.6881 177.35 91.5924 177.225 91.5126C177.113 91.4329 176.538 91.369 175.938 91.3531C175.313 91.3371 174.663 91.2414 174.425 91.1138C173.888 90.8266 173.2 90.8266 172.425 91.1297C172.088 91.2574 171.575 91.369 171.288 91.369C171 91.369 170.575 91.4648 170.35 91.5924C169.763 91.9274 168.25 92.5975 167.838 92.7092C167.638 92.773 167.35 92.9964 167.2 93.2038C166.988 93.4909 166.775 93.6026 166.425 93.6026C166.15 93.6186 165.813 93.6983 165.65 93.81C165.388 94.0015 164.375 95.7245 164.375 95.9957C164.375 96.0595 164.15 96.235 163.875 96.3946C163.288 96.7296 162.775 96.6658 161.788 96.0914C161.413 95.8681 160.925 95.6766 160.7 95.6766C160.488 95.6766 160.063 95.5171 159.75 95.3416C158.875 94.8311 158.188 94.7992 157.175 95.1821C156.013 95.6128 155.8 95.6128 154.925 95.0385C153.963 94.4322 153.338 94.3205 152.638 94.6237C152.238 94.8151 151.638 94.8789 150.325 94.863C148.9 94.863 148.388 94.9108 147.613 95.1821C146.875 95.4533 146.575 95.4852 146.325 95.3576C145.688 95.0544 145.3 95.1661 144.7 95.8202C144.2 96.3786 144.05 96.4424 143.225 96.5541C142.15 96.6817 141.163 97.0327 140.813 97.4316C140.675 97.5911 140.113 97.8464 139.563 97.99C138.613 98.2612 138.388 98.4048 137.188 99.378C136.913 99.6013 136.563 99.8406 136.413 99.8885C136.275 99.9523 136.05 100.192 135.925 100.431C135.488 101.292 134.6 102.521 134.338 102.633C134.188 102.696 133.825 103.016 133.538 103.351C133.238 103.702 132.938 103.973 132.85 103.973C132.575 103.973 131.738 104.818 131.55 105.281C131.45 105.52 131.138 105.919 130.863 106.127C130.588 106.35 130.313 106.717 130.25 106.94C130.088 107.483 128.6 108.344 128.05 108.217C127.838 108.153 127.5 108.185 127.3 108.264C127.1 108.344 126.6 108.504 126.188 108.615C125.563 108.791 125.35 108.95 124.863 109.573C124.138 110.53 123.788 110.657 122.813 110.291C121.938 109.956 121.738 109.94 120.063 110.163C119.213 110.259 118.563 110.45 118.038 110.737C117.613 110.961 117.15 111.152 117.013 111.152C116.863 111.152 116.663 111.328 116.563 111.535C116.45 111.758 116.05 112.061 115.613 112.285C115.1 112.524 114.813 112.763 114.725 113.003C114.65 113.21 114.338 113.529 114.038 113.721C113.725 113.912 113.45 114.183 113.413 114.327C113.275 114.822 112.95 115.141 112.588 115.141C112.213 115.141 111.375 115.683 111.375 115.938C111.375 116.002 111.088 116.337 110.738 116.672C110.388 117.023 110.025 117.518 109.913 117.805C109.813 118.092 109.525 118.507 109.275 118.746C109.013 118.986 108.725 119.321 108.625 119.48C108.513 119.64 108.1 119.895 107.7 120.023C107.3 120.15 106.85 120.358 106.7 120.485C106.563 120.597 106.125 120.74 105.75 120.804C105.025 120.916 103.963 121.698 102.15 123.469C101.713 123.883 101.213 124.266 101.025 124.33C100.838 124.378 100.325 124.569 99.875 124.761C99.4125 124.952 98.7125 125.096 98.225 125.112C97.775 125.128 97.325 125.208 97.225 125.287C97.1375 125.383 96.825 125.543 96.525 125.654C96.1375 125.798 95.9125 126.005 95.7 126.436C95.3 127.234 94.9 127.665 94.3375 127.904C94.0875 128 93.875 128.143 93.875 128.207C93.875 128.271 93.6875 128.446 93.475 128.606C93.25 128.781 92.9375 129.1 92.8 129.324C92.5625 129.675 92.5 129.707 92.2125 129.547C91.975 129.404 91.075 129.388 88.9625 129.451C87.0125 129.515 85.575 129.483 84.6625 129.356C83.1375 129.132 82.65 129.26 82 130.058C81.825 130.265 81.375 130.584 81 130.776L80.3125 131.127L79.525 130.776C78.5125 130.313 78.125 130.425 77.35 131.35L76.725 132.084L75.65 131.988C75.05 131.924 74.2625 131.844 73.8875 131.797C73.475 131.733 72.7125 131.813 71.925 131.972C70.6875 132.243 70.5875 132.243 69.6 131.972C69.0125 131.813 68.5125 131.589 68.45 131.462C68.3875 131.318 68.3125 131.286 68.2625 131.366C68.175 131.541 65.875 132.18 64.6625 132.371C64.075 132.467 63.6625 132.658 63.0875 133.105C62.175 133.807 61.3125 133.982 60.6 133.599C60.35 133.456 59.6125 133.296 58.975 133.248C58.275 133.169 57.6375 133.009 57.375 132.85C56.6 132.355 55.9125 132.387 55.4 132.929C54.8 133.583 53.825 133.424 53.375 132.626C53.275 132.435 52.95 131.956 52.6375 131.541C51.925 130.552 51.6125 130.536 50.75 131.478C49.6125 132.706 48.3625 132.802 46.3125 131.781C44.7875 131.015 43.35 130.887 42.425 131.414C42.05 131.621 41.45 131.797 40.875 131.844C40.0125 131.924 39.9 131.892 39.5 131.509C39.2625 131.286 38.925 130.983 38.7625 130.823C38.0625 130.185 36.8 130.744 35.1875 132.419C34.9875 132.626 34.675 132.866 34.5 132.929C34.325 132.993 34.0625 133.185 33.9125 133.36C33.7125 133.599 33.3625 133.727 32.6625 133.823C32 133.903 31.45 134.094 30.9375 134.413C29.9875 135.003 28.9 135.243 27.175 135.243C25.8 135.243 23.7125 135.019 23.3375 134.828C23.225 134.78 23.1 134.605 23.0625 134.445C23 134.174 21.8125 133.456 21.075 133.248C20.8875 133.201 20.6375 133.041 20.5375 132.929C20.4375 132.802 20.2125 132.69 20.05 132.69C19.7125 132.69 18.825 132.164 18.4625 131.765C18.3375 131.621 18.125 131.158 17.975 130.744C17.8125 130.265 17.5125 129.77 17.1375 129.404C16.825 129.084 16.425 128.622 16.25 128.382C16.05 128.111 15.6 127.808 15.025 127.585C14.525 127.377 13.9125 127.01 13.6625 126.771C13.4125 126.516 13.1 126.308 12.95 126.308C12.5875 126.308 11.375 125.622 11.375 125.415C11.375 124.952 10.75 124.841 8.4375 124.92C7.7875 124.936 7.6 124.873 7.075 124.442C6.7375 124.155 6.3625 123.708 6.2375 123.453C6.1125 123.181 5.825 122.862 5.6 122.735C5.375 122.607 5.05 122.4 4.875 122.272C4.075 121.698 3.775 121.506 3.375 121.267C3.1375 121.123 2.825 120.884 2.6875 120.709C2.45 120.437 1.325 119.927 0.4125 119.687L0 119.576V60.1629V0.75H480H960V53.542V106.334L959.438 106.509C959.138 106.605 958.675 106.86 958.425 107.084C957.738 107.674 957.45 107.722 956.575 107.339C956.15 107.164 955.65 107.004 955.475 107.004C954.8 107.004 953.863 106.302 952.863 105.01C951.975 103.861 951.975 103.861 952.125 103.494C952.325 103.016 952.088 102.696 951.5 102.696C951.238 102.696 950.475 102.84 949.788 103.016C949.113 103.191 948.188 103.335 947.725 103.335C947.038 103.335 946.838 103.398 946.538 103.702C946.088 104.196 945.475 104.451 944.788 104.451C944.188 104.451 943.613 104.754 943.125 105.345C942.95 105.552 942.55 105.776 942.188 105.855C941.738 105.951 941.575 106.047 941.613 106.222C941.638 106.35 941.688 106.573 941.713 106.733C941.763 106.924 941.713 107.004 941.525 107.004C941.2 107.004 941.063 106.733 941.25 106.446C941.363 106.27 941.325 106.174 941.075 105.967C940.575 105.536 938.263 105.568 937.45 105.999L936.838 106.318L936.013 105.951C935 105.488 934.55 105.472 934.063 105.887C933.375 106.462 933.013 106.206 932.7 104.898C932.588 104.419 932 104.563 931.213 105.249C930.8 105.6 930.3 105.919 930.075 105.983C929.525 106.111 928.813 105.712 928.575 105.137C928.275 104.388 927.088 103.351 926.225 103.095C925.413 102.856 925.013 102.904 924.163 103.287C923.675 103.51 923.588 103.51 923.188 103.271C922.65 102.936 922.5 103.031 921.713 104.164C920.538 105.855 920.05 106.366 919.588 106.366C919.425 106.366 919.15 106.509 918.975 106.669C918.5 107.148 917.85 107.307 915.25 107.515C911.625 107.802 911.075 107.786 910.225 107.275L909.513 106.86L908.85 107.339C908.488 107.594 908.075 107.802 907.938 107.802C907.8 107.802 907.5 107.945 907.275 108.121C906.913 108.408 906.738 108.424 905.388 108.328C904.338 108.264 903.888 108.28 903.825 108.424C903.675 108.727 903.4 108.631 902.925 108.089L902.463 107.562H900.95C899.2 107.562 898.963 107.626 898.313 108.28C897.788 108.807 897.2 108.903 896.8 108.52C896.213 107.961 895.15 108.552 894.875 109.62C894.763 110.067 894.663 110.179 894.288 110.275C893.75 110.402 893.375 110.689 892.663 111.503C892.363 111.838 892.038 112.109 891.938 112.109C891.7 112.109 890.475 112.955 889.938 113.481C889.55 113.864 889.413 114.04 888.938 114.71C888.713 115.029 888.488 115.141 887.825 115.22C886.763 115.364 886.3 115.268 885.4 114.71C884.763 114.311 884.575 114.279 883.538 114.311C881.725 114.359 881.588 114.359 881.2 114.343C880.988 114.327 880.688 114.231 880.513 114.104C880 113.753 879.113 113.561 878.538 113.657C878.25 113.705 877.75 113.657 877.438 113.561C877 113.418 876.675 113.418 876.125 113.561C875.238 113.784 874.175 113.545 873.913 113.067C873.725 112.732 873 112.604 873 112.907C873 113.003 872.638 113.29 872.188 113.561C871.725 113.832 871.163 114.215 870.9 114.439C870.275 114.981 869.875 114.901 869.588 114.151C869.25 113.29 868.875 113.178 866.825 113.37C864.838 113.561 864.175 113.896 863.563 114.981C862.913 116.146 862.35 116.911 861.888 117.231C861.638 117.406 861.213 117.757 860.938 118.012C860.288 118.619 859.813 118.73 859.138 118.427C858.838 118.284 858.45 118.172 858.263 118.172C858.088 118.172 857.55 118.044 857.075 117.901C856.338 117.677 856.063 117.661 855.225 117.821C854.625 117.933 854.113 118.124 853.925 118.315C853.725 118.507 853.325 118.65 852.713 118.73C852.225 118.794 851.7 118.922 851.563 119.033C851.063 119.432 849.225 119.959 848.688 119.863C848.238 119.767 846.15 120.118 845.888 120.31C845.838 120.358 845.238 120.421 844.538 120.485C843.625 120.549 843.088 120.677 842.538 120.964C841.925 121.267 841.613 121.347 840.925 121.299C840.45 121.267 839.613 121.331 839.063 121.442C838.513 121.554 837.638 121.698 837.125 121.762C836.263 121.857 836.113 121.825 835.538 121.458C835.2 121.235 834.825 120.932 834.738 120.772C834.638 120.629 834.338 120.31 834.075 120.054C833.675 119.687 833.463 119.608 832.875 119.608C831.75 119.608 831.4 119.751 830.713 120.549C830.35 120.964 829.913 121.411 829.738 121.554C829.563 121.698 829.338 122.033 829.25 122.304C829.15 122.623 828.9 122.91 828.563 123.134C828.263 123.325 827.963 123.644 827.888 123.867C827.813 124.075 827.55 124.362 827.325 124.474C827.088 124.601 826.813 124.904 826.725 125.144C826.638 125.383 826.363 125.75 826.125 125.957C825.888 126.165 825.613 126.516 825.513 126.755C825.425 126.994 825.163 127.409 824.925 127.696C824.688 127.984 824.5 128.319 824.5 128.478C824.5 128.622 824.325 129.005 824.125 129.324C823.913 129.643 823.675 129.994 823.588 130.121C823.513 130.249 823.438 130.456 823.425 130.568C823.375 130.983 822.988 131.573 822.775 131.573C822.425 131.573 822.013 132.02 821.738 132.706C821.575 133.121 821.338 133.424 821.075 133.568C820.85 133.695 820.525 134.03 820.35 134.317C819.475 135.785 818.825 136.104 818.288 135.37Z" fill="#FFFDDF"/>
</g>
<defs>
<filter id="filter0_d_0_23" x="0" y="0" width="961.5" height="136.5" filterUnits="userSpaceOnUse" color-interpolation-filters="sRGB">
<feFlood flood-opacity="0" result="BackgroundImageFix"/>
<feColorMatrix in="SourceAlpha" type="matrix" values="0 0 0 0 0 0 0 0 0 0 0 0 0 0 0 0 0 0 127 0" result="hardAlpha"/>
<feOffset dx="0.75"/>
<feGaussianBlur stdDeviation="0.375"/>
<feComposite in2="hardAlpha" operator="out"/>
<feColorMatrix type="matrix" values="0 0 0 0 0 0 0 0 0 0 0 0 0 0 0 0 0 0 0.25 0"/>
<feBlend mode="normal" in2="BackgroundImageFix" result="effect1_dropShadow_0_23"/>
<feBlend mode="normal" in="SourceGraphic" in2="effect1_dropShadow_0_23" result="shape"/>
</filter>
</defs>
</svg>
