<svg preserveAspectRatio="none" width="100%" height="100%" overflow="visible" style="display: block;" viewBox="0 0 49.5996 81.9409" fill="none" xmlns="http://www.w3.org/2000/svg">
<g id="svg" opacity="0.16" filter="url(#filter0_g_0_13)">
<path fill-rule="evenodd" clip-rule="evenodd" d="M25.1973 29.4127C25.1973 28.8195 27.8456 29.1737 30.4941 29.4127C33.1427 29.2949 35.791 29.2957 35.791 29.4127C35.7944 29.6227 38.923 29.3182 42.0869 29.4094C42.3681 29.4361 42.316 29.6311 42.4326 29.6139C42.4566 29.6098 42.4883 29.5722 42.4756 29.549L42.4043 29.4213C45.5347 29.5657 48.5986 29.1668 48.5986 29.4116V34.0078C48.5766 34.0257 41.3573 34.2092 41.3477 34.0078C38.6639 33.7713 36.5851 36.6307 36.9111 39.555C36.9115 39.8076 37.4506 44.8755 37.9893 49.3165C38.5287 54.5444 39.0672 58.8168 39.0674 59.0781C38.0511 59.1935 36.2707 59.685 34.7354 60.7475C34.3578 61.0867 34.0168 61.4887 33.7119 61.9323L33.6406 61.7851C33.6271 61.7578 33.7021 61.6852 33.6953 61.6553C33.6821 61.6012 33.5457 61.6732 33.5195 61.7245C33.4927 61.7784 33.5154 61.8692 33.5557 61.9182C33.5774 61.9439 33.662 61.9619 33.6973 61.9528C32.5589 63.6195 31.9303 65.8712 31.8262 67.6581C31.6943 70.8915 32.4074 72.4993 33.9961 74.5383C35.2087 75.9204 36.6803 76.2186 37.5234 76.1548C37.5293 76.0188 40.2953 76.6487 43.0615 76.1548C44.038 75.949 45.015 75.9126 45.8701 75.9416C45.8485 76.0584 45.8787 76.1657 45.9775 76.2511C46.0322 76.1459 46.0264 76.0212 45.957 75.9449C47.482 76.0055 48.5996 76.2709 48.5996 76.1548V80.751C48.598 80.6021 45.6231 81.188 41.1621 80.751C37.654 80.449 33.2254 80.569 28.6016 80.6752C28.69 80.6089 28.7747 80.4596 28.75 80.3485L28.6025 80.5378C28.586 80.5594 28.5118 80.572 28.4863 80.5778C28.4701 80.5824 28.4869 80.6413 28.5078 80.6785C27.4991 80.7009 26.4811 80.7227 25.4619 80.7401L25.3779 80.5681L25.21 80.6449C25.1927 80.6532 25.1835 80.7074 25.1865 80.7456C25.0577 80.7472 24.9286 80.7493 24.7998 80.751C18.8501 80.6921 12.8996 81.2064 8.4375 80.751C3.97875 80.3133 1.00456 80.7007 1 80.751V76.1548C1 76.3082 3.57004 76.2468 6.14062 76.1548C8.70924 75.8637 11.279 75.8391 11.2812 76.1548C12.1252 76.192 13.5952 75.8911 14.8076 74.5383C16.3956 72.2902 17.1101 70.4552 16.9775 67.6581C16.8449 65.3171 15.8653 62.5262 14.0684 60.7475C12.5328 59.1531 10.7508 59.0457 9.73535 59.0781C9.73535 59.3129 9.71303 59.0624 9.71289 59.0781C9.7135 58.9784 10.2931 54.0463 10.8721 49.3393C11.4521 44.8671 12.0322 39.4804 12.0322 39.6015C12.3852 36.6832 10.3007 33.8611 7.60059 34.0078C7.60059 33.6132 1.00897 34.2048 1 34.0078V29.4116C1 29.0972 4.06158 29.7235 7.12305 29.4116C10.1843 29.9325 13.2457 29.9092 13.2461 29.4116C13.2463 29.6014 13.7554 29.5727 14.5547 29.5014C14.5377 29.5327 14.5297 29.5649 14.5459 29.575L14.752 29.7015L14.7676 29.5154C14.7683 29.504 14.7636 29.4931 14.7549 29.4841C15.0492 29.4575 15.3764 29.4273 15.7275 29.4008C15.6924 29.4348 15.6591 29.4945 15.6807 29.5111L15.8252 29.6226C15.8521 29.6432 15.9573 29.5689 15.9355 29.5447L15.7959 29.3953C16.7027 29.3298 17.7638 29.2929 18.8242 29.4116C20.2128 29.4846 21.6018 29.4978 22.6465 29.4862L22.6523 29.7643C22.8081 29.7528 22.9558 29.8535 23.0322 29.9331C23.0561 29.9579 23.108 29.8259 23.0781 29.8108L22.9619 29.7578L22.7471 29.5858L22.6826 29.4862C23.711 29.4747 24.3975 29.4384 24.4023 29.4127C24.4023 29.2451 25.1973 29.0236 25.1973 29.4127ZM12.7412 80.487L12.875 80.725C12.8862 80.7448 13.0425 80.7122 13.0342 80.6915L13.0078 80.6384L12.9824 80.5876L13.0352 80.4166L12.7412 80.487ZM27.4316 80.54L27.6826 80.4404C27.6968 80.4355 27.7404 80.419 27.749 80.4156C27.737 80.4186 27.709 80.3682 27.6963 80.369L27.5576 80.3798C27.53 80.3812 27.4992 80.3397 27.4365 80.2868L27.4316 80.54ZM40.5293 80.1483C40.7016 80.2752 40.7901 80.368 40.9189 80.2554C40.9336 80.2429 40.9057 80.1747 40.8779 80.1429L40.8525 80.1267L40.5293 80.1483ZM16.5488 79.999C16.5038 79.9214 16.38 79.9697 16.4023 80.0542L16.4531 80.2424C16.5197 80.1595 16.575 80.0446 16.5488 79.999ZM8.45801 79.9676L8.22168 80.1148C8.25614 80.1836 8.35043 80.233 8.41113 80.2305C8.44088 80.2299 8.48248 80.1832 8.50586 80.1353L8.52246 80.0877L8.54199 79.9774C8.54499 79.9599 8.4715 79.9593 8.45801 79.9676ZM8.92285 79.96C8.83744 79.9427 8.71719 80.0112 8.68945 80.1007L8.83594 80.1094L8.95117 80.1148C8.9759 80.1164 8.99698 80.0396 8.99023 80.0131C8.98533 79.9948 8.9452 79.9642 8.92285 79.96ZM26.1787 79.8183C26.178 79.7711 26.0268 79.8507 26.0264 79.9005C26.0264 79.9428 26.0655 80.008 26.0947 80.0412C26.1218 80.0709 26.2375 80.0539 26.2188 80.0174C26.206 79.9934 26.1808 79.9516 26.1807 79.9308L26.1787 79.8183ZM1.48828 79.6463L1.63574 79.7707C1.66464 79.7959 1.6529 79.8997 1.65137 79.9709C1.67759 80.0339 1.72038 80.0425 1.69043 79.9546L1.79004 79.6376L1.48828 79.6463ZM43.6162 79.7696C43.5173 79.6949 43.3726 79.574 43.2354 79.6722C43.2878 79.7103 43.3728 79.7099 43.3818 79.748L43.4111 79.8757L43.6162 79.7696ZM43.7295 79.3531C43.6747 79.4382 43.6995 79.5316 43.748 79.6019L43.79 79.8248C43.8777 79.6224 43.7939 79.4957 43.7295 79.3531ZM35.877 79.1886C35.7265 79.4241 35.8618 79.6941 36.1172 79.7945C36.1262 79.7332 36.1211 79.6132 36.0957 79.5435C36.074 79.4856 35.9182 79.4859 35.9092 79.4234L35.877 79.1886ZM32.3076 79.4634C32.277 79.4543 32.1975 79.4866 32.2061 79.5197L32.2471 79.669C32.2546 79.6972 32.2992 79.758 32.3164 79.7804C32.3337 79.8025 32.3863 79.764 32.3857 79.735L32.3809 79.5943C32.3794 79.5514 32.3383 79.4723 32.3076 79.4634ZM38.4336 79.392L38.5479 79.5392C38.5946 79.5984 38.8678 79.3832 38.79 79.3844L38.4336 79.392ZM22.7969 79.26L22.4746 79.4245L22.6318 79.5035C22.6693 79.5217 22.7097 79.4507 22.7637 79.4017L22.7627 79.4028C22.8284 79.3822 22.8686 79.3394 22.8652 79.3022C22.863 79.2757 22.8216 79.2476 22.7969 79.26ZM5.49707 79.1258C5.46886 79.125 5.46186 79.2233 5.47754 79.2481L5.5332 79.3401L5.47656 79.4256C5.4631 79.4446 5.51395 79.4844 5.53418 79.4753L5.60449 79.4439C5.63305 79.4314 5.70621 79.3728 5.6875 79.3455L5.61914 79.2449L5.75684 79.2059C5.77196 79.2007 5.76628 79.143 5.75 79.1421L5.65723 79.1356L5.49707 79.1258ZM35.6982 78.8824C35.6841 78.985 35.6866 79.0468 35.6582 79.0501L35.5547 79.0609L35.4502 79.0858C35.4309 79.0908 35.4773 79.1413 35.4971 79.1421L35.585 79.1388L35.6123 79.2762C35.6171 79.3 35.6777 79.2747 35.6904 79.2557L35.7324 79.1918C35.7609 79.1487 35.8495 79.035 35.8145 78.9993L35.6973 78.8813L35.6982 78.8824ZM30.1992 78.89L30.2207 79.2633L30.2881 79.0804C30.3023 79.0431 30.4229 79.0314 30.4277 78.9884C30.433 78.9395 30.3846 78.8734 30.3584 78.8759L30.1992 78.89ZM45.9219 78.9646C45.8976 78.9043 45.8049 78.8709 45.7959 78.9214L45.7471 79.2102C45.739 79.2635 45.8731 79.2554 45.9189 79.234L46.0254 79.1821C46.0396 79.1755 45.9952 79.1419 45.9795 79.1377L45.8896 79.1139C45.9151 79.0526 45.9376 79.0045 45.9219 78.9646ZM36.6104 78.6368C36.5858 78.6393 36.5503 78.7288 36.5703 78.7439L36.6729 78.811C36.7676 78.8746 36.6896 79.2437 36.8086 79.0674C36.8019 78.8868 36.8061 78.7893 36.7344 78.6898C36.7119 78.6591 36.6433 78.6343 36.6104 78.6368ZM2.87402 78.8391C2.71995 78.7531 2.63103 78.8139 2.54199 78.9149L2.66016 79.0436C2.68776 78.9734 2.70626 78.9119 2.73828 78.8976L2.87402 78.8391ZM21.7207 78.7244C21.7155 78.6904 21.583 78.7254 21.5957 78.7569C21.6066 78.7819 21.6797 78.8413 21.6602 78.8564L21.5566 78.9322C21.6533 79.0284 21.7791 79.0474 21.8975 78.9008L21.7441 78.89L21.7207 78.7244ZM27.7666 78.9592C27.7996 79.0145 27.9593 78.8816 27.9531 78.8424L27.624 78.7212L27.7666 78.9592ZM24.5869 78.5026C24.6633 78.6195 24.6748 78.6787 24.6748 78.8013L24.8027 78.7861C24.8185 78.7845 24.7881 78.7398 24.7754 78.7298L24.7744 78.7309C24.7608 78.7208 24.7133 78.6775 24.7275 78.6693L24.873 78.5903C24.7839 78.4626 24.6611 78.4504 24.5869 78.5026ZM3.59668 78.0006C3.59586 77.9762 3.52294 77.973 3.52148 77.9974C3.52074 78.0164 3.52364 78.0768 3.51465 78.0926L3.30078 78.4485L3.33887 78.6162C3.34524 78.6405 3.45078 78.6339 3.45117 78.6087L3.44141 78.3068C3.4998 78.3126 3.59461 78.3194 3.5957 78.2841V78.1164L3.59668 78.1153V78.0006ZM43.4824 78.389C43.4248 78.3866 43.316 78.3908 43.3301 78.4269L43.4072 78.6108C43.4268 78.657 43.5028 78.5844 43.5215 78.5405C43.5485 78.4783 43.5284 78.3926 43.4834 78.3901L43.4824 78.389ZM13.877 78.4042C13.8613 78.4191 13.8589 78.4731 13.8789 78.4767C13.8998 78.48 13.9666 78.4906 13.9844 78.5005L14.0967 78.5632C14.1154 78.5729 14.1793 78.5138 14.165 78.4983L13.9727 78.3111L13.877 78.4042ZM28.7383 78.1596L28.9883 78.2495L29.0459 78.5178L29.0908 78.1423L28.7383 78.1596ZM20.9424 78.111C20.9169 78.0604 20.7525 78.0583 20.7627 78.112C20.7844 78.2257 20.8603 78.2966 20.9697 78.3804C20.9862 78.261 20.9768 78.1781 20.9424 78.111ZM44.7676 78.0677C44.7317 78.09 44.6398 78.1664 44.6689 78.1964L44.7803 78.3079C44.8041 78.3326 44.8571 78.3809 44.874 78.3598L44.9424 78.2657C44.8893 78.3379 44.8798 77.9974 44.7676 78.0677ZM33.4131 77.8232L33.6436 78.098L33.5732 78.151C33.5606 78.1609 33.5786 78.2052 33.5928 78.2137C33.607 78.222 33.6887 78.2259 33.6992 78.2127C33.7463 78.1528 33.7171 77.9939 33.6475 77.9151C33.5794 77.8382 33.5276 77.7908 33.4131 77.8232ZM8.36328 77.8729C8.31014 77.7586 8.28036 77.6907 8.1875 77.7496C8.14177 77.7788 8.06033 77.8702 8.09082 77.9108L8.17383 78.0179C8.18582 78.0345 8.13099 78.0732 8.09277 78.1056L8.19141 78.1564C8.19119 78.1338 8.41498 77.9834 8.36328 77.8729ZM26.7168 77.7236C26.7087 77.7108 26.6611 77.7615 26.665 77.7766L26.7705 78.138C26.8621 78.0603 26.937 77.9731 26.9053 77.9465L26.7773 77.8405L26.7168 77.7236ZM29.3838 77.7193C29.3558 77.684 29.209 77.7436 29.2266 77.7875C29.2798 77.9177 29.5013 78.0134 29.583 77.9487C29.6007 77.9341 29.6126 77.8486 29.6172 77.8232C29.6209 77.7991 29.5668 77.8082 29.5488 77.8232C29.5365 77.8328 29.5013 77.872 29.4912 77.861L29.3838 77.7193ZM44.6016 77.5635L44.5586 77.8686C44.5787 77.881 44.6772 77.9499 44.7129 77.9433C44.7773 77.9283 44.7343 77.7068 44.6631 77.6976L44.7295 77.6143C44.7387 77.6024 44.7209 77.563 44.7061 77.5635H44.6016ZM2.11719 77.6587C2.05289 77.6979 1.98559 77.8493 2.06152 77.9C2.1642 77.8593 2.24042 77.8109 2.22168 77.7669C2.19993 77.7155 2.15089 77.638 2.11719 77.6587ZM21.7832 77.8156C21.778 77.8637 21.9234 77.9161 21.9443 77.8729C21.9656 77.8276 21.9334 77.677 21.9766 77.6587L22.1797 77.5732L21.8115 77.5667L21.7832 77.8156ZM21.3154 77.5548C21.249 77.6518 21.2951 77.7458 21.3564 77.7723C21.4006 77.7912 21.462 77.7501 21.5742 77.6706L21.3154 77.5548ZM44.8682 77.385C44.8324 77.3808 44.8 77.5243 44.8096 77.5635L44.8486 77.7236C44.856 77.7503 44.9412 77.7089 44.9473 77.6825L45.0098 77.4066L44.8682 77.385ZM19.9541 77.4239L19.7959 77.5148C19.7706 77.5297 19.815 77.65 19.8428 77.6511C19.938 77.6544 20.0265 77.6267 20.0205 77.557C20.013 77.4708 19.9945 77.4007 19.9541 77.4239ZM6.65723 77.3146L6.58496 77.3741L6.20898 77.4088L6.23242 77.6262C6.2365 77.6582 6.33657 77.6434 6.34766 77.6122C6.36184 77.5675 6.39341 77.4562 6.42773 77.4726L6.55664 77.5375C6.57236 77.5458 6.77485 77.4528 6.74316 77.3493C6.73492 77.3235 6.67521 77.2997 6.65723 77.3146ZM44.0938 77.3731C44.0615 77.349 43.9628 77.4643 43.9883 77.4975L44.0928 77.6338C44.1184 77.6665 44.2191 77.5591 44.2012 77.5202C44.1892 77.4942 44.171 77.4637 44.1514 77.4369L44.0938 77.3731ZM25.0996 77.1621C25.0991 77.1307 25.0012 77.1252 24.9795 77.1458L24.9053 77.2151C24.8671 77.2508 24.8094 77.3093 24.7988 77.3514C24.7906 77.3871 24.8294 77.4514 24.8721 77.4953L24.876 77.2962L25.0137 77.306C25.0474 77.3082 25.0996 77.1994 25.0996 77.1621ZM38.3076 77.2367L38.292 77.3341C38.286 77.3765 38.3074 77.4722 38.3418 77.478C38.3764 77.4837 38.4653 77.4629 38.4668 77.4239C38.4687 77.3857 38.4377 77.3116 38.4131 77.2703C38.3997 77.2471 38.3128 77.21 38.3076 77.2367ZM32.9717 77.0019C32.9666 76.9632 32.8321 76.9385 32.8271 76.9771C32.8219 77.0152 32.8175 77.1412 32.834 77.1826C32.8681 77.2709 33.0767 77.2444 33.1748 77.1815L32.9863 77.1361L32.9717 77.0019ZM14.5068 76.9446C14.5301 76.9033 14.3622 76.8683 14.3428 76.9154L14.2549 77.1253C14.2571 77.1435 14.3874 77.144 14.4121 77.1026L14.5068 76.9446ZM15.3096 76.8764C15.2136 76.708 14.8429 76.9498 14.8369 76.9349L14.8867 77.0593C14.8987 77.0891 14.9872 77.0194 15.0195 77.0052L15.3096 76.8764ZM8.5293 76.6774C8.5493 76.6224 8.32525 76.6319 8.33496 76.6914C8.34135 76.7279 8.41357 76.7928 8.39453 76.8234L8.32324 76.9359C8.30459 76.9666 8.43662 77.007 8.44434 76.9716L8.47949 76.8029L8.5293 76.6774ZM26.7246 76.7141C26.7051 76.7299 26.6494 76.6647 26.627 76.6481C26.6023 76.6301 26.5808 76.7702 26.6084 76.7812L26.7305 76.8299L26.8018 76.9792L26.8125 76.6427L26.7246 76.7141ZM14.0625 76.5973C14.0277 76.5463 13.8524 76.5585 13.8584 76.6211L13.8818 76.8797C13.8876 76.9325 14.0933 76.8988 14.0693 76.8515L14.0029 76.7195L14.0625 76.5973ZM12.834 76.6968C12.78 76.6323 12.6873 76.5913 12.6387 76.752L12.8799 76.9035C12.8904 76.833 12.8739 76.7422 12.835 76.6957L12.834 76.6968ZM22.9268 76.8148L23.0811 76.8169L23.084 76.5713L22.9297 76.5681L22.9268 76.8148ZM17.2285 76.5194C17.2396 76.5435 17.1592 76.6122 17.1816 76.6222C17.2393 76.6495 17.3668 76.6366 17.4619 76.6168C17.3452 76.4678 17.278 76.4142 17.1582 76.3712L17.2285 76.5194ZM21.8887 76.6297L22.1143 76.527L21.8906 76.3041L21.8887 76.6297ZM26.3379 76.3398L26.3037 76.4664C26.2968 76.4902 26.2547 76.4949 26.2412 76.475C26.2277 76.4549 26.2001 76.3863 26.1807 76.3982C26.1342 76.4272 26.1558 76.5728 26.2285 76.567C26.3032 76.5612 26.3809 76.5674 26.3828 76.514C26.3851 76.4534 26.3499 76.295 26.3379 76.3398ZM35.5938 76.2132C35.5631 76.1395 35.4566 76.1313 35.3623 76.1742L35.6602 76.514C35.6587 76.3829 35.6342 76.3102 35.5938 76.2132ZM36.751 76.1764L36.416 76.4426C36.4265 76.4625 36.5592 76.5035 36.6035 76.4804C36.6845 76.4373 36.8739 76.0793 36.751 76.1764ZM19.8857 76.0595C19.8378 76.1657 19.8636 76.2707 19.9551 76.3852L19.749 76.4079C19.8322 76.5191 19.931 76.4905 19.9932 76.4523C20.0374 76.4249 20.1119 76.31 20.0752 76.2727C20.0524 76.2506 19.9683 76.2348 19.9551 76.2078L19.8857 76.0595ZM21.2607 76.2402L21.167 76.3116C21.1264 76.3427 20.99 76.2311 20.9756 76.4069L20.9746 76.4079L21.2734 76.3863C21.3035 76.3831 21.3725 76.2847 21.3477 76.2662C21.3282 76.2521 21.2795 76.2263 21.2607 76.2402ZM15.5664 76.1526C15.5421 76.1167 15.4481 76.158 15.4443 76.2002C15.4406 76.2399 15.4335 76.3302 15.4629 76.3279L15.6709 76.3073L15.5664 76.1526ZM24.4727 58.9028C24.3081 59.0286 24.2294 58.9392 24.2061 59.0207C24.2008 59.0398 24.2106 59.0809 24.2256 59.1116C22.1183 59.5656 19.9884 62.0167 20.4199 65.017V70.838L20.2344 70.8401L20.2363 71.0046L20.4199 71.0035V72.1774L20.1348 72.3809C20.2441 72.4157 20.3473 72.4273 20.3848 72.3809C20.3989 72.3627 20.4102 72.3415 20.4199 72.3192V76.1548C20.9743 76.1332 21.5284 76.1261 22.082 76.1245C22.0432 76.2097 22.0456 76.2202 22.0703 76.2857C22.1122 76.3329 22.1752 76.3401 22.2217 76.3062L22.2627 76.1385C22.2641 76.1336 22.263 76.1283 22.2607 76.1234C24.3022 76.1242 26.3433 76.2195 28.3848 76.1548V65.017C28.8275 61.8532 26.574 58.6141 24.415 59.0759L24.4199 59.0737C24.4439 59.0613 24.4937 59.0018 24.502 58.9753C24.5101 58.9486 24.4936 58.887 24.4727 58.9028ZM19.7402 75.5737C19.5687 75.6011 19.3901 75.6439 19.4238 75.5867L19.3496 75.7133C19.4859 75.7448 19.6294 75.7825 19.7402 75.5737ZM31.001 75.3152C30.9403 75.4056 30.8155 75.6055 30.918 75.7382C30.9717 75.7067 31.0093 75.5125 31.0684 75.5034L31.3369 75.4612L31.001 75.3152ZM18.9346 74.9267C18.9278 74.9591 18.8431 74.9912 18.8184 75.0111C18.7948 75.0322 18.8404 75.1477 18.874 75.1258C18.9946 75.0454 19.1042 74.7966 18.999 74.6357L18.9346 74.9267ZM29.8545 74.7363L29.5479 74.746L29.5498 74.8153L29.9375 74.8174C29.9578 74.8162 29.9908 74.6879 29.9707 74.6854L29.916 74.679L29.8545 74.7363ZM19.1855 73.8253L19.1865 74.0741H19.332L19.3311 73.8253H19.1855ZM29.0664 73.1512C29.0402 73.1745 29.006 73.2401 28.9873 73.2832L28.9297 73.4152C28.9199 73.4376 28.9747 73.4731 28.9941 73.4607L29.2266 73.3059C29.1569 73.1981 29.0979 73.123 29.0664 73.1512ZM30.8633 72.5799C30.7643 72.6161 30.5997 72.932 30.6836 73.0149L30.917 72.6438C30.9573 72.7701 30.9707 72.8419 31.002 72.8342L31.0986 72.8082C31.1215 72.801 31.095 72.7011 31.0801 72.6795C31.0434 72.6272 30.9202 72.5592 30.8633 72.5799ZM29.5264 71.7641C29.4851 71.7749 29.3553 71.8291 29.3193 71.8756C29.2871 71.9171 29.3039 72.0292 29.2949 72.1147L29.1523 71.9827C29.0906 72.0281 29.0773 72.0546 29.0713 72.0876C29.081 72.171 29.0949 72.2462 29.123 72.2283L29.2412 72.1504L29.3428 72.2175C29.3547 72.2246 29.3696 72.095 29.3994 72.0909L29.5098 72.0768L29.6221 72.0584C29.6378 72.0547 29.5806 72.0101 29.5635 72.0076L29.4736 71.9957C29.4219 71.9882 29.4829 71.8554 29.5264 71.7641ZM19.2354 71.4677L19.4531 71.6635C19.4782 71.6853 19.4251 71.5371 19.4072 71.5239L19.5381 71.4882C19.5702 71.4791 19.5392 71.32 19.5078 71.3335L19.2354 71.4677ZM28.4766 71.0122L28.6045 71.248C28.627 71.2886 28.717 71.2054 28.708 71.1615C28.6955 71.1026 28.7107 71.0105 28.6719 71.0122H28.4766ZM17.0088 70.8921C17.0311 70.7861 16.9754 70.732 16.9395 70.7914L16.8838 70.9624C16.8734 70.9973 16.9928 71.064 17.0244 71.0544L17.3213 70.9624L17.0088 70.8921ZM18.7441 70.8207C18.7159 70.855 18.7802 70.9431 18.8115 70.8748C18.914 70.8359 18.9813 70.7947 18.9697 70.7492C18.9593 70.7087 18.9359 70.6177 18.9326 70.6053L18.7441 70.8207ZM29.5205 70.6584C29.4591 70.4579 29.3091 70.4752 29.2139 70.5512C29.303 70.6639 29.4276 70.7014 29.5205 70.6584ZM17.5586 70.1639C17.5226 70.2651 17.5399 70.3826 17.5908 70.4863L17.6465 70.5999L17.6475 70.5989C17.6566 70.6171 17.701 70.558 17.7002 70.5361L17.6924 70.4149L17.6787 70.2169C17.6764 70.1822 17.6347 70.1771 17.5586 70.1639ZM17.7441 66.06C17.8646 66.1453 17.8892 66.1697 17.9639 66.2656C18.0357 66.1703 18.0579 66.1248 18.0684 66.0221L17.7441 66.06ZM19.7598 66.0557C19.7395 66.0781 19.6994 66.175 19.7256 66.1866C19.752 66.1983 19.8248 66.2315 19.833 66.2017L19.8691 66.0654C19.8777 66.0358 19.9519 66.0132 19.9746 66.0319C19.9918 66.0459 20.0465 66.1108 20.0625 66.0957C20.1057 66.0529 20.0615 65.9374 20.0156 65.8696L19.9717 65.822L19.7598 66.0557ZM28.6309 65.5407C28.6106 65.544 28.5732 65.5449 28.5732 65.5623L28.5723 65.6802C28.571 65.7788 28.7725 65.9121 28.8857 65.8176L28.6113 65.6694C28.6322 65.6117 28.6533 65.5384 28.6309 65.5407ZM17.5068 65.3437L17.3447 65.4389C17.3118 65.458 17.3148 65.5681 17.3223 65.6261L17.5322 65.4411L17.6182 65.3643C17.6354 65.3483 17.5856 65.2976 17.5654 65.3091L17.5068 65.3437ZM18.4814 64.978L18.4355 65.1457C18.4229 65.1919 18.4155 65.2569 18.3896 65.2723L18.2861 65.3329C18.3194 65.3403 18.4226 65.3399 18.4609 65.3113C18.4992 65.2822 18.5011 65.2061 18.5371 65.0419C18.5394 65.0452 18.5498 65.0585 18.5879 65.1089C18.6001 65.1126 18.6123 65.1123 18.623 65.1079L18.6504 65.0841L18.6602 64.9412L18.4814 64.978ZM30.9824 64.6783C30.9204 64.8322 30.949 64.9698 31.0205 65.0808L30.8652 65.2658C30.9941 65.2882 31.0814 65.2222 31.0986 65.1533C31.1128 65.0961 31.0724 64.9805 31.0537 64.9174L30.9824 64.6783ZM30.9873 63.9523L30.9277 64.0973C30.9131 64.131 30.8114 64.1396 30.8086 64.1774L30.7988 64.3299C30.798 64.3568 30.854 64.35 30.8682 64.3278L30.918 64.2488L31.0283 64.1265C31.055 64.0963 31.003 63.9134 30.9873 63.9523ZM32.2256 63.8777C32.2706 63.9929 32.3859 64.1205 32.4922 64.1222C32.4652 63.9298 32.3642 63.8586 32.2256 63.8777ZM20.2266 62.2937L20.5791 62.2818L20.4141 61.9258L20.2266 62.2937ZM30.1582 61.6337C30.1368 61.6213 30.1184 61.7333 30.1357 61.7548C30.1537 61.7747 30.1945 61.8089 30.1992 61.8371L30.2188 61.9593C30.224 61.9899 30.3631 61.9199 30.3506 61.8858C30.3214 61.8128 30.2144 61.6702 30.1582 61.6337ZM33.4893 61.1468L33.9043 60.8254L33.5996 60.7886L33.4893 61.1468ZM17.6787 60.4684C17.6903 60.4363 17.5839 60.4667 17.5547 60.4825C17.5667 60.4758 17.4976 60.7192 17.4697 60.6805L17.5303 60.7659C17.5484 60.7924 17.6067 60.8043 17.6074 60.7778C17.6089 60.7298 17.6134 60.6423 17.623 60.6155L17.6787 60.4684ZM15.0381 60.3072C15.0366 60.2807 14.98 60.3444 14.9678 60.3678L14.9316 60.437C14.9003 60.5056 14.8545 60.6007 14.8408 60.6556C14.8281 60.7103 14.9858 60.8242 14.96 60.7757L15.0352 60.4424C15.0426 60.4118 15.0396 60.3348 15.0381 60.3072ZM32.8223 60.2217C32.8298 60.1993 32.7508 60.2021 32.7051 60.2477C32.6392 60.3139 32.69 60.5241 32.8193 60.556L32.7822 60.3396C32.7782 60.3162 32.8145 60.2437 32.8223 60.2217ZM16.0859 59.8993C16.0238 60.0145 16.0106 60.0539 15.9717 60.0572C15.9372 60.0606 15.8377 60.0579 15.8242 60.0886C15.7984 60.1502 15.937 60.2407 16.0059 60.2152L16.0312 60.1968C16.1044 60.0916 16.1293 59.9755 16.0859 59.8993ZM28.5986 59.724C28.5949 59.7074 28.5614 59.7496 28.5576 59.7662L28.5381 59.8527C28.5157 59.9538 28.516 60.0649 28.5459 60.1395C28.5813 60.2246 28.7232 60.2438 28.7705 60.186C28.5713 60.0476 28.6538 59.9352 28.5986 59.724ZM16.7002 59.6569C16.6838 59.6454 16.6493 59.6505 16.6416 59.671L16.6113 59.7521C16.5814 59.8333 16.5663 59.8969 16.5752 59.9912C16.6438 59.9228 16.7001 59.8636 16.7354 59.8138L16.7637 59.7673C16.7727 59.7474 16.7167 59.6685 16.7002 59.6569ZM13.8096 59.5119L13.7705 59.645C13.763 59.6686 13.7381 59.6117 13.668 59.5736C13.6313 59.5537 13.6481 59.7044 13.6787 59.7337L13.8154 59.8625C13.8619 59.9051 13.9453 59.742 13.9424 59.6731C13.9394 59.606 13.8292 59.446 13.8096 59.5119ZM16.0557 59.2252C16.0077 59.3985 16.0555 59.5719 16.1836 59.6483C16.2023 59.4526 16.1365 59.3421 16.0557 59.2252ZM19.1846 59.6407C19.2945 59.6381 19.4178 59.5297 19.4756 59.4394L19.3809 59.3183L19.1846 59.6407ZM28.1533 59.3724L28.041 59.3118L28.123 59.5639C28.2638 59.5306 28.2879 59.2971 28.2197 59.249L28.1533 59.3724ZM12.7061 59.3031C12.6696 59.3029 12.6546 59.4727 12.6895 59.4654L12.8447 59.4286C12.8864 59.4195 12.9694 59.338 12.9727 59.3085L12.7061 59.3031ZM22.9014 58.9709C22.8886 58.9552 22.8563 59.0051 22.8623 59.025L22.8916 59.1213C22.9014 59.1538 22.9488 59.2503 22.9697 59.2263L23.0508 59.1332L23.2051 59.3431C23.2461 59.2716 23.2297 59.1089 23.1758 59.0964L22.9902 59.0521C22.9671 59.0463 22.9187 58.991 22.9014 58.9709ZM15.0547 58.9039L15.1846 59.077L15.1348 59.2014C15.1722 59.2404 15.2713 59.1601 15.2803 59.1062L15.2793 59.1073C15.2898 59.0442 15.2939 58.9028 15.2422 58.9028L15.0547 58.9039ZM33.0801 58.7307C33.0232 58.696 32.9503 58.7785 32.9717 58.8184L33.041 58.9439C33.0585 58.9761 32.9242 58.97 32.9062 59.0023C32.8916 59.028 32.9341 59.0657 32.9521 59.0889C32.9715 59.1128 33.0354 59.1597 33.0479 59.1332L33.1162 58.9753C33.1394 58.9206 33.1278 58.7602 33.0801 58.7307ZM13.8975 58.563C13.8712 58.5523 13.8588 58.666 13.8828 58.681L13.9697 58.7351C13.9893 58.7475 14.0299 58.7881 14.0566 58.7967L14.0781 58.7924L14.1592 58.668L13.8975 58.563ZM22.4922 58.2233C22.4674 58.2501 22.5574 58.351 22.5801 58.3261L22.6826 58.206L22.791 58.0783C22.8088 58.0564 22.7406 57.9662 22.7207 57.9853L22.4922 58.2233ZM23.8154 58.0556C23.778 58.0622 23.6617 58.0793 23.6895 58.1075L23.7568 58.1757C23.7687 58.1882 23.776 58.2432 23.7842 58.2763C23.7962 58.3236 23.9 58.2325 23.9082 58.1844C23.9192 58.1157 23.8737 58.045 23.8154 58.0556ZM16.3848 58.2882C16.5723 58.2682 16.5883 58.1588 16.6758 57.9625C16.7282 58.0015 16.6299 57.8894 16.6201 57.9052L16.3848 58.2882ZM16.2295 57.8251C16.2101 57.8243 16.1847 57.886 16.166 57.8922L16.0508 57.9258C16.0218 57.9346 16.0263 58.0706 16.0547 58.0675C16.212 58.0501 16.3897 57.8309 16.3193 57.8284L16.2295 57.8251ZM23.334 57.704C23.3161 57.8108 23.3361 57.8824 23.3721 57.9777C23.4081 58.0746 23.5104 58.0893 23.6152 58.0437L23.334 57.704ZM17.1611 57.718L16.9961 57.7645L17.2324 58.0026L17.2275 57.4356L17.1777 57.4162L17.1611 57.718ZM28.1201 57.6975C27.95 57.5714 27.7794 57.6991 27.667 57.7754L27.7324 57.8965C27.7595 57.9467 27.8505 57.6975 28.1201 57.6975ZM19.918 57.5005C19.9914 57.6133 20.0711 57.7024 20.2188 57.7505C20.2113 57.5978 20.0746 57.4533 19.918 57.5005ZM33.8926 57.5947C33.9049 57.5269 33.805 57.4411 33.751 57.4941C33.7098 57.5347 33.7232 57.6761 33.7412 57.7483C33.8548 57.6953 33.8813 57.656 33.8926 57.5947ZM13.1885 57.5103C13.1466 57.5258 13.1041 57.641 13.1221 57.6931C13.1434 57.7559 13.3117 57.7321 13.3281 57.6791L13.2129 57.6304C13.192 57.622 13.2415 57.579 13.2617 57.5665L13.3643 57.5016C13.3312 57.495 13.2312 57.4954 13.1885 57.5103ZM24.0664 57.1478C24.05 57.1238 23.9719 57.2044 23.9834 57.2311L24.0312 57.3372L24.1572 57.6563C24.2267 57.5894 24.3086 57.4869 24.2773 57.4443L24.1611 57.2917L24.0664 57.1478ZM29.5117 57.3556C29.5282 57.267 29.3189 57.1631 29.2646 57.2528L29.2471 57.4627L29.2383 57.5709C29.2368 57.5858 29.2865 57.5668 29.2939 57.5536L29.334 57.48L29.3965 57.3664C29.4094 57.3448 29.5065 57.3811 29.5117 57.3556ZM29.7168 57.0678C29.6891 57.0669 29.5946 57.0871 29.6113 57.1078C29.6285 57.1285 29.6712 57.1899 29.6729 57.2182L29.6797 57.3729C29.6816 57.4001 29.736 57.4216 29.8203 57.467L29.8193 57.4659C29.8439 57.3698 29.8168 57.2663 29.748 57.1868C29.7495 57.1257 29.7486 57.0691 29.7168 57.0678ZM14.6494 57.2441C14.6263 57.2602 14.6112 57.352 14.6299 57.3794C14.6606 57.4242 14.791 57.3532 14.8135 57.2993C14.8314 57.2552 14.8256 57.1308 14.8076 57.1424L14.6494 57.2441ZM37.0186 57.1792L37.2236 57.3231L37.3193 57.0753C37.2982 57.072 37.1992 57.0663 37.1865 57.0299L37.1328 56.8784L37.0186 57.1792ZM30.8105 57.0786L30.9199 56.9931C30.9397 56.9779 31.021 57.058 31.0225 57.0299C31.0276 56.9172 30.9052 56.7913 30.8086 56.7356L30.8105 57.0786ZM19.4678 56.8546L19.5293 56.9444L19.5029 57.0721C19.7171 57.0472 19.7508 56.8511 19.7568 56.7259L19.4678 56.8546ZM12.04 56.6404C11.9219 56.7714 12.0075 57.0009 12.0928 57.0526L12.1865 57.0039L12.2695 57.0483C12.297 57.0624 12.2763 56.9076 12.2441 56.9076H12.083L12.04 56.6404ZM29.8584 56.4954L29.8076 56.6404C29.7968 56.6702 29.7315 56.7238 29.709 56.7453C29.6866 56.7668 29.7393 56.8262 29.7471 56.8579C29.753 56.881 29.6982 56.9101 29.6904 56.9325C29.683 56.9548 29.7243 56.9834 29.7461 56.9877C29.9012 57.0209 29.7344 56.7262 29.915 56.6631C29.9517 56.6495 29.9873 56.56 29.9746 56.5203C29.9635 56.4891 29.8703 56.4647 29.8584 56.4954ZM11.6084 56.5246C11.588 56.4815 11.4427 56.4762 11.4727 56.5127L11.5332 56.5874C11.5459 56.6049 11.5541 56.6536 11.5332 56.6544L11.4053 56.6609C11.37 56.6634 11.3877 56.7741 11.4102 56.8048C11.4327 56.8355 11.5314 56.8082 11.5674 56.7659C11.6248 56.6978 11.6361 56.5826 11.6084 56.5246ZM23.8682 56.2033C23.8397 56.112 23.7709 56.0352 23.6885 56.0767H23.6904C23.7384 56.1945 23.7604 56.2769 23.7627 56.4088C23.4847 56.4619 23.2874 56.222 23.2529 56.358L23.2246 56.4694L22.9609 56.5625C22.9124 56.5039 22.8576 56.4983 22.8574 56.5419L22.8662 56.7356C22.8672 56.7603 22.9497 56.74 22.9648 56.7226L23.0264 56.649C23.1454 56.6796 23.2556 56.6352 23.3096 56.4878L23.8135 56.4835C23.8584 56.3385 23.8882 56.2663 23.8682 56.2033ZM27.0664 56.345L27.0566 56.4424C27.0551 56.4623 27.0963 56.487 27.1113 56.477L27.2031 56.4197C27.2332 56.4005 27.2877 56.3543 27.2832 56.3212C27.2781 56.2854 27.2644 56.1871 27.2637 56.1816L27.0664 56.345ZM11.7666 55.9815C11.629 56.0535 11.6361 56.2123 11.584 56.2336L11.3877 56.3104C11.4206 56.3198 11.4634 56.3256 11.5049 56.3266L11.6143 56.3169C11.5783 56.3276 11.8523 56.083 11.8535 56.0561C11.8543 56.0238 11.7929 55.9675 11.7666 55.9815ZM35.5361 55.8181C35.3818 55.668 35.5146 56.0856 35.5791 56.0745L35.7646 56.041L35.5361 55.8181ZM27.1807 55.7932L27.084 55.8332C27.0623 55.8424 27.0615 55.906 27.084 55.9068L27.2451 55.9133C27.2788 55.9141 27.3525 55.8867 27.3555 55.8527C27.3584 55.8187 27.334 55.7282 27.3057 55.7402L27.1807 55.7932ZM34.4258 55.4242C34.4061 55.4094 34.3475 55.5122 34.3408 55.5379C34.3128 55.6517 34.4676 55.9008 34.5762 55.9025C34.6311 55.9018 34.6368 55.6546 34.5908 55.6872L34.5186 55.7413C34.5056 55.7508 34.4735 55.7398 34.4727 55.7218L34.4668 55.6125C34.4908 55.5867 34.5509 55.5275 34.5264 55.5076L34.4258 55.4242ZM17.4141 55.4783C17.3481 55.4073 17.2205 55.3961 17.1523 55.4416L17.3076 55.5314C17.3345 55.5471 17.3207 55.6868 17.3525 55.6958C17.417 55.7124 17.5317 55.5422 17.4141 55.4783ZM32.167 55.3182C32.1179 55.3789 32.1561 55.5235 32.2451 55.5649C32.3022 55.5913 32.4648 55.5609 32.4424 55.5303L32.167 55.3182ZM31.1768 55.2068C31.17 55.1454 30.9497 55.1423 30.9707 55.197L31.0664 55.4437C31.1904 55.3716 31.1857 55.2855 31.1768 55.2068ZM12.0352 54.9146C12.0209 54.8864 11.9219 54.9115 11.9189 54.9439C11.9137 55.0003 11.9046 55.1227 11.9424 55.1364L12.0771 55.183C12.1653 55.2136 12.2295 55.2373 12.293 55.2176L12.0938 55.0358C12.0721 55.0159 12.0494 54.9438 12.0352 54.9146ZM22.9463 54.9146L23.168 54.7805L22.8545 54.6474L22.9463 54.9146ZM21.5068 33.7146C19.9668 33.6996 18.4258 33.8568 16.8857 34.0078C16.8839 34.1792 15.7599 43.4116 15.7568 43.4934C15.4781 46.7792 16.3978 49.4001 18.0156 51.2002C19.4867 52.6785 21.5336 53.9094 23.7803 54.3682L23.7568 54.3845L23.6855 54.4505C23.6766 54.4595 23.7135 54.4735 23.7236 54.4819L23.7764 54.523L23.8545 54.5846C23.8665 54.5946 23.9055 54.585 23.9062 54.5684L23.9131 54.4429C23.9138 54.4305 23.9081 54.4109 23.9014 54.391C24.0865 54.4266 24.2736 54.457 24.4609 54.4819C26.9564 54.1184 29.2619 53.1361 30.8799 51.2349C32.1836 49.5311 33.04 47.2426 33.1914 45.1001C33.2259 45.0661 33.2743 45.0156 33.2998 45.033L33.4023 45.1044L33.4033 45.1034C33.4303 45.1224 33.441 44.9518 33.4082 44.953L33.2832 44.9584L33.2002 44.9659C33.2272 44.4948 33.2198 44.0311 33.1748 43.5832C33.1748 43.9706 32.9318 41.8757 32.6777 39.1331L32.7422 39.146C32.7497 39.0393 32.7529 38.9206 32.7715 38.855L32.8223 38.6808C32.8305 38.6471 32.6873 38.6258 32.6865 38.6613L32.6826 38.8236C32.6811 38.8872 32.6758 38.9344 32.6631 38.9816C32.6571 38.9202 32.6515 38.8577 32.6455 38.7955C32.384 36.7792 32.1232 34.0523 32.1172 34.0078C29.5781 34.2193 27.0393 34.1413 24.501 34.0078C23.571 33.8187 22.6418 33.735 21.7119 33.7167C21.7127 33.7155 21.7142 33.7139 21.7148 33.7135L21.541 33.3305L21.5068 33.7146ZM36.7676 53.9993C36.7288 53.9819 36.7124 54.1546 36.7549 54.1583L36.9121 54.1702C36.9308 54.1719 36.9534 54.2345 36.9609 54.2536C36.9684 54.2724 36.9981 54.2493 37.0117 54.2352C37.0206 54.2261 37.0321 54.1254 37.0215 54.1183L36.7676 53.9993ZM35.665 53.1802C35.6363 53.167 35.534 53.1563 35.5332 53.1911L35.5293 53.3469C35.527 53.4561 35.5209 53.5359 35.5732 53.6055L35.6006 53.2744L35.7178 53.3263C35.7416 53.3362 35.761 53.2236 35.7383 53.2127L35.665 53.1802ZM17.291 53.3155C17.2609 53.3205 17.1911 53.3418 17.1738 53.3674C17.1334 53.4288 17.3613 53.5847 17.3877 53.4572C17.4011 53.3925 17.327 53.3089 17.291 53.3155ZM31.4209 53.0104C31.4104 53.1 31.4158 53.2349 31.3701 53.2473L31.2549 53.2798C31.2311 53.2866 31.2357 53.3506 31.2402 53.3772C31.2447 53.4036 31.3244 53.4208 31.3516 53.4085C31.4715 53.3546 31.5416 53.1207 31.4209 53.0104ZM13.7207 53.3382L13.9971 53.3306L13.8184 53.0104L13.7207 53.3382ZM31.6377 53.0807C31.6143 53.0658 31.5394 53.1251 31.5596 53.1445L31.749 53.3112L31.9111 53.2138C31.8573 53.1327 31.8256 53.0709 31.8076 53.0904C31.7941 53.1054 31.753 53.1575 31.7373 53.1467L31.6377 53.0807ZM37.5674 52.4975L37.5283 52.5949C37.4893 52.6903 37.4616 52.7306 37.4961 52.86L37.707 52.5343C37.6302 52.5021 37.5782 52.4732 37.5674 52.4975ZM15.3857 52.0723C15.3236 52.1876 15.4603 52.4391 15.4941 52.4369C15.5376 52.4336 15.6546 52.3894 15.6719 52.3753C15.4928 52.2782 15.4809 52.2523 15.3857 52.0723ZM37.4033 52.1686C37.2842 52.1587 37.1854 52.1797 37.0723 52.2768L37.2803 52.4207L37.4033 52.1686ZM15.8125 51.949L15.8115 51.9479L15.8174 52.1664C15.8188 52.2017 15.9307 52.1825 15.9434 52.1502C15.9561 52.1177 15.9746 52.0298 16.0059 52.0236L16.1465 51.9966C16.1705 51.9916 16.184 51.941 16.1885 51.9079C16.192 51.8815 16.1526 51.8728 16.1279 51.8786L15.8125 51.949ZM30.7441 51.7282L30.7285 51.9652C30.727 51.9982 30.8335 52.024 30.8477 51.9955C30.9676 51.7358 31.0801 51.694 31.0059 51.514L30.7441 51.7282ZM17.0459 51.6752C17.031 51.671 17.0135 51.721 17.0225 51.7358L17.0635 51.8061C17.0888 51.849 17.1162 51.9357 17.1562 51.9295C17.189 51.9234 17.2854 51.9074 17.2949 51.9057L17.1289 51.7207C17.1177 51.7074 17.0616 51.6802 17.0459 51.6752ZM17.707 51.5584L17.9902 51.7142C17.985 51.7842 17.9823 51.8134 18 51.8235C18.0202 51.8351 18.0674 51.8415 18.0674 51.8191C18.0674 51.8034 18.0746 51.722 18.0693 51.7088L17.9678 51.4523L17.707 51.5584ZM36.7246 51.3885C36.744 51.3588 36.6204 51.3139 36.6094 51.3485L36.5674 51.4978C36.5576 51.5318 36.5609 51.6488 36.5908 51.6547L36.7119 51.6763L36.7383 51.7456C36.7442 51.7612 36.7944 51.7604 36.7959 51.7434C36.8079 51.5451 36.5941 51.5854 36.6436 51.5108L36.7246 51.3885ZM37.502 50.9362C37.454 51.1096 37.3736 51.2364 37.2402 51.3128L37.3018 51.4599L37.251 51.5724C37.2704 51.6146 37.357 51.5526 37.3701 51.5086C37.3836 51.4638 37.3817 51.332 37.4102 51.2955L37.6211 51.0239L37.8164 50.9936V50.9406L37.502 50.9362ZM14.3516 51.0509L14.2266 51.1342L14.3799 51.3279C14.4301 51.3909 14.5982 51.1712 14.5303 51.1213C14.4853 51.0889 14.386 51.0285 14.3516 51.0509ZM14.9414 51.1613C14.8538 51.0407 14.7795 51.1131 14.7158 51.1537L14.6094 51.2208C14.59 51.234 14.6349 51.3339 14.6553 51.3236L14.9414 51.1613ZM10.8779 50.8616C10.8839 50.9901 10.8591 51.0828 10.7783 51.1483C10.8042 51.1651 10.9066 51.2217 10.916 51.1851L10.9609 50.9903C10.9664 50.9669 11.0044 50.9082 11.0156 50.8876C11.0273 50.8668 10.9858 50.8401 10.9648 50.8443L10.8779 50.8616ZM12.5791 50.3715L12.8418 50.1442L12.6836 50.0209L12.5791 50.3715ZM36.4824 49.8846L36.6494 49.9711C36.6815 49.9878 36.6398 50.161 36.6709 50.1453L36.8164 50.0696L36.6221 49.771L36.4824 49.8846ZM13.5176 49.7796V49.7775C13.4908 49.8007 13.5216 49.8722 13.5508 49.8921C13.5739 49.9087 13.6521 49.9411 13.6816 49.9365L13.8525 49.9051C13.8826 49.898 13.8539 49.7535 13.8301 49.7775C13.7949 49.8122 13.6798 49.8884 13.667 49.8521L13.6152 49.6952C13.6061 49.7034 13.5495 49.7517 13.5176 49.7796ZM15.2344 49.8413L15.4463 49.7374L15.1152 49.5199L15.2344 49.8413ZM34.7646 49.1185C34.811 49.2145 34.8604 49.3091 34.9238 49.3425C34.9919 49.3781 35.0335 49.1396 34.9844 49.1207C34.9357 49.1033 34.856 49.1061 34.7646 49.1185ZM14.8213 49.0547L15.0332 49.1813C15.0534 49.1937 15.1355 49.1658 15.125 49.1434L15.0371 48.9487L14.8213 49.0547ZM16.1182 49.0049L16.4307 48.8989L16.1182 48.7745V49.0049ZM14.2168 48.7193C14.1889 48.6948 14.1158 48.7545 14.0791 48.7637L13.959 48.7939C13.9387 48.7989 13.986 48.8479 14.001 48.8686L14.0352 48.9151L14.3301 48.8188L14.2168 48.7193ZM15.4385 47.8645C15.4377 47.9251 15.451 48.0169 15.4893 48.0268C15.5203 48.0348 15.6073 48.0006 15.5947 47.9684L15.5371 47.8191L15.4902 47.699C15.4805 47.6749 15.4404 47.7363 15.4404 47.7628L15.4385 47.8645ZM34.0986 47.7531C34.1824 47.8547 34.2946 47.8912 34.4209 47.831L34.2705 47.7466C34.2436 47.7317 34.2443 47.6627 34.2324 47.5973L34.0986 47.7531ZM36.4199 47.3993C36.419 47.3827 36.3486 47.3773 36.3486 47.3939L36.3545 47.7141L36.6738 47.4653C36.5637 47.379 36.4976 47.4671 36.4512 47.4978C36.4318 47.5105 36.4199 47.4241 36.4199 47.3993ZM11.9375 47.1851C11.918 47.2604 11.9053 47.4036 11.9463 47.4404C11.9874 47.4769 12.0838 47.4991 12.1475 47.5421L12.251 47.6124C12.2771 47.6291 12.2997 47.536 12.293 47.5021C12.2731 47.4012 11.9777 47.495 12.0703 47.3874L12.1572 47.2857L11.9375 47.1851ZM36.4746 46.8789L36.2246 47.0693C36.2067 47.0825 36.1953 47.1866 36.2168 47.184C36.2309 47.1823 36.2576 47.177 36.2705 47.1688L36.2715 47.1699L36.3398 47.1234L36.4785 47.0249C36.5091 47.0031 36.4806 46.8515 36.4746 46.8789ZM13.4834 45.9321C13.4154 46.0058 13.4063 46.0366 13.375 46.0393L13.1836 46.0544L13.4746 46.2784L13.4834 45.9321ZM14.5781 45.376C14.6987 45.3901 14.7968 45.1982 14.7461 45.1358C14.7274 45.1126 14.6688 45.1877 14.6426 45.1769L14.4736 45.1066L14.5781 45.376ZM35.3467 44.624C35.3038 44.6241 35.1876 44.634 35.1592 44.663C35.13 44.6937 35.1925 44.8395 35.2285 44.8264L35.3574 44.7766C35.3934 44.7625 35.3842 44.624 35.3467 44.624ZM15.3467 44.386L15.6221 44.1675C15.6723 44.1268 15.5524 43.9644 15.5576 43.8483L15.3467 44.386ZM15.042 43.3019C15.0143 43.2936 14.9687 43.406 14.9932 43.422C15.0179 43.4377 15.0868 43.4742 15.1152 43.4717L15.2578 43.4577C15.2916 43.4529 15.2923 43.2959 15.2607 43.3073C15.2158 43.3255 15.1682 43.3445 15.1494 43.3387L15.042 43.3019ZM35.001 42.7598C34.9726 42.7722 34.9384 42.8496 34.959 42.8756C34.9799 42.9013 35.0444 42.9921 35.0625 42.9643L35.1426 42.8388C35.1591 42.8123 35.1359 42.6998 35.1074 42.7122L35.001 42.7598ZM14.4629 42.3952L14.1299 42.5705C14.2363 42.6584 14.3174 42.6438 14.3818 42.6073C14.4283 42.5807 14.4571 42.5028 14.4639 42.3941L14.4629 42.3952ZM34 42.3119C33.9886 42.2859 33.8865 42.3011 33.8828 42.3292C33.8792 42.3532 33.8873 42.3908 33.9004 42.4287L33.9473 42.5304C33.972 42.5711 34.0951 42.5419 34.0771 42.498L34 42.3119ZM33.7217 41.7233C33.6439 41.7208 33.5702 41.7187 33.5732 41.746C33.5763 41.7735 33.5884 41.838 33.5996 41.8661L33.709 42.1377L33.7217 41.7233ZM13.71 41.3857C13.5481 41.4255 13.4229 41.6508 13.5391 41.8358C13.5788 41.6558 13.6118 41.5699 13.71 41.3857ZM34.0957 41.0925C34.0831 41.13 34.2207 41.1441 34.2471 41.1174C34.2725 41.09 34.3218 41.0286 34.3047 40.9962L34.2031 40.7993L34.0957 41.0925ZM15.3506 40.228C15.3206 40.2214 15.2458 40.2054 15.2354 40.2377L15.1885 40.3795C15.166 40.45 15.1262 40.6212 15.1846 40.6089C15.2805 40.5889 15.2966 40.3956 15.2988 40.3027L15.4414 40.3881C15.4368 40.3006 15.4013 40.2398 15.3506 40.228ZM13.0498 39.5518L13.2217 39.5734C13.2592 39.5776 13.2792 39.4386 13.25 39.4079L13.1484 39.3018L13.0498 39.5518ZM12.8828 37.984L13.0312 38.287C13.1566 38.1892 13.1136 38.0992 13.0635 38.0478C13.0313 38.0138 12.966 37.9956 12.8828 37.984ZM14.8604 38.2404C14.9509 38.1957 15.0243 38.0466 14.9707 38.0165L14.751 37.8964L14.8604 38.2404ZM15.0889 37.4246C15.0687 37.5697 15.0909 37.7436 15.1455 37.9234C15.2879 37.8322 15.206 37.7144 15.1641 37.6107L15.0889 37.4246ZM35.1846 37.0773C35.1558 37.0516 35.0655 37.0933 35.0684 37.1336L35.0859 37.3348L35.3105 37.1931L35.1846 37.0773ZM33.9248 36.2182C33.9574 36.1849 33.9269 36.061 33.8896 36.07C33.793 36.0965 33.7245 36.1344 33.7305 36.2464C33.7327 36.277 33.7894 36.3541 33.8105 36.334L33.9248 36.2182ZM32.7939 35.8125C32.7812 35.8406 32.6678 35.8515 32.668 35.8828C32.6717 35.9747 32.7424 36.1668 32.7852 36.241L32.8457 35.9488C32.8704 35.8279 32.9118 35.7555 32.873 35.6405L32.7939 35.8125ZM15.7031 35.845C15.7961 35.9063 15.7996 35.9081 15.8184 35.9164C15.8375 35.9248 15.8945 35.9467 15.8789 35.9607C15.8614 35.9763 15.7876 36.0306 15.8047 36.043L16.0039 36.1869C16.0398 36.0162 16.0263 35.9504 15.9561 35.885C15.8669 35.8452 15.7938 35.8292 15.7031 35.845ZM12.6201 35.6664C12.5969 35.6433 12.5005 35.6987 12.5127 35.7303L12.5703 35.8753C12.5861 35.9151 12.5987 36.0104 12.6055 36.0527C12.6114 36.0864 12.7301 36.0933 12.7383 36.0603C12.7703 35.9333 12.6913 35.7369 12.6201 35.6664ZM35.3408 35.6751C35.3192 35.6537 35.2263 35.6908 35.2207 35.7075C35.3099 35.7789 35.3743 35.8806 35.3945 35.9694C35.4036 36.0117 35.5356 35.9849 35.5273 35.9434C35.519 35.9027 35.4819 35.8213 35.4482 35.7865L35.3408 35.6751ZM34.5293 35.7476L34.9268 35.74C34.8458 35.6679 34.7911 35.6682 34.7852 35.6351L34.7539 35.4695L34.5293 35.7476ZM37.167 35.6599L37.3887 35.6762L37.3984 35.5041L37.1777 35.4868L37.167 35.6599ZM34.8555 35.3234C34.8945 35.5008 34.9972 35.6319 35.1709 35.5647C35.087 35.447 34.9902 35.3567 34.8555 35.3234ZM13.0078 34.5563C12.9673 34.5202 12.7846 34.5128 12.8223 34.5466L13.0508 34.7543C13.0733 34.775 13.1451 34.6837 13.1211 34.6613L13.0078 34.5563ZM10.79 33.8974C10.8726 33.6738 10.5028 34.1766 10.6729 34.2426C10.7349 34.2666 10.8512 34.2498 10.8613 34.2101L10.8604 34.209C10.8678 34.1775 10.8725 34.1133 10.8447 34.1008C10.8177 34.0884 10.7233 34.0803 10.7344 34.0489L10.79 33.8974ZM33.5166 33.8552C33.4358 33.9066 33.2641 34.0319 33.2637 34.129C33.2637 34.1712 33.3763 34.1956 33.3975 34.1592C33.4139 34.1302 33.4399 34.0523 33.4639 34.0316L33.5781 33.9331C33.6009 33.913 33.5428 33.8388 33.5166 33.8552ZM32.084 33.8758L32.2725 34.0943C32.3571 33.9375 32.2534 33.7927 32.1553 33.7578L32.084 33.8758ZM48.0527 34.0045C48.24 34.0319 48.3392 33.9926 48.4336 33.8509L48.0352 33.8368L48.0527 34.0045ZM24.5654 33.4884C24.5011 33.5961 24.5091 33.6503 24.4756 33.6637L24.3369 33.7167L24.583 33.8444L24.5654 33.4884ZM38.3721 33.6951C38.3563 33.7424 38.5053 33.7678 38.5518 33.7719C38.5976 33.7756 38.7068 33.6891 38.6738 33.641C38.6244 33.5705 38.5366 33.488 38.4639 33.4192L38.3721 33.6951ZM27.8506 33.3413C27.7833 33.3455 27.715 33.5938 27.7793 33.588C27.8804 33.5779 28.0146 33.5058 28.1045 33.4635C28.0186 33.4051 27.9525 33.3648 27.8994 33.3489L27.8506 33.3413ZM47.1367 33.2818L46.8965 33.4819C47.0073 33.5225 47.0411 33.4932 47.1338 33.4419L47.2188 33.3445C47.2359 33.3247 47.1579 33.2647 47.1367 33.2818ZM23.2607 33.0513C23.2525 33.0646 23.2541 33.0791 23.2676 33.0816L23.3818 33.1L23.2871 33.3456L23.415 33.2666C23.4368 33.2534 23.5223 33.3457 23.5186 33.3175L23.4824 33.0416L23.3301 32.9345L23.2607 33.0513ZM20.1279 32.8501C20.1122 32.8245 20.0797 32.9491 20.0977 32.9723L20.1592 33.0524C20.1794 33.0781 20.0511 33.1193 20.0361 33.0903L19.9619 32.9485C19.9507 32.9808 19.9348 33.0596 19.9072 33.0708L19.7969 33.1141L19.8975 33.3413L20.0459 33.1736C20.0746 33.1418 20.1659 33.2175 20.1973 33.2547L20.3027 33.1292L20.1279 32.8501ZM36.1729 33.2926C36.1843 33.3329 36.3483 33.3524 36.3291 33.3164L36.2764 33.2223C36.2629 33.199 36.3604 33.1163 36.335 33.113L36.1162 33.0849L36.1729 33.2926ZM29.8672 32.9864C29.763 33.1158 29.849 33.2619 29.9531 33.2926C30.0213 33.3125 30.1364 33.2685 30.2061 33.2179C29.9941 33.1699 29.948 33.1487 29.8672 32.9864ZM8.28125 32.8144C8.19881 32.8534 8.11253 32.9294 8.08105 33.0124C8.05888 33.0712 8.09777 33.2129 8.12988 33.2688C8.21808 33.1357 8.27711 33.0886 8.3877 33.0654L8.28125 32.8144ZM43.7656 33.1866L43.9785 33.1011C44.0167 33.0853 44.0995 33.1587 44.1348 33.1346L44.2686 33.0427C44.0852 33.012 44.0072 33.0073 43.8672 32.9518L43.7656 33.1866ZM31.4062 32.8814L31.251 32.9875C31.2157 33.0127 31.272 33.1108 31.3057 33.139C31.3446 33.1712 31.4633 33.1934 31.4668 33.1465L31.4795 32.9442C31.482 32.9263 31.5475 32.8615 31.5342 32.8587C31.5184 32.8571 31.4803 32.8364 31.4668 32.8447L31.4062 32.8814ZM44.9287 32.678C44.883 32.6789 44.8322 32.8198 44.8457 32.8695C44.857 32.9118 44.8937 32.9635 44.9326 33.0264L45.0137 32.823L45.0459 32.7127C45.0534 32.6878 44.9641 32.6781 44.9287 32.678ZM9.00977 32.678L8.95312 32.81L8.83105 32.8988L9.12598 33.0253L9.14355 32.9442L8.97363 32.9085L9.0752 32.7819C9.09445 32.7569 9.02174 32.6499 9.00977 32.678ZM40.457 32.8403C40.3409 32.8395 40.2399 32.8823 40.1357 32.9669C40.2609 33.049 40.412 33.0543 40.457 32.8403ZM23.7666 32.6012C23.7464 32.6004 23.7548 32.7235 23.7578 32.7451C23.7605 32.7652 23.7984 32.7589 23.8135 32.7451L23.8662 32.6953L24.0195 32.7732C24.0516 32.7881 24.0751 32.6167 24.041 32.6142L23.7666 32.6012ZM27.5449 32.4259C27.4792 32.4411 27.492 32.5988 27.5361 32.6229C27.6051 32.661 27.6748 32.6816 27.7168 32.6791C27.6628 32.524 27.6034 32.4127 27.5449 32.4259ZM21.2617 32.3437C21.1531 32.4908 20.981 32.4048 20.9883 32.4692L21.002 32.5828C21.0057 32.6118 21.0952 32.5602 21.1201 32.5525L21.3447 32.4844C21.3619 32.479 21.3467 32.4457 21.3242 32.413L21.2617 32.3437ZM41.0684 32.1479C40.9545 32.1976 40.8485 32.295 40.7549 32.3946L40.9814 32.4941L40.9961 32.2896C40.9976 32.2648 41.0729 32.2642 41.0918 32.2485C41.1705 32.1821 41.2192 31.9828 41.0693 31.9131L41.0684 32.1479ZM47.3262 32.242C47.3067 32.2752 47.2154 32.2798 47.1494 32.2972L47.4482 32.4541L47.4287 32.0678L47.3262 32.242ZM38.5977 31.8168C38.4318 31.9345 38.5702 32.0482 38.5859 32.1327L38.6328 32.3859C38.7107 32.4232 38.7525 32.3775 38.7354 32.3145L38.5977 31.8168ZM35.9072 32.0126C35.8698 32.1726 36.0278 32.3669 36.126 32.3524C36.1522 32.3482 36.2039 32.2997 36.2002 32.2723C36.1962 32.2437 36.1568 32.1552 36.1299 32.1403L35.9072 32.0126ZM12.6914 32.017C12.6689 32.0186 12.6082 32.0333 12.5947 32.0516L12.4404 32.2604C12.4127 32.2977 12.555 32.3624 12.5693 32.321C12.5806 32.2887 12.5986 32.2103 12.624 32.1803L12.6992 32.0905C12.7142 32.0731 12.713 32.0156 12.6914 32.017ZM27.6963 31.7724C27.6064 31.7484 27.5096 31.8445 27.502 31.9142C27.4952 31.9729 27.5741 32.0542 27.6221 32.0916L27.6963 31.7724ZM36.166 32.0007C36.3316 31.7767 36.4489 31.6208 36.29 31.7129L36.0615 31.846C36.0196 31.7689 35.9706 31.6735 35.9316 31.6891L35.7832 31.7497C35.7345 31.7688 35.6363 31.8761 35.6768 31.9109C35.7486 31.9721 35.8914 31.85 35.9463 31.767L36.002 32.004C36.0111 32.0445 36.1419 32.033 36.166 32.0007ZM22.6475 31.886C22.7105 31.82 22.7552 31.7635 22.7734 31.7172L22.7822 31.6751C22.7811 31.6228 22.7024 31.5443 22.6396 31.5128L22.6475 31.886ZM13.7539 31.1546C13.6858 31.2723 13.7054 31.3932 13.7803 31.4803C13.7301 31.4969 13.6369 31.5402 13.6406 31.5982L13.6592 31.872L13.7129 31.714C13.7219 31.6884 13.7525 31.6711 13.7676 31.6924C13.7788 31.7089 13.8378 31.7835 13.8428 31.7638C13.8563 31.7041 13.8543 31.5392 13.9082 31.5257L13.9912 31.5063C14.0064 31.5013 14.0035 31.4414 13.9883 31.4403L13.9004 31.4435L13.7539 31.1546ZM18.5186 31.5117C18.372 31.4889 18.3121 31.7237 18.4004 31.8687L18.5186 31.5117ZM34.5439 31.569C34.5827 31.5244 34.3273 31.4891 34.3311 31.5528L34.3457 31.7887L34.5439 31.569ZM46.6299 31.4468C46.5789 31.4468 46.4847 31.4711 46.4375 31.4976L46.3213 31.5625C46.297 31.5766 46.3206 31.6997 46.3438 31.6848L46.4326 31.6264C46.4451 31.6183 46.48 31.629 46.501 31.6274L46.5156 31.621L46.6299 31.4468ZM14.3779 31.1687C14.3712 31.1936 14.2779 31.1793 14.2637 31.2001C14.2382 31.2382 14.2493 31.3614 14.2598 31.3689L14.3877 31.2607C14.4147 31.2383 14.4859 31.3175 14.4717 31.3515L14.4102 31.4933C14.4004 31.5156 14.5036 31.5867 14.5303 31.6036C14.5699 31.3914 14.5225 31.1885 14.4229 31.0053L14.3779 31.1687ZM35.9424 31.1027C35.9117 31.0812 35.8956 31.2242 35.9209 31.252L36.0146 31.3515C36.0394 31.3781 36.0851 31.4169 36.1113 31.4327C36.1368 31.4488 36.2089 31.3947 36.2031 31.3624C36.1979 31.3383 36.1675 31.2637 36.1465 31.2488L35.9424 31.1027ZM43.6641 31.1103C43.6241 31.0846 43.475 31.0868 43.4922 31.1341C43.5022 31.1598 43.5343 31.2013 43.5254 31.226C43.5182 31.2446 43.4659 31.3026 43.4756 31.3191C43.5017 31.3616 43.6352 31.3345 43.6621 31.2931C43.6898 31.2524 43.7038 31.136 43.6641 31.1103ZM26.9199 31.0205C26.8907 31.2104 26.9954 31.3548 27.167 31.3191C27.0868 31.1706 27.0188 31.1076 26.9199 31.0205ZM34.9824 30.8657C35.0064 30.9022 35.0474 30.9532 35.0361 30.9848L34.9863 31.1265C34.9799 31.1466 35.0017 31.2207 35.0078 31.2412C35.0138 31.2611 35.0553 31.2466 35.0703 31.2325L35.1104 31.1947C35.1816 31.2698 35.3136 31.2858 35.3906 31.2195C35.2437 31.1714 35.1492 31.1365 35.0713 31.0875C35.1302 30.9818 35.151 30.9421 35.1436 30.895C35.1376 30.856 35.0079 30.8533 34.9824 30.8657ZM17.2988 30.9328L17.0615 31.0735C17.072 31.192 17.2405 31.2237 17.2871 31.16C17.3223 31.1119 17.3086 30.9984 17.2988 30.9328ZM20.5723 30.9382C20.5406 30.9083 20.4566 30.9783 20.417 30.9923C20.4069 30.9957 20.3917 30.9869 20.377 30.9761L20.3389 30.9458C20.3217 30.9337 20.3064 30.9746 20.3086 30.9977L20.3174 31.08L20.6182 31.1557C20.6247 31.1281 20.6088 30.9737 20.5723 30.9382ZM28.6064 30.8711L28.291 30.9967L28.7178 31.0313L28.6064 30.8711ZM2.9502 30.5963C2.93446 30.5756 2.83349 30.6718 2.84473 30.6959L2.9668 30.9534C3.01457 30.8514 3.0189 30.6842 2.9502 30.5963ZM33.1982 30.5325C33.1542 30.516 33.0736 30.5783 33.0293 30.605C33.0061 30.6191 32.9531 30.5613 32.9336 30.5422L32.9346 30.5401C32.9152 30.5216 32.8986 30.6209 32.9014 30.6504C32.9036 30.6794 32.9441 30.6691 32.998 30.684L33.2637 30.7565C33.2801 30.6926 33.2424 30.5501 33.1982 30.5325ZM5.04492 30.3486C5.0022 30.4763 4.99183 30.6298 5.09375 30.7327C5.24168 30.6066 5.18491 30.4041 5.04492 30.3486ZM5.30273 30.3583C5.25412 30.4063 5.24083 30.5145 5.25195 30.684L5.49707 30.6645L5.3418 30.5574C5.3151 30.5382 5.32286 30.4913 5.30273 30.3583ZM29.3975 30.1852C29.3773 30.2125 29.3863 30.3734 29.4199 30.4416C29.4454 30.493 29.5545 30.5463 29.5957 30.5098L29.5166 30.4005C29.5157 30.3983 29.5764 30.3366 29.5859 30.3269L29.3975 30.1852ZM24.4219 30.1203C24.3796 30.0911 24.2664 30.1274 24.2334 30.1744C24.1862 30.2416 24.2253 30.3428 24.292 30.3594C24.3339 30.3693 24.4364 30.3719 24.4189 30.3291L24.3721 30.2166C24.3646 30.1983 24.4376 30.131 24.4219 30.1203ZM36.9023 30.0207C36.8904 29.9925 36.7896 30.0622 36.8105 30.0846L36.875 30.1527C36.8877 30.166 36.8396 30.2185 36.8291 30.2036L36.7715 30.1224C36.7572 30.1026 36.718 30.1368 36.7061 30.1592C36.6455 30.2735 37.0036 30.3263 37.333 30.2285C37.2101 30.1745 37.0664 30.1842 36.9697 30.1809L36.9023 30.0207ZM6.96484 29.7686C6.94236 29.7778 6.89263 29.8122 6.89844 29.8379C6.90443 29.8636 6.93584 29.9312 6.93359 29.9569L6.91016 30.1906C6.99334 30.1134 7.09305 29.9679 7.08105 29.8833C7.07414 29.8352 6.99478 29.757 6.96484 29.7686ZM38.5391 29.6063C38.3456 29.6458 38.2168 29.8722 38.2227 29.9277L38.2334 29.9396H38.3262L38.5391 29.6063ZM8.23145 29.7113C8.19109 29.6881 8.10899 29.7834 8.11816 29.8325C8.12716 29.8814 8.24503 29.9545 8.30273 29.9255C8.34713 29.9026 8.28154 29.7397 8.23145 29.7113ZM18.5576 29.6009C18.5157 29.6093 18.453 29.6568 18.4297 29.7048C18.4086 29.748 18.3663 29.8315 18.3945 29.8357L18.4785 29.8498C18.5001 29.8529 18.5022 29.7864 18.5127 29.6896L18.6396 29.7827C18.7004 29.6865 18.6363 29.5868 18.5576 29.6009ZM33.7344 29.4516L33.7246 29.7989C33.8093 29.74 33.8844 29.6561 33.8701 29.6063C33.8557 29.5565 33.7785 29.4781 33.7344 29.4516ZM35.2275 29.6712C35.2262 29.7118 35.3311 29.7008 35.3535 29.6702L35.4307 29.5663L35.2334 29.4462L35.2275 29.6712Z" fill="var(--fill-0, #2E2720)"/>
<path fill-rule="evenodd" clip-rule="evenodd" d="M24.8857 1.00883C24.8863 0.923004 25.2034 1.47284 25.6152 2.22388C25.6131 2.22218 25.6116 2.219 25.6094 2.21739C25.5683 2.18924 25.4352 2.20547 25.4277 2.2585C25.4219 2.30412 25.4572 2.38143 25.4766 2.44352L25.5107 2.55713C25.5163 2.57276 25.553 2.54551 25.5596 2.52899L25.5957 2.42837C25.6151 2.37374 25.6388 2.28684 25.624 2.24119C26.3817 3.62393 27.453 5.67011 27.4707 5.69916C27.9031 6.79257 28.709 7.61299 29.5312 6.8006C29.5451 6.71922 33.8969 6.29333 34.3965 6.14601C34.124 6.72272 32.7581 11.5409 32.7568 11.2886C32.4747 12.1614 32.6745 13.0436 33.2666 13.7631C33.2711 13.9475 36.8105 17.2053 36.8105 17.6062C36.8105 17.428 32.1152 19.2973 32.1152 19.3612C31.3304 20.0111 30.7722 20.7658 30.6885 21.3444C30.6885 21.3759 30.1886 26.5894 30.1885 26.8181C30.184 26.7676 26.038 23.7003 26.0293 23.8384C25.3328 23.3548 24.4377 23.5244 23.7412 23.8384C23.7412 23.8483 19.582 26.9864 19.582 26.8181C19.582 27.1131 19.0825 21.1211 19.082 21.3433C18.9983 20.1209 18.4411 19.9262 17.6562 19.3601C17.6071 19.3525 12.9668 17.324 12.9668 17.6051C12.9668 17.3797 16.5049 13.5249 16.5049 13.762C17.0964 13.2671 17.2952 12.329 17.0137 11.2886C17.0116 11.0271 15.3267 6.27698 15.3262 6.12221C15.3272 6.28128 18.5678 6.23855 19.7842 6.53444L19.5059 6.52903L19.625 6.78546L19.7061 6.60585C19.7225 6.57023 19.8236 6.64343 19.8535 6.66752C19.8692 6.67996 19.9062 6.6176 19.8965 6.59936C19.8926 6.59167 19.8805 6.57151 19.8682 6.55608C20.1001 6.62072 20.2393 6.70037 20.2393 6.8006C21.0376 7.0667 21.8211 6.93392 22.2617 5.80411C22.3378 5.85446 22.4276 5.87126 22.4932 5.83982C22.4544 5.72175 22.3907 5.68223 22.3252 5.68618C22.5881 5.37377 24.8857 1.17127 24.8857 1.00883ZM19.7793 25.6701C19.7464 25.6547 19.6566 25.6923 19.6582 25.7318L19.668 25.8811C19.6702 25.924 19.6796 25.9974 19.7031 26.0185C19.727 26.0392 19.8073 26.0246 19.8096 25.9915L19.8203 25.8346C19.8233 25.789 19.8122 25.685 19.7793 25.6701ZM22.3564 23.6815C22.3333 23.6815 22.2817 23.7073 22.2959 23.728C22.3104 23.7484 22.3609 23.831 22.3379 23.8351C22.2936 23.8433 22.1725 23.8383 22.1504 23.8784L22.0723 24.0255C22.0215 24.1224 21.9432 24.1839 21.835 24.2311C21.8985 24.2857 22.0198 24.2734 22.0967 24.203L22.1465 24.2766C22.1564 24.2904 22.2029 24.2753 22.2021 24.2571L22.1953 24.1197C22.1939 24.0906 22.2191 24.0259 22.2393 24.0374L22.3125 24.0807C22.3322 24.0921 22.3998 24.0929 22.4238 24.0905C22.438 24.0888 22.4364 24.0615 22.4297 24.0483L22.3984 23.9898L22.4375 23.7615C22.4416 23.7351 22.3798 23.6819 22.3564 23.6815ZM21.2334 23.7713L21.4678 23.6404L21.2422 23.4164L21.2334 23.7713ZM22.7441 23.0377C22.7278 23.0829 22.72 23.2736 22.749 23.3439C22.7729 23.4036 22.9024 23.4272 22.9375 23.4802C22.9502 23.4993 22.9665 23.5752 22.9717 23.5992C22.9747 23.615 22.9987 23.5693 23.0039 23.5527L23.0986 23.279L22.7441 23.0377ZM26.5029 22.8213C26.4107 22.9745 26.4619 23.1165 26.5693 23.2184L26.6904 23.0377C26.6136 23.0203 26.5536 23.0152 26.5439 22.9771L26.5029 22.8213ZM24.4805 22.2522C24.4599 22.2849 24.3098 22.2607 24.3086 22.2998L24.3008 22.7661L24.1562 22.7888C24.1391 22.7913 24.1676 22.8598 24.1855 22.8581L24.2754 22.8505L24.4268 22.8375C24.4532 22.8342 24.4573 22.7557 24.4395 22.7326L24.3691 22.6439L24.3945 22.3409L24.5928 22.4524L24.583 22.0888L24.4805 22.2522ZM24.2979 22.197C24.321 22.231 24.4688 22.1608 24.4561 22.1202C24.4193 22.0018 24.2598 21.9289 24.127 21.9471L24.2979 22.197ZM28.4453 22.1938L28.6777 22.0564C28.7151 22.0348 28.8002 21.9432 28.7734 21.9125L28.6572 21.7826L28.4453 22.1938ZM20.7402 20.6163C20.7104 20.608 20.6982 20.7524 20.7285 20.7612C20.759 20.7695 20.829 20.7809 20.8643 20.7785L21.0039 20.7677C21.0244 20.7655 21.0074 20.6814 20.9873 20.6779L20.8975 20.6617L20.7402 20.6163ZM27.416 20.4107C27.4558 20.3874 27.2672 20.3339 27.2451 20.3782L27.167 20.5405C27.1515 20.572 27.1793 20.6343 27.2002 20.6617C27.2211 20.6899 27.3452 20.6978 27.334 20.6639C27.3189 20.6198 27.2515 20.5061 27.2871 20.4853L27.415 20.4118L27.416 20.4107ZM26.3896 20.2159C26.3754 20.216 26.3259 20.235 26.3125 20.2408C26.3001 20.2463 26.3259 20.28 26.3379 20.2895C26.3498 20.2986 26.4058 20.3459 26.3916 20.3501L26.2627 20.3847L26.2637 20.3858C26.2422 20.3916 26.2535 20.4891 26.2734 20.4799L26.5254 20.3436C26.5478 20.3312 26.5371 20.2151 26.5117 20.2159H26.3896ZM20.1074 20.2159C20.1889 20.3979 20.3529 20.4152 20.5186 20.3241C20.3998 20.2213 20.2732 20.1894 20.1074 20.2159ZM20.4844 20.0277C20.5703 20.181 20.58 20.186 20.5449 20.375L20.7832 20.3479C20.6862 20.2278 20.6173 20.1948 20.6396 20.1683L20.7402 20.0493L20.4844 20.0277ZM27.8994 19.8762C27.8492 19.8761 27.8957 20.0544 27.9277 20.085L27.8311 20.1283C27.8176 20.1349 27.8469 20.2254 27.8604 20.2192C27.9247 20.1849 28.0416 20.081 28.1064 20.0049C28.0534 19.9519 27.9629 19.8778 27.8994 19.8762ZM23.6123 19.57C23.6096 19.5166 23.4051 19.516 23.4141 19.5689L23.4443 19.755C23.4555 19.8255 23.4754 19.9158 23.5127 19.9465C23.5501 19.977 23.708 19.936 23.6768 19.926C23.632 19.7768 23.6153 19.6587 23.6123 19.57ZM22.0762 19.7442C21.9193 19.6646 21.7351 19.6719 21.6709 19.8816L22.0762 19.7442ZM26.8945 19.6371C26.8886 19.6056 26.7821 19.6099 26.7754 19.6414L26.7529 19.7474C26.7455 19.7822 26.7778 19.8533 26.8047 19.8708C26.8316 19.8882 26.9315 19.8486 26.9248 19.808L26.8945 19.6371ZM21.6992 19.2865L21.6357 19.5083C21.6228 19.5546 21.8277 19.5667 21.8262 19.517L21.8203 19.3146C21.8179 19.2741 21.7052 19.2859 21.6992 19.2865ZM18.3135 19.2216L17.9502 19.425C17.983 19.4507 18.1339 19.473 18.2109 19.4499C18.2741 19.4309 18.3153 19.2843 18.3135 19.2216ZM26.4619 10.8872C25.6912 10.525 24.7854 10.4153 23.8467 10.6308C22.5652 10.8339 21.5283 12.3064 21.1885 13.5781C20.4135 16.5639 22.9954 20.1506 25.9189 18.8602C27.2035 18.3396 28.2451 17.7944 28.5879 15.9119C29.1104 13.5852 28.1184 11.7063 26.5293 10.9197C26.5719 10.923 26.613 10.8916 26.6279 10.7963L26.3945 10.6654C26.3856 10.7143 26.4065 10.8156 26.4424 10.8645C26.4483 10.8727 26.4545 10.8806 26.4619 10.8872ZM20.2607 18.7899L20.2627 18.9619L20.4863 18.9576L20.4834 18.7866L20.2607 18.7899ZM29.2393 18.4047C29.2064 18.4462 29.1556 18.5278 29.1406 18.5767C29.1289 18.6176 29.1649 18.7295 29.2021 18.7196L29.3965 18.6698L29.2168 18.607L29.3047 18.4502C29.3151 18.4312 29.254 18.3875 29.2393 18.4047ZM27.7969 18.488L27.9248 18.6979C27.9339 18.7128 28.008 18.7071 28.0244 18.7087C28.0924 18.7154 27.9338 18.6071 27.9346 18.3733L27.7969 18.488ZM30.6143 18.3906C30.544 18.3519 30.3866 18.38 30.417 18.5107L30.7178 18.6146C30.7333 18.5615 30.6799 18.4271 30.6143 18.3906ZM33.1074 18.4307L33.2598 18.5454C33.288 18.5668 33.3489 18.4745 33.3428 18.4361L33.3145 18.2684L33.1074 18.4307ZM20.2109 18.211C20.1986 18.211 20.1624 18.218 20.1436 18.2294L20.1318 18.2424C20.1207 18.2887 20.1129 18.3608 20.084 18.3744L19.9541 18.4328L20.126 18.4685C20.1551 18.4743 20.3237 18.2084 20.2109 18.211ZM28.8701 17.7966C28.832 17.7651 28.697 17.8215 28.6836 17.8464C28.9256 17.8771 28.7896 18.0952 28.9883 18.0844C29.0322 18.0813 29.0887 17.9736 29.0391 17.933L28.8701 17.7966ZM20.0137 17.8984L20.0146 17.8973L19.7852 18.0109C19.8629 18.0531 20.0323 18.0539 20.0928 18.0001C20.1084 17.986 20.1119 17.8646 20.0928 17.8702L20.0137 17.8984ZM19.6504 17.4721C19.6004 17.4589 19.5175 17.4989 19.4316 17.5759C19.4869 17.7069 19.6179 17.7761 19.7441 17.6701L19.6016 17.6279C19.5817 17.6219 19.5933 17.5904 19.6045 17.5673L19.6504 17.4721ZM30.2041 17.5846C30.1703 17.4011 30.0305 17.3517 29.9082 17.3963L29.8994 17.537L30.2041 17.5846ZM15.4434 17.2081C15.4077 17.2551 15.3699 17.3051 15.335 17.3054L15.1758 17.3033C15.3011 17.4703 15.4693 17.4004 15.5791 17.2697L15.4434 17.2081ZM30.4707 17.1247C30.4281 17.1189 30.4057 17.229 30.4072 17.2762C30.4089 17.3424 30.4771 17.4266 30.5508 17.3649C30.6 17.3236 30.5408 17.1353 30.4707 17.1247ZM30.9648 16.6238C30.9238 16.7539 30.9195 16.9278 31.0195 17.023C31.1611 16.8757 31.0737 16.7274 30.9648 16.6238ZM19.2344 16.3263C19.2275 16.2859 19.2021 16.4751 19.2363 16.4734L19.6045 16.4572L19.2344 16.3263ZM20.3945 16.0309C20.3712 15.9572 20.1191 15.9516 20.1221 16.0287L20.1289 16.2126C20.1311 16.2411 20.2404 16.2208 20.2451 16.1921C20.2518 16.1442 20.2679 16.0454 20.2998 16.0503C20.3289 16.0553 20.4035 16.0607 20.3945 16.0309ZM31.1973 15.9779C31.1781 15.9964 31.1053 15.975 31.0645 15.9692C31.0347 15.9656 31.012 16.0327 31.0127 16.0666C31.0136 16.1004 31.0708 16.1603 31.0957 16.1423L31.1924 16.0677C31.2148 16.0511 31.2628 16.115 31.3232 16.1531L31.3027 15.8686L31.1973 15.9779ZM20.3701 15.5797L20.1631 15.702C20.2631 15.7177 20.3916 15.7233 20.458 15.7117C20.4816 15.7065 20.4799 15.5525 20.4561 15.5591C20.4402 15.5641 20.3872 15.5698 20.3701 15.5797ZM19.4873 15.32C19.4226 15.3977 19.382 15.4578 19.3604 15.5083C19.3238 15.5927 19.4208 15.6814 19.4746 15.6305C19.5291 15.5784 19.5164 15.394 19.4873 15.32ZM20.1436 14.9868C20.0601 15.0671 20.0635 15.1348 20.1143 15.2897C20.1295 15.303 20.2947 15.3189 20.335 15.3189L20.1436 14.9868ZM20.835 14.0606C20.7305 14.1667 20.6344 14.39 20.6357 14.5226C20.6357 14.5739 20.7844 14.5636 20.7852 14.5183C20.7807 14.1861 20.9138 14.1748 20.835 14.0606ZM19.3467 13.4017L19.2676 13.4731C19.2452 13.493 19.2184 13.566 19.2109 13.5975C19.2027 13.629 19.281 13.6764 19.3057 13.6581L19.3984 13.5867C19.4252 13.5661 19.4406 13.4698 19.4355 13.4363C19.4311 13.4116 19.3651 13.3865 19.3467 13.4017ZM31.4668 13.0749C31.5422 12.9174 31.3735 13.1092 31.1719 13.1896C31.1605 13.1952 31.2388 13.3055 31.2852 13.3292C31.3262 13.3497 31.3983 13.2179 31.4199 13.1723L31.4668 13.0749ZM19.1836 12.9029C19.1619 12.9021 19.075 12.9196 19.0693 12.9451C19.0522 13.028 19.1802 13.2199 19.293 13.1355L19.1836 12.9029ZM31.2559 12.7439L31.1621 12.785L31.0264 12.8434C30.9957 12.8567 31.0681 12.9368 31.0928 12.9592C31.1208 12.9828 31.3048 12.8972 31.3115 12.8044C31.3137 12.7796 31.2768 12.7347 31.2559 12.7439ZM32.2227 12.3132C32.2025 12.3869 32.3087 12.4872 32.3818 12.5047C32.4326 12.5172 32.5487 12.3493 32.4941 12.3435L32.2227 12.3132ZM29.0576 11.9129L28.9893 11.9692C28.9707 11.9848 28.9375 12.0421 28.9482 12.0655L28.9912 12.1574C29.0025 12.1817 29.0292 12.2726 29.0508 12.2602L29.1387 12.2094C29.1603 12.1969 29.0867 12.1352 29.0957 12.112L29.1514 11.9681C29.1618 11.9407 29.0793 11.8955 29.0576 11.9129ZM17.2559 11.1653C17.2091 11.1729 17.2122 11.2317 17.2715 11.2994L17.1816 11.3914C17.2359 11.497 17.2367 11.4859 17.3154 11.518L17.3848 11.347C17.4034 11.3015 17.4196 11.236 17.4248 11.2021C17.43 11.1681 17.3238 11.1653 17.2559 11.1653ZM18.9053 11.03C18.804 11.0463 18.7353 11.2189 18.7666 11.2983C18.7793 11.3322 18.8689 11.3414 18.8857 11.3102L18.9561 11.1761C18.9769 11.1356 18.995 11.0861 18.998 11.0538C19.0003 11.0298 18.933 11.0259 18.9053 11.03ZM32.5166 10.9218C32.4658 11.086 32.6062 11.1259 32.6689 11.096C32.7205 11.072 32.7955 10.9687 32.8037 10.924L32.5166 10.9218ZM17.8457 10.5442C17.7869 10.6455 17.8033 10.7293 17.7676 10.74L17.5771 10.7963L17.8799 10.9575L17.8457 10.5442ZM30.4805 10.33C30.5095 10.4408 30.5969 10.5189 30.667 10.5085C30.714 10.5019 30.7698 10.4317 30.8184 10.3397L30.4805 10.33ZM23.6133 10.2434L23.4668 10.3202L23.4658 10.3213C23.4389 10.3359 23.5064 10.4416 23.5342 10.4284L23.665 10.3646C23.7285 10.3339 23.755 10.3197 23.7744 10.2964C23.7934 10.2727 23.7546 10.1696 23.7285 10.1828L23.6133 10.2434ZM28.4385 9.79116C28.3086 9.73315 28.1496 9.73052 28.1025 9.921L28.3525 9.84634C28.475 9.80996 28.6672 9.89213 28.6875 9.65051L28.4385 9.79116ZM17.7188 9.22097C17.6963 9.16964 17.5649 9.18469 17.5156 9.2253C17.4748 9.25933 17.4341 9.32864 17.3955 9.39625L17.2617 9.48172C17.3369 9.50898 17.4376 9.53508 17.4551 9.49903L17.5205 9.36271L17.6855 9.42762C17.7192 9.44089 17.7344 9.25744 17.7188 9.22097ZM32.5879 8.78169C32.573 8.78749 32.5937 8.8412 32.6094 8.8412C32.8098 8.84716 32.7111 9.07431 32.9023 9.16146C33.0076 9.20871 33.15 9.18364 33.2471 9.13225L32.9795 9.06625C32.923 8.95034 32.7685 8.80515 32.7686 8.77303L32.7783 8.76654L32.6621 8.76221C32.6457 8.76143 32.6031 8.77583 32.5879 8.78169ZM24.75 8.58369C24.9014 8.57215 25.0004 8.59893 25.1377 8.68756L25.3311 8.55556L25.0283 8.44087C24.994 8.42844 24.9254 8.54313 24.8955 8.52418L24.7539 8.43329L24.75 8.58369ZM32.4619 7.87175C32.382 7.89333 32.3838 7.99576 32.4092 8.05461C32.4427 8.13143 32.5212 8.222 32.5557 8.17903C32.6453 8.06546 32.5657 7.84357 32.4619 7.87175ZM20.7598 7.54933C20.7217 7.53122 20.6626 7.61911 20.6357 7.65969L20.6348 7.66077C20.6088 7.70046 20.642 7.86191 20.6807 7.83929C20.7149 7.8178 20.7125 7.70234 20.751 7.69431L20.9736 7.65211L20.7598 7.54933ZM22.0283 7.60667C22.0127 7.64306 21.9095 7.5687 21.8809 7.54283C21.8474 7.51393 21.7503 7.65847 21.7695 7.64887L22.0361 7.74733C22.1116 7.70173 22.1592 7.53036 22.1055 7.42923L22.0283 7.60667ZM24.9502 7.39893C24.994 7.37809 24.7926 7.31632 24.7725 7.36431L24.7061 7.52444C24.6932 7.55615 24.641 7.66063 24.6709 7.66618L24.7949 7.68565C24.8395 7.69166 24.768 7.48108 24.8555 7.44113L24.9502 7.39893ZM24.8076 6.94018L24.8086 6.94126C24.6892 6.98939 24.6132 7.16071 24.6982 7.34051C24.7157 7.33928 24.8075 7.24433 24.8164 7.19552C24.8239 7.15407 24.7741 7.09101 24.751 7.05703L24.8662 7.017C24.8804 7.01202 24.886 6.9665 24.8867 6.94992C24.8865 6.9337 24.8217 6.93442 24.8076 6.94018ZM32.0859 7.28749L32.2422 7.07759L31.9648 6.94559L32.0859 7.28749ZM30.6338 6.8071C30.6121 6.75321 30.4472 6.77148 30.4121 6.79303L30.6162 7.0527C30.6386 7.00969 30.6589 6.86946 30.6338 6.8071ZM30.9863 6.70106C30.9763 6.66956 30.8521 6.70673 30.8818 6.70756L30.957 6.96723C30.966 7.00039 30.989 7.04617 31.0137 7.03539C31.0443 7.02203 31.0915 6.99222 31.0781 6.96831C31.0683 6.95066 31.0353 6.88758 31.0293 6.86444L30.9863 6.70106ZM31.6162 6.54959C31.6098 6.51584 31.4975 6.52275 31.4863 6.555C31.4782 6.5789 31.4585 6.63462 31.4443 6.65562L31.3779 6.753C31.364 6.77594 31.4186 6.85615 31.4395 6.84064C31.5044 6.7909 31.6304 6.6358 31.6162 6.54959ZM23.1855 5.26529C23.0676 5.29016 23.085 5.46997 23.0977 5.53795C23.1083 5.59336 23.2098 5.63627 23.2598 5.67103C23.2903 5.69251 23.3404 5.62424 23.3281 5.59096C23.3192 5.56695 23.2793 5.55493 23.1758 5.52929L23.1855 5.26529ZM26.2959 5.01211C26.2853 5.04351 26.2224 5.05634 26.168 5.07703C26.2007 5.09268 26.2706 5.11484 26.2861 5.14844L26.3613 5.32264C26.3896 5.13572 26.3878 4.99243 26.3506 4.84765L26.2959 5.01211ZM23.4648 5.04565C23.5052 5.10284 23.587 5.20008 23.6445 5.25231C23.6841 5.28795 23.7309 5.0731 23.6816 5.05647C23.6398 5.04251 23.5728 5.04235 23.4648 5.04565ZM24.2705 4.30018C24.1702 4.26466 23.9277 4.25977 23.8896 4.45923L24.1182 4.35319C24.1472 4.48807 24.1746 4.53677 24.2305 4.53605C24.2984 4.53522 24.3733 4.52372 24.3711 4.47978C24.3688 4.44611 24.3347 4.36911 24.3018 4.32723L24.2705 4.30018ZM24.9424 3.54496L25.0586 3.37401C24.9301 3.32427 24.8602 3.3026 24.7295 3.3026L24.9424 3.54496Z" fill="var(--fill-0, #2E2720)"/>
</g>
<defs>
<filter id="filter0_g_0_13" x="0" y="7.27776e-10" width="49.5996" height="81.9409" filterUnits="userSpaceOnUse" color-interpolation-filters="sRGB">
<feFlood flood-opacity="0" result="BackgroundImageFix"/>
<feBlend mode="normal" in="SourceGraphic" in2="BackgroundImageFix" result="shape"/>
<feTurbulence type="fractalNoise" baseFrequency="0.05000000074505806 0.05000000074505806" numOctaves="3" seed="7176" />
<feDisplacementMap in="shape" scale="2" xChannelSelector="R" yChannelSelector="G" result="displacedImage" width="100%" height="100%" />
<feMerge result="effect1_texture_0_13">
<feMergeNode in="displacedImage"/>
</feMerge>
</filter>
</defs>
</svg>
