<svg preserveAspectRatio="none" width="100%" height="100%" overflow="visible" style="display: block;" viewBox="0 0 1280 1280" fill="none" xmlns="http://www.w3.org/2000/svg">
<g id="Union" opacity="0.64">
<path d="M668.098 794.779C668.098 805.276 667.275 811.096 666.672 815.78C666.22 819.333 665.91 821.688 665.91 827.583C665.984 836.269 665.83 840.578 665.754 844.885C665.68 848.814 665.617 852.679 665.617 860.464C665.618 865.598 665.991 867.417 666.594 870.74C667.498 875.499 668.703 881.921 668.703 893.248C668.703 899.065 668.996 901.419 669.524 904.894C670.201 909.577 671.047 915.476 671.047 926.052C671.047 937.312 669.824 943.817 668.996 948.58C668.392 951.903 668.098 953.72 668.098 958.855L668.254 959.168C668.33 969.89 667.41 975.783 666.731 980.541C666.204 983.943 665.91 986.228 665.91 991.972C665.984 994.985 666.06 995.29 666.965 998.157C669.075 1004.81 671.183 1012.36 671.184 1024.76C671.258 1036.85 669.377 1044.27 667.492 1050.77C666.588 1053.78 666.438 1054.32 666.438 1057.64V1090.44C666.438 1100.34 665.913 1105.86 665.461 1110.25C665.16 1113.87 664.855 1116.75 664.855 1123.32H603.308C603.157 1128.69 602.637 1133.07 601.96 1136.85C602.864 1141.53 603.458 1146.91 603.308 1153.93C603.157 1159.67 602.635 1164.36 601.882 1168.36C602.937 1173.04 603.615 1178.64 603.464 1185.45C603.313 1193.53 602.491 1199.12 601.511 1203.96C601.963 1207.66 602.173 1211.82 602.097 1216.96L601.882 1230.34C602.107 1234.57 602.325 1239.41 602.175 1248.47C602.024 1256.48 601.88 1260.49 601.804 1264.5C601.653 1268.43 601.583 1272.29 601.433 1280H601.042L533.166 1278.55H527.814C527.888 1271.9 528.652 1266.76 529.63 1262.31C528.953 1258.07 528.483 1253.16 528.634 1247.04C528.787 1236.76 529.697 1231.08 530.451 1226.55C530.978 1223.23 531.351 1221.04 531.427 1215.61C531.502 1211.83 531.731 1208.71 532.033 1205.84C530.677 1200.25 529.616 1193.74 529.767 1184C529.841 1180.45 530.073 1177.36 530.451 1174.56C530.374 1172.9 530.294 1171.46 530.294 1170.02C530.218 1168.44 530.158 1166.77 530.158 1165.03C529.632 1161.33 529.32 1157.18 529.396 1152.35C529.547 1142.98 530.461 1137.08 531.291 1132.7C530.913 1129.22 530.687 1125.35 530.763 1120.74L596.823 1122.03C596.897 1112.89 597.345 1107.51 597.8 1103.28C598.101 1099.66 598.405 1096.86 598.405 1090.36V1057.56C598.329 1045.47 600.212 1038.07 602.097 1031.57C603 1028.55 603.151 1028.01 603.151 1024.7C603.077 1021.67 603.001 1021.36 602.097 1018.49C599.985 1011.84 597.878 1004.28 597.878 991.893C597.801 981.164 598.702 975.263 599.382 970.501C599.908 967.102 600.221 964.831 600.222 959.09C600.222 947.829 601.423 941.325 602.253 936.562C602.858 933.238 603.151 931.424 603.151 926.286C603.151 920.466 602.86 918.117 602.331 914.641C601.654 909.956 600.827 904.06 600.827 893.483C600.827 888.346 600.453 886.532 599.85 883.207C598.944 878.447 597.721 871.937 597.721 860.601C597.647 851.991 597.801 847.684 597.878 843.378C597.952 839.448 598.034 835.517 598.034 827.739C598.034 817.235 598.857 811.404 599.46 806.718C599.912 803.166 600.222 800.75 600.222 794.779H668.098Z" fill="#FFFDDF" fill-opacity="0.16"/>
<path d="M751.19 749.743C754.434 754.127 755.871 755.643 758.359 758.061C761.903 761.539 766.288 765.838 772.696 774.678C776.768 780.268 778.878 782.69 781.29 785.56C784.156 788.962 787.468 792.825 793.049 800.533C799.386 809.3 802.263 815.204 804.827 820.947C806.182 823.963 806.783 825.334 809.495 829.109C813.416 834.47 815.307 836.667 817.797 839.463C820.812 842.937 824.276 846.874 830.005 854.73C834.757 861.227 837.182 864.476 839.595 867.726C842.008 871.048 844.502 874.372 849.401 881.094C855.661 889.708 858.369 894.928 860.632 899.159C862.292 902.258 863.351 904.375 866.746 908.984C868.781 911.704 869.239 912.165 871.727 914.054C877.004 918.209 882.803 923.056 889.814 932.726C895.847 941.038 898.646 946.101 900.909 950.106C902.642 953.278 903.851 955.548 907.472 960.46C911.994 966.731 914.411 969.829 916.75 972.928C919.388 976.403 922.031 979.815 927.082 986.765C931.149 992.424 933.266 994.838 935.677 997.706C938.542 1001.11 941.779 1004.97 947.357 1012.6L894.639 1051.08C897.729 1055.62 899.934 1059.32 901.592 1062.41C901.739 1062.57 901.814 1062.79 901.963 1062.94C904.451 1066.34 906.941 1069.67 911.691 1076.54C915.236 1081.61 917.652 1086.14 919.387 1090.23C921.649 1093.4 924.062 1096.72 928.586 1103.22C932.13 1108.28 933.788 1110.25 936.126 1112.97C937.86 1114.86 939.828 1117.29 942.318 1120.46C944.201 1122.58 946.164 1125.07 948.197 1127.94C952.269 1133.83 954.69 1138.59 956.577 1142.89C957.481 1144.71 958.226 1146.46 958.979 1148.2C960.186 1151.14 960.71 1152.36 963.198 1155.91C966.815 1161.12 968.633 1163.23 970.894 1165.95L971.051 1165.74C973.915 1169.14 977.169 1172.91 982.594 1180.69L981.383 1181.53L980.016 1182.43L926.848 1219.62L924.289 1221.36C919.69 1214.79 917.428 1211.38 915.167 1208.05C913.055 1204.88 910.867 1201.7 906.495 1195.43C899.709 1185.61 897.067 1178.58 895.029 1172.16C894.503 1170.5 894.191 1169.66 893.74 1168.83C893.362 1168.22 892.921 1167.61 892.392 1166.85C891.94 1166.25 891.637 1165.8 891.259 1165.27C891.033 1165.19 890.8 1165.05 890.576 1164.89C884.315 1160.97 876.994 1155.75 869.226 1144.64C864.477 1137.76 861.759 1131.94 859.948 1126.81C859.798 1126.5 859.65 1126.19 859.499 1125.89C857.992 1122.87 857.083 1121.05 854.069 1116.67C851.583 1113.12 849.776 1110.17 848.268 1107.45C847.741 1106.77 847.213 1106.17 846.686 1105.49C844.046 1102.17 841.025 1098.39 835.825 1090.99L837.701 1089.7L883.114 1057.95L891.924 1051.75C888.234 1046.76 886.196 1044.35 883.935 1041.63C881.069 1038.3 877.834 1034.44 872.254 1026.81C867.73 1020.54 865.313 1017.44 862.976 1014.34C860.335 1010.87 857.696 1007.46 852.643 1000.51C846.609 992.193 843.811 987.13 841.549 983.125C839.815 979.953 838.604 977.681 834.986 972.771C832.952 970.054 832.494 969.59 830.005 967.702C824.728 963.548 818.926 958.712 811.917 949.049C805.66 940.435 802.929 935.217 800.667 930.984C799.006 927.887 797.947 925.768 794.553 921.158C789.805 914.664 787.394 911.411 784.982 908.162C782.57 904.838 780.078 901.499 775.176 894.775C771.257 889.411 769.364 887.215 766.875 884.421C763.859 880.944 760.396 877.085 754.667 869.154C748.334 860.39 745.453 854.502 742.889 848.76C741.533 845.739 740.932 844.374 738.22 840.598C734.152 835.01 732.037 832.585 729.626 829.716C726.761 826.315 723.446 822.448 717.867 814.743C714.701 810.36 713.188 808.842 710.699 806.425C707.156 802.947 702.771 798.647 696.362 789.808L751.19 749.743Z" fill="#FFFDDF" fill-opacity="0.16"/>
<path d="M573.97 783.662C568.616 791.069 565.512 794.858 562.797 798.185C560.537 801.055 558.191 803.86 553.968 809.752C548.542 817.227 545.451 821.008 542.737 824.333H542.659C540.322 827.128 538.051 830.005 533.83 835.823C527.65 844.431 523.513 848.746 520.196 852.146C517.708 854.716 516.107 856.385 512.715 861.071C507.515 868.319 504.722 871.866 501.933 875.339C499.673 878.286 497.338 881.239 492.967 887.279C487.086 895.365 483.385 899.532 480.369 902.858C477.955 905.502 476.072 907.626 472.302 912.84C470.643 915.105 470.551 915.334 469.645 918.203C467.459 924.928 464.747 932.332 457.437 942.453C453.136 948.348 451.097 951.452 449.136 954.549C446.648 958.329 444.16 962.192 438.881 969.522C431.947 979.191 426.208 984.019 420.931 988.175C418.517 990.064 417.986 990.527 415.95 993.322C413.84 996.267 413.622 996.954 412.492 999.899C410.154 1006.17 407.357 1012.97 400.421 1022.56C394.995 1030.12 391.821 1033.9 389.034 1037.3C386.62 1040.25 384.509 1042.75 380.361 1048.5L325.513 1008.67C323.254 1011.61 321.223 1013.95 319.341 1015.99C317.229 1020.14 314.352 1025.68 308.168 1033.92C302.666 1041.24 299.511 1044.88 296.644 1048.13C294.835 1050.17 293.237 1051.97 290.823 1054.99C290.07 1056.13 289.4 1057.2 288.42 1058.48C286.234 1061.42 284.564 1063.61 283.205 1065.51C283.132 1065.73 283.061 1065.97 282.912 1066.19C280.8 1070.42 277.923 1076.16 271.29 1085C266.767 1090.97 263.081 1094.9 259.688 1098.07C257.953 1101.7 255.529 1105.71 252.285 1110.01C247.458 1116.44 243.538 1120.45 239.843 1123.77C238.109 1126.64 235.774 1130.12 232.459 1134.5L230.408 1132.99L176.263 1091.95C178.073 1089.46 179.817 1087.42 181.401 1085.61C181.476 1085.46 181.544 1085.22 181.694 1085C184.257 1079.48 187.121 1073.89 193.452 1065.51C196.996 1060.82 200.175 1057.34 202.965 1054.62C204.85 1050.16 207.568 1045.25 211.715 1039.81C218.653 1030.59 224.225 1025.96 229.353 1022.03C230.107 1021.43 230.64 1020.98 231.092 1020.61C231.997 1019.47 232.751 1018.34 233.729 1016.99C236.217 1013.73 236.685 1012.67 237.967 1009.8C238.796 1007.92 239.766 1005.95 240.819 1003.91C242.857 999.754 245.502 995.137 249.726 989.545C256.133 981.007 260.955 976.619 265.704 972.614C265.931 972.463 266.022 972.394 266.173 972.243C267.455 970.277 268.95 968.147 270.685 965.803L324.849 1006.85L326.06 1007.77C331.112 1000.81 334.203 997.101 336.842 993.851C339.254 990.905 341.37 988.413 345.515 982.675C347.624 979.732 347.918 978.962 348.972 976.098C351.309 969.825 354.106 963.012 361.043 953.414C367.983 943.74 373.714 938.898 378.994 934.742C381.405 932.853 381.941 932.406 383.975 929.614C388.273 923.717 390.317 920.617 392.276 917.518C394.766 913.741 397.252 909.874 402.531 902.545C404.186 900.283 404.264 900.051 405.168 897.182C407.356 890.455 410.082 883.057 417.395 872.932C423.277 864.847 426.958 860.677 429.974 857.352C432.388 854.706 434.288 852.586 438.061 847.37C443.259 840.124 446.053 836.576 448.843 833.102C451.103 830.155 453.438 827.204 457.808 821.163C463.991 812.552 468.145 808.238 471.462 804.839C473.949 802.271 475.532 800.596 478.923 795.914C484.351 788.434 487.461 784.657 490.174 781.333C492.513 778.536 494.779 775.663 499.003 769.844C504.357 762.439 507.441 758.646 510.156 755.321C512.415 752.451 514.764 749.662 518.985 743.773L573.97 783.662Z" fill="#FFFDDF" fill-opacity="0.16"/>
<path d="M795.061 660.923C801.472 663.04 804.432 663.712 808.128 664.544C812.5 665.526 817.548 666.749 826.665 669.691C837.6 673.244 843.648 676.786 849.303 680.339C852.017 682.076 852.842 682.614 856.608 683.823C860.754 685.181 862.119 685.263 865.359 685.565C871.77 686.094 878.337 686.922 888.896 690.321C897.417 693.118 901.645 694.704 905.87 696.29C909.262 697.651 912.73 698.937 919.738 701.203C926.449 703.393 929.621 704.231 933.313 705.137C937.613 706.196 942.445 707.396 951.264 710.265C958.804 712.684 962.593 713.831 966.363 714.963C970.357 716.172 974.431 717.39 982.497 720.032C988.677 722.073 991.551 722.663 995.095 723.418C999.394 724.324 1004.83 725.544 1014.18 728.565C1025.18 732.116 1031.13 735.523 1035.43 737.941C1038.3 739.604 1039.73 740.439 1044.26 741.875C1050.59 743.913 1053.54 744.587 1057.15 745.417C1061.6 746.4 1066.66 747.543 1075.86 750.565C1087.47 754.342 1093.96 758.498 1099.62 762.426C1102.1 764.164 1102.49 764.398 1105.44 765.381L1085.45 827.348C1086.13 827.573 1086.88 827.882 1087.49 828.033H1088.62C1095.55 828.033 1103.92 828.262 1115.98 832.417C1125.86 835.818 1131.39 838.908 1136.59 842.007C1137.26 842.383 1137.78 842.686 1138.31 842.986C1140.34 843.59 1142.54 844.269 1144.95 845.1C1147.89 846.083 1150.46 847.069 1152.65 847.977C1157.55 848.43 1164.71 849.112 1175.5 852.89C1187.11 856.895 1193.97 862.043 1199.25 866.727C1200.53 867.18 1201.89 867.706 1203.47 868.235C1207.85 869.747 1209.44 869.974 1212.61 870.427V870.583C1217.29 871.264 1223.7 872.165 1234.1 875.79V875.946L1223.16 907.458L1211.93 940.026L1211.69 940.555C1208.31 939.35 1207.4 939.275 1204.47 939.048C1199.57 938.671 1192.16 938.062 1180.7 934.057C1174.59 931.944 1169.85 929.521 1165.93 927.03C1165.85 926.954 1165.69 926.874 1165.62 926.874C1162.15 925.513 1158.68 924.24 1151.67 921.824C1141.95 918.5 1136.81 915.856 1132.74 913.741C1129.65 913.06 1126.25 912.146 1122.25 910.785C1117.73 909.198 1114.4 907.91 1111.69 906.851C1107.24 906.172 1101.27 905.107 1092 901.86C1084.84 899.368 1081.3 898.235 1077.68 897.026C1073.76 895.741 1069.9 894.462 1062.13 891.741L1083.56 829.833C1072.63 826.132 1066.36 822.138 1060.86 818.286C1058.37 816.548 1057.98 816.313 1055.04 815.33C1048.71 813.292 1045.77 812.599 1042.15 811.768C1037.7 810.786 1032.65 809.66 1023.46 806.64C1012.45 803.089 1006.48 799.683 1002.19 797.265C999.32 795.601 997.88 794.766 993.357 793.331C987.172 791.291 984.302 790.7 980.758 789.945C976.46 789.036 971.026 787.82 961.675 784.797C954.137 782.304 950.366 781.174 946.596 780.041C942.6 778.833 938.525 777.616 930.462 774.972C923.749 772.781 920.563 771.944 916.867 771.038C912.57 769.979 907.735 768.779 898.916 765.91C890.322 763.113 886.105 761.507 881.884 759.921C878.415 758.561 875.01 757.273 867.996 755.008C863.855 753.649 862.484 753.587 859.245 753.285C852.837 752.756 846.281 751.909 835.728 748.51C824.793 744.957 818.745 741.415 813.089 737.862C810.379 736.202 809.552 735.587 805.784 734.378C799.378 732.339 796.43 731.589 792.736 730.758C788.361 729.775 783.304 728.558 774.18 725.61L795.061 660.923Z" fill="#FFFDDF" fill-opacity="0.16"/>
<path d="M500.585 712.555C496.063 714.064 494.618 714.811 491.756 716.47C487.381 718.888 481.493 722.296 470.407 725.923C462.412 728.567 458.407 729.786 454.41 731.071C450.64 732.278 446.785 733.492 439.174 735.983C433.674 737.796 431.558 738.782 428.392 740.368C424.168 742.484 418.807 745.049 408.781 748.373C399.134 751.544 393.403 752.536 387.373 753.442C384.056 753.972 382.011 754.267 376.884 755.928C368.742 758.574 364.667 759.791 360.594 761.075C356.9 762.286 353.118 763.413 345.651 765.831C337.21 768.55 332.916 769.769 328.619 770.979C325 772.036 321.371 773.002 314.282 775.344C308.024 777.383 305.388 778.532 301.996 780.041C297.772 781.929 292.942 784.046 283.596 787.068C277.715 788.956 275.37 790.097 272.052 791.608C267.905 793.497 262.697 795.912 253.047 799.085C243.399 802.259 237.884 803.383 233.436 804.291C229.816 804.97 227.245 805.516 221.286 807.482C211.566 810.729 205.984 811.782 201.461 812.688L201.519 812.766C198.054 813.446 195.485 813.971 189.682 815.859L169.544 754.186C165.096 755.545 163.053 756.542 160.188 757.826C155.967 759.714 150.762 762.127 140.968 765.146C134.708 767.037 129.415 767.941 124.814 768.317C123.234 768.544 121.797 768.775 120.517 769.002C119.991 769.076 119.461 769.163 118.935 769.237C116.525 769.991 113.814 770.904 110.126 772.036C107.713 772.791 105.44 773.305 103.328 773.758C102.423 774.137 101.513 774.599 100.457 775.128C96.3856 777.091 90.8045 779.879 80.6312 782.977C75.2008 784.64 70.7435 785.563 66.8215 786.167C62.6747 788.283 57.7706 790.317 50.6093 792.509C42.7659 794.851 38.7682 795.994 34.8464 797.128C31.2264 798.185 27.5957 799.162 20.4312 801.355L20.2164 800.67L0.449253 735.592L0 734.007C5.05203 732.494 6.867 731.587 9.88357 730.151C14.1062 728.111 19.3897 725.539 29.4163 722.518C34.8386 720.859 36.8803 719.958 40.0421 718.525C44.1149 716.712 49.2569 714.366 58.9107 711.42C66.4508 709.077 72.1801 708.238 77.2325 707.936C80.4753 706.575 84.2536 705.217 89.3818 703.63C97.9735 701.063 104.531 700.303 110.184 700.303C112.824 699.397 116.006 698.339 120.38 697.054C125.505 695.468 128.903 694.48 131.768 693.648C136.291 691.08 141.869 688.428 149.933 685.937L150.617 688.129L150.773 688.735L169.622 750.78C178.665 747.836 184.174 746.719 188.471 745.887C191.941 745.206 194.521 744.664 200.328 742.775C209.976 739.603 215.488 738.475 219.939 737.569C223.553 736.889 226.119 736.361 232.068 734.398C237.952 732.509 240.295 731.369 243.612 729.857C247.76 727.969 252.891 725.554 262.618 722.381C268.802 720.341 271.451 719.193 274.845 717.683C279.066 715.795 283.9 713.677 293.245 710.657C301.758 707.862 306.06 706.658 310.356 705.45C313.975 704.468 317.526 703.467 324.615 701.125C332.68 698.48 336.755 697.205 340.827 695.997C344.523 694.786 348.303 693.659 355.769 691.241C365.417 688.069 371.147 687.079 377.177 686.171C380.494 685.644 382.54 685.346 387.666 683.686C393.244 681.872 395.362 680.887 398.526 679.302C402.827 677.262 408.108 674.605 418.137 671.355C426.13 668.711 430.137 667.492 434.135 666.208C437.902 665 441.76 663.805 449.37 661.314C453.886 659.804 455.32 659.04 458.179 657.38C462.478 654.962 468.443 651.553 479.451 647.927L500.585 712.555Z" fill="#FFFDDF" fill-opacity="0.16"/>
<path d="M1108.89 524.894C1107.34 525.398 1105.78 526.253 1104.22 527.458C1098.42 531.917 1091.77 536.525 1079.56 540.533C1069.07 543.932 1062.43 544.763 1056.02 545.367C1052.78 545.669 1051.41 545.829 1047.27 547.187C1038.45 550.059 1033.62 551.335 1029.39 552.394C1025.7 553.3 1022.53 554.137 1015.82 556.328C1010.92 557.912 1009.34 558.815 1006.33 560.399C1002.11 562.666 996.367 565.847 985.661 569.324C977.365 572.045 973.206 573.339 969.058 574.55C965.366 575.606 961.663 576.653 954.35 579.071C947.192 581.411 943.573 582.778 940.033 584.062C935.885 585.574 931.724 587.096 923.352 589.816C916.421 592.079 913.028 593.445 909.562 594.729C905.339 596.316 901.107 597.98 892.509 600.777C886.479 602.742 883.911 603.865 880.595 605.376C876.521 607.265 871.464 609.538 861.96 612.638C849.068 616.793 840.169 616.637 832.778 616.259C832.1 616.184 831.419 616.18 830.591 616.18C830.64 616.183 830.031 616.265 828.774 616.709C824.178 618.22 822.745 619.06 819.809 620.721C815.511 623.139 809.623 626.47 798.616 630.096L777.559 565.468C782.16 563.958 783.602 563.119 786.544 561.456C790.843 559.037 796.809 555.725 807.737 552.1C820.633 547.945 829.531 548.081 836.919 548.46C837.598 548.536 838.279 548.538 839.107 548.538C839.157 548.522 839.766 548.419 840.924 548.009C846.953 546.045 849.521 544.922 852.838 543.41C856.912 541.521 861.969 539.248 871.473 536.149C878.481 533.883 881.874 532.52 885.341 531.236C889.563 529.574 893.792 527.983 902.315 525.188C909.55 522.846 913.094 521.481 916.711 520.197C920.782 518.685 924.942 517.183 933.235 514.462C941.457 511.816 945.612 510.523 949.76 509.315C953.528 508.182 957.233 507.132 964.546 504.715C969.443 503.129 971.024 502.211 974.039 500.625C978.264 498.357 983.997 495.177 994.705 491.699C1003.52 488.829 1008.28 487.552 1012.5 486.493C1016.19 485.51 1019.44 484.674 1026.15 482.481C1036.64 479.082 1043.28 478.251 1049.69 477.646C1052.93 477.344 1054.29 477.187 1058.44 475.826C1060 475.324 1061.55 474.471 1063.11 473.262V473.34C1068.92 468.88 1075.56 464.272 1087.78 460.266L1108.89 524.894Z" fill="#FFFDDF" fill-opacity="0.16"/>
<path d="M67.2903 337.84C76.1888 340.939 80.7193 343.052 84.7916 344.867C87.9592 346.303 90.5339 347.505 96.4917 349.545C101.768 351.358 104.034 351.82 107.352 352.5C111.801 353.406 117.388 354.54 126.963 357.863C130.354 359.072 133.229 360.194 135.792 361.327C135.941 361.402 136.092 361.406 136.241 361.406C140.766 362.163 147.022 363.159 157.199 366.71C166.168 369.805 171.073 372.142 174.994 374.03C178.536 374.71 182.388 375.616 186.909 377.201C196.484 380.524 202.751 384.461 207.653 388.239C209.688 389.222 211.581 390.126 215.348 391.41L214.665 393.309L193.101 455.804C195.06 456.484 195.817 456.489 198.375 456.489C205.313 456.563 213.096 456.938 224.861 460.716C234.889 463.966 240.172 466.545 244.394 468.584C247.635 470.096 249.756 471.155 255.332 472.969C265.658 476.292 271.39 479.385 276.818 482.481C279.682 484.143 280.969 484.902 285.412 486.337C286.484 486.765 287.02 486.786 287.073 486.787C287.678 486.787 288.368 486.652 289.045 486.65C296.509 486.123 305.559 485.808 318.599 490.036C328.328 493.21 333.541 495.792 338.971 498.589C341.986 500.098 343.806 501.075 348.933 502.738C360.845 506.592 367.332 510.763 371.63 513.484C374.264 515.218 375.104 515.662 378.72 516.87C384.976 518.91 387.839 519.522 391.456 520.354C395.907 521.336 401.047 522.478 410.324 525.501C415.969 527.311 418.311 527.756 421.849 528.359C426.449 529.19 432.19 530.178 442.143 533.428C451.269 536.374 455.946 538.343 460.094 540.083C463.639 541.593 466.441 542.722 472.927 544.839C477.293 546.272 478.809 546.433 482.048 546.737C488.383 547.341 494.866 548.249 505.195 551.572L484.314 616.259C479.939 614.823 478.417 614.684 475.173 614.38C468.915 613.776 462.427 612.945 452.027 609.545C442.903 606.598 438.223 604.628 434.076 602.891C430.532 601.381 427.745 600.228 421.263 598.115C415.609 596.302 413.26 595.861 409.719 595.257C405.042 594.426 399.3 593.438 389.346 590.188C383.092 588.15 380.228 587.535 376.611 586.704C372.161 585.724 367.017 584.601 357.742 581.576C345.827 577.722 339.343 573.551 335.045 570.831C332.409 569.095 331.572 568.652 327.955 567.445C318.228 564.272 313.028 561.688 307.602 558.892C304.585 557.305 302.767 556.405 297.64 554.742C296.037 554.232 295.98 554.292 295.98 554.292C295.377 554.292 294.686 554.429 294.007 554.429C286.543 554.956 277.494 555.273 264.454 551.043C254.122 547.718 248.379 544.611 242.948 541.511C240.087 539.853 238.8 539.09 234.354 537.656C224.327 534.406 219.045 531.847 214.821 529.807C211.579 528.295 209.464 527.237 203.883 525.423C201.097 524.518 200.719 524.503 197.71 524.503C190.772 524.428 182.989 524.053 171.224 520.275L191.519 457.311C187.677 455.953 184.358 454.454 181.42 452.946C179.611 452.266 178.022 451.573 176.439 450.969C173.121 449.608 169.791 448.322 163.079 445.978C154.561 443.033 150.182 441.219 146.261 439.558C145.962 439.41 145.661 439.335 145.363 439.187C141.743 438.506 137.889 437.524 133.213 435.938C129.447 434.578 126.433 433.365 123.72 432.082H123.486C117.757 431.025 112.327 429.89 103.133 426.719C95.4406 423.998 90.8337 421.943 87.2137 420.28C83.2919 419.524 78.9068 418.391 73.3259 416.502C66.2421 414.008 61.338 411.677 57.1919 409.26L57.27 409.104C54.0271 408.046 50.2526 406.836 44.144 404.719L44.9644 402.371L67.2317 338.134H67.2903V337.84Z" fill="#FFFDDF" fill-opacity="0.16"/>
<path d="M1258.81 480.073L1278.57 545.152V545.23L1280 549.83C1270.42 552.776 1264.92 553.692 1260.47 554.449C1257 555.053 1254.72 555.428 1249.29 557.091C1241.68 559.357 1236.17 560.339 1231.27 560.869C1228.02 562.229 1224.03 563.746 1218.9 565.331C1210.91 567.747 1206.92 568.798 1202.85 569.931C1199.3 570.913 1195.75 571.905 1188.66 574.021C1181.73 576.136 1178.32 577.256 1174.86 578.464C1173.5 578.919 1172.14 579.383 1170.64 579.913C1167.39 581.424 1163.55 582.94 1158.88 584.375C1152.47 586.341 1149.52 587.474 1146.2 588.759C1145.82 588.836 1145.52 588.981 1145.15 589.131C1141 591.171 1136.16 593.28 1129.23 595.394L1129.01 594.572L1109.24 529.494L1108.95 528.594C1115.28 526.63 1118.6 525.499 1121.69 524.366C1125.99 522.098 1131.12 519.822 1138.58 517.555C1144.16 515.892 1146.35 514.843 1149.52 513.484C1149.67 513.407 1149.9 513.249 1150.05 513.249C1154.57 510.68 1160 508.033 1167.92 505.615C1174.78 503.501 1179.77 502.52 1183.76 501.916C1187.38 500.859 1191.08 499.8 1198.31 497.61C1203.21 496.099 1207.13 495.181 1210.68 494.577C1214.6 492.839 1219.66 490.646 1228.34 488C1235.35 485.885 1238.81 484.748 1242.28 483.538C1246.28 482.178 1250.28 480.828 1258.28 478.41L1258.81 480.073Z" fill="#FFFDDF" fill-opacity="0.16"/>
<path d="M951.811 270.178C950.077 272.52 949.999 272.752 949.096 275.619C946.909 282.346 944.203 289.764 936.888 299.889C930.554 308.656 925.879 313.194 921.203 317.426C918.791 319.692 917.648 320.675 914.933 324.453C910.034 331.176 907.615 334.573 905.128 337.899C902.715 341.146 900.383 344.324 895.635 350.895C891.336 356.941 889.291 360.048 887.255 363.148C884.768 366.925 882.357 370.71 877.079 377.964C874.291 381.89 873.531 383.4 872.176 386.419C870.138 390.954 867.343 397.091 860.554 406.461C852.113 418.091 844.35 423.228 839.673 426.327C838.266 427.285 837.157 428.302 836.353 429.361C833.565 433.211 832.885 434.72 831.528 437.738C829.492 442.273 826.617 448.471 819.828 457.917C816.359 462.755 815.234 464.882 813.5 468.056C811.313 472.212 808.512 477.347 802.405 485.808C795.167 495.858 789.137 500.774 783.556 504.93C781.142 506.745 780.833 507.053 779.024 509.471C776.463 513.02 775.934 514.236 774.727 517.183C772.24 523.152 769.449 529.276 762.89 538.341L707.906 498.432C710.47 494.882 710.997 493.669 712.203 490.721C714.693 484.676 717.479 478.552 724.04 469.485C731.281 459.434 737.327 454.519 742.908 450.362C745.317 448.552 745.611 448.313 747.42 445.822C750.888 440.985 752.034 438.876 753.768 435.703C755.956 431.548 758.739 426.408 764.844 417.95C767.632 414.098 768.313 412.574 769.668 409.554C771.706 405.019 774.581 398.822 781.368 389.375C789.815 377.735 797.592 372.588 802.268 369.489C803.669 368.535 804.767 367.528 805.569 366.475C808.359 362.546 809.115 361.023 810.472 358C812.508 353.465 815.307 347.345 822.094 337.977C826.392 332.007 828.438 328.902 830.474 325.803C832.886 322.028 835.374 318.312 840.65 310.987C845.548 304.266 847.968 300.864 850.456 297.541C852.868 294.292 855.2 291.113 859.948 284.544C866.281 275.779 870.96 271.24 875.633 267.008C878.047 264.742 879.188 263.759 881.903 259.981C883.638 257.639 883.714 257.412 884.618 254.54C886.805 247.814 889.532 240.416 896.846 230.29L951.811 270.178Z" fill="#FFFDDF" fill-opacity="0.16"/>
<path d="M352.156 59.7939C355.92 65.2269 357.732 67.4939 360.067 70.363C362.179 72.9327 364.524 75.8158 367.919 80.5015C368.972 81.8591 370.032 83.2265 371.161 84.8858C371.988 86.0907 372.673 87.0769 373.349 88.0565C374.705 89.7904 375.828 90.9317 377.333 92.4408C380.577 95.7655 385.101 100.224 391.358 109.214C396.034 115.94 398.391 119.637 400.577 123.189C402.991 125.985 405.773 129.55 409.543 134.991C414.821 142.623 417.618 148.891 419.427 154.407C421.01 156.522 422.816 159.095 425.228 162.569C429.223 168.312 431.722 172.776 433.607 176.857C436.171 179.653 439.116 183.278 442.885 188.718L388.877 226.512C395.135 235.28 397.929 241.405 400.343 247.376C401.473 250.317 401.934 251.297 404.269 254.54C407.511 258.999 409.026 260.52 411.516 263.015C414.984 266.49 419.27 270.808 425.677 279.573C431.937 288.111 434.667 293.325 436.928 297.482C438.586 300.576 439.71 302.702 443.1 307.386C445.288 310.407 445.904 310.94 448.394 312.905C452.465 316.153 458.493 320.994 465.954 331.264C472.439 340.105 475.245 346.073 477.81 351.893C479.091 354.913 479.688 356.277 482.322 359.898C485.791 364.661 487.452 366.414 489.94 369.058C493.183 372.383 497.269 376.606 503.378 385.069C510.24 394.515 513.101 400.791 515.137 405.326C516.57 408.349 517.17 409.789 519.962 413.566C522.977 417.721 524.331 419.015 526.818 421.356C530.286 424.681 535.046 429.218 541.682 438.286C544.396 441.987 545.539 442.966 547.952 445.156C552.702 449.388 557.52 453.931 563.93 462.771C570.566 471.84 573.433 478.04 575.923 484.086C577.204 487.106 577.656 488.242 580.142 491.641L525.314 531.706C518.679 522.639 515.808 516.435 513.32 510.391C512.038 507.368 511.589 506.216 509.101 502.817C506.391 499.121 505.26 498.135 502.851 495.947C498.1 491.716 493.265 487.174 486.854 478.331C483.842 474.182 482.48 472.898 479.998 470.561C476.527 467.237 471.77 462.694 465.133 453.553C458.273 444.11 455.41 437.83 453.374 433.295C451.941 430.198 451.322 428.757 448.53 424.977C445.064 420.22 443.402 418.482 440.913 415.837C437.671 412.512 433.602 408.269 427.494 399.807C421.011 390.967 418.221 384.996 415.657 379.177C414.298 376.155 413.686 374.799 411.047 371.172C408.861 368.15 408.261 367.616 405.773 365.653C401.7 362.403 395.661 357.57 388.194 347.294C381.939 338.683 379.225 333.462 376.962 329.307C375.305 326.208 374.164 324.088 370.77 319.403C367.529 314.945 366.031 313.421 363.543 310.928C360.076 307.453 355.771 303.15 349.363 294.389C342.65 285.168 339.858 278.882 337.369 272.684C336.239 269.74 335.78 268.75 333.443 265.5L384.131 228.469C380.212 222.729 377.792 218.125 375.908 214.044C373.57 211.248 370.784 207.836 367.313 202.849C362.564 195.974 359.846 190.159 358.035 185.097C356.301 182.679 354.18 179.797 351.238 175.565C346.642 168.92 344.378 165.521 342.116 162.197C339.929 159.023 337.818 155.845 333.443 149.573C331.484 146.852 330.057 144.729 328.775 142.84C324.175 138.91 319.045 134.149 313.012 125.459C308.565 118.965 306.066 114.965 304.105 111.641L303.949 111.857C301.086 108.912 297.997 105.284 294.456 100.152L296.487 98.7039L352.156 59.7939Z" fill="#FFFDDF" fill-opacity="0.16"/>
<path d="M680.228 0.0782899H683.919L747.42 1.37007H747.87C747.794 5.13734 748.032 6.12267 748.709 9.06205C750.066 15.3346 751.339 21.9267 751.112 32.96C750.961 40.0556 750.068 45.7198 748.788 50.4774C749.24 54.3319 749.467 58.7278 749.393 64.4717C749.317 68.0215 749.009 71.1946 748.631 74.1405C748.256 78.8237 747.736 82.152 747.284 85.0228C746.755 88.3478 746.362 90.5422 746.287 95.9834C746.137 103.616 746.151 107.396 746.151 111.25C746.074 115.255 746.067 119.336 745.916 127.495C745.842 130.216 745.696 132.721 745.545 134.913C745.622 136.12 745.766 137.252 745.916 138.534C746.519 143.068 747.198 148.821 746.971 158.948H742.303L678.646 157.734C678.645 165.365 678.567 169.525 678.567 173.529C678.491 177.534 678.489 181.547 678.489 189.481C678.566 197.11 678.632 200.894 678.782 204.748C678.933 209.129 679.095 213.523 679.095 222.284C679.168 233.389 677.89 239.97 676.458 246.241C675.782 249.409 675.482 250.694 675.481 255.068C675.556 259.604 675.857 261.054 676.536 264.228C677.892 270.422 679.173 276.922 679.173 287.872C679.173 299.133 677.889 305.794 676.38 312.142C675.703 315.314 675.403 316.523 675.403 320.754C675.403 325.136 675.704 326.505 676.458 329.679C677.89 335.949 679.173 342.528 679.173 353.557H679.31C679.31 358.921 679.625 360.96 680.228 364.361C681.283 370.332 682.103 376.158 682.103 386.36C682.103 396.408 681.502 402.004 681.048 406.461C680.672 410.163 680.384 412.818 680.384 419.164C680.384 429.967 679.536 435.934 678.782 440.694C678.254 444.094 677.962 446.361 677.962 452.026C677.962 461.473 677.58 466.549 677.278 470.933C677.053 474.634 676.829 477.887 676.829 484.986H608.953C608.953 475.616 609.335 470.539 609.636 466.157C609.863 462.458 610.086 459.207 610.086 452.183C610.086 441.377 610.914 435.396 611.668 430.633C612.195 427.239 612.488 424.965 612.488 419.301C612.488 409.254 613.108 403.658 613.562 399.2C613.938 395.499 614.227 392.845 614.227 386.497C614.226 381.139 613.931 379.093 613.328 375.693C612.274 369.727 611.434 363.91 611.433 353.714C611.433 349.332 611.134 347.962 610.379 344.789C608.946 338.517 607.664 331.942 607.664 320.91C607.664 309.651 608.947 302.988 610.457 296.64C611.133 293.469 611.433 292.259 611.433 288.028C611.359 283.497 611.058 282.06 610.379 278.888C609.022 272.689 607.742 266.184 607.742 255.225C607.667 244.117 608.946 237.541 610.379 231.268C611.058 228.094 611.355 226.806 611.355 222.421C611.281 214.791 611.213 211.009 611.062 207.155C610.912 202.773 610.75 198.382 610.75 189.618C610.75 181.158 610.828 176.997 610.828 172.766C610.904 168.764 610.906 164.834 610.906 156.756H674.563C674.788 147.311 675.847 141.332 676.751 136.949C676.827 134.229 676.987 131.055 677.063 126.223C677.138 123.658 677.2 121.612 677.2 119.725C677.124 119.046 676.979 118.283 676.829 117.454C675.698 111.409 674.651 105.131 674.876 94.5546C675.026 87.8279 675.856 82.45 676.985 77.8397C676.684 74.1372 676.463 69.5959 676.614 63.0233C676.765 55.168 677.877 49.1977 679.31 44.1359C679.008 40.6599 678.864 36.5745 678.939 31.5117C679.015 29.0987 679.095 27.1375 679.095 25.3268C679.095 22.0775 678.939 19.6474 678.939 17.3803C678.864 13.0734 678.71 8.68903 678.86 0H679.778L680.228 0.0782899Z" fill="#FFFDDF" fill-opacity="0.16"/>
<path d="M1101.02 186.526L1102.6 187.739L1104.71 189.324C1098.3 197.786 1092.35 202.622 1087 206.098C1085.71 207.609 1084.35 209.362 1082.39 211.931C1078.02 217.665 1075.98 220.612 1073.95 223.557C1072.82 225.143 1071.69 226.816 1070.34 228.704C1068.68 231.423 1066.78 234.29 1064.22 237.688C1063.24 238.971 1062.41 240.036 1061.51 241.094C1061.05 241.849 1060.74 242.684 1060.22 243.892C1058.26 248.504 1055.38 255.38 1048.07 265.129C1042.49 272.609 1039.17 276.323 1036.23 279.573C1033.82 282.214 1031.93 284.401 1028.01 289.535C1024.69 293.916 1021.83 297.17 1019.12 299.889C1017.16 304.501 1014.35 309.649 1009.98 315.469L984.724 296.347L984.802 296.268L951.909 271.333C955.303 266.874 958.178 263.543 960.894 260.823C962.855 256.214 965.565 251.142 969.937 245.4C973.708 240.413 976.801 236.938 979.743 234.067C981.702 229.911 984.42 225.299 988.493 219.857C992.638 214.347 996.03 210.646 999.197 207.625C1001.08 204.072 1003.65 199.829 1007.5 194.766C1012.85 187.666 1016.1 184.042 1018.89 180.869C1020.77 177.619 1023.11 173.979 1026.43 169.595C1030.12 164.684 1033.68 161.056 1036.99 158.185C1037.29 157.809 1037.51 157.428 1037.81 157.128C1040.15 154.257 1042.43 151.394 1046.88 145.502L1101.02 186.526Z" fill="#FFFDDF" fill-opacity="0.16"/>
</g>
</svg>
