<svg preserveAspectRatio="none" width="100%" height="100%" overflow="visible" style="display: block;" viewBox="0 0 856 2" fill="none" xmlns="http://www.w3.org/2000/svg">
<path id="Vector" d="M854.843 0.65609H854.457C853.83 0.65609 853.131 0.65609 852.094 0.637956C851.057 0.637956 851.515 0.637956 849.442 0.637956C844.644 0.601689 838.326 0.565422 833.528 0.547289C832.033 0.547289 832.781 0.547289 831.744 0.547289C829.719 0.547289 827.814 0.511022 825.813 0.511022C825.162 0.511022 825.981 0.529156 825.282 0.529156C821.473 0.529156 817.856 0.492889 813.974 0.492889C794.926 0.438488 776.192 0.384088 756.902 0.347821C750.537 0.347821 742.797 0.365954 736.239 0.329687C735.467 0.329687 735.926 0.275287 735.781 0.275287C733.49 0.202753 734.262 0.311554 732.767 0.311554C726.836 0.365954 720.229 0.347821 714.515 0.311554C712.104 0.311554 714.539 0.18462 712.08 0.257154C712.152 0.29342 712.345 0.329687 711.863 0.329687C710.344 0.347821 707.498 0.329687 706.317 0.329687H701.567C698.65 0.329687 695.178 0.347821 692.043 0.329687C691.368 0.329687 692.26 0.257153 691.199 0.23902C690.114 0.220887 687.293 0.220887 686.353 0.23902C685.412 0.257153 685.798 0.311554 685.629 0.329687C684.255 0.438488 681 0.275287 680.566 0.275287C672.923 0.18462 666.364 0.275287 659.179 0.257154C653.706 0.257154 647.871 0.220887 642.687 0.202753C636.515 0.202753 631.258 0.257153 625.255 0.23902C624.628 0.23902 625.375 0.130219 624.604 0.130219C616.358 0.0939522 608.208 0.0939523 600.01 0.166486C599.19 0.166486 600.251 0.275287 599.431 0.29342C594.392 0.365954 586.46 0.565422 583.47 0.112086C580.07 0.130219 575.923 0.130219 572.885 0.220887C570.908 0.29342 572.837 0.402221 570.401 0.347821C569.871 0.347821 570.57 0.23902 569.774 0.23902C566.327 0.18462 562.565 0.220887 559.19 0.166486C558.49 0.148353 558.683 0.0576853 558.49 0.0395519C556.827 -0.0873824 554.102 0.130219 553.499 0.148353C548.942 0.257154 545.639 0.220887 541.395 0.220887C540.407 0.220887 541.564 0.0939523 540.624 0.0758188C535.729 0.0576854 530.642 0.0576853 525.82 0.112086C524.759 0.130219 525.747 0.23902 525.241 0.257154C522.974 0.311554 522.492 0.0939523 520.322 0.148353C519.864 0.148353 520.129 0.23902 520.033 0.257154C518.755 0.420355 517.622 0.18462 517.284 0.18462C513.041 0.112086 510.34 0.347821 506.265 0.311554C505.783 0.311554 506.868 0.18462 505.494 0.18462C496.356 0.148353 486.663 0.166486 477.621 0.275287C476.198 0.29342 477.211 0.384088 477.115 0.402221C475.668 0.583556 474.752 0.329687 474.27 0.329687C470.653 0.257153 467.277 0.456622 464.818 0.166486C452.497 0.23902 440.224 0.148353 428 0.257154C415.776 0.148353 403.503 0.23902 391.182 0.166486C388.723 0.456622 385.347 0.257153 381.73 0.329687C381.248 0.329687 380.332 0.583556 378.885 0.402221C378.789 0.384088 379.801 0.29342 378.379 0.275287C369.337 0.166486 359.644 0.148353 350.506 0.18462C349.132 0.18462 350.217 0.311554 349.735 0.311554C345.66 0.347821 342.959 0.112086 338.716 0.18462C338.378 0.18462 337.245 0.420355 335.967 0.257154C335.871 0.23902 336.136 0.148353 335.678 0.148353C333.508 0.0939523 333.025 0.311554 330.759 0.257154C330.253 0.23902 331.241 0.130219 330.18 0.112086C325.358 0.0576853 320.271 0.0576854 315.376 0.0758188C314.436 0.0758188 315.593 0.220887 314.604 0.220887C310.361 0.220887 307.058 0.257154 302.501 0.148353C301.898 0.130219 299.173 -0.0873824 297.51 0.0395519C297.317 0.0576853 297.51 0.148353 296.81 0.166486C293.435 0.220887 289.673 0.18462 286.225 0.23902C285.43 0.23902 286.129 0.347821 285.599 0.347821C283.163 0.402221 285.092 0.29342 283.115 0.220887C280.077 0.130219 275.93 0.130219 272.53 0.112086C269.54 0.565422 261.608 0.365954 256.568 0.29342C255.749 0.275287 256.81 0.166486 255.99 0.166486C247.792 0.0939523 239.642 0.0939522 231.396 0.130219C230.625 0.130219 231.396 0.23902 230.745 0.23902C224.742 0.257153 219.485 0.202753 213.313 0.202753C208.129 0.220887 202.294 0.257154 196.821 0.257154C189.635 0.275287 183.077 0.18462 175.434 0.275287C175 0.275287 171.745 0.438488 170.371 0.329687C170.202 0.311554 170.588 0.257153 169.647 0.23902C168.707 0.220887 165.886 0.220887 164.801 0.23902C163.74 0.257153 164.632 0.329687 163.957 0.329687C160.822 0.347821 157.35 0.329687 154.433 0.329687H149.683C148.502 0.329687 145.656 0.347821 144.137 0.329687C143.655 0.329687 143.848 0.29342 143.92 0.257154C141.461 0.18462 143.896 0.311554 141.485 0.311554C135.771 0.347821 129.164 0.365954 123.233 0.311554C121.738 0.311554 122.51 0.202753 120.219 0.275287C120.074 0.275287 120.532 0.329687 119.761 0.329687C113.203 0.365954 105.463 0.347821 99.0975 0.347821C79.8084 0.384088 61.074 0.438488 42.026 0.492889C38.1441 0.492889 34.5274 0.529156 30.7178 0.529156C30.0186 0.529156 30.8384 0.511022 30.1874 0.511022C28.1861 0.511022 26.2813 0.529156 24.256 0.547289C23.2192 0.547289 23.9666 0.547289 22.4717 0.547289C17.6736 0.565422 11.3564 0.601689 6.55827 0.637956C4.4847 0.637956 4.94282 0.637956 3.90603 0.637956C2.86924 0.65609 2.17002 0.65609 1.54312 0.65609H1.15734C0.964452 0.65609 0.482226 0.65609 0 0.674223H1.78423C3.37558 0.692357 2.26646 0.692357 5.25626 0.692357C9.69274 0.728624 14.7561 0.746757 19.4337 0.764891C20.0847 0.764891 19.0962 0.783024 20.0124 0.783024C25.7268 0.819291 31.7305 0.855558 37.4449 0.891825C38.4334 0.891825 37.8789 0.873691 37.9753 0.855558C38.771 0.855558 41.8331 0.873691 42.1707 0.873691C44.2202 0.873691 43.8585 0.909958 44.5336 0.928092C51.4777 0.982492 58.06 1.01876 64.8594 1.05503C66.0168 1.05503 64.98 1.01876 65.5828 1.01876C79.929 1.09129 94.1065 1.18196 108.404 1.23636C108.453 1.20009 108.453 1.16383 108.573 1.12756C110.02 1.10943 110.599 1.23636 111.298 1.23636C121.232 1.3633 130.876 1.39956 140.714 1.43583C142.16 1.43583 140.473 1.3633 141.606 1.3633C144.21 1.3633 146.934 1.3633 149.466 1.39956C150.551 1.4177 149.104 1.4721 150.189 1.49023C152.408 1.5265 155.205 1.54463 157.399 1.54463C158.46 1.54463 157.495 1.45396 158.17 1.45396C166.296 1.4721 174.301 1.5265 182.426 1.5265C183.053 1.5265 182.306 1.43583 183.053 1.43583C194.53 1.45396 203.861 1.54463 215.893 1.61716C225.127 1.67156 237.207 1.76223 246.996 1.70783C248.998 1.70783 249.89 1.78036 252.156 1.70783C252.662 1.6897 254.832 1.50836 256.303 1.65343C256.52 1.67156 255.869 1.76223 256.906 1.76223C262.379 1.8529 268.19 1.87103 273.808 1.87103C274.748 1.8529 273.567 1.7441 274.628 1.7441C277.497 1.7441 280.656 1.72596 283.501 1.7985C284.514 1.81663 283.308 1.99797 284.923 1.9073C285.068 1.9073 284.514 1.7985 285.309 1.7985C288.106 1.78036 290.445 1.87103 293.483 1.81663C293.965 1.7985 294.857 1.5809 296.328 1.7441C296.425 1.7441 295.556 1.8529 296.81 1.8529C300.234 1.9073 304.598 1.94357 308.118 1.9073C309.396 1.9073 308.119 1.7985 308.962 1.78036C312.169 1.76223 315.424 1.78036 318.559 1.7441C319.427 1.72596 318.848 1.61716 318.993 1.61716C320.054 1.5809 321.307 1.7985 321.79 1.83477C323.622 2.0161 327.335 1.7441 327.721 1.70783C329.939 1.50836 329.433 1.7441 329.819 1.78036C331.723 1.92543 331.772 1.70783 332.664 1.6897C335.654 1.59903 338.86 1.6897 341.464 1.70783C342.863 1.70783 342.091 1.78037 341.971 1.83477C344.093 1.9073 345.997 1.9617 348.167 1.97983C349.084 1.97983 348.891 1.88917 349.879 1.88917C352.073 1.88917 354.509 1.94357 356.799 1.92543C357.474 1.9073 356.703 1.7985 357.474 1.78036C361.308 1.7441 364.274 1.88917 368.517 1.78036C368.975 1.78036 370.904 1.49023 372.713 1.50836C376.45 1.5809 370.302 1.6897 375.196 1.8529C381.296 2.05237 393.448 1.97983 400.489 1.97983C402.394 1.97983 401.333 1.87103 402.635 1.88917C411.098 1.9073 419.513 2.05237 428 1.97983C436.487 2.05237 444.902 1.9073 453.365 1.88917C454.667 1.88917 453.606 1.97983 455.511 1.97983C462.551 1.97983 474.704 2.05237 480.804 1.8529C485.698 1.6897 479.55 1.5809 483.287 1.50836C485.096 1.49023 487.024 1.78036 487.483 1.78036C491.726 1.88917 494.692 1.7441 498.526 1.78036C499.297 1.7985 498.526 1.9073 499.201 1.92543C501.491 1.94357 503.926 1.88917 506.121 1.88917C507.109 1.88917 506.916 1.97983 507.832 1.97983C510.003 1.9617 511.907 1.9073 514.029 1.83477C513.909 1.78037 513.137 1.70783 514.536 1.70783C517.14 1.6897 520.346 1.59903 523.336 1.6897C524.228 1.70783 524.276 1.92543 526.181 1.78036C526.567 1.7441 526.061 1.50836 528.279 1.70783C528.665 1.7441 532.378 2.0161 534.21 1.83477C534.693 1.7985 535.946 1.5809 537.007 1.61716C537.152 1.61716 536.573 1.72596 537.441 1.7441C540.576 1.78036 543.831 1.7441 547.038 1.78036C547.881 1.7985 546.604 1.9073 547.881 1.9073C551.402 1.94357 555.766 1.9073 559.19 1.8529C560.443 1.8529 559.575 1.76223 559.672 1.7441C561.143 1.5809 562.035 1.7985 562.517 1.81663C565.555 1.87103 567.894 1.78036 570.691 1.7985C571.486 1.7985 570.932 1.9073 571.077 1.9073C572.692 1.99797 571.486 1.81663 572.499 1.7985C575.344 1.72596 578.503 1.7441 581.372 1.7441C582.433 1.7441 581.252 1.8529 582.192 1.87103C587.81 1.87103 593.621 1.8529 599.094 1.76223C600.131 1.76223 599.48 1.67156 599.697 1.65343C601.167 1.50836 603.337 1.6897 603.844 1.70783C606.11 1.78036 607.002 1.70783 609.004 1.70783C618.793 1.76223 630.873 1.67156 640.107 1.61716C652.139 1.54463 661.47 1.45396 672.947 1.43583C673.694 1.43583 672.947 1.5265 673.574 1.5265C681.699 1.5265 689.704 1.4721 697.83 1.45396C698.505 1.45396 697.54 1.54463 698.601 1.54463C700.795 1.54463 703.592 1.54463 705.811 1.49023C706.896 1.4721 705.449 1.4177 706.534 1.39956C709.066 1.3633 711.79 1.3633 714.394 1.3633C715.527 1.3633 713.84 1.43583 715.286 1.43583C725.124 1.39956 734.768 1.3633 744.702 1.23636C745.401 1.23636 745.98 1.10943 747.427 1.12756C747.547 1.16383 747.547 1.20009 747.595 1.23636C761.893 1.18196 776.071 1.09129 790.417 1.01876C791.02 1.01876 789.983 1.05503 791.14 1.05503C797.94 1.01876 804.522 0.982492 811.466 0.928092C812.142 0.909958 811.78 0.873691 813.829 0.873691C814.167 0.873691 817.229 0.855558 818.025 0.855558C818.121 0.873691 817.567 0.891825 818.555 0.891825C824.27 0.855558 830.273 0.819291 835.988 0.783024C836.904 0.783024 835.915 0.764891 836.566 0.764891C841.244 0.746757 846.307 0.728624 850.744 0.692357C853.733 0.692357 852.624 0.692357 854.216 0.674223H856C855.518 0.65609 855.036 0.65609 854.843 0.65609Z" fill="var(--fill-0, #39362E)"/>
</svg>
