<svg width="22" height="22" viewBox="0 0 22 22" fill="none" xmlns="http://www.w3.org/2000/svg">
  <path d="M15.8125 6.18798C15.8126 5.2655 15.5475 4.36242 15.049 3.5863C14.5504 2.81019 13.8391 2.19372 13.0001 1.81033C12.1611 1.42694 11.2295 1.29277 10.3164 1.4238C9.40325 1.55484 8.54703 1.94556 7.84967 2.54944C7.1523 3.15332 6.64319 3.94489 6.38296 4.82991C6.12272 5.71493 6.12234 6.6561 6.38186 7.54133C6.64136 8.42657 7.14982 9.21855 7.8467 9.823C8.54356 10.4274 9.39947 10.8189 10.3125 10.9506V19.9381C10.3125 20.1204 10.3849 20.2951 10.5139 20.4241C10.6428 20.5531 10.8177 20.6256 11 20.6256C11.1823 20.6256 11.3572 20.5531 11.4861 20.4241C11.6151 20.2951 11.6875 20.1204 11.6875 19.9381V10.9506C12.8321 10.7838 13.8786 10.2109 14.6359 9.33658C15.3931 8.46222 15.8107 7.3447 15.8125 6.18798ZM11 9.62548C10.3201 9.62548 9.65553 9.42388 9.09022 9.04617C8.52493 8.66844 8.08434 8.13159 7.82416 7.50346C7.56399 6.87534 7.49591 6.18417 7.62856 5.51737C7.76119 4.85056 8.08858 4.23805 8.56932 3.75731C9.05006 3.27657 9.66257 2.94917 10.3294 2.81654C10.9962 2.68391 11.6873 2.75198 12.3155 3.01215C12.9436 3.27232 13.4805 3.71293 13.8582 4.27822C14.2359 4.84351 14.4375 5.50811 14.4375 6.18798C14.4375 6.63941 14.3485 7.08641 14.1758 7.50346C14.0031 7.92052 13.7499 8.29946 13.4307 8.61867C13.1115 8.93787 12.7325 9.19108 12.3155 9.36382C11.8984 9.53658 11.4514 9.62548 11 9.62548Z" fill="#FFFDDF"/>
</svg>
