<svg xmlns="http://www.w3.org/2000/svg" viewBox="0 0 32 32" fill="none">
  <rect x="1.25" y="1.25" width="29.5" height="29.5" rx="7.5" fill="#2e2720"/>
  <rect x="1.25" y="1.25" width="29.5" height="29.5" rx="7.5" fill="none" stroke="#fffddf" stroke-opacity="0.22" stroke-width="0.65"/>
  <g transform="translate(16 16.05) scale(0.076) translate(-120 -119.801)" clip-path="url(#clip0)">
    <path d="M125.259 148.706C125.259 150.672 125.103 151.761 124.99 152.637C124.905 153.302 124.849 153.741 124.849 154.844C124.863 156.469 124.835 157.276 124.82 158.082C124.806 158.817 124.792 159.538 124.792 160.995C124.792 161.956 124.863 162.296 124.976 162.918C125.145 163.809 125.372 165.011 125.372 167.132C125.372 168.221 125.428 168.659 125.527 169.31C125.654 170.186 125.81 171.29 125.81 173.269C125.81 175.376 125.584 176.592 125.428 177.484C125.315 178.106 125.259 178.445 125.259 179.407L125.287 179.463C125.301 181.471 125.131 182.574 125.004 183.465C124.905 184.101 124.849 184.526 124.849 185.6C124.863 186.166 124.877 186.222 125.047 186.76C125.442 188.004 125.838 189.418 125.838 191.737C125.852 194 125.499 195.386 125.146 196.602C124.976 197.168 124.948 197.267 124.948 197.889C124.961 199.458 124.948 200.236 124.948 201.028V204.026C124.948 205.878 124.848 206.911 124.764 207.731C124.707 208.41 124.651 208.947 124.651 210.177H113.112C113.084 211.181 112.985 212.002 112.858 212.709C113.027 213.585 113.14 214.59 113.112 215.905C113.084 216.979 112.985 217.856 112.843 218.606C113.041 219.482 113.168 220.529 113.14 221.801C113.112 223.314 112.957 224.361 112.773 225.266C112.858 225.959 112.9 226.737 112.886 227.698L112.843 230.201C112.885 230.993 112.928 231.898 112.9 233.595C112.872 235.094 112.843 235.843 112.829 236.593C112.801 237.328 112.787 238.05 112.759 239.492H112.688L99.9613 239.223H98.9575C98.9714 237.979 99.1131 237.017 99.2966 236.183C99.1697 235.391 99.0845 234.472 99.1127 233.326C99.1414 231.403 99.311 230.342 99.4522 229.494C99.5513 228.872 99.6218 228.462 99.6361 227.444C99.6501 226.737 99.6926 226.157 99.7492 225.62C99.4948 224.573 99.2966 223.357 99.3249 221.532C99.3388 220.868 99.3814 220.288 99.4522 219.765C99.4379 219.454 99.424 219.185 99.424 218.916C99.4097 218.619 99.3953 218.309 99.3953 217.983C99.2966 217.29 99.2401 216.513 99.2544 215.608C99.2827 213.854 99.4522 212.751 99.6079 211.931C99.537 211.281 99.4944 210.559 99.5088 209.696L111.896 209.937C111.91 208.226 111.995 207.222 112.08 206.43C112.136 205.751 112.193 205.228 112.193 204.012C112.179 202.442 112.193 201.665 112.193 200.873V197.875C112.179 195.612 112.532 194.226 112.886 193.01C113.055 192.445 113.084 192.346 113.084 191.724C113.07 191.158 113.055 191.101 112.886 190.564C112.49 189.319 112.094 187.905 112.094 185.586C112.08 183.578 112.249 182.475 112.377 181.584C112.476 180.948 112.532 180.524 112.532 179.449C112.532 177.342 112.758 176.126 112.914 175.235C113.027 174.613 113.084 174.273 113.084 173.312C113.084 172.223 113.027 171.784 112.928 171.134C112.801 170.257 112.645 169.154 112.645 167.174C112.645 166.213 112.575 165.874 112.462 165.251C112.292 164.36 112.065 163.144 112.065 161.023C112.051 159.411 112.08 158.605 112.094 157.799C112.108 157.064 112.122 156.328 112.122 154.872C112.122 152.906 112.278 151.817 112.391 150.94C112.476 150.276 112.532 149.823 112.532 148.706H125.259Z" fill="#fffddf"/>
    <path d="M140.838 140.279C141.447 141.1 141.715 141.382 142.182 141.835C142.846 142.485 143.667 143.291 144.868 144.946C145.632 145.992 146.028 146.445 146.481 146.983C147.018 147.619 147.64 148.34 148.686 149.782C149.874 151.422 150.412 152.526 150.892 153.6C151.147 154.166 151.26 154.421 151.769 155.128C152.504 156.132 152.858 156.542 153.325 157.065C153.89 157.715 154.541 158.451 155.615 159.921C156.506 161.137 156.959 161.746 157.411 162.354C157.864 162.976 158.33 163.598 159.249 164.857C160.423 166.469 160.932 167.445 161.356 168.236C161.667 168.816 161.865 169.212 162.502 170.075C162.883 170.584 162.968 170.669 163.435 171.022C164.425 171.8 165.514 172.705 166.829 174.515C167.96 176.071 168.483 177.018 168.908 177.767C169.233 178.361 169.459 178.786 170.138 179.705C170.986 180.879 171.439 181.458 171.877 182.038C172.372 182.688 172.867 183.325 173.814 184.626C174.578 185.686 174.974 186.139 175.426 186.676C175.964 187.312 176.572 188.034 177.618 189.462L167.734 196.66C168.313 197.508 168.724 198.201 169.035 198.781C169.063 198.809 169.077 198.852 169.105 198.88C169.572 199.516 170.039 200.139 170.929 201.426C171.594 202.373 172.047 203.221 172.372 203.985C172.796 204.579 173.248 205.201 174.097 206.417C174.762 207.365 175.072 207.732 175.511 208.241C175.836 208.595 176.204 209.047 176.671 209.642C177.024 210.037 177.392 210.504 177.773 211.041C178.537 212.144 178.99 213.035 179.343 213.841C179.513 214.181 179.654 214.506 179.796 214.831C180.022 215.383 180.121 215.609 180.588 216.274C181.266 217.249 181.606 217.645 182.03 218.154L182.058 218.112C182.596 218.749 183.204 219.455 184.221 220.912L183.995 221.068L183.741 221.237L173.772 228.194L173.291 228.52C172.429 227.289 172.004 226.653 171.58 226.031C171.184 225.437 170.774 224.843 169.954 223.67C168.681 221.831 168.186 220.516 167.804 219.314C167.706 219.003 167.649 218.847 167.564 218.692C167.493 218.579 167.409 218.465 167.31 218.324C167.225 218.211 167.168 218.126 167.097 218.027C167.055 218.013 167.012 217.985 166.97 217.956C165.796 217.221 164.425 216.245 162.968 214.167C162.078 212.88 161.569 211.791 161.229 210.829C161.201 210.773 161.173 210.716 161.144 210.659C160.861 210.094 160.691 209.755 160.126 208.934C159.659 208.27 159.32 207.718 159.037 207.209C158.938 207.082 158.84 206.969 158.74 206.841C158.245 206.219 157.68 205.512 156.704 204.126L157.058 203.886L165.57 197.947L167.224 196.787C166.532 195.854 166.15 195.401 165.726 194.892C165.189 194.27 164.58 193.549 163.534 192.12C162.686 190.947 162.233 190.367 161.795 189.787C161.3 189.137 160.805 188.5 159.858 187.199C158.726 185.644 158.203 184.696 157.779 183.947C157.454 183.353 157.227 182.929 156.549 182.01C156.167 181.501 156.082 181.416 155.615 181.062C154.625 180.284 153.536 179.379 152.221 177.57C151.048 175.958 150.539 174.982 150.115 174.19C149.804 173.61 149.606 173.214 148.969 172.351C148.079 171.135 147.626 170.527 147.173 169.919C146.721 169.297 146.254 168.674 145.335 167.416C144.6 166.412 144.247 166.002 143.78 165.479C143.214 164.828 142.563 164.107 141.489 162.622C140.301 160.982 139.764 159.879 139.283 158.804C139.029 158.239 138.915 157.984 138.406 157.277C137.643 156.231 137.247 155.778 136.794 155.241C136.257 154.604 135.635 153.883 134.588 152.441C133.995 151.621 133.712 151.338 133.245 150.885C132.58 150.235 131.76 149.429 130.558 147.774L140.838 140.279Z" fill="#fffddf"/>
    <path d="M107.609 146.628C106.605 148.013 106.025 148.721 105.516 149.343C105.092 149.88 104.654 150.403 103.862 151.506C102.844 152.906 102.264 153.613 101.755 154.236H101.741C101.303 154.759 100.878 155.296 100.087 156.385C98.9273 157.997 98.1492 158.803 97.5271 159.439C97.0606 159.92 96.7633 160.232 96.1273 161.108C95.1514 162.466 94.6284 163.131 94.105 163.781C93.6811 164.333 93.2425 164.884 92.4222 166.015C91.3193 167.528 90.6264 168.306 90.0608 168.928C89.6083 169.423 89.2549 169.819 88.548 170.795C88.2368 171.219 88.2228 171.262 88.0529 171.799C87.6429 173.057 87.1339 174.443 85.7623 176.338C84.956 177.441 84.5743 178.021 84.2065 178.6C83.74 179.308 83.2732 180.029 82.2833 181.4C80.9826 183.211 79.908 184.116 78.9182 184.893C78.4656 185.247 78.3669 185.332 77.9852 185.855C77.5892 186.407 77.5466 186.534 77.3345 187.086C76.8959 188.259 76.3729 189.532 75.0718 191.328C74.0537 192.742 73.4598 193.449 72.9369 194.085C72.4843 194.637 72.0883 195.103 71.3106 196.178L61.0304 188.726C60.6061 189.277 60.2244 189.716 59.871 190.097C59.475 190.875 58.9377 191.908 57.7783 193.449C56.7458 194.82 56.152 195.499 55.6143 196.107C55.2752 196.489 54.9783 196.829 54.5257 197.394C54.3844 197.606 54.2571 197.804 54.0732 198.045C53.6632 198.596 53.3524 199.006 53.0977 199.36C53.0837 199.402 53.0694 199.445 53.0411 199.487C52.6451 200.279 52.1074 201.354 50.8632 203.008C50.0147 204.125 49.3221 204.861 48.6857 205.455C48.3605 206.133 47.908 206.883 47.2999 207.689C46.3948 208.891 45.6596 209.641 44.9667 210.263C44.6415 210.8 44.2029 211.45 43.5808 212.271L43.1992 211.988L33.0464 204.309C33.3858 203.843 33.7111 203.461 34.008 203.121C34.0222 203.093 34.0362 203.051 34.0644 203.008C34.5452 201.976 35.0827 200.929 36.2706 199.36C36.9351 198.483 37.5287 197.832 38.0519 197.323C38.4054 196.489 38.9148 195.57 39.6925 194.552C40.9934 192.827 42.0398 191.964 43.0013 191.229C43.1426 191.116 43.2413 191.031 43.3261 190.96C43.4961 190.748 43.6378 190.536 43.8216 190.281C44.2881 189.673 44.3729 189.475 44.6133 188.938C44.7689 188.585 44.9528 188.217 45.1506 187.835C45.5327 187.057 46.0274 186.195 46.8195 185.148C48.021 183.55 48.9261 182.73 49.8169 181.98C49.8595 181.952 49.8738 181.938 49.902 181.91C50.1424 181.542 50.425 181.146 50.7502 180.708L60.9034 188.386L61.1295 188.556C62.0768 187.255 62.6567 186.562 63.1514 185.954C63.6039 185.402 63.9999 184.936 64.7777 183.861C65.1737 183.31 65.2302 183.168 65.4284 182.631C65.8666 181.457 66.3896 180.184 67.6903 178.388C68.9914 176.578 70.066 175.674 71.0559 174.896C71.5084 174.542 71.6075 174.457 71.9892 173.934C72.7952 172.831 73.1773 172.251 73.5446 171.672C74.0115 170.965 74.478 170.243 75.4678 168.872C75.7791 168.447 75.793 168.405 75.9625 167.868C76.3729 166.609 76.8819 165.223 78.2535 163.328C79.3564 161.816 80.0493 161.038 80.6149 160.415C81.0674 159.92 81.4208 159.524 82.1281 158.548C83.1036 157.191 83.627 156.526 84.1504 155.876C84.5743 155.324 85.0129 154.773 85.8328 153.642C86.9926 152.03 87.7703 151.223 88.3924 150.587C88.8589 150.107 89.1562 149.795 89.7926 148.919C90.8103 147.519 91.3902 146.811 91.8989 146.189C92.3375 145.666 92.7617 145.129 93.5538 144.04C94.5576 142.654 95.1375 141.947 95.6465 141.325C96.0704 140.788 96.509 140.264 97.301 139.161L107.609 146.628Z" fill="#fffddf"/>
    <path d="M149.064 123.662C150.266 124.058 150.818 124.185 151.511 124.341C152.331 124.525 153.279 124.751 154.99 125.302C157.04 125.967 158.171 126.632 159.232 127.296C159.741 127.621 159.896 127.72 160.604 127.947C161.381 128.201 161.636 128.215 162.244 128.272C163.446 128.371 164.676 128.527 166.656 129.163C168.253 129.686 169.045 129.983 169.837 130.28C170.473 130.535 171.124 130.775 172.439 131.199C173.697 131.609 174.291 131.765 174.984 131.934C175.79 132.133 176.695 132.359 178.35 132.896C179.764 133.348 180.471 133.561 181.178 133.773C181.927 133.999 182.691 134.225 184.204 134.72C185.363 135.102 185.901 135.216 186.565 135.357C187.371 135.526 188.389 135.753 190.143 136.318C192.207 136.983 193.324 137.619 194.13 138.072C194.668 138.383 194.936 138.538 195.785 138.807C196.972 139.189 197.524 139.316 198.203 139.472C199.037 139.656 199.985 139.868 201.71 140.433C203.888 141.14 205.104 141.918 206.164 142.654C206.631 142.979 206.701 143.021 207.253 143.205L203.506 154.801C203.633 154.843 203.774 154.899 203.888 154.928H204.1C205.4 154.928 206.97 154.97 209.232 155.748C211.085 156.384 212.117 156.964 213.093 157.544C213.22 157.615 213.319 157.671 213.418 157.728C213.8 157.841 214.21 157.968 214.662 158.124C215.214 158.308 215.695 158.491 216.105 158.661C217.024 158.746 218.368 158.873 220.39 159.58C222.567 160.33 223.854 161.292 224.844 162.168C225.084 162.253 225.339 162.352 225.636 162.451C226.456 162.734 226.753 162.776 227.347 162.861V162.89C228.223 163.017 229.425 163.186 231.376 163.865V163.893L229.326 169.79L227.219 175.885L227.177 175.984C226.541 175.758 226.371 175.744 225.819 175.701C224.9 175.631 223.515 175.517 221.365 174.768C220.22 174.372 219.329 173.919 218.594 173.453C218.579 173.438 218.551 173.424 218.537 173.424C217.887 173.17 217.236 172.93 215.921 172.477C214.097 171.855 213.135 171.36 212.372 170.964C211.792 170.837 211.156 170.667 210.407 170.412C209.558 170.115 208.935 169.875 208.426 169.677C207.592 169.55 206.475 169.352 204.736 168.744C203.392 168.277 202.728 168.065 202.049 167.838C201.314 167.598 200.592 167.358 199.136 166.849L203.152 155.267C201.102 154.574 199.928 153.825 198.896 153.104C198.429 152.778 198.358 152.736 197.807 152.552C196.619 152.17 196.067 152.043 195.389 151.887C194.555 151.703 193.607 151.491 191.882 150.926C189.818 150.261 188.701 149.625 187.895 149.173C187.357 148.861 187.088 148.706 186.24 148.437C185.08 148.055 184.543 147.942 183.878 147.801C183.072 147.631 182.054 147.405 180.301 146.839C178.887 146.373 178.18 146.16 177.473 145.948C176.723 145.722 175.96 145.496 174.447 145.001C173.189 144.591 172.594 144.435 171.901 144.265C171.095 144.067 170.19 143.841 168.536 143.304C166.924 142.78 166.132 142.484 165.34 142.187C164.69 141.932 164.053 141.692 162.738 141.268C161.961 141.013 161.706 140.999 161.098 140.942C159.896 140.843 158.666 140.688 156.686 140.051C154.636 139.387 153.505 138.722 152.444 138.058C151.935 137.746 151.78 137.633 151.072 137.407C149.871 137.025 149.319 136.884 148.626 136.728C147.806 136.544 146.859 136.318 145.148 135.767L149.064 123.662Z" fill="#fffddf"/>
    <path d="M93.8508 133.321C93.0022 133.604 92.7335 133.745 92.1962 134.056C91.3759 134.509 90.273 135.146 88.1946 135.824C86.6957 136.319 85.9463 136.545 85.1968 136.786C84.4896 137.012 83.7684 137.238 82.3403 137.705C81.3079 138.044 80.9118 138.228 80.318 138.525C79.526 138.921 78.5222 139.402 76.6416 140.024C74.8318 140.618 73.7568 140.802 72.6257 140.971C72.0036 141.07 71.6215 141.127 70.6599 141.438C69.1331 141.933 68.3694 142.159 67.6056 142.4C66.913 142.626 66.2058 142.838 64.806 143.291C63.2223 143.8 62.4163 144.026 61.6104 144.253C60.9317 144.45 60.2527 144.634 58.9234 145.072C57.7497 145.454 57.2549 145.666 56.6185 145.949C55.8265 146.302 54.9218 146.699 53.1686 147.264C52.0657 147.618 51.6271 147.83 51.0046 148.113C50.2269 148.466 49.2513 148.919 47.4412 149.513C45.6314 150.107 44.599 150.319 43.7648 150.489C43.0862 150.616 42.6054 150.715 41.4882 151.082C39.6641 151.691 38.6178 151.889 37.7694 152.058L37.7834 152.072C37.133 152.2 36.6523 152.299 35.5636 152.652L31.7879 141.113C30.9537 141.367 30.5719 141.551 30.0346 141.792C29.2427 142.145 28.2669 142.598 26.4288 143.163C25.2551 143.517 24.2651 143.687 23.4025 143.757C23.1056 143.8 22.8368 143.842 22.5964 143.885C22.4975 143.899 22.3984 143.913 22.2994 143.927C21.847 144.068 21.338 144.238 20.6452 144.45C20.1928 144.592 19.7686 144.691 19.3727 144.776C19.203 144.846 19.0331 144.931 18.8351 145.03C18.0716 145.398 17.0251 145.921 15.1162 146.5C14.0981 146.812 13.2637 146.981 12.5284 147.094C11.7506 147.49 10.8314 147.872 9.48812 148.282C8.01759 148.721 7.26826 148.933 6.53298 149.145C5.85421 149.343 5.17536 149.527 3.83201 149.937L3.78964 149.81L0.0847327 137.634L0 137.337C0.947415 137.055 1.28683 136.885 1.85246 136.616C2.64428 136.234 3.63412 135.753 5.51463 135.188C6.53274 134.877 6.91467 134.707 7.50854 134.438C8.27212 134.099 9.23367 133.66 11.0436 133.109C12.4577 132.67 13.5325 132.515 14.48 132.459C15.088 132.204 15.7949 131.949 16.7565 131.652C18.3684 131.172 19.5987 131.03 20.6592 131.03C21.1541 130.861 21.7483 130.663 22.5684 130.422C23.5299 130.126 24.1661 129.942 24.7034 129.786C25.5519 129.305 26.5984 128.81 28.1114 128.344L28.2385 128.754L28.2669 128.867L31.8019 140.477C33.4987 139.925 34.531 139.713 35.337 139.558C35.9874 139.43 36.4684 139.331 37.5571 138.978C39.367 138.384 40.3992 138.172 41.2338 138.002C41.9124 137.875 42.3932 137.776 43.5101 137.408C44.6133 137.055 45.0519 136.842 45.674 136.559C46.4517 136.206 47.4133 135.753 49.2374 135.16C50.3968 134.778 50.8915 134.565 51.528 134.283C52.3196 133.929 53.2251 133.533 54.9783 132.968C56.5759 132.444 57.3823 132.218 58.1883 131.992C58.8669 131.808 59.5319 131.624 60.8609 131.186C62.3737 130.691 63.1371 130.45 63.9009 130.224C64.5938 129.998 65.3011 129.786 66.7009 129.333C68.5107 128.739 69.5857 128.556 70.7168 128.386C71.3389 128.287 71.7206 128.23 72.6822 127.919C73.7286 127.58 74.1246 127.396 74.7184 127.099C75.5248 126.717 76.5146 126.222 78.3952 125.614C79.8937 125.119 80.6432 124.893 81.3926 124.653C82.0995 124.426 82.8211 124.2 84.2492 123.734C85.0973 123.451 85.3664 123.309 85.9037 122.998C86.7097 122.545 87.8269 121.909 89.8914 121.23L93.8508 133.321Z" fill="#fffddf"/>
    <path d="M207.902 98.2071C207.609 98.3014 207.317 98.4618 207.025 98.6879C205.936 99.5221 204.691 100.385 202.4 101.134C200.435 101.771 199.191 101.927 197.989 102.04C197.381 102.096 197.126 102.124 196.349 102.379C194.694 102.916 193.789 103.156 192.997 103.355C192.305 103.524 191.71 103.68 190.452 104.09C189.533 104.387 189.236 104.557 188.67 104.853C187.879 105.278 186.804 105.872 184.796 106.522C183.241 107.031 182.463 107.271 181.685 107.498C180.992 107.696 180.299 107.894 178.927 108.346C177.584 108.785 176.905 109.039 176.241 109.279C175.463 109.562 174.685 109.845 173.116 110.354C171.815 110.778 171.178 111.033 170.528 111.273C169.736 111.57 168.944 111.882 167.332 112.405C166.201 112.773 165.72 112.984 165.098 113.267C164.334 113.621 163.387 114.045 161.605 114.625C159.187 115.403 157.519 115.374 156.133 115.304C156.006 115.29 155.879 115.29 155.723 115.29C155.737 115.29 155.623 115.304 155.384 115.388C154.521 115.671 154.252 115.827 153.701 116.138C152.895 116.591 151.792 117.213 149.727 117.891L145.782 105.801C146.644 105.518 146.913 105.363 147.465 105.051C148.271 104.599 149.388 103.977 151.438 103.298C153.856 102.52 155.525 102.548 156.911 102.619C157.038 102.633 157.165 102.633 157.321 102.633C157.307 102.633 157.42 102.619 157.66 102.534C158.791 102.167 159.272 101.955 159.894 101.672C160.658 101.318 161.605 100.894 163.387 100.314C164.702 99.8899 165.339 99.6352 165.989 99.3948C166.781 99.0839 167.573 98.787 169.171 98.264C170.528 97.8254 171.193 97.5707 171.872 97.3303C172.635 97.0473 173.413 96.7647 174.968 96.2557C176.51 95.7606 177.287 95.5202 178.065 95.2941C178.772 95.0819 179.465 94.8841 180.837 94.4316C181.756 94.1347 182.053 93.9647 182.618 93.6678C183.41 93.2435 184.485 92.6497 186.492 91.999C188.147 91.4616 189.038 91.2216 189.83 91.0234C190.523 90.8396 191.131 90.6843 192.389 90.274C194.355 89.638 195.599 89.4819 196.801 89.3689C197.409 89.3124 197.664 89.2841 198.441 89.0294C198.734 88.9355 199.026 88.7751 199.318 88.5486V88.5633C200.407 87.7287 201.651 86.8658 203.942 86.1164L207.902 98.2071Z" fill="#fffddf"/>
    <path d="M12.6173 63.2062C14.2857 63.7861 15.1342 64.1817 15.8978 64.5212C16.4916 64.7899 16.9725 65.0164 18.0895 65.3981C19.0793 65.7376 19.5037 65.8223 20.1258 65.9497C20.9601 66.1193 22.0065 66.3314 23.8024 66.9535C24.4387 67.1799 24.9762 67.3921 25.457 67.6042C25.4852 67.6186 25.5135 67.6182 25.5417 67.6182C26.3901 67.7598 27.5639 67.9437 29.4728 68.6084C31.1555 69.1879 32.0748 69.6265 32.81 69.9799C33.4746 70.1073 34.1958 70.2769 35.0442 70.5738C36.84 71.1959 38.0135 71.9314 38.9326 72.6387C39.3144 72.8225 39.668 72.9921 40.3748 73.2325L40.2479 73.5859L36.2036 85.2802C36.5713 85.4076 36.7129 85.408 37.1936 85.408C38.4945 85.4219 39.9509 85.4928 42.1567 86.1997C44.0373 86.8078 45.0276 87.2886 45.8192 87.6703C46.4274 87.9533 46.8234 88.1511 47.8694 88.4906C49.8069 89.1127 50.8815 89.6926 51.8996 90.2721C52.4369 90.5833 52.6773 90.725 53.5115 90.9937C53.7193 91.0765 53.8184 91.0785 53.8224 91.0785C53.9358 91.0785 54.0632 91.0502 54.1901 91.0498C55.5899 90.9511 57.2871 90.8946 59.7332 91.6862C61.5573 92.28 62.5332 92.7612 63.5513 93.2846C64.1169 93.5672 64.4564 93.7511 65.418 94.0623C67.652 94.7835 68.8684 95.5612 69.6743 96.0703C70.1691 96.3955 70.3247 96.4802 71.0033 96.7063C72.177 97.0884 72.7143 97.2014 73.3929 97.3571C74.2276 97.5409 75.1888 97.7531 76.9281 98.3187C77.9888 98.6582 78.4274 98.7429 79.092 98.856C79.9545 99.0116 81.0291 99.1955 82.8954 99.8036C84.6065 100.355 85.4833 100.722 86.261 101.048C86.9257 101.33 87.449 101.543 88.665 101.939C89.4849 102.207 89.7679 102.235 90.3756 102.292C91.5637 102.405 92.7796 102.575 94.7171 103.197L90.8003 115.302C89.98 115.033 89.6974 115.005 89.0893 114.948C87.9155 114.835 86.6992 114.68 84.7482 114.044C83.0371 113.492 82.1603 113.124 81.3826 112.799C80.7179 112.516 80.1949 112.304 78.979 111.908C77.9183 111.569 77.4797 111.484 76.815 111.371C75.9382 111.215 74.8636 111.031 72.9973 110.423C71.8236 110.042 71.2863 109.928 70.6073 109.773C69.773 109.589 68.8114 109.377 67.0725 108.811C64.8381 108.09 63.6218 107.312 62.8158 106.803C62.3211 106.478 62.1655 106.393 61.4869 106.167C59.6628 105.573 58.6869 105.092 57.6691 104.569C57.1036 104.272 56.7641 104.103 55.8025 103.791C55.502 103.696 55.4916 103.705 55.4912 103.706C55.3782 103.706 55.2508 103.735 55.1235 103.735C53.7237 103.833 52.0266 103.89 49.5804 103.098C47.6433 102.476 46.5687 101.896 45.5505 101.316C45.0132 101.006 44.7728 100.864 43.9386 100.595C42.058 99.9871 41.0682 99.5063 40.2761 99.1246C39.6682 98.8416 39.272 98.6438 38.2256 98.3043C37.7025 98.1348 37.6317 98.1348 37.0661 98.1348C35.7652 98.1208 34.3089 98.0496 32.1031 97.3427L35.9067 85.5632C35.1855 85.3089 34.5633 85.0259 34.0119 84.7433C33.6725 84.616 33.3756 84.4886 33.0787 84.3756C32.4565 84.1208 31.834 83.8808 30.5755 83.4422C28.9778 82.891 28.1578 82.5511 27.4225 82.2402C27.366 82.212 27.3093 82.1977 27.2527 82.1694C26.574 82.042 25.8528 81.8586 24.9762 81.5616C24.2692 81.3069 23.7035 81.0804 23.1945 80.84H23.1521C22.0774 80.6422 21.0592 80.4301 19.3341 79.8363C17.8918 79.3272 17.0289 78.9455 16.3502 78.6343C15.6149 78.493 14.7947 78.2808 13.7484 77.9274C12.4192 77.4605 11.5002 77.0223 10.7224 76.5698L10.7365 76.5411C10.1285 76.3433 9.42139 76.1173 8.27607 75.7212L8.43158 75.2826L12.6033 63.2627H12.6173V63.2062Z" fill="#fffddf"/>
    <path d="M236.008 89.8237L239.713 101.999V102.013L239.981 102.876C238.186 103.427 237.153 103.597 236.319 103.739C235.669 103.852 235.244 103.922 234.226 104.233C232.798 104.658 231.766 104.841 230.847 104.94C230.238 105.195 229.489 105.478 228.528 105.775C227.029 106.227 226.279 106.425 225.516 106.637C224.851 106.821 224.186 107.005 222.857 107.401C221.556 107.797 220.92 108.009 220.269 108.235C220.015 108.32 219.76 108.405 219.478 108.504C218.87 108.787 218.148 109.069 217.272 109.338C216.07 109.706 215.518 109.918 214.896 110.158C214.825 110.172 214.769 110.201 214.698 110.229C213.92 110.611 213.015 111.007 211.715 111.403L211.672 111.247L207.967 99.0719L207.911 98.9019C209.099 98.5342 209.721 98.3224 210.301 98.1103C211.106 97.686 212.068 97.2617 213.468 96.8374C214.514 96.5262 214.924 96.3284 215.518 96.0741C215.546 96.0597 215.589 96.0315 215.617 96.0315C216.466 95.5507 217.484 95.0556 218.968 94.603C220.255 94.2074 221.188 94.0231 221.938 93.9101C222.617 93.7123 223.31 93.5145 224.667 93.1045C225.586 92.8215 226.322 92.6516 226.986 92.5385C227.721 92.2134 228.669 91.8034 230.295 91.3083C231.61 90.9123 232.261 90.7001 232.911 90.4737C233.661 90.2193 234.41 89.965 235.909 89.5125L236.008 89.8237Z" fill="#fffddf"/>
    <path d="M178.453 50.5553C178.128 50.9935 178.114 51.0361 177.944 51.573C177.534 52.8315 177.025 54.2178 175.653 56.1123C174.465 57.7529 173.589 58.6015 172.712 59.3935C172.26 59.8174 172.047 60.0013 171.538 60.7081C170.619 61.9666 170.166 62.6031 169.7 63.2255C169.247 63.8333 168.809 64.4275 167.918 65.6578C167.113 66.7889 166.73 67.3688 166.349 67.9487C165.882 68.6556 165.429 69.3629 164.439 70.7205C163.916 71.4556 163.775 71.7386 163.521 72.3041C163.139 73.1527 162.616 74.2982 161.343 76.0514C159.759 78.2293 158.303 79.1905 157.426 79.7704C157.162 79.9495 156.955 80.1382 156.804 80.3364C156.281 81.0576 156.153 81.3402 155.899 81.9057C155.517 82.7543 154.98 83.9137 153.707 85.6813C153.056 86.5863 152.844 86.9824 152.519 87.5762C152.109 88.3539 151.586 89.3159 150.44 90.8996C149.083 92.7802 147.952 93.6996 146.906 94.4773C146.453 94.8168 146.396 94.8733 146.057 95.3258C145.576 95.9905 145.477 96.2166 145.251 96.7682C144.785 97.8854 144.261 99.0309 143.031 100.728L132.722 93.261C133.203 92.5967 133.302 92.3702 133.528 91.8186C133.995 90.6874 134.518 89.542 135.749 87.8452C137.106 85.9646 138.237 85.0452 139.284 84.2675C139.736 83.928 139.793 83.8854 140.132 83.419C140.783 82.5139 140.995 82.1179 141.32 81.5241C141.73 80.7463 142.253 79.7847 143.399 78.2011C143.922 77.4799 144.049 77.1969 144.303 76.6313C144.685 75.7828 145.223 74.6234 146.495 72.8558C148.079 70.6779 149.536 69.7163 150.412 69.1364C150.676 68.9573 150.884 68.7686 151.034 68.5708C151.557 67.8357 151.699 67.5527 151.954 66.9871C152.335 66.1386 152.859 64.9931 154.131 63.2399C154.937 62.1227 155.319 61.5428 155.701 60.9629C156.153 60.256 156.62 59.5627 157.61 58.1911C158.529 56.9326 158.982 56.2962 159.448 55.6741C159.901 55.0659 160.339 54.4721 161.23 53.2423C162.418 51.6017 163.294 50.7531 164.171 49.9611C164.623 49.5372 164.836 49.3529 165.345 48.646C165.67 48.2078 165.684 48.1653 165.854 47.6279C166.264 46.3694 166.773 44.9836 168.145 43.0886L178.453 50.5553Z" fill="#fffddf"/>
    <path d="M66.0231 11.1867C66.7299 12.2048 67.0695 12.6293 67.5077 13.1667C67.9037 13.6475 68.3423 14.1847 68.9787 15.0615C69.1765 15.316 69.3743 15.5705 69.5865 15.8816C69.7421 16.1078 69.8694 16.2917 69.9964 16.4755C70.2511 16.8007 70.4633 17.0129 70.7459 17.2956C71.354 17.9178 72.2026 18.7523 73.3759 20.435C74.2527 21.6935 74.6913 22.3866 75.1013 23.0512C75.5538 23.5744 76.0772 24.2393 76.7841 25.2574C77.7739 26.6855 78.2973 27.8593 78.6364 28.8915C78.9333 29.2875 79.2728 29.7683 79.7254 30.4187C80.4744 31.4933 80.9413 32.3277 81.2947 33.0912C81.7755 33.6144 82.3272 34.2933 83.034 35.3114L72.9098 42.3817C74.0832 44.0223 74.6066 45.1678 75.0591 46.285C75.2712 46.8363 75.3556 47.0206 75.7942 47.6283C76.402 48.4625 76.685 48.7455 77.1518 49.2124C77.8022 49.8627 78.6082 50.6687 79.8097 52.3093C80.9835 53.9069 81.4929 54.8828 81.9168 55.6606C82.2281 56.2401 82.4402 56.6361 83.0762 57.5129C83.4866 58.0785 83.5996 58.1776 84.0665 58.5453C84.8298 59.1531 85.9614 60.0586 87.3612 61.9817C88.5771 63.6359 89.1005 64.7531 89.5813 65.842C89.8217 66.4076 89.9347 66.6623 90.4294 67.341C91.0798 68.2321 91.3914 68.5573 91.8579 69.052C92.4661 69.6741 93.2295 70.4661 94.3749 72.0498C95.6617 73.8178 96.199 74.9915 96.5807 75.8401C96.8493 76.4056 96.9624 76.6743 97.4858 77.3811C98.0513 78.1589 98.3061 78.3997 98.7725 78.8379C99.4229 79.46 100.314 80.3085 101.558 82.0052C102.067 82.6982 102.279 82.882 102.732 83.292C103.623 84.084 104.528 84.9326 105.73 86.5871C106.974 88.2838 107.511 89.4436 107.978 90.5748C108.219 91.1404 108.303 91.3525 108.77 91.9889L98.4895 99.4838C97.2454 97.7871 96.7081 96.6273 96.2416 95.4962C96.0012 94.9306 95.916 94.7181 95.4495 94.082C94.9405 93.3891 94.7284 93.2052 94.2758 92.7949C93.3851 92.0032 92.48 91.1547 91.278 89.5002C90.7124 88.7224 90.4581 88.4816 89.9916 88.0434C89.3409 87.4213 88.4501 86.5728 87.2056 84.8617C85.9188 83.0942 85.3815 81.9205 84.9998 81.0719C84.7311 80.4924 84.6181 80.2237 84.0947 79.5165C83.4444 78.6257 83.1331 78.3006 82.6663 77.8054C82.0585 77.1833 81.2951 76.3913 80.1497 74.8076C78.9337 73.1531 78.4103 72.0359 77.9296 70.9469C77.6748 70.3813 77.5618 70.1266 77.0671 69.448C76.6571 68.8824 76.5437 68.7833 76.0772 68.416C75.3134 67.8078 74.1823 66.9027 72.7821 64.9796C71.6088 63.3676 71.0997 62.3917 70.6754 61.614C70.3646 61.0341 70.152 60.6381 69.5156 59.7612C68.9079 58.927 68.6249 58.644 68.1584 58.1776C67.5081 57.5272 66.7017 56.7213 65.4997 55.0811C64.2412 53.3557 63.7182 52.1819 63.2517 51.0221C63.0396 50.4709 62.9544 50.287 62.5162 49.6789L72.0187 42.7495C71.2836 41.6749 70.8306 40.8124 70.4772 40.0486C70.039 39.5255 69.516 38.8892 68.8653 37.956C67.9745 36.6692 67.4655 35.5802 67.126 34.6327C66.8008 34.1803 66.4052 33.6429 65.8535 32.851C64.991 31.6066 64.5668 30.9701 64.1425 30.3479C63.7325 29.754 63.3365 29.16 62.5162 27.9863C62.1489 27.4773 61.8798 27.0812 61.6394 26.7277C60.7769 25.9924 59.8153 25.1014 58.6842 23.4752C57.8499 22.2593 57.3835 21.5099 57.0157 20.8878L56.9875 20.9302C56.4501 20.3787 55.8702 19.6996 55.2056 18.738L55.5873 18.4694L66.0231 11.1867Z" fill="#fffddf"/>
    <path d="M127.532 0.0139559H128.225L140.131 0.25455H140.216C140.202 0.961468 140.244 1.14549 140.372 1.69695C140.626 2.87058 140.866 4.10082 140.824 6.16522C140.796 7.49449 140.626 8.55519 140.386 9.44609C140.47 10.1673 140.513 10.9876 140.499 12.0623C140.484 12.7269 140.428 13.3209 140.357 13.8724C140.286 14.7491 140.188 15.3714 140.103 15.9087C140.004 16.5308 139.933 16.9409 139.919 17.959C139.891 19.3872 139.891 20.0943 139.891 20.8154C139.877 21.5649 139.877 22.3286 139.848 23.8557C139.834 24.3648 139.806 24.8316 139.777 25.2417C139.792 25.4679 139.82 25.68 139.848 25.9204C139.961 26.7688 140.089 27.8435 140.046 29.7384H139.169L127.235 29.5122C127.235 30.9404 127.221 31.7183 127.221 32.4677C127.207 33.2172 127.206 33.9668 127.206 35.4516C127.221 36.8798 127.235 37.5869 127.263 38.308C127.291 39.1282 127.32 39.9486 127.32 41.5888C127.334 43.6676 127.093 44.8979 126.825 46.0716C126.698 46.6654 126.641 46.9058 126.641 47.7257C126.655 48.5743 126.712 48.8433 126.839 49.4372C127.093 50.5966 127.334 51.8129 127.334 53.863C127.334 55.9701 127.094 57.2147 126.811 58.4023C126.684 58.9966 126.627 59.2227 126.627 60.0147C126.627 60.8346 126.683 61.0893 126.825 61.6831C127.093 62.8569 127.334 64.0871 127.334 66.1516H127.362C127.362 67.1558 127.419 67.5375 127.532 68.1739C127.73 69.2911 127.885 70.3801 127.885 72.2889C127.885 74.1695 127.772 75.2163 127.687 76.0505C127.617 76.7434 127.56 77.2386 127.56 78.4262C127.56 80.4485 127.404 81.5657 127.263 82.4565C127.164 83.0929 127.108 83.5168 127.108 84.5775C127.108 86.345 127.037 87.2927 126.98 88.113C126.938 88.8059 126.895 89.4141 126.895 90.7431H114.169C114.169 88.9898 114.24 88.0422 114.296 87.2223C114.339 86.5293 114.381 85.9212 114.381 84.6057C114.381 82.5838 114.537 81.4666 114.678 80.5755C114.777 79.9395 114.834 79.5152 114.834 78.4545C114.834 76.5739 114.947 75.5271 115.032 74.6929C115.102 74 115.159 73.5052 115.159 72.3172C115.159 71.3134 115.102 70.9313 114.989 70.2949C114.791 69.1781 114.636 68.0891 114.636 66.1799C114.636 65.36 114.579 65.1052 114.438 64.5114C114.169 63.3377 113.929 62.1074 113.929 60.0425C113.929 57.9359 114.169 56.6913 114.452 55.5036C114.579 54.9098 114.636 54.6833 114.636 53.8913C114.622 53.0431 114.565 52.7745 114.438 52.1807C114.183 51.0209 113.943 49.8045 113.943 47.754C113.929 45.6756 114.169 44.4453 114.438 43.2716C114.565 42.6778 114.621 42.437 114.621 41.6167C114.607 40.1886 114.593 39.4816 114.565 38.7604C114.537 37.9403 114.508 37.1199 114.508 35.4796C114.508 33.8959 114.522 33.1181 114.522 32.3262C114.537 31.5768 114.536 30.8414 114.536 29.3283H126.472C126.514 27.5608 126.712 26.4436 126.882 25.6234C126.896 25.1144 126.924 24.5204 126.938 23.6155C126.952 23.1347 126.966 22.7528 126.966 22.3993C126.952 22.2721 126.924 22.1307 126.895 21.9752C126.683 20.844 126.485 19.6701 126.528 17.6904C126.556 16.4318 126.712 15.4276 126.924 14.565C126.867 13.8721 126.825 13.0236 126.853 11.7934C126.881 10.3228 127.093 9.2057 127.362 8.25827C127.305 7.6078 127.278 6.8441 127.291 5.89664C127.306 5.44418 127.32 5.07658 127.32 4.7372C127.32 4.12924 127.291 3.67664 127.291 3.25245C127.278 2.44643 127.249 1.6261 127.277 -3.66211e-05H127.447L127.532 0.0139559Z" fill="#fffddf"/>
    <path d="M206.426 34.8963L206.723 35.1226L207.119 35.4195C205.917 37.0033 204.8 37.9084 203.796 38.5589C203.556 38.8417 203.301 39.1669 202.934 39.6476C202.114 40.7222 201.732 41.2739 201.35 41.8255C201.138 42.1224 200.926 42.4337 200.671 42.7871C200.36 43.2961 200.007 43.8335 199.526 44.4699C199.342 44.7103 199.186 44.9081 199.016 45.1063C198.932 45.2476 198.875 45.4032 198.776 45.6293C198.409 46.4922 197.871 47.7789 196.499 49.603C195.453 51.0028 194.831 51.6957 194.28 52.3039C193.827 52.7986 193.473 53.209 192.738 54.1706C192.116 54.9909 191.578 55.5986 191.07 56.1077C190.702 56.9706 190.179 57.9322 189.359 59.0211L184.621 55.4434L184.635 55.4291L178.47 50.7628C179.107 49.9286 179.644 49.3061 180.153 48.797C180.521 47.9345 181.03 46.9869 181.85 45.9123C182.557 44.9789 183.137 44.3282 183.688 43.7909C184.056 43.0132 184.565 42.1507 185.329 41.1326C186.106 40.1005 186.743 39.4075 187.337 38.8419C187.69 38.1772 188.171 37.3853 188.892 36.4379C189.896 35.1086 190.504 34.4296 191.027 33.8356C191.381 33.2276 191.819 32.5487 192.441 31.7286C193.134 30.8095 193.798 30.1309 194.421 29.5936C194.477 29.5228 194.52 29.4519 194.577 29.3953C195.015 28.858 195.439 28.3207 196.273 27.2179L206.426 34.8963Z" fill="#fffddf"/>
  </g>
  <defs>
    <clipPath id="clip0">
      <rect width="240" height="239.602" fill="white"/>
    </clipPath>
  </defs>
</svg>
