<svg preserveAspectRatio="none" width="100%" height="100%" overflow="visible" style="display: block;" viewBox="0 0 733 1.76001" fill="none" xmlns="http://www.w3.org/2000/svg">
<path id="Vector" d="M732.009 0.577364H731.679C731.142 0.577364 730.543 0.577364 729.655 0.561406C728.767 0.561406 729.16 0.561406 727.384 0.561406C723.275 0.529491 717.866 0.497576 713.757 0.481618C712.477 0.481618 713.117 0.481618 712.229 0.481618C710.495 0.481618 708.864 0.449703 707.15 0.449703C706.593 0.449703 707.295 0.465661 706.696 0.465661C703.434 0.465661 700.337 0.433746 697.013 0.433746C680.702 0.385873 664.659 0.338 648.142 0.306085C642.691 0.306085 636.064 0.322042 630.448 0.290127C629.787 0.290127 630.179 0.242255 630.055 0.242255C628.094 0.178424 628.755 0.27417 627.475 0.27417C622.395 0.322042 616.738 0.306085 611.845 0.27417C609.78 0.27417 611.866 0.162467 609.76 0.226297C609.822 0.258212 609.987 0.290127 609.574 0.290127C608.273 0.306085 605.837 0.290127 604.825 0.290127H600.758C598.259 0.290127 595.286 0.306085 592.602 0.290127C592.024 0.290127 592.788 0.226297 591.88 0.210339C590.951 0.194382 588.535 0.194382 587.73 0.210339C586.924 0.226297 587.255 0.27417 587.11 0.290127C585.933 0.385873 583.146 0.242255 582.774 0.242255C576.229 0.162467 570.613 0.242255 564.461 0.226297C559.774 0.226297 554.777 0.194382 550.338 0.178424C545.053 0.178424 540.552 0.226297 535.411 0.210339C534.874 0.210339 535.514 0.114594 534.853 0.114594C527.792 0.0826787 520.814 0.0826787 513.794 0.146509C513.092 0.146509 514 0.242255 513.298 0.258212C508.983 0.322042 502.19 0.497576 499.63 0.0986363C496.719 0.114594 493.168 0.114594 490.566 0.194382C488.873 0.258212 490.525 0.353958 488.439 0.306085C487.985 0.306085 488.584 0.210339 487.903 0.210339C484.95 0.162467 481.729 0.194382 478.839 0.146509C478.24 0.130551 478.405 0.0507635 478.24 0.0348059C476.815 -0.0768972 474.482 0.114594 473.966 0.130551C470.064 0.226297 467.235 0.194382 463.601 0.194382C462.755 0.194382 463.746 0.0826787 462.941 0.0667211C458.749 0.0507635 454.393 0.0507635 450.264 0.0986363C449.355 0.114594 450.202 0.210339 449.768 0.226297C447.827 0.27417 447.414 0.0826787 445.556 0.130551C445.164 0.130551 445.391 0.210339 445.309 0.226297C444.214 0.369915 443.244 0.162467 442.955 0.162467C439.321 0.0986363 437.008 0.306085 433.519 0.27417C433.106 0.27417 434.035 0.162467 432.859 0.162467C425.033 0.130551 416.733 0.146509 408.991 0.242255C407.773 0.258212 408.64 0.338 408.557 0.353958C407.319 0.513533 406.534 0.290127 406.121 0.290127C403.024 0.226297 400.133 0.40183 398.028 0.146509C387.477 0.210339 376.968 0.130551 366.5 0.226297C356.032 0.130551 345.523 0.210339 334.972 0.146509C332.866 0.40183 329.976 0.226297 326.879 0.290127C326.466 0.290127 325.681 0.513533 324.443 0.353958C324.36 0.338 325.227 0.258212 324.009 0.242255C316.266 0.146509 307.966 0.130551 300.141 0.162467C298.965 0.162467 299.894 0.27417 299.481 0.27417C295.991 0.306085 293.679 0.0986363 290.045 0.162467C289.756 0.162467 288.786 0.369915 287.691 0.226297C287.609 0.210339 287.836 0.130551 287.444 0.130551C285.585 0.0826787 285.173 0.27417 283.232 0.226297C282.798 0.210339 283.645 0.114594 282.736 0.0986363C278.607 0.0507635 274.25 0.0507635 270.059 0.0667211C269.254 0.0667211 270.245 0.194382 269.398 0.194382C265.765 0.194382 262.936 0.226297 259.034 0.130551C258.518 0.114594 256.185 -0.0768972 254.76 0.0348059C254.595 0.0507635 254.76 0.130551 254.161 0.146509C251.271 0.194382 248.05 0.162467 245.097 0.210339C244.416 0.210339 245.015 0.306085 244.56 0.306085C242.475 0.353958 244.127 0.258212 242.434 0.194382C239.832 0.114594 236.281 0.114594 233.37 0.0986363C230.81 0.497576 224.017 0.322042 219.702 0.258212C219 0.242255 219.908 0.146509 219.206 0.146509C212.186 0.0826787 205.208 0.0826787 198.147 0.114594C197.486 0.114594 198.147 0.210339 197.589 0.210339C192.448 0.226297 187.947 0.178424 182.662 0.178424C178.223 0.194382 173.226 0.226297 168.539 0.226297C162.386 0.242255 156.771 0.162467 150.226 0.242255C149.854 0.242255 147.067 0.385873 145.89 0.290127C145.745 0.27417 146.076 0.226297 145.27 0.210339C144.465 0.194382 142.049 0.194382 141.12 0.210339C140.212 0.226297 140.976 0.290127 140.398 0.290127C137.714 0.306085 134.741 0.290127 132.242 0.290127H128.175C127.163 0.290127 124.727 0.306085 123.426 0.290127C123.013 0.290127 123.178 0.258212 123.24 0.226297C121.134 0.162467 123.22 0.27417 121.155 0.27417C116.262 0.306085 110.604 0.322042 105.525 0.27417C104.245 0.27417 104.906 0.178424 102.945 0.242255C102.821 0.242255 103.213 0.290127 102.552 0.290127C96.9364 0.322042 90.3088 0.306085 84.858 0.306085C68.3406 0.338 52.2981 0.385873 35.9872 0.433746C32.6631 0.433746 29.5661 0.465661 26.3039 0.465661C25.7052 0.465661 26.4072 0.449703 25.8497 0.449703C24.136 0.449703 22.5049 0.465661 20.7706 0.481618C19.8828 0.481618 20.5228 0.481618 19.2427 0.481618C15.134 0.497576 9.7246 0.529491 5.6159 0.561406C3.84028 0.561406 4.23258 0.561406 3.34477 0.561406C2.45696 0.577364 1.8582 0.577364 1.32139 0.577364H0.991042C0.825868 0.577364 0.412934 0.577364 0 0.593321H1.52785C2.89054 0.609279 1.94078 0.609279 4.50098 0.609279C8.29998 0.641194 12.6358 0.657152 16.6413 0.673109C17.1987 0.673109 16.3522 0.689067 17.1368 0.689067C22.0301 0.720982 27.1711 0.752897 32.0643 0.784812C32.9109 0.784812 32.436 0.768855 32.5186 0.752897C33.1999 0.752897 35.8221 0.768855 36.1111 0.768855C37.8661 0.768855 37.5564 0.80077 38.1345 0.816728C44.0807 0.8646 49.7173 0.896515 55.5397 0.928431C56.5307 0.928431 55.6429 0.896515 56.1591 0.896515C68.4439 0.960346 80.5841 1.04013 92.8277 1.08801C92.8689 1.05609 92.8689 1.02418 92.9722 0.992261C94.211 0.976303 94.7065 1.08801 95.3053 1.08801C103.812 1.19971 112.07 1.23162 120.494 1.26354C121.733 1.26354 120.288 1.19971 121.258 1.19971C123.488 1.19971 125.821 1.19971 127.989 1.23162C128.918 1.24758 127.679 1.29545 128.608 1.31141C130.508 1.34333 132.903 1.35929 134.782 1.35929C135.69 1.35929 134.864 1.2795 135.442 1.2795C142.4 1.29545 149.255 1.34333 156.213 1.34333C156.75 1.34333 156.11 1.26354 156.75 1.26354C166.578 1.2795 174.568 1.35929 184.871 1.42312C192.778 1.47099 203.122 1.55078 211.505 1.5029C213.219 1.5029 213.983 1.56673 215.923 1.5029C216.357 1.48695 218.215 1.32737 219.475 1.45503C219.66 1.47099 219.103 1.55078 219.991 1.55078C224.678 1.63056 229.653 1.64652 234.464 1.64652C235.269 1.63056 234.258 1.53482 235.166 1.53482C237.623 1.53482 240.328 1.51886 242.764 1.58269C243.631 1.59865 242.599 1.75822 243.982 1.67844C244.106 1.67844 243.631 1.58269 244.313 1.58269C246.708 1.56673 248.71 1.64652 251.312 1.59865C251.725 1.58269 252.489 1.3912 253.748 1.53482C253.831 1.53482 253.088 1.63056 254.161 1.63056C257.093 1.67844 260.83 1.71035 263.844 1.67844C264.939 1.67844 263.844 1.58269 264.567 1.56673C267.313 1.55078 270.1 1.56673 272.784 1.53482C273.528 1.51886 273.032 1.42312 273.156 1.42312C274.065 1.3912 275.138 1.58269 275.551 1.61461C277.12 1.77418 280.3 1.53482 280.63 1.5029C282.53 1.32737 282.096 1.53482 282.427 1.56673C284.058 1.69439 284.099 1.5029 284.863 1.48695C287.423 1.40716 290.169 1.48695 292.399 1.5029C293.596 1.5029 292.936 1.56673 292.832 1.61461C294.649 1.67844 296.28 1.72631 298.139 1.74227C298.923 1.74227 298.758 1.66248 299.605 1.66248C301.483 1.66248 303.569 1.71035 305.53 1.69439C306.108 1.67844 305.448 1.58269 306.108 1.56673C309.391 1.53482 311.931 1.66248 315.564 1.56673C315.957 1.56673 317.609 1.31141 319.157 1.32737C322.357 1.3912 317.092 1.48695 321.284 1.63056C326.507 1.8061 336.913 1.74227 342.942 1.74227C344.573 1.74227 343.665 1.64652 344.78 1.66248C352.027 1.67844 359.232 1.8061 366.5 1.74227C373.768 1.8061 380.973 1.67844 388.22 1.66248C389.335 1.66248 388.427 1.74227 390.058 1.74227C396.087 1.74227 406.493 1.8061 411.716 1.63056C415.908 1.48695 410.643 1.3912 413.843 1.32737C415.391 1.31141 417.043 1.56673 417.435 1.56673C421.069 1.66248 423.609 1.53482 426.892 1.56673C427.552 1.58269 426.892 1.67844 427.47 1.69439C429.431 1.71035 431.516 1.66248 433.395 1.66248C434.242 1.66248 434.077 1.74227 434.861 1.74227C436.719 1.72631 438.351 1.67844 440.167 1.61461C440.064 1.56673 439.404 1.5029 440.601 1.5029C442.831 1.48695 445.577 1.40716 448.137 1.48695C448.901 1.5029 448.942 1.69439 450.573 1.56673C450.904 1.53482 450.47 1.32737 452.37 1.5029C452.7 1.53482 455.88 1.77418 457.449 1.61461C457.862 1.58269 458.935 1.3912 459.844 1.42312C459.968 1.42312 459.472 1.51886 460.215 1.53482C462.9 1.56673 465.687 1.53482 468.433 1.56673C469.155 1.58269 468.061 1.67844 469.155 1.67844C472.17 1.71035 475.907 1.67844 478.839 1.63056C479.912 1.63056 479.169 1.55078 479.252 1.53482C480.511 1.3912 481.275 1.58269 481.688 1.59865C484.29 1.64652 486.292 1.56673 488.687 1.58269C489.369 1.58269 488.894 1.67844 489.018 1.67844C490.401 1.75822 489.369 1.59865 490.236 1.58269C492.672 1.51886 495.377 1.53482 497.834 1.53482C498.742 1.53482 497.731 1.63056 498.536 1.64652C503.346 1.64652 508.322 1.63056 513.009 1.55078C513.897 1.55078 513.339 1.47099 513.525 1.45503C514.785 1.32737 516.643 1.48695 517.076 1.5029C519.017 1.56673 519.781 1.5029 521.495 1.5029C529.877 1.55078 540.222 1.47099 548.129 1.42312C558.432 1.35929 566.422 1.2795 576.25 1.26354C576.89 1.26354 576.25 1.34333 576.787 1.34333C583.745 1.34333 590.6 1.29545 597.557 1.2795C598.136 1.2795 597.31 1.35929 598.218 1.35929C600.097 1.35929 602.492 1.35929 604.392 1.31141C605.321 1.29545 604.082 1.24758 605.011 1.23162C607.179 1.19971 609.512 1.19971 611.742 1.19971C612.712 1.19971 611.267 1.26354 612.506 1.26354C620.93 1.23162 629.188 1.19971 637.695 1.08801C638.293 1.08801 638.789 0.976303 640.028 0.992261C640.131 1.02418 640.131 1.05609 640.172 1.08801C652.416 1.04013 664.556 0.960346 676.841 0.896515C677.357 0.896515 676.469 0.928431 677.46 0.928431C683.283 0.896515 688.919 0.8646 694.865 0.816728C695.444 0.80077 695.134 0.768855 696.889 0.768855C697.178 0.768855 699.8 0.752897 700.481 0.752897C700.564 0.768855 700.089 0.784812 700.936 0.784812C705.829 0.752897 710.97 0.720982 715.863 0.689067C716.648 0.689067 715.801 0.673109 716.359 0.673109C720.364 0.657152 724.7 0.641194 728.499 0.609279C731.059 0.609279 730.109 0.609279 731.472 0.593321H733C732.587 0.577364 732.174 0.577364 732.009 0.577364Z" fill="var(--fill-0, #2E2720)"/>
</svg>
