<svg preserveAspectRatio="none" width="100%" height="100%" overflow="visible" style="display: block;" viewBox="0 0 366.5 1.76001" fill="none" xmlns="http://www.w3.org/2000/svg">
<path id="Vector" d="M366.5 0.226297C356.032 0.130551 345.523 0.210339 334.972 0.146509C332.866 0.40183 329.976 0.226297 326.879 0.290127C326.466 0.290127 325.681 0.513533 324.443 0.353958C324.36 0.338 325.227 0.258212 324.009 0.242255C316.266 0.146509 307.966 0.130551 300.141 0.162467C298.965 0.162467 299.894 0.27417 299.481 0.27417C295.991 0.306085 293.679 0.0986362 290.045 0.162467C289.756 0.162467 288.786 0.369915 287.691 0.226297C287.609 0.210339 287.836 0.130551 287.444 0.130551C285.585 0.0826787 285.173 0.27417 283.232 0.226297C282.798 0.210339 283.645 0.114594 282.736 0.0986363C278.607 0.0507636 274.25 0.0507635 270.059 0.0667211C269.254 0.0667211 270.245 0.194382 269.398 0.194382C265.765 0.194382 262.936 0.226297 259.034 0.130551C258.518 0.114594 256.185 -0.0768971 254.76 0.0348059C254.595 0.0507635 254.76 0.130552 254.161 0.146509C251.271 0.194382 248.05 0.162467 245.097 0.210339C244.416 0.210339 245.015 0.306085 244.56 0.306085C242.475 0.353958 244.127 0.258212 242.434 0.194382C239.832 0.114594 236.281 0.114594 233.37 0.0986363C230.81 0.497576 224.017 0.322042 219.702 0.258212C219 0.242255 219.908 0.146509 219.206 0.146509C212.186 0.0826788 205.208 0.0826786 198.147 0.114594C197.486 0.114594 198.147 0.210339 197.589 0.210339C192.448 0.226297 187.947 0.178424 182.662 0.178424C178.223 0.194382 173.226 0.226297 168.539 0.226297C162.386 0.242255 156.771 0.162467 150.226 0.242255C149.854 0.242255 147.067 0.385873 145.89 0.290127C145.745 0.27417 146.076 0.226297 145.27 0.210339C144.465 0.194382 142.049 0.194382 141.12 0.210339C140.212 0.226297 140.976 0.290127 140.398 0.290127C137.714 0.306085 134.741 0.290127 132.242 0.290127H128.175C127.163 0.290127 124.727 0.306085 123.426 0.290127C123.013 0.290127 123.178 0.258212 123.24 0.226297C121.134 0.162467 123.22 0.27417 121.155 0.27417C116.262 0.306085 110.604 0.322042 105.525 0.27417C104.245 0.27417 104.906 0.178424 102.945 0.242255C102.821 0.242255 103.213 0.290127 102.552 0.290127C96.9364 0.322042 90.3088 0.306085 84.858 0.306085C68.3406 0.338 52.2981 0.385873 35.9872 0.433746C32.6631 0.433746 29.5661 0.465661 26.3039 0.465661C25.7052 0.465661 26.4072 0.449703 25.8497 0.449703C24.136 0.449703 22.5049 0.465661 20.7706 0.481618C19.8828 0.481618 20.5228 0.481618 19.2427 0.481618C15.134 0.497576 9.7246 0.529491 5.6159 0.561406C3.84028 0.561406 4.23258 0.561406 3.34477 0.561406C2.45696 0.577364 1.8582 0.577364 1.32139 0.577364H0.991042C0.825868 0.577364 0.412934 0.577364 0 0.593321H1.52785C2.89054 0.609279 1.94078 0.609279 4.50098 0.609279C8.29997 0.641194 12.6358 0.657152 16.6413 0.673109C17.1987 0.673109 16.3522 0.689067 17.1368 0.689067C22.0301 0.720982 27.1711 0.752897 32.0644 0.784812C32.9109 0.784812 32.436 0.768855 32.5186 0.752897C33.1999 0.752897 35.8221 0.768855 36.1111 0.768855C37.8661 0.768855 37.5564 0.80077 38.1345 0.816727C44.0807 0.8646 49.7173 0.896515 55.5397 0.92843C56.5307 0.92843 55.6429 0.896515 56.1591 0.896515C68.4439 0.960346 80.5841 1.04013 92.8277 1.08801C92.8689 1.05609 92.8689 1.02418 92.9722 0.992261C94.211 0.976303 94.7065 1.08801 95.3053 1.08801C103.812 1.19971 112.07 1.23162 120.494 1.26354C121.733 1.26354 120.288 1.19971 121.258 1.19971C123.488 1.19971 125.821 1.19971 127.989 1.23162C128.918 1.24758 127.679 1.29546 128.608 1.31141C130.508 1.34333 132.903 1.35929 134.782 1.35929C135.69 1.35929 134.864 1.2795 135.442 1.2795C142.4 1.29546 149.255 1.34333 156.213 1.34333C156.75 1.34333 156.11 1.26354 156.75 1.26354C166.578 1.2795 174.568 1.35929 184.871 1.42312C192.778 1.47099 203.122 1.55078 211.505 1.5029C213.219 1.5029 213.983 1.56673 215.923 1.5029C216.357 1.48695 218.215 1.32737 219.475 1.45503C219.66 1.47099 219.103 1.55078 219.991 1.55078C224.678 1.63056 229.653 1.64652 234.464 1.64652C235.269 1.63056 234.258 1.53482 235.166 1.53482C237.623 1.53482 240.328 1.51886 242.764 1.58269C243.631 1.59865 242.599 1.75823 243.982 1.67844C244.106 1.67844 243.631 1.58269 244.313 1.58269C246.708 1.56673 248.71 1.64652 251.312 1.59865C251.725 1.58269 252.489 1.3912 253.748 1.53482C253.831 1.53482 253.088 1.63056 254.161 1.63056C257.093 1.67844 260.83 1.71035 263.844 1.67844C264.939 1.67844 263.844 1.58269 264.567 1.56673C267.313 1.55078 270.1 1.56673 272.784 1.53482C273.528 1.51886 273.032 1.42312 273.156 1.42312C274.065 1.3912 275.138 1.58269 275.551 1.61461C277.12 1.77418 280.3 1.53482 280.63 1.5029C282.53 1.32737 282.096 1.53482 282.427 1.56673C284.058 1.69439 284.099 1.5029 284.863 1.48695C287.423 1.40716 290.169 1.48695 292.399 1.5029C293.596 1.5029 292.936 1.56673 292.832 1.61461C294.649 1.67844 296.28 1.72631 298.139 1.74227C298.923 1.74227 298.758 1.66248 299.605 1.66248C301.483 1.66248 303.569 1.71035 305.53 1.69439C306.108 1.67844 305.448 1.58269 306.108 1.56673C309.391 1.53482 311.931 1.66248 315.564 1.56673C315.957 1.56673 317.609 1.31141 319.157 1.32737C322.357 1.3912 317.092 1.48695 321.284 1.63056C326.507 1.8061 336.913 1.74227 342.942 1.74227C344.573 1.74227 343.665 1.64652 344.78 1.66248C352.027 1.67844 359.232 1.8061 366.5 1.74227V0.226297Z" fill="var(--fill-0, #2E2720)"/>
</svg>
