<svg preserveAspectRatio="none" width="100%" height="100%" overflow="visible" style="display: block;" viewBox="0 0 1776 44.6643" fill="none" xmlns="http://www.w3.org/2000/svg">
<g id="svg">
<rect id="divider" opacity="0.16" x="0.25" y="22.0822" width="833.5" height="0.5" stroke="var(--stroke-0, #2E2720)" stroke-width="0.5"/>
<path id="Vector" opacity="0.32" d="M902.551 0.656929C899.983 0.0793018 897.449 -0.145875 895.066 0.123358C892.522 0.412172 890.134 1.0877 887.918 2.15974C885.702 1.0877 883.305 0.441543 880.761 0.152729C878.373 -0.116504 875.809 -0.0528672 873.241 0.529655C871.069 1.01917 869.112 2.11568 867.233 3.19751C865.325 4.29892 863.417 5.46886 861.92 7.06468C860.423 8.6605 859.474 10.692 858.5 12.6647C857.527 14.6375 856.577 16.6102 856.235 18.8081C855.819 21.4564 855.995 24.0459 856.45 26.4837C856.93 29.0586 857.835 31.4817 859.122 33.66C860.408 35.8384 862.013 37.9775 863.985 39.6174C865.956 41.2573 868.212 42.6377 870.653 43.5188C873.094 44.4 875.624 44.6154 878.275 44.6154C881.734 44.6154 884.992 43.6706 887.913 42.2559C890.834 43.6706 894.097 44.6643 897.551 44.6643C900.203 44.6643 902.693 44.0377 905.056 43.186C907.497 42.3 909.655 40.9685 911.617 39.3384C913.579 37.7083 915.443 35.902 916.754 33.6796C918.065 31.4572 919.156 29.0977 919.635 26.518C920.09 24.0753 920.125 21.4221 919.709 18.7739C919.362 16.5711 918.618 14.4319 917.659 12.4885C916.7 10.5451 915.213 8.83183 913.711 7.23601C912.209 5.64019 910.58 4.14227 908.672 3.04576C906.764 1.94925 904.719 1.14644 902.551 0.656929ZM878.28 43.4307C875.849 43.4307 873.564 42.9167 871.392 42.1531C869.219 41.3895 867.14 40.1853 865.31 38.7265C863.481 37.2677 861.847 35.5838 860.579 33.5817C859.312 31.5796 858.471 29.4502 857.933 27.1103C857.395 24.7704 856.969 22.5431 857.223 20.1054C857.478 17.6676 858.432 15.4011 859.484 13.2668C860.535 11.1325 861.69 8.88567 863.412 7.20174C865.134 5.51781 867.321 4.35277 869.528 3.32968C871.734 2.30659 873.994 1.57232 876.45 1.35694C877.683 1.24924 878.897 1.27372 880.076 1.37652C882.629 1.5968 883.676 4.69053 881.856 6.49684C881.578 6.77097 881.431 6.94719 881.167 7.2409C878.207 6.67307 874.963 7.11363 871.568 8.91504C869.033 10.2563 867.023 12.2829 865.531 14.6277C864.038 16.9725 863.016 19.6599 863.04 22.548C863.065 25.4362 863.97 27.8054 865.276 30.0278C866.582 32.2502 868.525 34.1055 870.824 35.4321C873.124 36.7586 875.531 37.674 878.285 37.674C879.263 37.674 880.203 37.7573 881.127 37.581C881.387 37.8698 881.534 38.0705 881.808 38.3447C883.647 40.1706 882.571 43.0636 879.988 43.2741C879.42 43.3181 878.862 43.4405 878.285 43.4405L878.28 43.4307ZM899.298 22.4012C899.298 24.5599 898.867 26.5914 898.261 28.5544C897.654 30.5173 896.68 32.4069 895.506 34.1251C894.679 35.3391 893.314 35.7405 891.969 35.153C890.844 34.6586 889.924 34.1936 888.975 33.4348C890.447 32.025 891.357 30.2383 892.175 28.339C892.992 26.4397 893.672 24.5208 893.672 22.4012C893.672 20.2816 892.864 18.3431 892.077 16.5074C891.289 14.6717 890.35 12.8018 888.877 11.392C889.826 10.6332 890.775 9.99198 891.901 9.49757C893.246 8.91015 894.87 9.33603 895.697 10.55C896.871 12.2682 897.649 14.2165 898.275 16.248C898.902 18.2795 899.293 20.2473 899.293 22.4061L899.298 22.4012ZM895.648 8.4549C896.294 8.36189 896.891 8.49896 897.561 8.49896C900.12 8.49896 902.409 9.20875 904.479 10.4081C906.548 11.6074 908.383 13.3011 909.621 15.4354C910.859 17.5697 911.436 19.841 911.436 22.4012C911.436 24.9613 911.03 27.4138 909.831 29.4894C908.633 31.5649 906.641 33.2048 904.508 34.4383C902.375 35.6719 900.125 36.6852 897.566 36.6852C896.896 36.6852 896.328 36.4503 895.682 36.3621C897.243 34.4237 898.378 32.167 899.229 29.7782C900.081 27.3893 900.511 24.9907 900.511 22.4061C900.511 19.8214 900.218 17.2809 899.396 14.9703C898.574 12.6598 897.214 10.3983 895.653 8.4549H895.648ZM876.538 22.4012C876.538 20.2424 876.969 18.2109 877.576 16.248C878.182 14.285 879.156 12.3955 880.33 10.6773C881.157 9.4633 882.522 9.0619 883.867 9.64932C884.992 10.1437 885.912 10.6088 886.861 11.3675C885.389 12.7773 884.474 14.564 883.657 16.4634C882.84 18.3627 882.16 20.2816 882.16 22.4012C882.16 24.5208 882.967 26.4593 883.755 28.2949C884.542 30.1306 885.487 32.0006 886.959 33.4104C886.01 34.1691 885.061 34.8104 883.936 35.3048C882.59 35.8922 880.966 35.4663 880.139 34.2523C878.965 32.5341 878.187 30.5859 877.561 28.5544C876.935 26.5229 876.543 24.555 876.543 22.3963L876.538 22.4012ZM880.188 36.3475C879.542 36.4405 878.945 36.3034 878.275 36.3034C875.717 36.3034 873.427 35.5936 871.357 34.3943C869.288 33.195 867.453 31.5013 866.215 29.367C864.978 27.2327 864.4 24.9613 864.4 22.4012C864.4 19.841 864.806 17.3885 866.005 15.313C867.204 13.2375 869.195 11.5976 871.328 10.364C873.461 9.13043 875.712 8.11714 878.27 8.11714C878.941 8.11714 879.508 8.3521 880.154 8.44021C878.593 10.3787 877.458 12.6354 876.612 15.0242C875.765 17.413 875.33 19.8116 875.33 22.3963C875.33 24.9809 875.624 27.5215 876.445 29.832C877.267 32.1425 878.627 34.4041 880.188 36.3475ZM892.287 22.4012C892.287 25.6075 891.128 28.4614 889.312 30.8257C888.544 31.8292 887.336 31.7999 886.568 30.7915C884.753 28.4222 883.632 25.6075 883.632 22.4012C883.632 19.1949 884.733 16.3557 886.548 13.9913C887.316 12.9878 888.76 12.8067 889.533 13.8102C891.348 16.1794 892.292 19.19 892.292 22.4012H892.287ZM887.918 34.2328C889.513 35.5447 891.225 36.5384 893.266 37.116C892.101 38.3202 890.824 39.123 889.401 40.0237C888.427 40.6405 887.36 40.7139 886.387 40.0971C884.963 39.1964 883.76 38.3349 882.59 37.1258C884.626 36.5482 886.318 35.5447 887.913 34.2328H887.918ZM887.918 10.5647C886.323 9.25281 884.611 8.25909 882.571 7.68147C883.735 6.47237 885.012 5.67446 886.436 4.77375C887.409 4.15696 888.476 4.08353 889.449 4.70032C890.873 5.60103 892.082 6.46258 893.246 7.67168C891.211 8.2493 889.513 9.25281 887.918 10.5647ZM899.396 43.3524C898.163 43.4601 896.969 43.3475 895.785 43.2447C893.231 43.0244 892.219 40.1608 894.039 38.3545C894.317 38.0803 894.415 37.7768 894.679 37.488C897.63 38.0559 900.956 37.8796 904.342 36.1027C906.881 34.7712 908.843 32.5831 910.34 30.2383C911.837 27.8935 912.972 25.1816 912.952 22.2935C912.933 19.4053 911.822 17.0606 910.521 14.8333C909.22 12.606 907.483 10.4423 905.178 9.11575C902.948 7.82832 900.311 7.19685 897.556 7.19685C896.578 7.19685 895.619 7.28006 894.689 7.45629C894.43 7.16748 894.268 6.77097 893.99 6.50174C892.15 4.67585 893.27 1.80239 895.854 1.5919C896.421 1.54785 896.974 1.2884 897.556 1.2884C899.988 1.2884 902.375 1.58211 904.552 2.34086C906.729 3.09961 908.818 4.45067 910.653 5.91432C912.497 7.38286 914.229 9.0619 915.497 11.064C916.764 13.0661 917.767 15.2543 918.305 17.5941C918.843 19.934 918.74 22.2347 918.481 24.6774C918.222 27.1201 917.365 29.3719 916.318 31.511C915.271 33.6502 913.872 35.6181 912.15 37.3069C910.428 38.9957 908.5 40.3908 906.299 41.4139C904.097 42.437 901.852 43.1419 899.396 43.3573V43.3524Z" fill="var(--fill-0, #2E2720)"/>
<rect id="divider_2" opacity="0.16" x="942.25" y="22.0822" width="833.5" height="0.5" stroke="var(--stroke-0, #2E2720)" stroke-width="0.5"/>
</g>
</svg>
