<svg preserveAspectRatio="none" width="100%" height="100%" overflow="visible" style="display: block;" viewBox="0 0 79 2" fill="none" xmlns="http://www.w3.org/2000/svg">
<path id="Line 225" d="M0.752479 0.0101699C1.19517 -0.015883 1.77547 0.0119737 2.21649 0.0502087C2.35471 0.0620673 2.28472 0.115075 2.38013 0.125648C2.56674 0.146258 2.74059 0.120261 2.925 0.144813C2.98611 0.153209 2.91004 0.237174 2.97412 0.244056C3.32528 0.281163 3.65748 0.259777 4.01321 0.277625C5.76542 0.365685 7.48779 0.397205 9.26143 0.435461C9.84624 0.448004 10.5572 0.524206 11.1612 0.490881C11.2317 0.486916 11.1897 0.413216 11.2031 0.407141C11.4135 0.31415 11.3436 0.462935 11.481 0.482702C12.0263 0.560754 12.6326 0.567542 13.1574 0.539099C13.3807 0.526782 13.1568 0.380395 13.3816 0.462561C13.3973 0.468112 13.3406 0.546377 13.4018 0.554724C13.5407 0.573498 13.8041 0.559509 13.9117 0.56571C14.1191 0.578057 14.1534 0.577269 14.3496 0.578161C14.6178 0.580061 14.9367 0.618966 15.2245 0.601232C15.2859 0.597215 15.2046 0.516985 15.3025 0.503332C15.4006 0.489702 15.6599 0.496505 15.7473 0.515417C15.8348 0.534339 15.7976 0.597399 15.813 0.611853C15.9404 0.733849 16.2404 0.564884 16.2789 0.560705C16.9827 0.489506 17.5862 0.58576 18.2468 0.585485C18.7483 0.585073 19.2846 0.553296 19.7618 0.557653C20.3303 0.563155 20.8121 0.606631 21.3644 0.599157C21.4227 0.598461 21.3544 0.50413 21.4256 0.503088C22.1819 0.492111 22.933 0.502394 23.6861 0.566076C23.7616 0.572546 23.6643 0.655368 23.7397 0.666784C24.2017 0.734849 24.9327 0.898357 25.2071 0.537756C25.52 0.551837 25.8999 0.566385 26.1799 0.639074C26.3604 0.685858 26.1851 0.776084 26.4068 0.737584C26.4568 0.729007 26.3918 0.649991 26.4668 0.643102C26.7825 0.614176 27.1275 0.639861 27.4399 0.599035C27.5034 0.590545 27.4861 0.519744 27.5041 0.506994C27.6553 0.403741 27.9072 0.574425 27.9621 0.586828C28.3802 0.679315 28.6856 0.642919 29.0751 0.645178C29.1654 0.645741 29.0586 0.550639 29.1456 0.547766C29.5967 0.534136 30.0639 0.54231 30.5056 0.584509C30.6039 0.594124 30.5135 0.675134 30.5605 0.683874C30.7675 0.721424 30.8134 0.568417 31.0119 0.601477C31.0538 0.60825 31.0302 0.6776 31.0378 0.685217C31.1573 0.804778 31.2611 0.635368 31.2919 0.631628C31.6807 0.580523 31.9292 0.757378 32.3047 0.732335C32.3497 0.729161 32.2484 0.641412 32.3747 0.637853C33.2161 0.61363 34.1061 0.637735 34.9389 0.707922C35.0684 0.718716 34.976 0.784634 34.9842 0.79276C35.117 0.919728 35.2029 0.749606 35.2451 0.7432C35.5783 0.697082 35.8894 0.839748 36.1158 0.637121C37.5266 0.707439 38.9309 0.593653 40.33 0.775182C40.3478 0.777285 40.3159 0.86107 40.3514 0.864903C40.7788 0.911948 40.6967 0.781731 40.9794 0.622473C41.0507 0.582482 41.2674 0.77476 41.2865 0.788854C41.3564 0.840791 41.2839 0.96544 41.3073 0.975499C41.5009 1.05448 41.4693 0.642259 41.7304 0.642126C41.7386 0.642813 41.7043 0.718688 41.7262 0.726232C41.7943 0.749917 41.8618 0.719767 41.9284 0.745885C42.0809 0.806321 42.1352 1.00663 42.3681 0.89005C42.3976 0.87492 42.3526 0.64109 42.5857 0.652136C42.6786 0.656737 43.09 0.65273 43.2053 0.667883C43.3204 0.683018 43.2414 0.758369 43.2496 0.761632C43.5599 0.861272 43.4422 0.902568 43.5977 1.05008C43.7531 1.19704 43.71 0.846531 43.7734 0.807408C43.8368 0.768397 44.0643 0.850607 44.1202 0.879186C44.1761 0.907777 44.1064 0.955658 44.1561 0.971837C44.4855 1.07755 44.3007 0.797855 44.4092 0.742223C44.6652 0.610497 44.8645 0.870438 45.0988 0.895909C45.1621 0.902788 45.1104 0.843585 45.1669 0.838048C45.3904 0.816904 45.5249 0.898013 45.7792 0.823644C45.8208 0.811525 46.0265 0.655241 46.1596 0.769933C46.1784 0.786471 46.1248 0.851248 46.2201 0.865758C46.3625 0.887534 46.6189 0.901692 46.7719 0.88004C46.8849 0.86402 46.7554 0.757283 46.8976 0.790441C46.9608 0.805246 46.8437 0.867688 46.9624 0.890294C47.0805 0.912893 47.3824 0.91015 47.4973 0.907994C47.612 0.905791 47.5492 0.824826 47.5585 0.819371C47.6146 0.788126 47.8347 0.749085 47.8541 0.749181C48.8352 0.739297 49.7399 0.875772 50.695 0.830602C50.77 0.827174 50.7201 0.741795 50.7315 0.740392C50.9881 0.70462 50.7858 0.931622 50.9651 1.0076C50.9392 0.834345 51.045 0.865716 51.2257 0.846715C51.3129 0.837418 51.2654 0.770331 51.2734 0.763463C51.4025 0.661566 51.4925 0.79318 51.5157 0.820104C51.6012 0.919144 51.6943 0.802121 51.7525 0.868321C51.8107 0.934027 51.6768 1.03143 51.8502 1.03019C51.8988 0.968165 51.7701 0.806089 51.9017 0.779821C52.3983 0.680461 53.3253 0.807627 53.7246 0.820836C54.1231 0.834035 54.2519 0.822592 54.4841 0.845006C54.9035 0.885533 54.7498 0.765283 55.0102 0.710241C55.2715 0.655205 55.1445 0.951079 55.182 1.01468C55.2189 1.07826 55.2591 1.01281 55.305 1.04776C55.3507 1.08271 55.2517 1.12595 55.3592 1.13907C55.4668 1.15218 55.7608 1.03907 55.7989 0.972569C55.8795 0.831672 55.747 0.683794 56.0316 0.735753C56.0479 0.738837 55.9948 0.816636 56.0575 0.824498C56.5552 0.884391 57.0723 0.888103 57.5694 0.941075C57.6378 0.948481 57.5766 1.03503 57.6164 1.04032C58.0308 1.09568 57.8827 0.949745 58.1097 0.787633C58.0588 1.00337 58.1843 1.13536 58.4988 1.13663C58.6878 1.13747 58.6553 1.04325 58.7776 0.976842C58.8143 0.956823 58.948 1.02152 58.9722 0.977208C59.0522 0.83236 58.9262 0.670211 59.2504 0.734777C59.2646 0.737845 59.2193 0.817133 59.2685 0.821935C59.5862 0.853365 59.6242 0.701856 59.9676 0.683508C60.2368 0.669111 60.7156 0.761499 61.0221 0.776525C61.0157 1.01907 61.3052 0.963534 61.4226 0.7963C61.6215 0.803147 61.8364 0.793693 62.0287 0.816808C62.0948 0.824689 62.0514 0.894913 62.0597 0.902501C62.1876 1.02153 62.2741 0.858831 62.3171 0.852452C62.7824 0.790448 63.1616 0.913761 63.6057 0.793248C63.6214 0.788908 63.647 0.620425 63.7657 0.743444C63.7734 0.751924 63.6267 0.82858 63.8356 0.834508C64.0446 0.840449 64.4385 0.930768 64.7286 0.852696C64.7988 0.833901 64.9763 0.697128 65.1188 0.803991C65.1378 0.818502 65.117 0.866823 65.1444 0.893712C65.233 0.979391 65.2814 0.809097 65.3855 0.95377C65.4897 1.09844 65.7063 1.20678 65.9988 1.10697C66.0081 1.10407 66.0774 0.969092 66.1694 0.971226C66.3162 0.974749 66.5247 1.00287 66.6781 1.00199C66.7515 1.00152 66.7045 0.917706 66.7172 0.916173C67.2109 0.869207 67.5623 0.943925 68.0911 0.976353C68.1881 0.982464 68.4667 0.868173 68.6544 0.958531C68.8605 1.05745 68.6487 1.46891 69.1224 1.37088C69.3135 1.33167 69.5554 0.809653 69.8987 1.08011C70.5646 1.01309 71.1805 1.15151 71.8482 1.05582C71.8782 1.05158 71.9732 0.905889 72.0438 0.907872C72.1486 0.911098 72.2061 0.979192 72.281 0.983678C72.5946 1.00419 72.8815 0.945929 73.1839 0.954991C73.2986 0.958284 73.2585 1.02869 73.3954 1.03263C73.5322 1.0365 73.6235 0.943782 73.8089 0.98856C73.9489 1.02269 74.0889 1.2122 74.2748 1.23429C74.2819 1.04736 74.4095 1.05121 74.6364 1.00187C74.68 0.992292 74.6333 0.927231 74.6539 0.919347C74.7379 0.885814 74.8156 0.939735 74.8953 0.903233C74.9147 0.894467 74.9156 0.83063 74.9315 0.81986C75.0663 0.725848 75.2884 0.869442 75.3265 0.894444C75.4728 0.989396 75.5411 0.906369 75.6532 0.943761C75.7652 0.981147 75.5978 1.02788 75.7286 1.05057C75.9997 1.0975 76.348 1.08719 76.6233 1.09012C76.7332 1.0909 76.6582 1.00569 76.6739 1.00382C76.9011 0.982207 77.1308 1.07285 77.2568 0.903111C77.4143 1.34199 77.3937 0.860543 77.7185 0.948399C77.744 0.955505 77.7766 1.16305 77.6784 1.19352C77.5802 1.22396 77.4313 1.15908 77.295 1.20658C77.2628 1.21772 77.078 1.4122 77.0527 1.42398C76.8552 1.51605 76.8272 1.20591 76.8168 1.18888C76.6983 1.00505 76.4724 1.21456 76.4129 1.22904C76.1409 1.29537 75.9097 1.25176 75.6822 1.29911C75.5333 1.32971 75.5188 1.53286 75.4019 1.52664C75.0134 1.50609 74.8778 1.22269 74.5117 1.46842C74.4332 1.52083 74.5112 1.74287 74.2299 1.56827C74.2122 1.55726 74.0034 1.39754 73.8827 1.49857C73.8676 1.51131 73.868 1.57602 73.8481 1.58145C73.7141 1.61662 73.6248 1.56506 73.4789 1.58975C73.333 1.61445 73.1576 1.65125 72.991 1.62931C72.8906 1.61618 72.7618 1.49562 72.7137 1.4661C72.578 1.38107 72.4325 1.52048 72.3485 1.41751C72.2637 1.31403 72.4294 1.15687 72.2071 1.09C72.1989 1.25812 72.18 1.43069 72.1668 1.59976C71.6796 1.59384 71.2003 1.53948 70.7115 1.54691C70.6509 1.548 70.7128 1.63838 70.6479 1.64188C70.3738 1.65624 70.1344 1.59181 69.8502 1.61746C69.6302 1.63767 69.3889 1.73337 69.1589 1.75748C69.0183 1.5651 68.677 1.63041 68.429 1.61283C68.3421 1.60675 68.3479 1.55537 68.2861 1.53861C68.053 1.47661 68.1623 1.64662 68.0984 1.67337C67.8242 1.78756 67.8008 1.40276 67.4776 1.41227C67.4605 1.41264 67.2512 1.61775 67.2223 1.63053C67.0392 1.71382 67.192 1.55913 67.0774 1.54398C66.8681 1.51628 66.7226 1.4673 66.4771 1.52738C66.4054 1.54517 66.2337 1.67302 66.0946 1.57413C66.0763 1.56118 66.0864 1.49338 66.0717 1.48941C65.8052 1.42323 65.7982 1.63626 65.6459 1.70841C65.4936 1.78054 65.2583 1.63348 65.2104 1.5911C65.0852 1.48145 65.3064 1.54424 65.3132 1.53348C65.3929 1.40543 65.2213 1.42748 65.0902 1.41666C65.0712 1.20778 64.8879 1.22032 64.9543 1.40628C64.9618 1.4266 65.0639 1.40712 65.0902 1.41666C64.9751 1.6216 64.7736 1.64784 64.5511 1.45633C64.4469 1.36657 64.5454 1.26192 64.2289 1.3002C64.0853 1.31749 64.1408 1.46131 64.014 1.50052C63.7245 1.58999 63.3482 1.45582 63.0497 1.47696C62.9413 1.48464 63.0469 1.56336 62.9728 1.57132C62.7763 1.59269 62.603 1.53362 62.4057 1.56388C62.3878 1.56672 62.4315 1.64913 62.3701 1.65018C61.9048 1.65975 61.4997 1.60696 61.014 1.6055C60.7793 1.60483 60.3597 1.65028 60.1165 1.64115C59.6951 1.62579 59.1767 1.50595 58.8167 1.53507C58.582 1.5537 58.6335 1.63613 58.5329 1.69229C58.3387 1.80116 57.9951 1.60616 57.9488 1.57596C57.9474 1.57496 58.1494 1.55553 58.0416 1.51322C57.979 1.42505 57.9511 1.57558 57.9488 1.57596C57.9184 1.55645 57.5148 1.53774 57.4347 1.5535C57.3911 1.56211 57.4155 1.64021 57.3928 1.64322C56.8531 1.71311 56.3125 1.73296 55.7652 1.69644C55.7555 1.69487 55.77 1.60751 55.7474 1.60489C55.4305 1.56605 55.2276 1.67291 54.9662 1.73636C54.7049 1.79978 54.4977 1.77854 54.343 1.62857C54.1459 1.64745 53.863 1.58116 53.7002 1.54093C53.5375 1.5007 53.5147 1.67074 53.5004 1.6741C53.0537 1.7817 52.7955 1.68437 52.332 1.66922C52.1117 1.66173 51.6747 1.68639 51.4361 1.70499C51.2476 1.71997 51.134 1.68012 50.9602 1.7056C50.9367 1.709 50.9605 1.78471 50.9533 1.78763C50.7594 1.87822 50.8526 1.69312 50.8126 1.66007C50.6674 1.53985 50.5778 1.47583 50.3295 1.53238C50.2722 1.54533 50.1054 1.81184 50.001 1.82742C49.8653 1.8472 49.9165 1.75167 49.7744 1.77481C49.7622 1.77671 49.7648 1.83564 49.677 1.83304C49.2699 1.82175 48.826 1.78746 48.4029 1.79337C48.3451 1.79395 48.4192 1.88742 48.3357 1.8898C47.9438 1.90088 47.5144 1.89742 47.1326 1.85367C47.0387 1.84261 47.0976 1.77716 47.0772 1.75772C46.952 1.64014 46.7744 1.81099 46.7451 1.81424C46.0462 1.89634 45.5113 1.74173 44.7989 1.81534C44.7601 1.81966 44.4616 2.00281 44.3285 1.84574C44.3194 1.83528 44.1876 1.67458 44.0711 1.78446C44.0639 1.79133 44.146 1.87407 44.0027 1.86563C43.8594 1.85722 43.6289 1.91247 43.4319 1.82157C43.3696 1.79293 43.2222 1.63262 43.0362 1.76041C43.0241 1.76933 42.737 2.05828 42.6345 1.85892C42.6179 1.8261 42.6353 1.61513 42.4133 1.7233C42.3709 1.74427 42.4479 1.79133 42.3362 1.82071C42.165 1.866 41.9382 1.80949 41.7277 1.90347C41.691 1.92011 41.5348 2.06331 41.4095 1.95462C41.3899 1.9376 41.4271 1.86717 41.361 1.85929C41.0463 1.82148 40.7167 1.86859 40.3972 1.81986C40.284 1.80273 40.3419 1.68887 40.2239 1.65836C40.1059 1.62786 39.8682 1.59851 39.7448 1.65055C39.6213 1.7026 39.7562 1.88407 39.5712 1.89859C38.767 1.96166 37.9703 1.8552 37.1672 1.83963C37.0481 1.83731 37.1469 1.90224 36.9713 1.90347C36.3242 1.90831 35.207 1.96919 34.6454 1.83121C34.1955 1.72069 34.7617 1.63656 34.4179 1.59159C34.252 1.57013 34.0725 1.78111 34.0325 1.78775C33.6412 1.85522 33.3693 1.76176 33.0172 1.79044C32.9444 1.79639 33.0158 1.8819 32.9539 1.88602C32.7425 1.90085 32.5203 1.86268 32.3183 1.86966C32.2277 1.87299 32.2444 1.9383 32.161 1.93326C31.9615 1.92195 31.785 1.8945 31.5905 1.83328C31.5728 1.82771 31.6923 1.74646 31.5447 1.74344C31.3058 1.73878 31.0092 1.67839 30.7344 1.74076C30.6528 1.75951 30.6496 1.90878 30.4743 1.8057C30.4375 1.78417 30.4844 1.60493 30.2802 1.7598C30.2459 1.78553 29.9028 1.99442 29.7344 1.85977C29.69 1.82434 29.5767 1.67767 29.4786 1.70072C29.4653 1.70439 29.5186 1.78457 29.4373 1.79239C29.1509 1.81856 28.8507 1.81 28.5564 1.83512C28.4778 1.84198 28.5949 1.92495 28.4778 1.93253C28.1557 1.9535 27.7536 1.93237 27.4387 1.9064C27.3226 1.89667 27.4028 1.82795 27.3944 1.82047C27.2585 1.69882 27.1782 1.86302 27.1331 1.87259C26.8526 1.92992 26.6391 1.85279 26.3806 1.8732C26.3092 1.87863 26.3598 1.95692 26.3456 1.9639C26.1983 2.03211 26.3081 1.89151 26.2148 1.87601C25.9537 1.83212 25.6625 1.83842 25.3984 1.84842C25.3014 1.85221 25.4105 1.94299 25.3234 1.94534C24.8081 1.96099 24.2725 1.9523 23.7696 1.90225C23.6749 1.89267 23.7345 1.82276 23.7147 1.80679C23.5787 1.69509 23.3794 1.84746 23.3335 1.86197C23.125 1.92824 23.0439 1.86642 22.8598 1.87796C21.96 1.93541 20.8491 1.89447 19.9998 1.86917C18.8931 1.83662 18.0344 1.77012 16.979 1.78739C16.9119 1.7884 16.9796 1.88139 16.9217 1.88345C16.1752 1.90587 15.4403 1.86953 14.6923 1.89639C14.6309 1.89843 14.7194 1.98659 14.6208 1.99283C14.4188 2.00624 14.1628 2.00145 13.9584 1.9733C13.8588 1.95974 13.9925 1.88409 13.8921 1.87198C13.6586 1.84362 13.4082 1.83734 13.1683 1.85147C13.0662 1.85768 13.2202 1.94784 13.0875 1.94888C12.1835 1.95783 11.2957 1.97336 10.3822 1.8566C10.3196 1.84858 10.2646 1.66533 10.1315 1.70047C10.1214 1.75133 10.122 1.81115 10.1176 1.86551C8.80162 1.89479 7.49907 1.83127 6.1794 1.82144C6.12376 1.82105 6.21992 1.91815 6.1122 1.91788C5.48873 1.91644 4.8833 1.94334 4.24556 1.84683C4.18229 1.8374 4.21475 1.66658 4.02828 1.69242C3.99539 1.69713 3.71455 1.71991 3.64194 1.75699C3.63207 1.76258 3.68331 1.84231 3.59281 1.84464C3.0669 1.85674 2.51578 1.83854 1.99077 1.78983C1.90604 1.78181 1.99628 1.69691 1.93593 1.69046C1.50784 1.64539 1.0422 1.70993 0.63314 1.63285C0.35933 1.58094 0.460702 1.43417 0.315203 1.28971C0.294624 1.26932 0.125073 1.26609 0.116305 1.18204C0.0937946 0.970681 0.17592 0.739242 0.142222 0.513952C0.135102 0.465427 -0.0919707 0.517692 0.0424711 0.400427C0.0518633 0.392579 0.216492 0.35366 0.257041 0.31388C0.285272 0.286376 0.234398 0.200894 0.291999 0.165687C0.349594 0.130513 0.412884 0.202169 0.508376 0.160804C0.603826 0.118927 0.561856 0.0216813 0.752479 0.0101699ZM52.9673 1.36112C52.8166 1.27946 52.7943 1.57855 52.9574 1.50699C52.9653 1.50318 52.9751 1.36512 52.9673 1.36112ZM71.203 1.31388C71.006 1.18195 70.8711 1.37593 71.0101 1.47782C71.1491 1.57959 71.263 1.35387 71.203 1.31388ZM73.2462 1.21756C73.016 1.11355 72.9797 1.53768 73.2263 1.45194C73.2407 1.44709 73.2597 1.2236 73.2462 1.21756ZM0.989952 1.24857C0.987872 1.2446 0.865992 1.24073 0.863079 1.24466C0.79818 1.33965 1.04189 1.34733 0.989952 1.24857ZM75.2738 1.11271C75.2019 1.05533 74.9949 1.12156 75.0842 1.19291C75.1562 1.2503 75.3633 1.18407 75.2738 1.11271ZM45.1051 1.0419C45.1027 1.03745 45.0153 1.03343 45.0171 1.05863C45.023 1.13977 45.1446 1.11687 45.1051 1.0419ZM78.7199 1.10782C78.2107 1.09186 77.902 0.741508 78.4565 0.781041C78.5569 0.788194 78.2401 0.892765 78.3679 0.924351C78.6017 0.981896 78.757 0.761919 78.9956 0.879796C79.0388 0.901371 78.7489 1.10951 78.719 1.10831C78.7193 1.10815 78.7196 1.10799 78.7199 1.10782ZM52.8805 1.00187C52.8775 0.997911 52.7565 0.994161 52.7536 0.998082C52.6881 1.09304 52.9318 1.10065 52.8805 1.00187ZM40.0063 0.856969C39.9997 0.848541 39.719 0.840659 39.7098 0.848424C39.5634 1.0037 40.1309 1.0201 40.0063 0.856969ZM61.0269 0.782995C61.1589 0.68747 61.3168 0.676223 61.422 0.796178C61.2909 0.78981 61.1588 0.788872 61.0269 0.782995Z" fill="var(--stroke-0, #F56F31)"/>
</svg>
