<svg preserveAspectRatio="none" width="100%" height="100%" overflow="visible" style="display: block;" viewBox="0 0 1776 62.5725" fill="none" xmlns="http://www.w3.org/2000/svg">
<g id="divider">
<rect id="divider_2" opacity="0.16" x="0.25" y="31.0362" width="833.5" height="0.5" stroke="var(--stroke-0, #2E2720)" stroke-width="0.5"/>
<path id="Vector" d="M868.588 44.4787C870.695 45.8503 872.19 46.3223 872.415 49.2844C872.415 48.7322 873.756 63.2619 873.756 62.5469C873.756 62.9546 884.919 55.3534 884.919 55.3293C886.789 54.5681 889.193 54.1565 891.063 55.3293C891.063 54.9778 902.226 62.4325 902.226 62.5469C902.226 61.9947 903.567 49.3627 903.567 49.2864C903.792 47.8847 905.289 46.0552 907.396 44.4807C907.396 44.326 920 39.7974 920 40.2292C920 39.2572 910.487 31.3567 910.487 30.9189C908.897 29.1758 908.362 27.039 909.12 24.9243C909.12 25.5469 912.788 13.8648 913.519 12.4671C912.176 12.8246 900.462 13.8588 900.462 14.0536C898.255 16.0217 896.092 14.0335 894.932 11.3846C894.932 11.3967 892.025 6.38409 889.974 3.00621C890.015 3.11666 889.95 3.32753 889.898 3.46007L889.802 3.70307C889.786 3.74324 889.684 3.81152 889.67 3.77135L889.578 3.49622C889.525 3.3456 889.431 3.15884 889.447 3.04838C889.467 2.91985 889.824 2.8817 889.934 2.94998C889.94 2.95399 889.944 2.96203 889.95 2.96604C888.844 1.14456 887.992 -0.188924 887.992 0.0219424C887.992 0.41556 881.822 10.5994 881.119 11.3525C881.295 11.3425 881.465 11.4389 881.57 11.7261C881.393 11.8024 881.153 11.7602 880.948 11.6377C879.765 14.3749 877.665 14.6963 875.522 14.0516C875.522 13.8086 875.147 13.6158 874.524 13.4592C874.558 13.4973 874.592 13.5475 874.602 13.5656C874.628 13.6098 874.528 13.7604 874.486 13.7303C874.405 13.672 874.133 13.4933 874.089 13.5797L873.872 14.0155L873.551 13.3949L874.299 13.407C871.034 12.69 862.334 12.7944 862.334 12.4089C862.334 12.7804 866.862 24.3058 866.862 24.9263C867.618 27.4467 867.085 29.718 865.497 30.9169C865.497 30.3426 856 39.681 856 40.2272C856 39.5424 868.586 44.5128 868.586 44.4787H868.588ZM910.615 41.8338L910.691 42.2395C910.709 42.3319 910.545 42.5588 910.469 42.5066L910.06 42.2274L910.615 41.8338ZM903.645 42.6733L902.837 42.4222C902.755 42.1049 903.18 42.0366 903.369 42.131C903.545 42.2194 903.687 42.5447 903.645 42.6733ZM904.455 38.8174C904.186 38.5865 904.198 38.1647 904.309 37.8494C904.601 38.1005 904.836 38.4599 904.455 38.8174ZM904.92 36.5019L904.661 36.6826C904.595 36.7288 904.439 36.5822 904.437 36.4999C904.435 36.4175 904.497 36.2549 904.577 36.2649C904.688 36.279 904.884 36.3312 904.934 36.285L905.217 36.0199L905.271 36.7107C905.108 36.6184 904.98 36.4597 904.92 36.4999V36.5019ZM905.656 29.2521L905.529 29.4891C905.471 29.5995 905.279 29.9188 905.169 29.8686C905.042 29.8104 904.828 29.5353 904.866 29.5292C905.407 29.3344 905.858 28.8705 905.656 29.2521ZM908.113 27.8704C907.917 27.8282 907.63 27.5872 907.684 27.4085L908.414 27.4808C908.56 27.4949 908.25 27.9005 908.113 27.8704ZM908.883 24.4584C908.715 24.5307 908.338 24.4343 908.474 24.0367L909.244 24.0427C909.222 24.1511 909.021 24.4001 908.883 24.4584ZM909.176 18.8152C909.031 18.8112 909.544 19.2209 909.717 19.5402L910.434 19.7008C910.174 19.8253 909.793 19.8876 909.51 19.7731C908.995 19.5623 909.262 19.01 908.723 18.9959C908.681 18.9959 908.624 18.8654 908.664 18.8513C908.705 18.8373 908.821 18.8031 908.865 18.8051L909.178 18.8152H909.176ZM908.33 16.6483C908.608 16.58 908.821 17.1162 908.58 17.3913C908.488 17.4978 908.276 17.2769 908.185 17.0901C908.117 16.9475 908.113 16.7005 908.328 16.6483H908.33ZM907.736 14.7244L907.317 15.2325L906.993 14.4051L907.736 14.7244ZM905.419 13.9371L905.596 13.7022C905.634 13.652 905.686 13.5154 905.708 13.4572C905.738 13.3788 906.041 13.3628 906.057 13.4451C906.095 13.654 905.758 14.0295 905.584 14.15C905.527 14.1882 905.379 13.9934 905.419 13.9391V13.9371ZM905.092 28.4508C905.149 28.4287 905.245 28.5372 905.239 28.5974C905.221 28.8223 904.726 29.0312 904.651 28.9729C904.585 28.9187 904.391 28.7239 904.473 28.6918L904.838 28.5492L905.09 28.4508H905.092ZM904.365 13.8126L904.481 14.2083C904.497 14.2645 904.587 14.4171 904.613 14.4593C904.649 14.5175 904.521 14.5898 904.439 14.622C904.373 14.6481 904.313 14.5376 904.289 14.4573L904.086 13.8267C904.006 13.8247 904.343 13.7343 904.367 13.8126H904.365ZM903.511 23.0345C903.322 23.0606 903.088 22.8719 903.01 22.6028L903.916 22.6269C903.786 22.8498 903.637 23.0185 903.511 23.0345ZM903.421 14.0697C903.489 14.2203 903.433 14.5577 903.373 14.6621L902.825 14.0335C902.92 13.9813 903.363 13.9371 903.421 14.0677V14.0697ZM902.982 39.0624C903.17 39.0865 903.33 39.5444 903.198 39.6448C903 39.7954 902.815 39.5906 902.811 39.4299C902.807 39.3155 902.867 39.0504 902.982 39.0644V39.0624ZM901.472 39.7211C901.801 39.6127 902.178 39.7332 902.268 40.179L901.45 40.0625L901.472 39.7211ZM875.233 41.7715C875.245 41.7274 875.4 41.6952 875.444 41.6952C875.748 41.6872 875.295 42.3339 875.217 42.3198L874.754 42.2314L875.103 42.0909C875.181 42.0587 875.201 41.884 875.231 41.7715H875.233ZM875.205 36.4075C875.197 36.2207 875.877 36.2348 875.939 36.4135C875.963 36.4858 875.762 36.4738 875.684 36.4617C875.598 36.4477 875.554 36.6866 875.536 36.8031C875.526 36.8734 875.229 36.9236 875.225 36.8533L875.203 36.4075H875.205ZM875.167 46.5512C875.612 46.4869 875.951 46.5653 876.27 46.8143C875.825 47.0352 875.386 46.993 875.167 46.5512ZM876.181 46.0973L876.865 46.1495L876.594 46.4367C876.534 46.501 876.721 46.5813 876.981 46.8725L876.342 46.9368C876.436 46.4789 876.41 46.4689 876.179 46.0973H876.181ZM876.584 32.7605C876.58 32.4392 876.839 31.897 877.12 31.6399C877.332 31.917 876.973 31.9432 876.985 32.7485C876.985 32.8589 876.586 32.887 876.586 32.7625L876.584 32.7605ZM878.19 55.1666L878.212 54.3051L878.819 54.8473L878.19 55.1666ZM879.27 44.8382L879.439 44.2999C879.439 44.2999 879.761 44.2678 879.765 44.3702L879.782 44.8602C879.786 44.9807 879.234 44.9506 879.27 44.8382ZM880.451 45.4085L879.365 45.7419C879.537 45.2338 880.03 45.2157 880.451 45.4085ZM881.401 55.8374C881.419 55.8695 881.423 55.9338 881.385 55.9378C881.321 55.9438 881.137 55.9438 881.084 55.9157L880.888 55.8113C880.834 55.7831 880.768 55.9398 880.772 56.0101L880.79 56.3434C880.792 56.3876 880.665 56.4238 880.639 56.3896L880.505 56.2109C880.299 56.3816 879.974 56.4117 879.804 56.2792C880.094 56.1647 880.305 56.0161 880.441 55.7811L880.649 55.4257C880.708 55.3273 881.036 55.3393 881.155 55.3192C881.217 55.3092 881.078 55.1084 881.04 55.0602C881.002 55.01 881.141 54.9477 881.203 54.9477C881.265 54.9477 881.433 55.0782 881.421 55.1425L881.317 55.6948L881.399 55.8394L881.401 55.8374ZM882.941 54.6364C882.927 54.6766 882.862 54.787 882.854 54.7489C882.84 54.6907 882.798 54.5059 882.764 54.4597C882.67 54.3312 882.321 54.2749 882.257 54.1303C882.179 53.9596 882.199 53.4957 882.243 53.3873L883.195 53.9737L882.943 54.6384L882.941 54.6364ZM884.308 45.8985C884.207 45.8242 884.153 45.6073 884.123 45.4366L884.041 44.9848C884.017 44.8562 884.57 44.8582 884.574 44.9888C884.582 45.2037 884.626 45.4888 884.747 45.8503C884.833 45.8744 884.408 45.9728 884.308 45.8985ZM886.793 52.6503C886.841 52.7065 886.831 52.8973 886.759 52.9033L886.354 52.9354L886.112 52.9535C886.064 52.9575 885.987 52.7908 886.034 52.7848L886.422 52.7306L886.445 51.602C886.445 51.5056 886.851 51.5658 886.906 51.4855L887.18 51.0899L887.206 51.9715L886.675 51.7004L886.605 52.4354L886.793 52.6503ZM885.955 50.7464C886.312 50.7023 886.741 50.879 886.839 51.1662C886.873 51.2646 886.477 51.4353 886.414 51.3529L885.955 50.7464ZM891.688 46.9609L892.035 46.8765C892.073 46.8665 891.923 46.754 891.891 46.7319C891.859 46.7098 891.787 46.6235 891.823 46.6114C891.859 46.5974 891.991 46.5512 892.029 46.5512H892.358C892.426 46.5492 892.454 46.8303 892.394 46.8605L891.718 47.1918C891.664 47.2179 891.632 46.9769 891.69 46.9629L891.688 46.9609ZM892.512 53.8251C892.224 53.5781 892.085 53.2347 892.334 52.8631L892.444 53.2427C892.47 53.3351 892.63 53.3471 892.837 53.3893L892.512 53.8251ZM893.144 45.7158C893.071 45.6736 892.983 45.5029 893.003 45.4185L893.065 45.1595C893.083 45.0832 893.368 45.0731 893.384 45.1494L893.464 45.5651C893.482 45.6635 893.216 45.7579 893.144 45.7158ZM894.781 47.0271L894.438 47.2059C894.342 47.2561 894.525 47.5312 894.565 47.6377C894.595 47.72 894.26 47.7019 894.204 47.6336C894.148 47.5674 894.074 47.4147 894.116 47.3384L894.326 46.9468C894.384 46.8384 894.894 46.9689 894.783 47.0251L894.781 47.0271ZM895.978 46.5632C895.942 46.5793 895.862 46.3564 895.898 46.3403L896.156 46.2359C896.07 46.1616 895.946 45.7278 896.082 45.7298C896.253 45.7338 896.495 45.9126 896.637 46.0411C896.463 46.2259 896.148 46.4809 895.976 46.5632H895.978ZM895.806 42.368L896.176 42.0889C896.174 42.6552 896.599 42.9163 896.417 42.9002C896.373 42.8962 896.174 42.9102 896.15 42.8741L895.806 42.366V42.368ZM898.171 51.0115L897.547 51.3429L898.115 50.3468L898.427 50.6621C898.5 50.7364 898.271 50.9593 898.171 51.0115ZM899.853 42.2736L899.618 42.6552L900.099 42.8058L899.578 42.9283C899.478 42.9524 899.382 42.6793 899.414 42.5809C899.454 42.4624 899.588 42.2656 899.676 42.1652C899.714 42.121 899.881 42.2274 899.853 42.2736ZM899.007 26.5751L899.191 26.4385C899.249 26.3964 899.47 26.5048 899.442 26.5711L899.293 26.9205C899.269 26.9767 899.466 27.1253 899.408 27.1555L899.171 27.28C899.113 27.3101 899.043 27.0872 899.013 27.029L898.897 26.808C898.866 26.7518 898.957 26.6132 899.007 26.5751ZM898.686 40.6911L899.139 41.0225C899.273 41.1209 899.121 41.3819 899.003 41.388C898.47 41.4141 898.836 40.8859 898.187 40.8116C898.223 40.7514 898.584 40.6148 898.686 40.6911ZM897.527 21.2974L898.197 20.956C898.143 21.5424 897.626 21.3416 897.297 21.4299L896.627 21.6127C896.754 21.1508 897.179 21.1568 897.527 21.2974ZM891.779 9.7198L891.923 9.32016C892.023 9.67161 892.029 10.019 891.953 10.4729L891.752 10.0512C891.712 9.96883 891.522 9.9146 891.434 9.87645C891.58 9.82624 891.75 9.79612 891.779 9.7198ZM890.788 16.7728C890.798 17.2769 890.349 17.7629 889.738 17.5701L890.788 16.7728ZM887.749 16.1964L887.417 16.1482C887.335 16.1362 887.475 15.8811 887.509 15.8048L887.689 15.4172C887.743 15.3007 888.285 15.4514 888.164 15.5016L887.912 15.604C887.675 15.7004 887.87 16.2145 887.747 16.1964H887.749ZM887.639 18.0079L888.018 18.2288C888.098 18.275 888.283 17.9958 888.375 18.0259L889.187 18.3031L888.668 18.6244C888.299 18.4095 888.034 18.3453 887.627 18.3734L887.641 18.0079H887.639ZM888.455 5.75149L888.144 6.16519L887.573 5.57878C887.924 5.57878 888.11 5.631 888.455 5.75149ZM887.784 14.391C887.822 14.3769 887.996 14.3749 887.994 14.4151C887.992 14.4553 887.978 14.5637 887.94 14.5758L887.631 14.6742C887.693 14.7565 887.828 14.9091 887.808 15.0095C887.784 15.128 887.535 15.359 887.489 15.361C887.26 14.9252 887.465 14.5095 887.786 14.393L887.784 14.391ZM886.34 7.99471C886.442 8.02685 886.603 8.32206 886.611 8.43051C886.617 8.53694 886.416 8.56506 886.234 8.56707C886.084 8.56907 886.01 8.45059 885.931 8.12324L885.318 8.3803C885.42 7.89631 886.074 7.90836 886.342 7.99471H886.34ZM884.761 9.82624C884.893 9.86641 884.767 10.3886 884.66 10.3022C884.506 10.1757 884.288 9.94071 884.179 9.80214C884.47 9.79411 884.646 9.79411 884.759 9.82825L884.761 9.82624ZM884.183 22.5787L884.576 22.3919L884.887 22.2453C884.957 22.2132 885.061 22.4662 885.009 22.5224C884.957 22.5787 884.887 22.6128 884.717 22.6871L884.366 22.8417C884.292 22.8759 884.107 22.6148 884.181 22.5807L884.183 22.5787ZM883.428 10.3323L883.402 10.973C883.68 11.0352 883.787 11.0633 883.811 11.1216C883.845 11.2019 883.71 11.3686 883.628 11.3164C883.494 11.232 883.221 11.1276 883.193 10.993C883.159 10.8284 883.111 10.3926 883.428 10.3323ZM879.926 15.851C880.002 15.9133 880.281 16.094 880.323 16.0056L880.529 15.5759C880.674 15.8209 880.547 16.2346 880.345 16.345L879.629 16.1081C879.575 16.1342 879.836 15.7807 879.926 15.851ZM878.07 30.4711C878.982 27.3904 881.764 23.8238 885.204 23.3318C887.723 22.8096 890.155 23.0747 892.224 23.9523C892.203 23.9362 892.185 23.9182 892.169 23.8981C892.073 23.7796 892.019 23.5346 892.043 23.4161L892.669 23.7334C892.628 23.9644 892.518 24.0387 892.404 24.0306C896.67 25.9365 899.331 30.4892 897.928 36.1263C897.008 40.6871 894.214 42.0065 890.766 43.2677C882.919 46.3946 875.989 37.7048 878.07 30.4711ZM877.573 47.8887L877.2 47.9148C877.105 47.9208 876.917 47.8927 876.835 47.8726C876.753 47.8525 876.785 47.5031 876.865 47.5232L877.288 47.6336L877.528 47.6718C877.583 47.6798 877.629 47.8847 877.573 47.8887ZM876.584 16.1342C876.656 16.0358 876.817 15.8209 876.919 15.8671L877.492 16.1161L876.895 16.2165C876.791 16.2346 876.799 16.5157 876.707 16.568C876.602 16.6262 876.512 16.2326 876.582 16.1362L876.584 16.1342ZM876.183 43.5047L875.584 43.5147L875.578 43.099L876.177 43.089L876.183 43.5047ZM876.103 35.2708C876.167 35.2548 876.171 35.6303 876.107 35.6403C875.929 35.6685 875.584 35.6544 875.315 35.6162L875.873 35.321C875.919 35.2969 876.061 35.2829 876.103 35.2708ZM875.263 33.8831L875.776 34.6884C875.668 34.6884 875.225 34.6503 875.185 34.6181C875.049 34.2426 875.041 34.0799 875.265 33.8851L875.263 33.8831ZM874.917 40.9381L875.127 40.8698C875.179 40.8538 875.169 41.149 875.127 41.1831C874.965 41.3137 874.51 41.3137 874.301 41.2112L874.919 40.9361L874.917 40.9381ZM874.287 59.7655C874.375 59.8017 874.405 60.0527 874.397 60.1631L874.367 60.5447C874.361 60.625 874.147 60.6612 874.083 60.611C874.019 60.5608 873.992 60.38 873.986 60.2756L873.962 59.9161C873.956 59.8197 874.199 59.7274 874.287 59.7655ZM873.94 39.9079L873.816 40.1348C873.786 40.1911 873.756 40.2674 873.81 40.2814L874.193 40.3859C873.854 40.6429 873.501 40.4742 873.353 40.1569C873.584 39.9701 873.806 39.8737 873.94 39.9059V39.9079ZM872.828 37.4859C872.736 37.4899 872.806 37.028 872.824 37.1305L873.816 37.4458L872.828 37.4859ZM873.469 35.4435C873.325 35.568 873.064 35.3532 873.163 35.1483C873.221 35.0258 873.329 34.8792 873.503 34.6904C873.582 34.8692 873.618 35.317 873.471 35.4435H873.469ZM873.361 30.1277C873.375 30.208 873.337 30.443 873.265 30.4932L873.014 30.6659C872.948 30.7101 872.74 30.5956 872.762 30.5193C872.782 30.443 872.852 30.2642 872.912 30.2161L873.125 30.0453C873.173 30.0072 873.351 30.0674 873.363 30.1277H873.361ZM872.381 28.9388C872.395 28.8765 872.629 28.8344 872.688 28.8364L872.982 29.4007C872.68 29.6055 872.335 29.1396 872.381 28.9388ZM871.94 24.2997C872.014 24.2897 872.196 24.2977 872.19 24.356C872.182 24.4343 872.132 24.5548 872.076 24.6532L871.888 24.9765C871.844 25.0528 871.603 25.0307 871.569 24.9484C871.485 24.7556 871.669 24.3379 871.942 24.2997H871.94ZM870.354 44.1413C870.36 44.2919 870.248 44.6514 870.078 44.6976C869.871 44.7538 869.466 44.6976 869.378 44.6353L870.354 44.1433V44.1413ZM869.097 23.1189L869.188 24.123L868.376 23.7334L868.887 23.5968C868.983 23.5707 868.939 23.3659 869.099 23.1189H869.097ZM867.887 20.3415C867.991 20.1768 868.101 20.0081 868.211 19.9258C868.344 19.8274 868.697 19.7912 868.757 19.9157C868.799 20.0041 868.757 20.4499 868.667 20.4178L868.224 20.2591L868.047 20.5885C868.001 20.6768 867.73 20.6146 867.528 20.5483L867.887 20.3415ZM867.514 24.6271C867.696 24.6271 867.981 24.6331 867.967 24.7154C867.953 24.7978 867.909 24.9564 867.859 25.0669L867.674 25.4806C867.462 25.4023 867.46 25.4304 867.313 25.1733L867.556 24.9524C867.396 24.7877 867.388 24.6452 867.514 24.6271ZM862.356 39.5002C862.451 39.5002 862.553 39.3797 862.649 39.2652L863.014 39.4139C862.719 39.7312 862.266 39.9019 861.929 39.4962L862.356 39.5002Z" fill="var(--fill-0, #2E2720)" fill-opacity="0.16"/>
<rect id="divider_3" opacity="0.16" x="942.25" y="31.0362" width="833.5" height="0.5" stroke="var(--stroke-0, #2E2720)" stroke-width="0.5"/>
</g>
</svg>
