<svg preserveAspectRatio="none" width="100%" height="100%" overflow="visible" style="display: block;" viewBox="0 0 335 31.2862" fill="none" xmlns="http://www.w3.org/2000/svg">
<g id="divider">
<rect id="divider_2" opacity="0.16" x="0.25" y="15.3931" width="129" height="0.5" stroke="var(--stroke-0, #2E2720)" stroke-width="0.5"/>
<path id="Vector" d="M157.794 22.2393C158.848 22.9252 159.595 23.1611 159.707 24.6422C159.707 24.3661 160.378 31.6309 160.378 31.2735C160.378 31.4773 165.96 27.6767 165.96 27.6646C166.895 27.2841 168.096 27.0782 169.031 27.6646C169.031 27.4889 174.613 31.2162 174.613 31.2735C174.613 30.9973 175.284 24.6814 175.284 24.6432C175.396 23.9423 176.144 23.0276 177.198 22.2403C177.198 22.163 183.5 19.8987 183.5 20.1146C183.5 19.6286 178.743 15.6784 178.743 15.4595C177.949 14.5879 177.681 13.5195 178.06 12.4622C178.06 12.7734 179.894 6.93242 180.26 6.23355C179.588 6.41228 173.731 6.92941 173.731 7.02681C172.628 8.01085 171.546 7.01677 170.966 5.69232C170.966 5.69835 169.513 3.19205 168.487 1.5031C168.507 1.55833 168.475 1.66376 168.449 1.73004L168.401 1.85154C168.393 1.87162 168.342 1.90576 168.335 1.88568L168.289 1.74811C168.263 1.6728 168.216 1.57942 168.224 1.52419C168.234 1.45993 168.412 1.44085 168.467 1.47499C168.47 1.477 168.472 1.48101 168.475 1.48302C167.922 0.572278 167.496 -0.0944621 167.496 0.0109712C167.496 0.20778 164.411 5.29971 164.059 5.67626C164.147 5.67124 164.233 5.71944 164.285 5.86303C164.197 5.90118 164.076 5.8801 163.974 5.81884C163.383 7.18747 162.332 7.34813 161.261 7.0258C161.261 6.90431 161.074 6.80791 160.762 6.72959C160.779 6.74867 160.796 6.77377 160.801 6.78281C160.814 6.8049 160.764 6.88021 160.743 6.86514C160.703 6.83602 160.566 6.74666 160.544 6.78983L160.436 7.00773L160.276 6.69745L160.65 6.70348C159.017 6.34501 154.667 6.39722 154.667 6.20443C154.667 6.39019 156.931 12.1529 156.931 12.4632C157.309 13.7233 157.042 14.859 156.249 15.4585C156.249 15.1713 151.5 19.8405 151.5 20.1136C151.5 19.7712 157.793 22.2564 157.793 22.2393H157.794ZM178.807 20.9169L178.846 21.1197C178.855 21.1659 178.772 21.2794 178.734 21.2533L178.53 21.1137L178.807 20.9169ZM175.323 21.3366L174.919 21.2111C174.878 21.0525 175.09 21.0183 175.184 21.0655C175.272 21.1097 175.344 21.2724 175.323 21.3366ZM175.728 19.4087C175.593 19.2932 175.599 19.0824 175.654 18.9247C175.801 19.0502 175.918 19.23 175.728 19.4087ZM175.96 18.2509L175.831 18.3413C175.798 18.3644 175.719 18.2911 175.718 18.2499C175.717 18.2088 175.749 18.1274 175.789 18.1325C175.844 18.1395 175.942 18.1656 175.967 18.1425L176.108 18.01L176.135 18.3554C176.054 18.3092 175.99 18.2299 175.96 18.2499V18.2509ZM176.328 14.626L176.265 14.7445C176.236 14.7998 176.139 14.9594 176.084 14.9343C176.021 14.9052 175.914 14.7676 175.933 14.7646C176.204 14.6672 176.429 14.4353 176.328 14.626ZM177.557 13.9352C177.458 13.9141 177.315 13.7936 177.342 13.7043L177.707 13.7404C177.78 13.7474 177.625 13.9503 177.557 13.9352ZM177.941 12.2292C177.857 12.2653 177.669 12.2171 177.737 12.0183L178.122 12.0213C178.111 12.0756 178.011 12.2001 177.941 12.2292ZM178.088 9.40759C178.016 9.40559 178.272 9.61043 178.358 9.77008L178.717 9.85041C178.587 9.91267 178.397 9.9438 178.255 9.88656C177.998 9.78113 178.131 9.50499 177.861 9.49797C177.84 9.49797 177.812 9.4327 177.832 9.42567C177.852 9.41864 177.91 9.40157 177.932 9.40257L178.089 9.40759H178.088ZM177.665 8.32414C177.804 8.29 177.91 8.5581 177.79 8.69567C177.744 8.74889 177.638 8.63843 177.593 8.54505C177.559 8.47376 177.557 8.35025 177.664 8.32414H177.665ZM177.368 7.36219L177.159 7.61623L176.996 7.20253L177.368 7.36219ZM176.21 6.96857L176.298 6.85109C176.317 6.82598 176.343 6.7577 176.354 6.72858C176.369 6.68942 176.52 6.68139 176.528 6.72256C176.547 6.82699 176.379 7.01476 176.292 7.07501C176.264 7.09409 176.19 6.99668 176.21 6.96957V6.96857ZM176.046 14.2254C176.074 14.2144 176.122 14.2686 176.119 14.2987C176.11 14.4112 175.863 14.5156 175.826 14.4865C175.793 14.4594 175.695 14.362 175.737 14.3459L175.919 14.2746L176.045 14.2254H176.046ZM175.682 6.90631L175.741 7.10413C175.749 7.13224 175.794 7.20856 175.807 7.22964C175.825 7.25876 175.761 7.29491 175.719 7.31098C175.686 7.32403 175.656 7.2688 175.644 7.22864L175.543 6.91334C175.503 6.91234 175.671 6.86715 175.683 6.90631H175.682ZM175.255 11.5173C175.161 11.5303 175.044 11.4359 175.005 11.3014L175.458 11.3134C175.393 11.4249 175.319 11.5092 175.255 11.5173ZM175.21 7.03484C175.244 7.11015 175.216 7.27884 175.186 7.33106L174.913 7.01677C174.96 6.99066 175.181 6.96857 175.21 7.03384V7.03484ZM174.991 19.5312C175.085 19.5433 175.165 19.7722 175.099 19.8224C175 19.8977 174.908 19.7953 174.906 19.715C174.904 19.6577 174.934 19.5252 174.991 19.5322V19.5312ZM174.236 19.8606C174.401 19.8063 174.589 19.8666 174.634 20.0895L174.225 20.0313L174.236 19.8606ZM161.117 20.8858C161.123 20.8637 161.2 20.8476 161.222 20.8476C161.374 20.8436 161.148 21.1669 161.109 21.1599L160.877 21.1157L161.051 21.0454C161.091 21.0294 161.101 20.942 161.116 20.8858H161.117ZM161.103 18.2038C161.099 18.1104 161.438 18.1174 161.469 18.2068C161.481 18.2429 161.381 18.2369 161.342 18.2309C161.299 18.2238 161.277 18.3433 161.268 18.4016C161.263 18.4367 161.115 18.4618 161.113 18.4267L161.102 18.2038H161.103ZM161.084 23.2756C161.306 23.2435 161.475 23.2826 161.635 23.4071C161.412 23.5176 161.193 23.4965 161.084 23.2756ZM161.591 23.0487L161.932 23.0748L161.797 23.2184C161.767 23.2505 161.86 23.2907 161.991 23.4363L161.671 23.4684C161.718 23.2394 161.705 23.2344 161.59 23.0487H161.591ZM161.792 16.3803C161.79 16.2196 161.919 15.9485 162.06 15.82C162.166 15.9585 161.987 15.9716 161.993 16.3742C161.993 16.4295 161.793 16.4435 161.793 16.3813L161.792 16.3803ZM162.595 27.5833L162.606 27.1525L162.91 27.4236L162.595 27.5833ZM163.135 22.4191L163.219 22.15C163.219 22.15 163.381 22.1339 163.383 22.1851L163.391 22.4301C163.393 22.4904 163.117 22.4753 163.135 22.4191ZM163.726 22.7042L163.182 22.8709C163.268 22.6169 163.515 22.6079 163.726 22.7042ZM164.201 27.9187C164.21 27.9347 164.212 27.9669 164.193 27.9689C164.16 27.9719 164.068 27.9719 164.042 27.9578L163.944 27.9056C163.917 27.8916 163.884 27.9699 163.886 28.005L163.895 28.1717C163.896 28.1938 163.833 28.2119 163.82 28.1948L163.753 28.1055C163.649 28.1908 163.487 28.2059 163.402 28.1396C163.547 28.0824 163.652 28.008 163.72 27.8906L163.825 27.7128C163.854 27.6636 164.018 27.6697 164.077 27.6596C164.108 27.6546 164.039 27.5542 164.02 27.5301C164.001 27.505 164.07 27.4739 164.101 27.4739C164.132 27.4739 164.217 27.5391 164.211 27.5713L164.158 27.8474L164.2 27.9197L164.201 27.9187ZM164.97 27.3182C164.963 27.3383 164.931 27.3935 164.927 27.3744C164.92 27.3453 164.899 27.2529 164.882 27.2299C164.835 27.1656 164.661 27.1375 164.629 27.0652C164.589 26.9798 164.599 26.7479 164.622 26.6936L165.098 26.9869L164.971 27.3192L164.97 27.3182ZM165.654 22.9493C165.604 22.9121 165.577 22.8037 165.562 22.7183L165.521 22.4924C165.509 22.4281 165.785 22.4291 165.787 22.4944C165.791 22.6018 165.813 22.7444 165.873 22.9252C165.916 22.9372 165.704 22.9864 165.654 22.9493ZM166.897 26.3251C166.921 26.3532 166.916 26.4486 166.88 26.4517L166.677 26.4677L166.556 26.4768C166.532 26.4788 166.494 26.3954 166.517 26.3924L166.711 26.3653L166.722 25.801C166.722 25.7528 166.926 25.7829 166.953 25.7427L167.09 25.5449L167.103 25.9857L166.838 25.8502L166.802 26.2177L166.897 26.3251ZM166.478 25.3732C166.656 25.3511 166.871 25.4395 166.92 25.5831C166.937 25.6323 166.738 25.7176 166.707 25.6765L166.478 25.3732ZM169.344 23.4804L169.518 23.4383C169.537 23.4332 169.461 23.377 169.445 23.366C169.429 23.3549 169.393 23.3117 169.411 23.3057C169.429 23.2987 169.495 23.2756 169.515 23.2756H169.679C169.713 23.2746 169.727 23.4152 169.697 23.4302L169.359 23.5959C169.332 23.609 169.316 23.4885 169.345 23.4814L169.344 23.4804ZM169.756 26.9125C169.612 26.789 169.543 26.6173 169.667 26.4316L169.722 26.6213C169.735 26.6675 169.815 26.6736 169.918 26.6946L169.756 26.9125ZM170.072 22.8579C170.036 22.8368 169.992 22.7514 170.002 22.7093L170.033 22.5797C170.042 22.5416 170.184 22.5366 170.192 22.5747L170.232 22.7826C170.241 22.8318 170.108 22.879 170.072 22.8579ZM170.891 23.5136L170.719 23.6029C170.671 23.628 170.762 23.7656 170.782 23.8188C170.797 23.86 170.63 23.851 170.602 23.8168C170.574 23.7837 170.537 23.7074 170.558 23.6692L170.663 23.4734C170.692 23.4192 170.947 23.4845 170.892 23.5126L170.891 23.5136ZM171.489 23.2816C171.471 23.2897 171.431 23.1782 171.449 23.1702L171.578 23.1179C171.535 23.0808 171.473 22.8639 171.541 22.8649C171.626 22.8669 171.748 22.9563 171.819 23.0205C171.732 23.1129 171.574 23.2405 171.488 23.2816H171.489ZM171.403 21.184L171.588 21.0444C171.587 21.3276 171.8 21.4581 171.708 21.4501C171.686 21.4481 171.587 21.4551 171.575 21.437L171.403 21.183V21.184ZM172.585 25.5058L172.274 25.6714L172.557 25.1734L172.714 25.331C172.75 25.3682 172.636 25.4797 172.585 25.5058ZM173.426 21.1368L173.309 21.3276L173.55 21.4029L173.289 21.4642C173.239 21.4762 173.191 21.3396 173.207 21.2904C173.227 21.2312 173.294 21.1328 173.338 21.0826C173.357 21.0605 173.44 21.1137 173.426 21.1368ZM173.003 13.2875L173.096 13.2193C173.125 13.1982 173.235 13.2524 173.221 13.2855L173.147 13.4603C173.135 13.4884 173.233 13.5627 173.204 13.5777L173.086 13.64C173.057 13.6551 173.021 13.5436 173.006 13.5145L172.948 13.404C172.933 13.3759 172.978 13.3066 173.003 13.2875ZM172.843 20.3456L173.07 20.5112C173.137 20.5604 173.061 20.691 173.001 20.694C172.735 20.707 172.918 20.443 172.593 20.4058C172.612 20.3757 172.792 20.3074 172.843 20.3456ZM172.264 10.6487L172.598 10.478C172.571 10.7712 172.313 10.6708 172.148 10.715L171.814 10.8063C171.877 10.5754 172.089 10.5784 172.264 10.6487ZM169.389 4.8599L169.461 4.66008C169.512 4.8358 169.515 5.00952 169.476 5.23645L169.376 5.02558C169.356 4.98441 169.261 4.9573 169.217 4.93822C169.29 4.91312 169.375 4.89806 169.389 4.8599ZM168.894 8.3864C168.899 8.63843 168.675 8.88143 168.369 8.78504L168.894 8.3864ZM167.375 8.09821L167.208 8.07411C167.167 8.06809 167.237 7.94056 167.254 7.90241L167.345 7.70861C167.372 7.65037 167.642 7.72568 167.582 7.75078L167.456 7.80199C167.338 7.85019 167.435 8.10725 167.374 8.09821H167.375ZM167.32 9.00394L167.509 9.11439C167.549 9.13748 167.641 8.99791 167.687 9.01297L168.093 9.15154L167.834 9.3122C167.649 9.20476 167.517 9.17263 167.314 9.18669L167.321 9.00394H167.32ZM167.728 2.87575L167.572 3.0826L167.287 2.78939C167.462 2.78939 167.555 2.8155 167.728 2.87575ZM167.392 7.1955C167.411 7.18847 167.498 7.18747 167.497 7.20755C167.496 7.22763 167.489 7.28186 167.47 7.28788L167.316 7.33708C167.347 7.37825 167.414 7.45457 167.404 7.50477C167.392 7.56402 167.267 7.67949 167.244 7.6805C167.13 7.4626 167.232 7.25475 167.393 7.19651L167.392 7.1955ZM166.67 3.99736C166.721 4.01342 166.801 4.16103 166.805 4.21525C166.808 4.26847 166.708 4.28253 166.617 4.28353C166.542 4.28454 166.505 4.22529 166.466 4.06162L166.159 4.19015C166.21 3.94815 166.537 3.95418 166.671 3.99736H166.67ZM165.88 4.91312C165.947 4.9332 165.883 5.19428 165.83 5.1511C165.753 5.08784 165.644 4.97036 165.59 4.90107C165.735 4.89705 165.823 4.89705 165.879 4.91413L165.88 4.91312ZM165.592 11.2893L165.788 11.1959L165.943 11.1226C165.979 11.1066 166.031 11.2331 166.005 11.2612C165.979 11.2893 165.943 11.3064 165.858 11.3436L165.683 11.4209C165.646 11.4379 165.554 11.3074 165.591 11.2903L165.592 11.2893ZM165.214 5.16616L165.201 5.48648C165.34 5.51761 165.393 5.53166 165.405 5.56078C165.422 5.60095 165.355 5.68429 165.314 5.65818C165.247 5.61601 165.111 5.5638 165.097 5.49652C165.08 5.41418 165.056 5.19628 165.214 5.16616ZM163.463 7.9255C163.501 7.95663 163.64 8.047 163.661 8.00282L163.765 7.78794C163.837 7.91044 163.774 8.11729 163.672 8.17252L163.315 8.05403C163.288 8.06708 163.418 7.89036 163.463 7.9255ZM162.535 15.2356C162.991 13.6952 164.382 11.9119 166.102 11.6659C167.362 11.4048 168.577 11.5373 169.612 11.9762C169.602 11.9681 169.593 11.9591 169.585 11.949C169.537 11.8898 169.51 11.7673 169.522 11.7081L169.834 11.8667C169.814 11.9822 169.759 12.0193 169.702 12.0153C171.835 12.9682 173.166 15.2446 172.464 18.0632C172.004 20.3435 170.607 21.0033 168.883 21.6338C164.959 23.1973 161.494 18.8524 162.535 15.2356ZM162.286 23.9443L162.1 23.9574C162.053 23.9604 161.959 23.9464 161.917 23.9363C161.876 23.9263 161.892 23.7516 161.932 23.7616L162.144 23.8168L162.264 23.8359C162.291 23.8399 162.314 23.9423 162.286 23.9443ZM161.792 8.06708C161.828 8.01788 161.908 7.91044 161.96 7.93354L162.246 8.05805L161.948 8.10825C161.895 8.11729 161.899 8.25787 161.853 8.28398C161.801 8.3131 161.756 8.11629 161.791 8.06809L161.792 8.06708ZM161.592 21.7523L161.292 21.7574L161.289 21.5495L161.589 21.5445L161.592 21.7523ZM161.552 17.6354C161.584 17.6274 161.586 17.8152 161.554 17.8202C161.464 17.8342 161.292 17.8272 161.158 17.8081L161.436 17.6605C161.459 17.6485 161.531 17.6414 161.552 17.6354ZM161.132 16.9416L161.388 17.3442C161.334 17.3442 161.113 17.3251 161.093 17.3091C161.024 17.1213 161.02 17.04 161.133 16.9426L161.132 16.9416ZM160.958 20.4691L161.064 20.4349C161.09 20.4269 161.085 20.5745 161.064 20.5916C160.982 20.6568 160.755 20.6568 160.651 20.6056L160.959 20.4681L160.958 20.4691ZM160.644 29.8828C160.688 29.9008 160.703 30.0263 160.699 30.0816L160.684 30.2724C160.681 30.3125 160.573 30.3306 160.541 30.3055C160.509 30.2804 160.496 30.19 160.493 30.1378L160.481 29.9581C160.478 29.9099 160.599 29.8637 160.644 29.8828ZM160.47 19.9539L160.408 20.0674C160.393 20.0955 160.378 20.1337 160.405 20.1407L160.596 20.1929C160.427 20.3215 160.251 20.2371 160.177 20.0785C160.292 19.9851 160.403 19.9369 160.47 19.9529V19.9539ZM159.914 18.743C159.868 18.745 159.903 18.514 159.912 18.5652L160.408 18.7229L159.914 18.743ZM160.235 17.7218C160.162 17.784 160.032 17.6766 160.081 17.5742C160.11 17.5129 160.164 17.4396 160.252 17.3452C160.291 17.4346 160.309 17.6585 160.236 17.7218H160.235ZM160.181 15.0638C160.188 15.104 160.169 15.2215 160.132 15.2466L160.007 15.333C159.974 15.355 159.87 15.2978 159.881 15.2596C159.891 15.2215 159.926 15.1321 159.956 15.108L160.062 15.0227C160.086 15.0036 160.176 15.0337 160.182 15.0638H160.181ZM159.69 14.4694C159.697 14.4383 159.815 14.4172 159.844 14.4182L159.991 14.7004C159.84 14.8028 159.667 14.5698 159.69 14.4694ZM159.47 12.1499C159.507 12.1448 159.598 12.1489 159.595 12.178C159.591 12.2171 159.566 12.2774 159.538 12.3266L159.444 12.4883C159.422 12.5264 159.302 12.5154 159.285 12.4742C159.242 12.3778 159.335 12.1689 159.471 12.1499H159.47ZM158.677 22.0706C158.68 22.146 158.624 22.3257 158.539 22.3488C158.436 22.3769 158.233 22.3488 158.189 22.3177L158.677 22.0716V22.0706ZM158.049 11.5594L158.094 12.0615L157.688 11.8667L157.943 11.7984C157.992 11.7854 157.97 11.6829 158.05 11.5594H158.049ZM157.443 10.1707C157.495 10.0884 157.551 10.004 157.606 9.96288C157.672 9.91368 157.848 9.8956 157.878 9.95786C157.899 10.002 157.878 10.225 157.833 10.2089L157.612 10.1296L157.524 10.2942C157.501 10.3384 157.365 10.3073 157.264 10.2742L157.443 10.1707ZM157.257 12.3135C157.348 12.3135 157.49 12.3166 157.483 12.3577C157.476 12.3989 157.454 12.4782 157.429 12.5334L157.337 12.7403C157.231 12.7011 157.23 12.7152 157.157 12.5867L157.278 12.4762C157.198 12.3939 157.194 12.3226 157.257 12.3135ZM154.678 19.7501C154.725 19.7501 154.776 19.6899 154.824 19.6326L155.007 19.7069C154.86 19.8656 154.633 19.9509 154.465 19.7481L154.678 19.7501Z" fill="var(--fill-0, #2E2720)" fill-opacity="0.16"/>
<rect id="divider_3" opacity="0.16" x="205.75" y="15.3931" width="129" height="0.5" stroke="var(--stroke-0, #2E2720)" stroke-width="0.5"/>
</g>
</svg>
