<svg preserveAspectRatio="none" width="100%" height="100%" overflow="visible" style="display: block;" viewBox="0 0 920 39.1078" fill="none" xmlns="http://www.w3.org/2000/svg">
<g id="divider">
<rect id="divider_2" opacity="0.16" x="0.25" y="19.3039" width="417.5" height="0.5" stroke="var(--stroke-0, #2E2720)" stroke-width="0.5"/>
<path id="Vector" d="M447.868 27.7992C449.184 28.6564 450.119 28.9514 450.259 30.8028C450.259 30.4576 451.097 39.5387 451.097 39.0918C451.097 39.3466 458.074 34.5959 458.074 34.5808C459.243 34.1051 460.745 33.8478 461.914 34.5808C461.914 34.3611 468.891 39.0203 468.891 39.0918C468.891 38.7467 469.729 30.8517 469.729 30.804C469.87 29.9279 470.806 28.7845 472.122 27.8004C472.122 27.7038 480 24.8734 480 25.1433C480 24.5358 474.054 19.598 474.054 19.3243C473.061 18.2349 472.726 16.8994 473.2 15.5777C473.2 15.9668 475.492 8.66553 475.95 7.79194C475.11 8.01535 467.789 8.66176 467.789 8.78351C466.409 10.0136 465.058 8.77096 464.332 7.11541C464.332 7.12294 462.516 3.99006 461.234 1.87888C461.259 1.94791 461.219 2.07971 461.186 2.16255L461.126 2.31442C461.116 2.33952 461.052 2.3822 461.044 2.3571L460.986 2.18514C460.953 2.091 460.895 1.97427 460.905 1.90524C460.917 1.82491 461.14 1.80106 461.209 1.84374C461.213 1.84625 461.215 1.85127 461.219 1.85378C460.527 0.715348 459.995 -0.118078 459.995 0.013714C459.995 0.259725 456.139 6.62464 455.699 7.09532C455.809 7.08905 455.916 7.14929 455.981 7.32878C455.871 7.37648 455.72 7.35012 455.593 7.27355C454.853 8.98434 453.54 9.18516 452.201 8.78226C452.201 8.63038 451.967 8.50989 451.577 8.41198C451.599 8.43583 451.62 8.46721 451.626 8.47851C451.642 8.50612 451.58 8.60026 451.553 8.58143C451.503 8.54503 451.333 8.43332 451.305 8.48729L451.17 8.75966L450.97 8.37182L451.437 8.37935C449.396 7.93126 443.959 7.99653 443.959 7.75554C443.959 7.98774 446.789 15.1911 446.789 15.5789C447.261 17.1542 446.928 18.5738 445.936 19.3231C445.936 18.9641 440 24.8006 440 25.142C440 24.714 447.866 27.8205 447.866 27.7992H447.868ZM474.134 26.1461L474.182 26.3997C474.193 26.4574 474.09 26.5992 474.043 26.5666L473.787 26.3921L474.134 26.1461ZM469.778 26.6708L469.273 26.5139C469.222 26.3156 469.488 26.2729 469.605 26.3319C469.716 26.3871 469.805 26.5905 469.778 26.6708ZM470.284 24.2609C470.117 24.1165 470.124 23.853 470.193 23.6559C470.376 23.8128 470.522 24.0375 470.284 24.2609ZM470.575 22.8137L470.413 22.9266C470.372 22.9555 470.274 22.8639 470.273 22.8124C470.272 22.761 470.311 22.6593 470.361 22.6656C470.43 22.6744 470.552 22.707 470.584 22.6781L470.76 22.5124L470.794 22.9442C470.693 22.8865 470.613 22.7873 470.575 22.8124V22.8137ZM471.035 18.2826L470.956 18.4307C470.92 18.4997 470.799 18.6993 470.73 18.6679C470.651 18.6315 470.517 18.4595 470.541 18.4558C470.879 18.334 471.161 18.0441 471.035 18.2826ZM472.571 17.419C472.448 17.3926 472.269 17.242 472.303 17.1303L472.759 17.1755C472.85 17.1843 472.656 17.4378 472.571 17.419ZM473.052 15.2865C472.947 15.3317 472.711 15.2714 472.796 15.0229L473.277 15.0267C473.264 15.0945 473.138 15.2501 473.052 15.2865ZM473.235 11.7595C473.145 11.757 473.465 12.013 473.573 12.2126L474.022 12.313C473.859 12.3908 473.621 12.4297 473.444 12.3582C473.122 12.2264 473.289 11.8812 472.952 11.8725C472.925 11.8725 472.89 11.7909 472.915 11.7821C472.94 11.7733 473.013 11.752 473.041 11.7532L473.236 11.7595H473.235ZM472.706 10.4052C472.88 10.3625 473.013 10.6976 472.863 10.8696C472.805 10.9361 472.672 10.798 472.616 10.6813C472.573 10.5922 472.571 10.4378 472.705 10.4052H472.706ZM472.335 9.20273L472.073 9.52029L471.87 9.00316L472.335 9.20273ZM470.887 8.71071L470.997 8.56386C471.021 8.53248 471.054 8.44713 471.067 8.41073C471.086 8.36178 471.275 8.35174 471.285 8.4032C471.309 8.53373 471.099 8.76845 470.99 8.84376C470.955 8.86761 470.862 8.74586 470.887 8.71197V8.71071ZM470.683 17.7817C470.718 17.7679 470.778 17.8357 470.774 17.8734C470.763 18.014 470.454 18.1445 470.407 18.1081C470.366 18.0742 470.244 17.9524 470.296 17.9324L470.524 17.8433L470.682 17.7817H470.683ZM470.228 8.63289L470.301 8.88016C470.311 8.9153 470.367 9.0107 470.383 9.03705C470.406 9.07345 470.326 9.11864 470.274 9.13872C470.233 9.15504 470.195 9.086 470.18 9.0358L470.054 8.64168C470.004 8.64042 470.214 8.58394 470.229 8.63289H470.228ZM469.694 14.3966C469.577 14.4129 469.43 14.2949 469.381 14.1267L469.947 14.1418C469.866 14.2811 469.773 14.3865 469.694 14.3966ZM469.638 8.79355C469.681 8.88769 469.645 9.09856 469.608 9.16382L469.266 8.77096C469.325 8.73833 469.602 8.71071 469.638 8.7923V8.79355ZM469.364 24.414C469.481 24.4291 469.582 24.7152 469.499 24.778C469.375 24.8721 469.26 24.7441 469.257 24.6437C469.255 24.5722 469.292 24.4065 469.364 24.4153V24.414ZM468.42 24.8257C468.626 24.7579 468.861 24.8332 468.918 25.1119L468.406 25.0391L468.42 24.8257ZM452.021 26.1072C452.028 26.0796 452.125 26.0595 452.152 26.0595C452.343 26.0545 452.06 26.4587 452.011 26.4499L451.721 26.3947L451.939 26.3068C451.988 26.2867 452.001 26.1775 452.02 26.1072H452.021ZM452.003 22.7547C451.998 22.638 452.423 22.6467 452.462 22.7585C452.477 22.8036 452.352 22.7961 452.303 22.7886C452.249 22.7798 452.221 22.9292 452.21 23.002C452.204 23.0459 452.018 23.0773 452.016 23.0333L452.002 22.7547H452.003ZM451.979 29.0945C452.258 29.0543 452.469 29.1033 452.669 29.2589C452.39 29.397 452.116 29.3706 451.979 29.0945ZM452.613 28.8108L453.041 28.8435L452.871 29.023C452.834 29.0631 452.95 29.1133 453.113 29.2953L452.714 29.3355C452.772 29.0493 452.756 29.043 452.612 28.8108H452.613ZM452.865 20.4753C452.863 20.2745 453.024 19.9356 453.2 19.7749C453.332 19.9482 453.108 19.9645 453.116 20.4678C453.116 20.5368 452.866 20.5544 452.866 20.4766L452.865 20.4753ZM453.869 34.4791L453.882 33.9407L454.262 34.2796L453.869 34.4791ZM454.544 28.0238L454.649 27.6875C454.649 27.6875 454.851 27.6674 454.853 27.7314L454.863 28.0377C454.866 28.113 454.521 28.0941 454.544 28.0238ZM455.282 28.3803L454.603 28.5887C454.711 28.2711 455.019 28.2598 455.282 28.3803ZM455.876 34.8984C455.887 34.9184 455.89 34.9586 455.866 34.9611C455.826 34.9649 455.71 34.9649 455.678 34.9473L455.555 34.882C455.521 34.8645 455.48 34.9624 455.482 35.0063L455.494 35.2147C455.495 35.2423 455.416 35.2649 455.4 35.2435L455.316 35.1318C455.187 35.2385 454.984 35.2573 454.877 35.1745C455.059 35.1029 455.19 35.0101 455.276 34.8632L455.406 34.641C455.442 34.5795 455.648 34.5871 455.722 34.5745C455.76 34.5682 455.674 34.4427 455.65 34.4126C455.626 34.3812 455.713 34.3423 455.752 34.3423C455.791 34.3423 455.896 34.4239 455.888 34.4641L455.823 34.8092L455.874 34.8996L455.876 34.8984ZM456.838 34.1478C456.829 34.1729 456.789 34.2419 456.784 34.2181C456.775 34.1817 456.749 34.0662 456.728 34.0373C456.669 33.957 456.451 33.9218 456.411 33.8315C456.362 33.7248 456.374 33.4348 456.402 33.3671L456.997 33.7336L456.839 34.149L456.838 34.1478ZM457.692 28.6866C457.63 28.6401 457.596 28.5046 457.577 28.3979L457.526 28.1155C457.511 28.0351 457.856 28.0364 457.859 28.118C457.864 28.2523 457.892 28.4305 457.967 28.6564C458.021 28.6715 457.755 28.733 457.692 28.6866ZM459.246 32.9064C459.276 32.9416 459.27 33.0608 459.225 33.0646L458.971 33.0846L458.82 33.0959C458.79 33.0985 458.742 32.9943 458.771 32.9905L459.014 32.9566L459.028 32.2512C459.028 32.191 459.282 32.2286 459.316 32.1784L459.488 31.9312L459.504 32.4822L459.172 32.3127L459.128 32.7721L459.246 32.9064ZM458.722 31.7165C458.945 31.6889 459.213 31.7994 459.275 31.9789C459.296 32.0404 459.048 32.147 459.009 32.0956L458.722 31.7165ZM462.305 29.3506L462.522 29.2978C462.546 29.2916 462.452 29.2213 462.432 29.2075C462.412 29.1937 462.367 29.1397 462.389 29.1322C462.412 29.1234 462.494 29.0945 462.518 29.0945H462.724C462.766 29.0932 462.784 29.269 462.746 29.2878L462.324 29.4949C462.29 29.5112 462.27 29.3606 462.306 29.3518L462.305 29.3506ZM462.82 33.6407C462.64 33.4863 462.553 33.2717 462.709 33.0395L462.778 33.2767C462.794 33.3344 462.894 33.342 463.023 33.3683L462.82 33.6407ZM463.215 28.5724C463.17 28.546 463.115 28.4393 463.127 28.3866L463.166 28.2247C463.177 28.177 463.355 28.1707 463.365 28.2184L463.415 28.4782C463.426 28.5397 463.26 28.5987 463.215 28.5724ZM464.238 29.392L464.024 29.5037C463.964 29.5351 464.078 29.707 464.103 29.7735C464.122 29.825 463.913 29.8137 463.877 29.771C463.842 29.7296 463.796 29.6342 463.822 29.5865L463.954 29.3418C463.99 29.274 464.308 29.3556 464.24 29.3907L464.238 29.392ZM464.986 29.102C464.964 29.1121 464.914 28.9727 464.936 28.9627L465.098 28.8974C465.044 28.851 464.966 28.5799 465.051 28.5811C465.158 28.5836 465.309 28.6954 465.398 28.7757C465.289 28.8912 465.093 29.0506 464.985 29.102H464.986ZM464.878 26.48L465.11 26.3055C465.109 26.6595 465.375 26.8227 465.261 26.8126C465.233 26.8101 465.109 26.8189 465.094 26.7963L464.878 26.4787V26.48ZM466.357 31.8822L465.967 32.0893L466.322 31.4667L466.517 31.6638C466.562 31.7102 466.419 31.8496 466.357 31.8822ZM467.408 26.421L467.261 26.6595L467.562 26.7536L467.236 26.8302C467.174 26.8453 467.114 26.6745 467.134 26.613C467.159 26.539 467.243 26.416 467.298 26.3532C467.321 26.3256 467.425 26.3921 467.408 26.421ZM466.879 16.6094L466.994 16.5241C467.031 16.4977 467.169 16.5655 467.151 16.6069L467.058 16.8253C467.043 16.8605 467.166 16.9533 467.13 16.9722L466.982 17.05C466.946 17.0688 466.902 16.9295 466.883 16.8931L466.81 16.755C466.792 16.7199 466.848 16.6333 466.879 16.6094ZM466.679 25.4319L466.962 25.639C467.046 25.7005 466.951 25.8637 466.877 25.8675C466.543 25.8838 466.773 25.5537 466.367 25.5073C466.389 25.4696 466.615 25.3842 466.679 25.4319ZM465.955 13.3109L466.373 13.0975C466.339 13.464 466.016 13.3385 465.811 13.3937L465.392 13.5079C465.471 13.2192 465.737 13.223 465.955 13.3109ZM462.362 6.07488L462.452 5.8251C462.514 6.04475 462.518 6.2619 462.471 6.54556L462.345 6.28198C462.32 6.23052 462.201 6.19663 462.146 6.17278C462.238 6.1414 462.344 6.12257 462.362 6.07488ZM461.743 10.483C461.749 10.798 461.468 11.1018 461.086 10.9813L461.743 10.483ZM459.843 10.1228L459.635 10.0926C459.584 10.0851 459.672 9.92571 459.693 9.87801L459.806 9.63576C459.84 9.56296 460.178 9.6571 460.103 9.68848L459.945 9.75249C459.797 9.81274 459.919 10.1341 459.842 10.1228H459.843ZM459.774 11.2549L460.011 11.393C460.061 11.4219 460.177 11.2474 460.234 11.2662L460.742 11.4394L460.417 11.6403C460.187 11.506 460.021 11.4658 459.767 11.4834L459.776 11.2549H459.774ZM460.284 3.59468L460.09 3.85325L459.733 3.48674C459.952 3.48674 460.069 3.51937 460.284 3.59468ZM459.865 8.99438C459.888 8.98559 459.997 8.98434 459.996 9.00944C459.995 9.03454 459.986 9.10232 459.962 9.10985L459.769 9.17136C459.808 9.22282 459.892 9.31821 459.88 9.38097C459.865 9.45502 459.709 9.59936 459.681 9.60062C459.538 9.32825 459.665 9.06843 459.866 8.99563L459.865 8.99438ZM458.963 4.9967C459.027 5.01678 459.127 5.20129 459.132 5.26907C459.136 5.33559 459.01 5.35316 458.896 5.35442C458.802 5.35567 458.756 5.28162 458.707 5.07703L458.324 5.23769C458.388 4.93519 458.796 4.94272 458.964 4.9967H458.963ZM457.975 6.1414C458.058 6.1665 457.979 6.49285 457.913 6.43887C457.816 6.3598 457.68 6.21295 457.612 6.12634C457.794 6.12132 457.904 6.12132 457.974 6.14266L457.975 6.1414ZM457.615 14.1117L457.86 13.9949L458.054 13.9033C458.098 13.8832 458.163 14.0414 458.131 14.0765C458.098 14.1117 458.054 14.133 457.948 14.1794L457.729 14.2761C457.682 14.2974 457.567 14.1343 457.613 14.1129L457.615 14.1117ZM457.142 6.4577L457.126 6.8581C457.3 6.89701 457.367 6.91458 457.382 6.95098C457.403 7.00119 457.319 7.10536 457.268 7.07273C457.184 7.02001 457.013 6.95474 456.996 6.87065C456.974 6.76773 456.944 6.49536 457.142 6.4577ZM454.954 9.90688C455.001 9.94579 455.175 10.0588 455.202 10.0035L455.331 9.73492C455.421 9.88805 455.342 10.1466 455.215 10.2156L454.768 10.0675C454.734 10.0839 454.897 9.86295 454.954 9.90688ZM453.794 19.0444C454.364 17.119 456.102 14.8899 458.252 14.5823C459.827 14.256 461.347 14.4217 462.64 14.9702C462.627 14.9601 462.616 14.9489 462.606 14.9363C462.546 14.8622 462.512 14.7091 462.527 14.6351L462.918 14.8334C462.893 14.9777 462.824 15.0242 462.752 15.0191C465.418 16.2103 467.082 19.0557 466.205 22.579C465.63 25.4294 463.884 26.2541 461.729 27.0423C456.824 28.9966 452.493 23.5655 453.794 19.0444ZM453.483 29.9304L453.25 29.9468C453.191 29.9505 453.073 29.9329 453.022 29.9204C452.97 29.9078 452.99 29.6894 453.041 29.702L453.305 29.771L453.455 29.7949C453.489 29.7999 453.518 29.9279 453.483 29.9304ZM452.865 10.0839C452.91 10.0224 453.011 9.88805 453.074 9.91692L453.433 10.0726L453.059 10.1353C452.994 10.1466 452.999 10.3223 452.942 10.355C452.876 10.3914 452.82 10.1454 452.864 10.0851L452.865 10.0839ZM452.615 27.1904L452.24 27.1967L452.236 26.9369L452.611 26.9306L452.615 27.1904ZM452.565 22.0443C452.605 22.0342 452.607 22.2689 452.567 22.2752C452.456 22.2928 452.24 22.284 452.072 22.2602L452.42 22.0756C452.449 22.0606 452.538 22.0518 452.565 22.0443ZM452.04 21.177L452.36 21.6803C452.293 21.6803 452.016 21.6564 451.991 21.6363C451.906 21.4016 451.901 21.3 452.041 21.1782L452.04 21.177ZM451.823 25.5863L451.954 25.5437C451.987 25.5336 451.981 25.7181 451.954 25.7395C451.853 25.821 451.569 25.821 451.438 25.757L451.824 25.5851L451.823 25.5863ZM451.429 37.3534C451.485 37.376 451.503 37.5329 451.498 37.602L451.48 37.8404C451.476 37.8907 451.342 37.9132 451.302 37.8819C451.262 37.8505 451.245 37.7375 451.242 37.6723L451.227 37.4476C451.223 37.3873 451.374 37.3296 451.429 37.3534ZM451.213 24.9424L451.135 25.0843C451.116 25.1194 451.097 25.1671 451.131 25.1759L451.371 25.2412C451.159 25.4018 450.938 25.2964 450.846 25.0981C450.99 24.9813 451.129 24.9211 451.213 24.9412V24.9424ZM450.517 23.4287C450.46 23.4312 450.504 23.1425 450.515 23.2065L451.135 23.4036L450.517 23.4287ZM450.918 22.1522C450.828 22.23 450.665 22.0957 450.727 21.9677C450.763 21.8911 450.831 21.7995 450.94 21.6815C450.988 21.7932 451.011 22.0731 450.92 22.1522H450.918ZM450.851 18.8298C450.859 18.88 450.836 19.0269 450.791 19.0582L450.634 19.1662C450.593 19.1938 450.462 19.1223 450.476 19.0746C450.489 19.0269 450.532 18.9152 450.57 18.885L450.703 18.7783C450.733 18.7545 450.844 18.7922 450.852 18.8298H450.851ZM450.238 18.0868C450.247 18.0478 450.393 18.0215 450.43 18.0227L450.614 18.3754C450.425 18.5035 450.209 18.2123 450.238 18.0868ZM449.962 15.1873C450.009 15.1811 450.123 15.1861 450.119 15.2225C450.114 15.2714 450.083 15.3467 450.048 15.4082L449.93 15.6103C449.902 15.658 449.752 15.6442 449.731 15.5927C449.678 15.4723 449.793 15.2112 449.964 15.1873H449.962ZM448.971 27.5883C448.975 27.6824 448.905 27.9071 448.799 27.936C448.67 27.9711 448.416 27.936 448.361 27.8971L448.971 27.5896V27.5883ZM448.186 14.4493L448.242 15.0769L447.735 14.8334L448.054 14.748C448.115 14.7317 448.087 14.6037 448.187 14.4493H448.186ZM447.429 12.7134C447.494 12.6105 447.563 12.5051 447.632 12.4536C447.715 12.3921 447.935 12.3695 447.973 12.4473C447.999 12.5025 447.973 12.7812 447.917 12.7611L447.64 12.662L447.529 12.8678C447.501 12.923 447.331 12.8841 447.205 12.8427L447.429 12.7134ZM447.196 15.3919C447.31 15.3919 447.488 15.3957 447.479 15.4472C447.471 15.4986 447.443 15.5978 447.412 15.6668L447.296 15.9254C447.164 15.8764 447.162 15.894 447.071 15.7333L447.223 15.5953C447.122 15.4923 447.117 15.4032 447.196 15.3919ZM443.973 24.6876C444.032 24.6876 444.095 24.6123 444.156 24.5408L444.384 24.6337C444.199 24.832 443.916 24.9387 443.706 24.6851L443.973 24.6876Z" fill="var(--fill-0, #2E2720)" fill-opacity="0.16"/>
<rect id="divider_3" opacity="0.16" x="502.25" y="19.3039" width="417.5" height="0.5" stroke="var(--stroke-0, #2E2720)" stroke-width="0.5"/>
</g>
</svg>
