<svg preserveAspectRatio="none" width="100%" height="100%" overflow="visible" style="display: block;" viewBox="0 0 104.762 40" fill="none" xmlns="http://www.w3.org/2000/svg">
<g id="LUM_CREAM 1" clip-path="url(#clip0_0_61)">
<path id="Vector" d="M4.88087 33.4516V0.316511H-9.3006e-05V39.975H16.2683V35.7252H7.49233C6.05113 35.7252 4.88087 34.7082 4.88087 33.4516Z" fill="var(--fill-0, #FFFBB2)"/>
<path id="Vector_2" d="M42.4671 30.768C42.4671 33.5056 39.9177 35.7252 36.7733 35.7252C33.6291 35.7252 31.0797 33.5056 31.0797 30.768V0.316511H26.1988V30.768C26.1988 35.8528 30.9332 39.975 36.7733 39.975C42.6136 39.975 47.348 35.8528 47.348 30.768V0.316511H42.4671V30.768Z" fill="var(--fill-0, #FFFBB2)"/>
<path id="Vector_3" d="M57.2795 0V39.9736H62.1604V12.8476C62.1604 12.1728 63.0976 11.8345 63.6461 12.312L81.0116 28.6862L98.3081 12.3236C98.8567 11.8461 99.7938 12.1844 99.7938 12.8592V39.9754H104.675V0L81.0116 22.5534L57.2795 0Z" fill="var(--fill-0, #FFFBB2)"/>
</g>
<defs>
<clipPath id="clip0_0_61">
<rect width="104.762" height="40" fill="white"/>
</clipPath>
</defs>
</svg>
