<svg width="32" height="32" viewBox="0 0 32 32" fill="none" xmlns="http://www.w3.org/2000/svg">
<path d="M16.7733 8.5C17.6173 8.50138 18.045 8.50586 18.4146 8.51685L18.5603 8.52161C18.7283 8.52759 18.8943 8.53509 19.0943 8.54446C19.8924 8.58134 20.4368 8.70759 20.9149 8.89321C21.4092 9.08384 21.8267 9.34134 22.2436 9.75821C22.6599 10.1751 22.9174 10.5938 23.1086 11.087C23.2936 11.5645 23.4199 12.1095 23.4574 12.9076C23.4664 13.1076 23.4735 13.2735 23.4794 13.4417L23.4842 13.5873C23.4951 13.9568 23.5001 14.3846 23.5017 15.2287L23.5023 15.7879C23.5024 15.8562 23.5024 15.9267 23.5024 15.9995L23.5023 16.211L23.5018 16.7703C23.5005 17.6144 23.496 18.0421 23.485 18.4117L23.4802 18.5572C23.4743 18.7255 23.4667 18.8914 23.4574 19.0914C23.4205 19.8895 23.2936 20.4338 23.1086 20.912C22.9181 21.4064 22.6599 21.8239 22.2436 22.2407C21.8267 22.657 21.4074 22.9145 20.9149 23.1057C20.4368 23.2908 19.8924 23.417 19.0943 23.4545C18.8943 23.4634 18.7283 23.4707 18.5603 23.4765L18.4146 23.4812C18.045 23.4923 17.6173 23.4972 16.7733 23.4989L16.214 23.4995C16.1457 23.4995 16.0752 23.4995 16.0024 23.4995H15.7908L15.2316 23.4989C14.3875 23.4976 13.9597 23.4931 13.5902 23.482L13.4446 23.4773C13.2764 23.4713 13.1105 23.4638 12.9105 23.4545C12.1124 23.4177 11.5686 23.2908 11.0899 23.1057C10.5961 22.9151 10.178 22.657 9.76115 22.2407C9.34427 21.8239 9.0874 21.4045 8.89615 20.912C8.71053 20.4338 8.5849 19.8895 8.5474 19.0914C8.53849 18.8914 8.53122 18.7255 8.52534 18.5572L8.52061 18.4117C8.50965 18.0421 8.50464 17.6144 8.50302 16.7703L8.50293 15.2287C8.50432 14.3846 8.50878 13.9568 8.51978 13.5873L8.52455 13.4417C8.53053 13.2735 8.53803 13.1076 8.5474 12.9076C8.58427 12.1089 8.71053 11.5651 8.89615 11.087C9.08677 10.5932 9.34427 10.1751 9.76115 9.75821C10.178 9.34134 10.5968 9.08446 11.0899 8.89321C11.568 8.70759 12.1118 8.58197 12.9105 8.54446C13.1105 8.53556 13.2764 8.52829 13.4446 8.52241L13.5902 8.51768C13.9597 8.50669 14.3875 8.5017 15.2316 8.50008L16.7733 8.5ZM16.0024 12.2495C13.9302 12.2495 12.2524 13.9291 12.2524 15.9995C12.2524 18.0716 13.932 19.7495 16.0024 19.7495C18.0746 19.7495 19.7524 18.0698 19.7524 15.9995C19.7524 13.9273 18.0727 12.2495 16.0024 12.2495ZM16.0024 13.7495C17.2451 13.7495 18.2525 14.7565 18.2525 15.9995C18.2525 17.2421 17.2454 18.2495 16.0024 18.2495C14.7597 18.2495 13.7524 17.2425 13.7524 15.9995C13.7524 14.7568 14.7594 13.7495 16.0024 13.7495ZM19.9399 11.1245C19.4229 11.1245 19.0024 11.5444 19.0024 12.0613C19.0024 12.5783 19.4224 12.9989 19.9399 12.9989C20.4568 12.9989 20.8774 12.5789 20.8774 12.0613C20.8774 11.5444 20.4561 11.1238 19.9399 11.1245Z" fill="#FFFDDF"/>
</svg>
