<svg preserveAspectRatio="none" width="100%" height="100%" overflow="visible" style="display: block;" viewBox="0 0 18 18" fill="none" xmlns="http://www.w3.org/2000/svg">
<g id="Frame" clip-path="url(#clip0_0_44)">
<g id="Vector" filter="url(#filter0_g_0_44)">
<path d="M9.77327 1.50046C10.6173 1.50185 11.045 1.50632 11.4146 1.51732L11.5603 1.52208C11.7283 1.52805 11.8943 1.53556 12.0943 1.54493C12.8924 1.58181 13.4368 1.70805 13.9149 1.89368C14.4092 2.08431 14.8267 2.34181 15.2436 2.75869C15.6599 3.17556 15.9174 3.59431 16.1086 4.08743C16.2936 4.56494 16.4199 5.10994 16.4574 5.90806C16.4664 6.10806 16.4735 6.27396 16.4794 6.44214L16.4842 6.58771C16.4951 6.95726 16.5001 7.38505 16.5017 8.22914L16.5023 8.78833C16.5024 8.85666 16.5024 8.92716 16.5024 8.99991L16.5023 9.21149L16.5018 9.77076C16.5005 10.6148 16.496 11.0426 16.485 11.4121L16.4802 11.5577C16.4743 11.726 16.4667 11.8918 16.4574 12.0918C16.4205 12.8899 16.2936 13.4343 16.1086 13.9124C15.9181 14.4069 15.6599 14.8243 15.2436 15.2412C14.8267 15.6574 14.4074 15.9149 13.9149 16.1062C13.4368 16.2912 12.8924 16.4175 12.0943 16.4549C11.8943 16.4638 11.7283 16.4711 11.5603 16.477L11.4146 16.4817C11.045 16.4927 10.6173 16.4977 9.77327 16.4994L9.21399 16.4999C9.14566 16.4999 9.07517 16.4999 9.00242 16.4999H8.79084L8.23157 16.4994C7.38751 16.498 6.95973 16.4935 6.59017 16.4825L6.4446 16.4778C6.27642 16.4718 6.11052 16.4643 5.91052 16.4549C5.1124 16.4181 4.56864 16.2912 4.0899 16.1062C3.59615 15.9156 3.17802 15.6574 2.76115 15.2412C2.34427 14.8243 2.0874 14.405 1.89615 13.9124C1.71053 13.4343 1.5849 12.8899 1.5474 12.0918C1.53849 11.8918 1.53122 11.726 1.52534 11.5577L1.52061 11.4121C1.50965 11.0426 1.50464 10.6148 1.50302 9.77076L1.50293 8.22914C1.50432 7.38505 1.50878 6.95726 1.51978 6.58771L1.52455 6.44214C1.53053 6.27396 1.53803 6.10806 1.5474 5.90806C1.58427 5.10931 1.71053 4.56555 1.89615 4.08743C2.08677 3.59369 2.34427 3.17556 2.76115 2.75869C3.17802 2.34181 3.59678 2.08493 4.0899 1.89368C4.56803 1.70805 5.11177 1.58244 5.91052 1.54493C6.11052 1.53603 6.27642 1.52876 6.4446 1.52288L6.59017 1.51815C6.95973 1.50717 7.38751 1.50218 8.23157 1.50056L9.77327 1.50046ZM9.00242 5.24994C6.93022 5.24994 5.2524 6.92958 5.2524 8.99991C5.2524 11.0721 6.93204 12.75 9.00242 12.75C11.0746 12.75 12.7524 11.0703 12.7524 8.99991C12.7524 6.92776 11.0727 5.24994 9.00242 5.24994ZM9.00242 6.74993C10.2451 6.74993 11.2525 7.75693 11.2525 8.99991C11.2525 10.2426 10.2454 11.2499 9.00242 11.2499C7.75974 11.2499 6.7524 10.243 6.7524 8.99991C6.7524 7.75723 7.75937 6.74993 9.00242 6.74993ZM12.9399 4.12494C12.4229 4.12494 12.0024 4.54487 12.0024 5.06179C12.0024 5.57873 12.4224 5.99931 12.9399 5.99931C13.4568 5.99931 13.8774 5.57938 13.8774 5.06179C13.8774 4.54487 13.4561 4.12428 12.9399 4.12494Z" fill="var(--fill-0, #FFFDDF)"/>
</g>
</g>
<defs>
<filter id="filter0_g_0_44" x="0.37793" y="0.375458" width="17.2495" height="17.2495" filterUnits="userSpaceOnUse" color-interpolation-filters="sRGB">
<feFlood flood-opacity="0" result="BackgroundImageFix"/>
<feBlend mode="normal" in="SourceGraphic" in2="BackgroundImageFix" result="shape"/>
<feTurbulence type="fractalNoise" baseFrequency="0.04444444552063942 0.04444444552063942" numOctaves="3" seed="7176" />
<feDisplacementMap in="shape" scale="2.25" xChannelSelector="R" yChannelSelector="G" result="displacedImage" width="100%" height="100%" />
<feMerge result="effect1_texture_0_44">
<feMergeNode in="displacedImage"/>
</feMerge>
</filter>
<clipPath id="clip0_0_44">
<rect width="18" height="18" fill="white"/>
</clipPath>
</defs>
</svg>
