<svg preserveAspectRatio="none" width="100%" height="100%" overflow="visible" style="display: block;" viewBox="0 0 108 2" fill="none" xmlns="http://www.w3.org/2000/svg">
<path id="Line 224" d="M1.02871 0.0101699C1.63391 -0.015883 2.42723 0.0119737 3.03014 0.0502087C3.2191 0.0620673 3.12342 0.115075 3.25385 0.125648C3.50896 0.146258 3.74663 0.120261 3.99873 0.144813C4.08228 0.153209 3.97828 0.237174 4.06588 0.244056C4.54595 0.281163 5.00011 0.259777 5.48642 0.277625C7.88183 0.365685 10.2365 0.397205 12.6612 0.435461C13.4607 0.448004 14.4326 0.524206 15.2584 0.490881C15.3548 0.486916 15.2973 0.413216 15.3156 0.407141C15.6033 0.31415 15.5077 0.462935 15.6955 0.482702C16.441 0.560754 17.2699 0.567542 17.9874 0.539099C18.2926 0.526782 17.9866 0.380395 18.2939 0.462561C18.3152 0.468112 18.2378 0.546377 18.3215 0.554724C18.5113 0.573498 18.8715 0.559509 19.0186 0.56571C19.3021 0.578057 19.349 0.577269 19.6172 0.578161C19.9838 0.580061 20.4199 0.618966 20.8132 0.601232C20.8972 0.597215 20.786 0.516985 20.9199 0.503332C21.0539 0.489702 21.4085 0.496505 21.528 0.515417C21.6476 0.534339 21.5967 0.597399 21.6178 0.611853C21.7919 0.733849 22.202 0.564884 22.2547 0.560705C23.2169 0.489506 24.0419 0.58576 24.945 0.585485C25.6306 0.585073 26.3637 0.553296 27.0161 0.557653C27.7933 0.563155 28.452 0.606631 29.207 0.599157C29.2867 0.598461 29.1934 0.50413 29.2907 0.503088C30.3247 0.492111 31.3515 0.502394 32.381 0.566076C32.4843 0.572546 32.3512 0.655368 32.4543 0.666784C33.0859 0.734849 34.0852 0.898357 34.4603 0.537756C34.8881 0.551837 35.4075 0.566385 35.7902 0.639074C36.037 0.685858 35.7973 0.776084 36.1004 0.737584C36.1688 0.729007 36.0799 0.649991 36.1824 0.643102C36.6141 0.614176 37.0857 0.639861 37.5127 0.599035C37.5996 0.590545 37.5759 0.519744 37.6005 0.506994C37.8073 0.403741 38.1516 0.574425 38.2267 0.586828C38.7983 0.679315 39.2157 0.642919 39.7482 0.645178C39.8717 0.645741 39.7257 0.550639 39.8446 0.547766C40.4613 0.534136 41.1001 0.54231 41.7039 0.584509C41.8382 0.594124 41.7147 0.675134 41.7789 0.683874C42.0619 0.721424 42.1246 0.568417 42.396 0.601477C42.4532 0.60825 42.421 0.6776 42.4315 0.685217C42.5948 0.804778 42.7367 0.635368 42.7788 0.631628C43.3103 0.580523 43.65 0.757378 44.1635 0.732335C44.2249 0.729161 44.0864 0.641412 44.259 0.637853C45.4094 0.61363 46.626 0.637735 47.7646 0.707922C47.9417 0.718716 47.8153 0.784634 47.8264 0.79276C48.008 0.919728 48.1255 0.749606 48.1832 0.7432C48.6386 0.697082 49.064 0.839748 49.3735 0.637121C51.3021 0.707439 53.222 0.593653 55.1347 0.775182C55.159 0.777285 55.1154 0.86107 55.164 0.864903C55.7482 0.911948 55.636 0.781731 56.0225 0.622473C56.1199 0.582482 56.4161 0.77476 56.4424 0.788854C56.5378 0.840791 56.4388 0.96544 56.4708 0.975499C56.7354 1.05448 56.6923 0.642259 57.0492 0.642126C57.0604 0.642813 57.0135 0.718688 57.0434 0.726232C57.1365 0.749917 57.2288 0.719767 57.3199 0.745885C57.5283 0.806321 57.6026 1.00663 57.921 0.89005C57.9613 0.87492 57.8997 0.64109 58.2184 0.652136C58.3455 0.656737 58.9079 0.65273 59.0655 0.667883C59.2229 0.683018 59.1148 0.758369 59.126 0.761632C59.5502 0.861272 59.3894 0.902568 59.6019 1.05008C59.8144 1.19704 59.7555 0.846531 59.8421 0.807408C59.9289 0.768397 60.2398 0.850607 60.3163 0.879186C60.3927 0.907777 60.2974 0.955658 60.3653 0.971837C60.8157 1.07755 60.563 0.797855 60.7114 0.742223C61.0612 0.610497 61.3337 0.870438 61.654 0.895909C61.7407 0.902788 61.6699 0.843585 61.7471 0.838048C62.0527 0.816904 62.2366 0.898013 62.5843 0.823644C62.6412 0.811525 62.9222 0.655241 63.1042 0.769933C63.13 0.786471 63.0567 0.851248 63.187 0.865758C63.3816 0.887534 63.7322 0.901692 63.9414 0.88004C64.0958 0.86402 63.9188 0.757283 64.1132 0.790441C64.1995 0.805246 64.0394 0.867688 64.2017 0.890294C64.3632 0.912893 64.7759 0.91015 64.933 0.907994C65.0898 0.905791 65.004 0.824826 65.0166 0.819371C65.0933 0.788126 65.3942 0.749085 65.4208 0.749181C66.762 0.739297 67.9988 0.875772 69.3046 0.830602C69.4071 0.827174 69.3388 0.741795 69.3545 0.740392C69.7053 0.70462 69.4287 0.931622 69.6738 1.0076C69.6383 0.834345 69.783 0.865716 70.0301 0.846715C70.1492 0.837418 70.0844 0.770331 70.0952 0.763463C70.2718 0.661566 70.3948 0.79318 70.4265 0.820104C70.5434 0.919144 70.6707 0.802121 70.7503 0.868321C70.8298 0.934027 70.6468 1.03143 70.8838 1.03019C70.9502 0.968165 70.7743 0.806089 70.9542 0.779821C71.6331 0.680461 72.9005 0.807627 73.4463 0.820836C73.9911 0.834035 74.1671 0.822592 74.4845 0.845006C75.058 0.885533 74.8478 0.765283 75.2039 0.710241C75.561 0.655205 75.3874 0.951079 75.4387 1.01468C75.4891 1.07826 75.5441 1.01281 75.6068 1.04776C75.6693 1.08271 75.534 1.12595 75.681 1.13907C75.828 1.15218 76.2299 1.03907 76.2821 0.972569C76.3922 0.831672 76.2111 0.683794 76.6001 0.735753C76.6225 0.738837 76.5499 0.816636 76.6355 0.824498C77.316 0.884391 78.0229 0.888103 78.7025 0.941075C78.7959 0.948481 78.7124 1.03503 78.7668 1.04032C79.3332 1.09568 79.1307 0.949745 79.4412 0.787633C79.3715 1.00337 79.5431 1.13536 79.9731 1.13663C80.2315 1.13747 80.187 1.04325 80.3541 0.976842C80.4043 0.956823 80.5872 1.02152 80.6203 0.977208C80.7295 0.83236 80.5573 0.670211 81.0005 0.734777C81.02 0.737845 80.9581 0.817133 81.0253 0.821935C81.4596 0.853365 81.5116 0.701856 81.9811 0.683508C82.3491 0.669111 83.0036 0.761499 83.4226 0.776525C83.4138 1.01907 83.8096 0.963534 83.9702 0.7963C84.2421 0.803147 84.5358 0.793693 84.7987 0.816808C84.8891 0.824689 84.8297 0.894913 84.8411 0.902501C85.016 1.02153 85.1342 0.858831 85.1929 0.852452C85.8291 0.790448 86.3475 0.913761 86.9546 0.793248C86.9761 0.788908 87.0111 0.620425 87.1734 0.743444C87.1839 0.751924 86.9833 0.82858 87.269 0.834508C87.5546 0.840449 88.0931 0.930768 88.4897 0.852696C88.5856 0.833901 88.8284 0.697128 89.0232 0.803991C89.0491 0.818502 89.0208 0.866823 89.0582 0.893712C89.1793 0.979391 89.2454 0.809097 89.3878 0.95377C89.5302 1.09844 89.8263 1.20678 90.2262 1.10697C90.2389 1.10407 90.3336 0.969092 90.4594 0.971226C90.6602 0.974749 90.9452 1.00287 91.1548 1.00199C91.2552 1.00152 91.191 0.917706 91.2084 0.916173C91.8833 0.869207 92.3636 0.943925 93.0866 0.976353C93.2192 0.982464 93.6001 0.868173 93.8566 0.958531C94.1384 1.05745 93.8489 1.46891 94.4965 1.37088C94.7576 1.33167 95.0884 0.809653 95.5577 1.08011C96.4681 1.01309 97.31 1.15151 98.2229 1.05582C98.2639 1.05158 98.3938 0.905889 98.4903 0.907872C98.6336 0.911098 98.7122 0.979192 98.8145 0.983678C99.2432 1.00419 99.6355 0.945929 100.049 0.954991C100.206 0.958284 100.151 1.02869 100.338 1.03263C100.525 1.0365 100.65 0.943782 100.903 0.98856C101.095 1.02269 101.286 1.2122 101.54 1.23429C101.55 1.04736 101.724 1.05121 102.035 1.00187C102.094 0.992292 102.03 0.927231 102.059 0.919347C102.173 0.885814 102.28 0.939735 102.389 0.903233C102.415 0.894467 102.416 0.83063 102.438 0.81986C102.622 0.725848 102.926 0.869442 102.978 0.894444C103.178 0.989396 103.271 0.906369 103.425 0.943761C103.578 0.981147 103.349 1.02788 103.528 1.05057C103.898 1.0975 104.374 1.08719 104.751 1.09012C104.901 1.0909 104.799 1.00569 104.82 1.00382C105.131 0.982207 105.445 1.07285 105.617 0.903111C105.832 1.34199 105.804 0.860543 106.248 0.948399C106.283 0.955505 106.327 1.16305 106.193 1.19352C106.059 1.22396 105.855 1.15908 105.669 1.20658C105.625 1.21772 105.372 1.4122 105.338 1.42398C105.068 1.51605 105.03 1.20591 105.015 1.18888C104.853 1.00505 104.545 1.21456 104.463 1.22904C104.091 1.29537 103.775 1.25176 103.464 1.29911C103.261 1.32971 103.241 1.53286 103.081 1.52664C102.55 1.50609 102.365 1.22269 101.864 1.46842C101.757 1.52083 101.863 1.74287 101.479 1.56827C101.455 1.55726 101.169 1.39754 101.004 1.49857C100.984 1.51131 100.984 1.57602 100.957 1.58145C100.774 1.61662 100.652 1.56506 100.452 1.58975C100.253 1.61445 100.013 1.65125 99.7851 1.62931C99.6479 1.61618 99.4718 1.49562 99.4061 1.4661C99.2206 1.38107 99.0217 1.52048 98.9068 1.41751C98.7909 1.31403 99.0175 1.15687 98.7136 1.09C98.7023 1.25812 98.6765 1.43069 98.6584 1.59976C97.9924 1.59384 97.3371 1.53948 96.6689 1.54691C96.586 1.548 96.6707 1.63838 96.5819 1.64188C96.2073 1.65624 95.88 1.59181 95.4914 1.61746C95.1906 1.63767 94.8608 1.73337 94.5463 1.75748C94.3542 1.5651 93.8875 1.63041 93.5485 1.61283C93.4297 1.60675 93.4376 1.55537 93.3532 1.53861C93.0346 1.47661 93.1839 1.64662 93.0965 1.67337C92.7218 1.78756 92.6897 1.40276 92.2478 1.41227C92.2244 1.41264 91.9383 1.61775 91.8989 1.63053C91.6484 1.71382 91.8574 1.55913 91.7007 1.54398C91.4146 1.51628 91.2157 1.4673 90.88 1.52738C90.7821 1.54517 90.5473 1.67302 90.3572 1.57413C90.3322 1.56118 90.346 1.49338 90.3259 1.48941C89.9616 1.42323 89.952 1.63626 89.7438 1.70841C89.5355 1.78054 89.2139 1.63348 89.1484 1.5911C88.9772 1.48145 89.2796 1.54424 89.2889 1.53348C89.3979 1.40543 89.1633 1.42748 88.9841 1.41666C88.9581 1.20778 88.7075 1.22032 88.7982 1.40628C88.8086 1.4266 88.9481 1.40712 88.9841 1.41666C88.8267 1.6216 88.5513 1.64784 88.247 1.45633C88.1046 1.36657 88.2392 1.26192 87.8066 1.3002C87.6103 1.31749 87.6861 1.46131 87.5128 1.50052C87.117 1.58999 86.6026 1.45582 86.1945 1.47696C86.0464 1.48464 86.1906 1.56336 86.0894 1.57132C85.8208 1.59269 85.5839 1.53362 85.3141 1.56388C85.2896 1.56672 85.3494 1.64913 85.2654 1.65018C84.6294 1.65975 84.0756 1.60696 83.4115 1.6055C83.0906 1.60483 82.517 1.65028 82.1846 1.64115C81.6085 1.62579 80.8998 1.50595 80.4077 1.53507C80.0867 1.5537 80.1571 1.63613 80.0196 1.69229C79.7542 1.80116 79.2844 1.60616 79.2212 1.57596C79.2192 1.57496 79.4955 1.55553 79.3481 1.51322C79.2624 1.42505 79.2243 1.57558 79.2212 1.57596C79.1796 1.55645 78.6279 1.53774 78.5183 1.5535C78.4588 1.56211 78.4921 1.64021 78.4611 1.64322C77.7233 1.71311 76.9842 1.73296 76.2359 1.69644C76.2227 1.69487 76.2426 1.60751 76.2116 1.60489C75.7784 1.56605 75.501 1.67291 75.1437 1.73636C74.7865 1.79978 74.5032 1.77854 74.2917 1.62857C74.0222 1.64745 73.6355 1.58116 73.413 1.54093C73.1904 1.5007 73.1594 1.67074 73.1398 1.6741C72.5291 1.7817 72.1761 1.68437 71.5425 1.66922C71.2413 1.66173 70.6438 1.68639 70.3177 1.70499C70.0599 1.71997 69.9047 1.68012 69.6672 1.7056C69.635 1.709 69.6675 1.78471 69.6577 1.78763C69.3926 1.87822 69.52 1.69312 69.4653 1.66007C69.2669 1.53985 69.1443 1.47583 68.8049 1.53238C68.7266 1.54533 68.4985 1.81184 68.3558 1.82742C68.1702 1.8472 68.2403 1.75167 68.046 1.77481C68.0294 1.77671 68.0328 1.83564 67.9129 1.83304C67.3563 1.82175 66.7495 1.78746 66.171 1.79337C66.092 1.79395 66.1933 1.88742 66.0792 1.8898C65.5435 1.90088 64.9564 1.89742 64.4345 1.85367C64.3061 1.84261 64.3866 1.77716 64.3587 1.75772C64.1875 1.64014 63.9447 1.81099 63.9047 1.81424C62.9492 1.89634 62.2179 1.74173 61.2441 1.81534C61.1911 1.81966 60.783 2.00281 60.601 1.84574C60.5885 1.83528 60.4084 1.67458 60.2491 1.78446C60.2392 1.79133 60.3515 1.87407 60.1556 1.86563C59.9597 1.85722 59.6445 1.91247 59.3753 1.82157C59.2901 1.79293 59.0886 1.63262 58.8344 1.76041C58.8178 1.76933 58.4253 2.05828 58.2852 1.85892C58.2625 1.8261 58.2862 1.61513 57.9828 1.7233C57.9248 1.74427 58.0301 1.79133 57.8773 1.82071C57.6433 1.866 57.3332 1.80949 57.0455 1.90347C56.9953 1.92011 56.7818 2.06331 56.6104 1.95462C56.5836 1.9376 56.6346 1.86717 56.5441 1.85929C56.1139 1.82148 55.6634 1.86859 55.2266 1.81986C55.0718 1.80273 55.151 1.68887 54.9897 1.65836C54.8284 1.62786 54.5034 1.59851 54.3346 1.65055C54.1658 1.7026 54.3502 1.88407 54.0973 1.89859C52.9979 1.96166 51.9087 1.8552 50.8109 1.83963C50.6481 1.83731 50.783 1.90224 50.5431 1.90347C49.6584 1.90831 48.131 1.96919 47.3634 1.83121C46.7483 1.72069 47.5223 1.63656 47.0523 1.59159C46.8255 1.57013 46.5801 1.78111 46.5254 1.78775C45.9905 1.85522 45.6188 1.76176 45.1374 1.79044C45.038 1.79639 45.1355 1.8819 45.0509 1.88602C44.7619 1.90085 44.4581 1.86268 44.182 1.86966C44.0581 1.87299 44.0809 1.9383 43.9669 1.93326C43.6942 1.92195 43.4529 1.8945 43.187 1.83328C43.1628 1.82771 43.3262 1.74646 43.1244 1.74344C42.7978 1.73878 42.3924 1.67839 42.0166 1.74076C41.9051 1.75951 41.9007 1.90878 41.661 1.8057C41.6108 1.78417 41.6749 1.60493 41.3957 1.7598C41.3488 1.78553 40.8798 1.99442 40.6496 1.85977C40.5889 1.82434 40.4339 1.67767 40.2998 1.70072C40.2817 1.70439 40.3545 1.78457 40.2434 1.79239C39.8518 1.81856 39.4414 1.81 39.0391 1.83512C38.9317 1.84198 39.0917 1.92495 38.9316 1.93253C38.4913 1.9535 37.9416 1.93237 37.5111 1.9064C37.3523 1.89667 37.4621 1.82795 37.4505 1.82047C37.2648 1.69882 37.155 1.86302 37.0933 1.87259C36.7099 1.92992 36.418 1.85279 36.0646 1.8732C35.9671 1.87863 36.0362 1.95692 36.0168 1.9639C35.8155 2.03211 35.9654 1.89151 35.838 1.87601C35.481 1.83212 35.083 1.83842 34.7219 1.84842C34.5893 1.85221 34.7383 1.94299 34.6193 1.94534C33.9149 1.96099 33.1826 1.9523 32.4951 1.90225C32.3657 1.89267 32.4471 1.82276 32.4201 1.80679C32.2342 1.69509 31.9617 1.84746 31.899 1.86197C31.6139 1.92824 31.5031 1.86642 31.2513 1.87796C30.0213 1.93541 28.5026 1.89447 27.3416 1.86917C25.8286 1.83662 24.6546 1.77012 23.2118 1.78739C23.1201 1.7884 23.2126 1.88139 23.1335 1.88345C22.113 1.90587 21.1082 1.86953 20.0856 1.89639C20.0017 1.89843 20.1227 1.98659 19.988 1.99283C19.7117 2.00624 19.3618 2.00145 19.0824 1.9733C18.9462 1.95974 19.1289 1.88409 18.9918 1.87198C18.6725 1.84362 18.3302 1.83734 18.0022 1.85147C17.8626 1.85768 18.0732 1.94784 17.8918 1.94888C16.656 1.95783 15.4422 1.97336 14.1934 1.8566C14.1078 1.84858 14.0326 1.66533 13.8506 1.70047C13.8369 1.75133 13.8376 1.81115 13.8316 1.86551C12.0326 1.89479 10.2519 1.83127 8.44779 1.82144C8.37172 1.82105 8.50318 1.91815 8.35592 1.91788C7.50358 1.91644 6.67591 1.94334 5.80406 1.84683C5.71756 1.8374 5.76194 1.66658 5.50702 1.69242C5.46206 1.69713 5.07811 1.71991 4.97885 1.75699C4.96537 1.76258 5.03541 1.84231 4.91169 1.84464C4.19273 1.85674 3.43929 1.83854 2.72157 1.78983C2.60573 1.78181 2.72909 1.69691 2.64658 1.69046C2.06135 1.64539 1.42478 1.70993 0.865558 1.63285C0.491236 1.58094 0.629821 1.43417 0.430911 1.28971C0.402777 1.26932 0.170986 1.26609 0.158999 1.18204C0.128225 0.970681 0.240498 0.739242 0.19443 0.513952C0.184697 0.465427 -0.125732 0.517692 0.0580618 0.400427C0.0709017 0.392579 0.295964 0.35366 0.351397 0.31388C0.389992 0.286376 0.320443 0.200894 0.399188 0.165687C0.477926 0.130513 0.564449 0.202169 0.694995 0.160804C0.825484 0.118927 0.768107 0.0216813 1.02871 0.0101699ZM72.411 1.36112C72.205 1.27946 72.1746 1.57855 72.3974 1.50699C72.4082 1.50318 72.4216 1.36512 72.411 1.36112ZM97.3408 1.31388C97.0715 1.18195 96.8871 1.37593 97.0771 1.47782C97.2672 1.57959 97.4229 1.35387 97.3408 1.31388ZM100.134 1.21756C99.8193 1.11355 99.7697 1.53768 100.107 1.45194C100.127 1.44709 100.152 1.2236 100.134 1.21756ZM1.35335 1.24857C1.35051 1.2446 1.18389 1.24073 1.17991 1.24466C1.09118 1.33965 1.42436 1.34733 1.35335 1.24857ZM102.906 1.11271C102.808 1.05533 102.525 1.12156 102.647 1.19291C102.745 1.2503 103.028 1.18407 102.906 1.11271ZM61.6626 1.0419C61.6594 1.03745 61.54 1.03343 61.5423 1.05863C61.5505 1.13977 61.7167 1.11687 61.6626 1.0419ZM107.617 1.10782C106.921 1.09186 106.499 0.741508 107.257 0.781041C107.394 0.788194 106.961 0.892765 107.136 0.924351C107.456 0.981896 107.668 0.761919 107.994 0.879796C108.053 0.901371 107.657 1.10951 107.616 1.10831C107.616 1.10815 107.617 1.10799 107.617 1.10782ZM72.2924 1.00187C72.2882 0.997911 72.1229 0.994161 72.1189 0.998082C72.0294 1.09304 72.3625 1.10065 72.2924 1.00187ZM54.6922 0.856969C54.6831 0.848541 54.2993 0.840659 54.2868 0.848424C54.0866 1.0037 54.8625 1.0201 54.6922 0.856969ZM83.4292 0.782995C83.6097 0.68747 83.8255 0.676223 83.9693 0.796178C83.79 0.78981 83.6095 0.788872 83.4292 0.782995Z" fill="var(--stroke-0, #FFFDDF)"/>
</svg>
