<svg width="32" height="32" viewBox="0 0 32 32" fill="none" xmlns="http://www.w3.org/2000/svg">
<path d="M16.0008 8.50101C20.1428 8.50101 23.5007 11.8589 23.5007 16.001C23.5007 20.1431 20.1428 23.501 16.0008 23.501C14.6253 23.501 13.3364 23.1307 12.2281 22.4845L8.50387 23.501L9.51784 19.7746C8.87121 18.6662 8.50073 17.3769 8.50073 16.001C8.50073 11.8589 11.8586 8.50101 16.0008 8.50101ZM13.2942 12.4822C13.1972 12.489 13.102 12.5127 13.0154 12.5571C12.9504 12.5903 12.8901 12.6384 12.7953 12.7279C12.7058 12.8124 12.6539 12.8862 12.5993 12.9574C12.322 13.3184 12.173 13.7615 12.1757 14.2167C12.1772 14.5847 12.2728 14.9423 12.4238 15.2762C12.7299 15.9533 13.2347 16.6691 13.9015 17.3329C14.0616 17.4924 14.2185 17.6535 14.3878 17.8025C15.2154 18.5312 16.2016 19.0566 17.268 19.3371C17.268 19.3371 17.688 19.4017 17.6942 19.402C17.8333 19.4096 17.9722 19.3994 18.1115 19.3923C18.33 19.3811 18.5433 19.3219 18.7363 19.2191C18.8604 19.1531 18.9192 19.1202 19.0233 19.0545C19.0233 19.0545 19.0553 19.0329 19.1169 18.987C19.2182 18.9116 19.2807 18.8585 19.365 18.771C19.4271 18.7065 19.4804 18.6304 19.5217 18.5444C19.5803 18.422 19.6394 18.1884 19.6629 17.9944C19.6808 17.8462 19.6754 17.7652 19.6735 17.715C19.6702 17.6343 19.6035 17.5513 19.5305 17.5161L19.0943 17.32C19.0943 17.32 18.4423 17.0362 18.0434 16.8543C18.0018 16.8353 17.9564 16.8265 17.9107 16.8237C17.8106 16.8176 17.6985 16.8437 17.6272 16.9188C17.6234 16.9173 17.5738 16.9602 17.0312 17.6176C17.0013 17.6534 16.9311 17.7312 16.8098 17.7239C16.7916 17.7226 16.7733 17.72 16.7556 17.7153C16.7064 17.7024 16.6586 17.6853 16.6118 17.6655C16.519 17.6261 16.4865 17.6112 16.4231 17.5839C15.9901 17.3947 15.5928 17.1417 15.2415 16.832C15.1473 16.749 15.0597 16.6597 14.9694 16.5722C14.6543 16.2667 14.3963 15.9418 14.2043 15.6213C14.1939 15.6039 14.1777 15.5786 14.1603 15.5503C14.1289 15.4992 14.0943 15.4385 14.0834 15.3968C14.0555 15.2865 14.1295 15.1978 14.1295 15.1978C14.1295 15.1978 14.312 14.9982 14.3969 14.8897C14.4785 14.7852 14.5489 14.6831 14.5938 14.6103C14.6821 14.4682 14.7101 14.3214 14.6637 14.2082C14.4532 13.6952 14.2361 13.185 14.0124 12.6777C13.9682 12.5776 13.8369 12.5048 13.7174 12.491C13.677 12.4864 13.6366 12.4817 13.5959 12.479C13.4954 12.4741 13.3947 12.4752 13.2942 12.4822Z" fill="#FFFDDF"/>
</svg>
