<svg preserveAspectRatio="none" width="100%" height="100%" overflow="visible" style="display: block;" viewBox="0 0 18 18" fill="none" xmlns="http://www.w3.org/2000/svg">
<g id="Frame" clip-path="url(#clip0_0_24)">
<g id="Vector" filter="url(#filter0_g_0_24)">
<path d="M9.00076 1.50073C13.1428 1.50073 16.5007 4.8586 16.5007 9.00074C16.5007 13.1428 13.1428 16.5007 9.00076 16.5007C7.62533 16.5007 6.33639 16.1305 5.22815 15.4843L1.50387 16.5007L2.51784 12.7744C1.87121 11.6659 1.50073 10.3766 1.50073 9.00074C1.50073 4.8586 4.8586 1.50073 9.00076 1.50073ZM6.29424 5.48198C6.1972 5.4888 6.10205 5.51251 6.01543 5.55682C5.95045 5.59006 5.89011 5.63812 5.79532 5.72763C5.7058 5.81215 5.65393 5.88596 5.59926 5.95713C5.322 6.31814 5.17297 6.76128 5.17574 7.21647C5.17724 7.58444 5.27282 7.94203 5.42376 8.27593C5.72987 8.95304 6.23467 9.66884 6.90145 10.3327C7.06163 10.4921 7.21854 10.6533 7.38776 10.8022C8.21535 11.5309 9.2016 12.0564 10.268 12.3369C10.268 12.3369 10.688 12.4014 10.6942 12.4018C10.8333 12.4093 10.9722 12.3992 11.1115 12.3921C11.33 12.3809 11.5433 12.3217 11.7363 12.2189C11.8604 12.1528 11.9192 12.12 12.0233 12.0543C12.0233 12.0543 12.0553 12.0327 12.1169 11.9868C12.2182 11.9114 12.2807 11.8583 12.365 11.7708C12.4271 11.7063 12.4804 11.6301 12.5217 11.5442C12.5803 11.4218 12.6394 11.1882 12.6629 10.9942C12.6808 10.846 12.6754 10.765 12.6735 10.7148C12.6702 10.6341 12.6035 10.5511 12.5305 10.5158L12.0943 10.3198C12.0943 10.3198 11.4423 10.036 11.0434 9.85401C11.0018 9.83504 10.9564 9.82626 10.9107 9.82348C10.8106 9.81734 10.6985 9.84344 10.6272 9.91859C10.6234 9.91708 10.5738 9.95999 10.0312 10.6174C10.0013 10.6531 9.93112 10.7309 9.80985 10.7236C9.79155 10.7224 9.77333 10.7197 9.75556 10.7151C9.70643 10.7021 9.65858 10.685 9.61178 10.6652C9.519 10.6258 9.48645 10.6109 9.42307 10.5836C8.9901 10.3945 8.59275 10.1414 8.24153 9.83174C8.14732 9.74878 8.05973 9.65946 7.96943 9.57193C7.65428 9.26646 7.39627 8.94156 7.20432 8.62108C7.19385 8.60361 7.17771 8.57833 7.16031 8.55006C7.1289 8.49899 7.09428 8.43824 7.08341 8.39653C7.05553 8.28621 7.12949 8.19756 7.12949 8.19756C7.12949 8.19756 7.31204 7.99799 7.39686 7.88946C7.47846 7.78498 7.5489 7.68283 7.59375 7.61001C7.6821 7.46798 7.71008 7.3212 7.66365 7.20796C7.45323 6.69497 7.23614 6.18476 7.0124 5.67744C6.96823 5.57733 6.83689 5.50458 6.71745 5.49079C6.67699 5.48611 6.63656 5.48142 6.59595 5.47875C6.49539 5.47385 6.39465 5.47493 6.29424 5.48198Z" fill="var(--fill-0, #FFFDDF)"/>
</g>
</g>
<defs>
<filter id="filter0_g_0_24" x="0.375732" y="0.375732" width="17.25" height="17.25" filterUnits="userSpaceOnUse" color-interpolation-filters="sRGB">
<feFlood flood-opacity="0" result="BackgroundImageFix"/>
<feBlend mode="normal" in="SourceGraphic" in2="BackgroundImageFix" result="shape"/>
<feTurbulence type="fractalNoise" baseFrequency="0.04444444552063942 0.04444444552063942" numOctaves="3" seed="7176" />
<feDisplacementMap in="shape" scale="2.25" xChannelSelector="R" yChannelSelector="G" result="displacedImage" width="100%" height="100%" />
<feMerge result="effect1_texture_0_24">
<feMergeNode in="displacedImage"/>
</feMerge>
</filter>
<clipPath id="clip0_0_24">
<rect width="18" height="18" fill="white"/>
</clipPath>
</defs>
</svg>
